<svg xmlns="http://www.w3.org/2000/svg" data-name="Layer 1" viewBox="0 0 94 78.875" x="0px" y="0px"><title>04</title><path d="M96.88,46.2c-.58-3.46-6.56-6.28-6.56-6.28l-3.06,2.67a8.92,8.92,0,0,1,3.53,3.61c.69,2.81-3.27,4.76-8.93,6.13a205.45,205.45,0,0,1,.51,20.62,37,37,0,0,0,8.46-3.27,15.38,15.38,0,0,0,3.88-3.25,9,9,0,0,0,2.29-6V47.19A3.75,3.75,0,0,0,96.88,46.2Z" transform="translate(-3 -18.45)"/><path d="M26.85,54.16c-9-1.11-17.25-3.26-17.64-8,0,0-.11-3.68,1.52-5.42a13.35,13.35,0,0,0-1.65.13A7.07,7.07,0,0,0,3,47a1.84,1.84,0,0,0,0,.19V60.37a9,9,0,0,0,2.29,6,15.38,15.38,0,0,0,3.88,3.25c2,1.08,6.53,3.46,17,5C25.06,70.73,23.52,62.46,26.85,54.16Z" transform="translate(-3 -18.45)"/><path d="M37.14,74c3.37,1.4,15,1.29,15.22,1.29l-.12-8.42-.18,0c-2.58-.49-12.49,0-17.83.13C34.6,70.47,35.88,73.5,37.14,74Z" transform="translate(-3 -18.45)"/><path d="M54.22,77c-11.48.74-17.16-1-17.16-1s-4.15-.9-4.65-9a4.89,4.89,0,0,1-1.62-.14c-.61-.55-.61-2.52,0-2.95a7,7,0,0,1,1.65-.2,13.61,13.61,0,0,1,2.7-7.64,6,6,0,0,1,3.2-2l.87-.23.16,0h0a3.89,3.89,0,0,1,.91-.12c1.49,0,14.41-.23,19.25-.32a8.8,8.8,0,0,0-5.45-3.47c-6.18-1.18-14.68-1.66-19.31-.4a9.71,9.71,0,0,0-2.92,1.35c-2.6,1.11-4,5.33-4.74,8.53a21.5,21.5,0,0,0-.71,5.43c0,.21,0,.43,0,.66s0,.44,0,.66a21.5,21.5,0,0,0,.71,5.43c.73,3.2,2.14,6.19,4.74,7.3a9.71,9.71,0,0,0,2.92,1.35,49.91,49.91,0,0,0,19.44.8,8.89,8.89,0,0,0,5.25-3.22A12.35,12.35,0,0,1,54.22,77Z" transform="translate(-3 -18.45)"/><path d="M52.19,63.52l-.12-8.32c-3.76,0-8,.05-11.45.09-4.36.86-6.1,4.49-6.43,8.34,5.39-.22,15.5-.29,17.87-.12Z" transform="translate(-3 -18.45)"/><path d="M78.26,50.43A18,18,0,0,0,76,50.35c-1.85.05-6.84.53-8.15,1.85l-1,1,2.31-.16a2.12,2.12,0,0,1,1.8.79h0a1,1,0,0,1,.08.13l.1.15h0A5.51,5.51,0,0,1,71.58,56c.08,1,.51,7.6.34,12.86h0a22,22,0,0,1-.54,5.66c-.48,1.58-2.94,1.94-4.4,2.11a4.64,4.64,0,0,0,4,2.22,57.42,57.42,0,0,0,7.71-1.06c.83-.17,2.3-2.05,2.38-4.25.1-2.8.22-6.92-.44-20.59C80.62,52.91,80.1,50.49,78.26,50.43Z" transform="translate(-3 -18.45)"/><path d="M70.3,73.42h0c.34-1.65.53-16.46-.7-19.09-3,.34-6,.6-8.66.8v0h-.32l-6.29,0a9.1,9.1,0,0,0-.05,1.08c0,1.23,0,4.24,0,7.5a10,10,0,0,1,2.22.55s1.5.34,1.49,1.56-1.44,1.56-3.69,1.33c0,4.16.06,7.85.06,7.85a17.34,17.34,0,0,0,6.27.79h0q3-.13,5.66-.35h0S69.86,75.31,70.3,73.42Z" transform="translate(-3 -18.45)"/><path d="M16.4,49.61A36.85,36.85,0,0,0,27,51.6s4.3-4.44,9.25-4.74,18,0,22.71,2.6a20.88,20.88,0,0,1,3.37,3.83h2.75s1.59-3.06,4.24-3.83a25.43,25.43,0,0,1,6-.76S92.16,38.13,93.23,32.16,89.56,15.63,79,19.15s-35.32,24-60.54,24.78a.64.64,0,0,1-.66-.72c.08-.48.52-1.11,2-1.55h0l.7-.17.3-.06a104.89,104.89,0,0,1,14-2.34l7.61-2.7s-13.66,0-22.63,2.14c-1.7.42-5.82,1.38-7.26,3.57a6.36,6.36,0,0,0-.88,3.3C11.8,46.71,12.75,48.4,16.4,49.61Z" transform="translate(-3 -18.45)"/></svg>