<svg xmlns="http://www.w3.org/2000/svg" xmlns:xlink="http://www.w3.org/1999/xlink" version="1.1" x="0px" y="0px" viewBox="0 0 100 125" style="enable-background:new 0 0 100 100;" xml:space="preserve"><g><path d="M80,38.8L49.3,21.2c1-1.1,1.7-2.5,1.7-4.2v-6c0-3.3-2.7-6-6-6H23c-3.3,0-6,2.7-6,6v6c0,2.1,1.1,3.9,2.7,5l-4.5,5.6   c-1.4,1.8-2.2,4-2.2,6.2V67v16v4c0,4.4,3.6,8,8,8h58c4.4,0,8-3.6,8-8V50.9C87,45.9,84.3,41.3,80,38.8z M21,11c0-1.1,0.9-2,2-2h22   c1.1,0,2,0.9,2,2v6c0,1.1-0.9,2-2,2H23c-1.1,0-2-0.9-2-2V11z M17,77h12c1.1,0,2-0.9,2-2s-0.9-2-2-2H17v-4h25v12H17V77z M83,87   c0,2.2-1.8,4-4,4H21c-2.2,0-4-1.8-4-4v-2h27c1.1,0,2-0.9,2-2V67c0-1.1-0.9-2-2-2H17V33.8c0-1.4,0.5-2.7,1.3-3.7L24,23h20.5L78,42.3   c3.1,1.8,5,5.1,5,8.7V87z"/><path d="M76.2,45.6L46,28.3c-0.6-0.4-1.4-0.4-2,0c-0.6,0.4-1,1-1,1.7v14c0,6.6,5.4,12,12,12h22c1.1,0,2-0.9,2-2v-3.5   C79,48.5,77.9,46.6,76.2,45.6z M75,52H55c-4.4,0-8-3.6-8-8V33.5l27.2,15.7c0.5,0.3,0.8,0.8,0.8,1.3V52z"/></g></svg>