<svg xmlns="http://www.w3.org/2000/svg" viewBox="0 0 169.61 199.5375" x="0px" y="0px"><title>Asset 15</title><g data-name="Layer 2"><g data-name="Layer 1"><path d="M136.66,75.49l1.87-.82h4.65a26.46,26.46,0,0,0,2.83.86c1.27.24,2.33,1.14,3.66,1.14a20.2,20.2,0,0,0,4.87,2,2.38,2.38,0,0,1,.82.51,18.62,18.62,0,0,0,4.21,2.34,30.64,30.64,0,0,1,5.3,3.31,7.83,7.83,0,0,1,2.86,4.37c.39,1.22.66,2.47,1,3.69.19.61.48,1.19.82,2v7.56a9.31,9.31,0,0,0-.76,2.21c-.27,3.17-2,5.72-3.4,8.43a4.13,4.13,0,0,1-.3.38c-.71,1.06-1.43,2.13-2.14,3.2-.44.67-.82,1.39-1.31,2-1.08,1.4-2.12,2.84-3.89,3.51a3,3,0,0,0-1.66,1.68,3.4,3.4,0,0,1-1.57,1.79c-1.36.64-2.2,1.89-3.64,2.77a35.25,35.25,0,0,1-3.87,1.26c-1.4.3-2.91.11-4.23.87H138.4c-1-.31-1.91-1-2.91-.84L132.93,128l-1.82.9-2,.1a60.91,60.91,0,0,1-8.73-3.8,6,6,0,0,0-1.74-.82c-1.94-.35-3.49-1.65-5.34-2.16-1.71-.46-3.31-1.21-5-1.65a32.55,32.55,0,0,0-3.86-.54l-3.75-2.41c-1.39-1.58-3.31-2.88-4.18-5l-1.22.24C95.11,115,93.87,117,94,119.34c.06,1.19-.85,2.11-.83,3.26,0,1.82-1.32,3.32-1.17,5.16-.54,1.5-.95,3-1.58,4.53a14.48,14.48,0,0,0-.53,2.74c-.47,1.45-1.78,3-1.89,5-1.66,3.29-2.69,6.86-4.58,10.06A9.8,9.8,0,0,1,80.86,153l-2,.39L76,155.94l-2.43.27-5.57,2.61c-1.52.18-3,0-4.44.81-1.59-.7-3.37-.58-5.07-.66L55.77,158c-.3-.1-.69-.07-.92-.25-2.28-1.83-5.17-2.6-7.59-4.37l-2.62-3.84a7.3,7.3,0,0,1,.1-3.58,3.54,3.54,0,0,1,1.17-.55,16.75,16.75,0,0,1,2.28.08,5.57,5.57,0,0,1,1,.44,42.21,42.21,0,0,0,10.36,5,5,5,0,0,0,1.41.28,7.07,7.07,0,0,1,3.29.64,17.68,17.68,0,0,1,2.79-.55c1.94,0,3.88-.13,5.76-.21L75.44,150c-.6-1.61-1.59-2.92-1.92-4.53a2.93,2.93,0,0,0-1.52-1.8,31.63,31.63,0,0,0-6.4-2l-1.21.8a1.48,1.48,0,0,1-1.33-.26,3.38,3.38,0,0,1-1.12-1.54c-.2-.71-.84-.93-1.43-1.35A20.85,20.85,0,0,0,61,137c.08-.8,0-1.61,0-2.3-1-1-.95-.94-1.68-.57l-16.54,8.2-2.15.18a2.38,2.38,0,0,1-1.51-1.33l.21-1.33c-1.06-.66-2.2-.07-3.3-.19s-1.93-.11-2.87-.15a38.48,38.48,0,0,1-6.83-3.29L23,132.95a41.2,41.2,0,0,0-2.67-4.37c-1.56-2-1.9-4.39-2.86-6.58-.25-.56,0-1.32-.26-1.9-.45-1.2-1-2.34-1.65-3.65l-.26-3.32-.66-1.51v-5.14c.74-1.14.61-2.71,1.38-4A13.22,13.22,0,0,1,18.9,97a11.72,11.72,0,0,1,2.67-1.86l1.28-2.29c.82-.55,1.81-1.11,2.68-1.8s1.65-1.54,2.47-2.33a80.23,80.23,0,0,1,6.78-5.42c3.42-2.65,7.09-4.94,10.49-7.45.16-.67-.1-1.09-.6-1.15-1-.12-1.93-.11-2.87-.15-4.2-2.64-4.19-2.64-6.87-5.25-1.62-1.58-3.25-3.15-4.88-4.72-2.94-1.78-5-4.5-7.52-6.79a10.59,10.59,0,0,1-1.74-2.29c-1.52-.67-2.45-2.11-3.8-2.94a28.17,28.17,0,0,1-4.12-3.34,7.7,7.7,0,0,0-2.69-2,17.22,17.22,0,0,1-3.64-3.84A29.76,29.76,0,0,0,3.82,40c-.34-1.53-1.63-2.36-2.58-3.4L0,33.86V31a30,30,0,0,0,1.22-3.82A21.71,21.71,0,0,0,5.37,22.1a6.41,6.41,0,0,1,1.29-1.44c.69-.68,1.43-1.3,2.11-2a7.2,7.2,0,0,1,2.54-2.19c1.13-.39,1.8-1.4,2.82-1.83a21,21,0,0,1,3.09-1.33,25.91,25.91,0,0,0,4-1.71l2.31-.23,1.37-.77,3.31-.24,1.92-.78h9.39c2.75,1,5,2.61,7.71,3.28,2.39,1.31,5,2.19,7.18,3.94a11.19,11.19,0,0,0,2.54,1.36c2.66,1.18,4.87,3.13,7.55,4.27,1,.44,1.68,1.48,2.77,1.91s1.2,1.78,2.09,2.42a3.1,3.1,0,0,0,1.71-1.68c.91-1.93,2.61-3.26,3.7-5.06a35.66,35.66,0,0,1,3.65-5.1,32,32,0,0,0,2.18-3.17c.63-.93,1.26-1.86,1.93-2.76s1.39-1.77,2.35-3a44.4,44.4,0,0,1,9-5.09L99,.7l1.82-.7h6.59a9,9,0,0,0,2.46.73c1.84,0,3.35,1.19,5.17,1.15a4.81,4.81,0,0,1,1.35.47c1.37.44,2.52,1.5,4.06,1.43L124.67,6l1.23,2.05a8.29,8.29,0,0,1,.17,1,27.65,27.65,0,0,1-.17,5.32c-.84,1.4-.83,3.1-1.66,4.51a.67.67,0,0,0,.13.87c.21.19.5.11.84-.06,1.87-.95,3.74-1.88,5.82-2.93.41-.41,1-.94,1.53-1.56a14.48,14.48,0,0,1,8.13-4.87,16.43,16.43,0,0,0,1.74-.61l3.33.9c1,1,2.46.7,3.58,1.35.42.24.9.37,1.33.59.71.38,1.4.79,2.06,1.16l.92,1.32c.76.41,1.58.93,2.46,1.31a5.1,5.1,0,0,1,2.53,2.18,14.79,14.79,0,0,0,2.71,3.37c.68.69,1.31,1.43,1.94,2.14l3.38,6.68.24,2,1.8,3.93v9.93l-3.36,6.63c-.61.65-1.41,1.45-2.16,2.29s-1.23,1.47-2,2.35l-2,1-1.9-.5-6,5.79c-1.72.93-3.14,1.68-4.55,2.46a6.06,6.06,0,0,0-1.62,1c-1.22,1.34-2.93,2-4.22,3.2-.71.66-1.88.68-2.29,1.69-.34.84-1.27,1-1.83,1.64l-.06,1.37-1.74.15c-.69,2.16-.15,4.4-.22,6.39.35,1.41,1.37,2.53.38,3.84l-.94.21-1.14-1c-.23-.85-.45-1.78-.73-2.69s-.59-1.8-.9-2.72a3.72,3.72,0,0,0-1.39,2.89,9.25,9.25,0,0,1,.38.89,8.57,8.57,0,0,1,.19.93l-.4,1.36c.73,2.3.72,3.37,0,5.07-1.18.26-1.64.2-2.18-.39a14.66,14.66,0,0,1-.9-1.19c-.07-.94-.11-1.91-.23-2.86s.24-1.94-.35-2.82a2.24,2.24,0,0,0-1.38,1.53c0,1.73,0,3.67,0,5.6,0,2.1,0,4.2-.13,6.29,0,.39-.39.5-.68.28l-1.18-3.7c0-1,.06-2.12,0-3.24s.33-2.58-.37-3.89a4.87,4.87,0,0,0-2.62,2.77c0,3.07.13,6.3.13,9.53a9.56,9.56,0,0,0,.76,3.05c-.23,1.83.24,3.92-.19,6,0,.14-.19.25-.29.38l-1-.13a9.84,9.84,0,0,1-1.39-4,10.32,10.32,0,0,0-.84-2.53c-.05-2.95-.1-6.18-.19-9.41,0-.24-.28-.47-.43-.71-.69.39-1.55.48-2.08,1.14a1.32,1.32,0,0,0-.18.44c0,4.52,0,9,0,13.38.26.62.45,1.06.62,1.51a2.67,2.67,0,0,1-.27,1.84c-.12.38.11.86.13,1.3,0,.06-.25.17-.4.19a.71.71,0,0,1-.47-.06c-.84-.6-1-1.61-1.46-2.43-.43-2,.12-4.23-1-6-.05-2.4-.1-4.65-.16-6.91a.64.64,0,0,0-.25-.39c-.21-.17-.51-.11-.76.2s-.55.77-.72,1V100l.65,1.62c.07,2.85.14,5.76.23,8.66a4.77,4.77,0,0,0,.26,1,10.19,10.19,0,0,0,4.47,3.46c1.41.51,2.37,1.63,3.55,2.36l1.76.42a22.31,22.31,0,0,0,2.76,2.24,43.54,43.54,0,0,1,7,5.06c.16-.16.32-.24.36-.36.44-1.41,0-2.88.29-4.34.85-2.2,1.41-4.54,2.32-6.76s2.25-4.26,2.74-6.58c2.47-2.27,4.1-5.07,5.81-7.46.84-.66,1.51-1.11,2.09-1.66a13.74,13.74,0,0,1,3.34-2.75c1.31-.62,2.3-1.72,3.69-2.27a46.18,46.18,0,0,0,4.31-2.16c.51-.27,1-.6,1.5-.9-.15-.23-.2-.41-.32-.5-2-1.33-4-2.64-6-4s-4.19-2.36-6.15-3.77a15.59,15.59,0,0,0-2.12-1.13c-.4-.2-.82-.37-1.22-.54-.69.91.08,1.55.37,2.61,0,.79.1,1.91.15,3a2.62,2.62,0,0,1-.07,1,1.13,1.13,0,0,1-.55.67c-.25.08-.59-.11-.95-.19l-1.16-2c-.25-2.41-1.25-4.67-1.19-7.12a1.55,1.55,0,0,0-.14-.45C137.2,76.63,136.65,76.2,136.66,75.49Zm-107.55,20a30.89,30.89,0,0,1,3.29,1.71,32.73,32.73,0,0,1,2.54,2.22,6.17,6.17,0,0,0,.84.45,13.32,13.32,0,0,1,1.62,1,13.35,13.35,0,0,1,1.34,1.39c.54.6,1.11,1.18,1.59,1.82s.47,1.25,1.15,1.48c.92.3,1,1.22,1.4,1.86s.59,1.15,1,1.68c.83,1.22.4,2.9,1.52,4,.09.09.07.31.18.87v2.29l.86,1.88a92.9,92.9,0,0,1-.08,12.91c-.28.52-.44.8-.58,1.09a.88.88,0,0,0-.14.44,1.55,1.55,0,0,0,.24.86,1,1,0,0,0,.84.15c1.39-.55,2.09-2.06,3.41-2.64a8.26,8.26,0,0,0,2.66-2c.9-.95,2.31-1.14,3.16-2.18s2.08-1.5,3.1-2.28,2.16-2,3.29-2.86a9.84,9.84,0,0,1,1.74-.91c.73-.82,1.46-1.68,2.25-2.49a6.7,6.7,0,0,1,1.82-1.57,15.48,15.48,0,0,0,3.48-2.58c1.11-.92,2.32-1.72,3.41-2.67,1.7-1.48,3.14-3.27,5.24-4.24L83.6,104c1.48,0,2.82-1,4.26-1.65,1.19-1.09,2.37-2.2,3.57-3.27A14.2,14.2,0,0,1,93,97.92c1.19-.8,2.46-1.51,3.6-2.38s2.46-2.09,3.54-3c1.15-.62,2.15-1.13,3.13-1.69S105,89.5,106,89a13.34,13.34,0,0,0,2.52-2.24,5.17,5.17,0,0,1,1.11-.94c1.65-.79,2.78-2.19,4.11-3.36a5.69,5.69,0,0,1,1.15-.88c2-1,3.69-2.56,5.58-3.75s4-2.67,6-4a13.72,13.72,0,0,0,2.29-1.74c2.65-2.58,5.2-5.29,8.35-7.31a26.27,26.27,0,0,1,4.93-3.87c1.86-1.26,3.73-2.5,5.7-3.6a27.4,27.4,0,0,0,5.58-4.47c.77-.82,1.26-.88,2.6-.36.25.1.51.17.82.27.61-1.57.14-3.23.49-4.82l.62-1.43v-5a7.19,7.19,0,0,1-.65-2c0-1.68-.82-3.12-1.3-4.63a25.28,25.28,0,0,0-5.11-8.67,51.69,51.69,0,0,1-3.35-4.32,40.46,40.46,0,0,0-3.87-2.57c-1.4-.72-2.75-1.66-4.41-1.78-1,.9-1.19,2.25-2,3.5-1.14,1.09-2.17,2.55-3.85,3.34a3.18,3.18,0,0,0-1.34,1.35,7.64,7.64,0,0,1-1.43,1.92L122,36.18a1,1,0,0,1-.39.28A6.32,6.32,0,0,0,119,38.51a33.7,33.7,0,0,1-5.9,5,22.88,22.88,0,0,0-4.91,3.85,5.56,5.56,0,0,1-.73.58l-3.75,1.92L102.21,52c-2.37.93-4.32,2.66-6.58,3.87a16,16,0,0,0-2.47,1.48,3.08,3.08,0,0,1-1.27.64,5.71,5.71,0,0,0-2.16,1c-3.07,2-6.11,4.15-9.18,6.2A31,31,0,0,1,74,69a14.77,14.77,0,0,1-4.3,3.28,51.09,51.09,0,0,0-8,4.42c-1.2.79-2.71,1.12-3.63,2.34-1.43.42-2.44,1.53-3.65,2.24l-1.45.33-2.41,1.6a5.17,5.17,0,0,0-3,1.46,3.64,3.64,0,0,1-1.3.58,9,9,0,0,0-4.58,2.52,8.68,8.68,0,0,1-2.85,1.79A48.38,48.38,0,0,0,31.39,94C30.73,94.42,30.06,94.85,29.11,95.48ZM48.56,61.14a18.74,18.74,0,0,1-2.22.6.91.91,0,0,1-.72-.46,1,1,0,0,1,.08-.88,4.53,4.53,0,0,1,1.51-1.16,20.92,20.92,0,0,0,2.27-.77c1-.51,2.07-.85,3.12-1.27,1.81.09,3.33-1.21,5.17-1,.39,0,.83-.38,1.19-.56.11-.88.46-1.71-.47-2.25a4.14,4.14,0,0,0-1.43,0,9.39,9.39,0,0,1-3.74.84,6.82,6.82,0,0,0-2.32.58,6.33,6.33,0,0,1-4.2,0c0-.11,0-.29.1-.33.84-.47,1.69-.9,2.53-1.36a60.48,60.48,0,0,1,5.77-2.38c1.55-.65,3.24-.12,4.61-.85a2.37,2.37,0,0,0,1-3.09c-1.24-.79-2.39,0-3.5.39l-4.4.38c-1.24.81-2.79.67-4.07,1.34-.36-.7-.37-1,0-1.22,1.29-.64,2.56-1.35,3.9-1.9,1.18-.49,2.42-.81,3.72-1.23l4-.23c.58-.61,1.69-.55,2.47-1.52-.09-.84,1.05-1.42.87-2.51a2.15,2.15,0,0,0-.26-.37,1.29,1.29,0,0,0-1.35-.22c-1.51.58-3.21.56-4.62,1.23s-3.17.45-4.65,1.23a2.81,2.81,0,0,1-3.15-.13c.83-1.15.88-1.23,1.31-1.34a16.31,16.31,0,0,0,1.87-.45,29.09,29.09,0,0,1,3.53-1.5c1.41-.34,2.64-1.23,4.12-1.29a7.4,7.4,0,0,1,3.73-.83,5.44,5.44,0,0,0,1.26-.4c.43-.81.83-1.51,1.16-2.23a.66.66,0,0,0-.25-.84c-.12-.08-.29-.2-.41-.16a9.14,9.14,0,0,1-2.29.65c-2.32,0-4.4.89-6.52,1.56a9.85,9.85,0,0,1-4.24.46c-.14,0-.26-.19-.59-.45.87-.49,1.65-1,2.47-1.37A31.63,31.63,0,0,0,58,32.45c.86-.54,2-.35,2.71-1s2.19-.25,2.94-1.19c-.14-.1-.27-.28-.4-.28-2.09,0-4.19,0-6.08,0a11.57,11.57,0,0,1-1.51.71.92.92,0,0,1-1.17-.37,2,2,0,0,1,1.42-1.21c1.72-.33,3.28-1.11,5-1.53-.25-.36-.38-.7-.62-.87-1.87-1.25-4-2.06-5.79-3.45-1.82-.21-3.24-1.38-4.89-2-.3-.11-.66,0-1-.16-1.62-.69-3.4-1-4.95-1.85a31.54,31.54,0,0,0-7.27-2.91c-1.46,0-3.07-.09-4.69-.08-1.29,0-2.58.12-3.79.18a4.73,4.73,0,0,1-1.39.65c-1.32.11-2.42.86-3.67,1.11s-2.2,1.3-3.33,1.9a6.81,6.81,0,0,1-1.29.65c-1.61.45-2.71,1.72-4.07,2.56a28,28,0,0,0-3.69,3.12c-1.2,1.06-2.38,2.15-3.57,3.23C5.8,31.41,4.19,32.89,4,35.24a11.76,11.76,0,0,0,2,2,31,31,0,0,1,4.08,3.39A37.14,37.14,0,0,0,16,44.68a24.79,24.79,0,0,1,3.28,2,19.94,19.94,0,0,0,3.59,2.42c1.48.71,2.57,1.92,4,2.67,1.26.66,2.11,2,3.5,2.54,2.11,2,4.69,3.43,6.75,5.49.69.69,1.37,1.38,2.11,2s1.81,1.33,2.72,2,1.52,1.7,2.66,2a5.12,5.12,0,0,0,2.84-.47,19.44,19.44,0,0,1,3.64-1.22A22.44,22.44,0,0,1,54,63.94a3,3,0,0,0,.85-.37c.47-1,1.36-1.81,1.25-3.06-1.29-1.05-2.41-.15-3.61.34Zm69.57-50-.86-1a30.11,30.11,0,0,1-4-1.65c-1.43-.83-3.16-.7-4.49-1.66l-3.21-.27-1.8-.78h-9.2a24.05,24.05,0,0,1-3.4.89,10.38,10.38,0,0,0-3.6,1.33,3.59,3.59,0,0,0-1.42,1.28A31.51,31.51,0,0,0,82.38,17c-.61,2.16-1.72,4.15-2.13,6.37A49.27,49.27,0,0,0,78,28.72c-.9,2.23-2,4.37-2.83,6.64A66,66,0,0,1,72,41.85c-.93,1.87-1.87,3.74-2.8,5.61A10.37,10.37,0,0,0,68,50.08a16.58,16.58,0,0,1-1.58,4c-.59,1.32-1.29,2.59-1.92,3.89a64.61,64.61,0,0,1-3.4,5.8.58.58,0,0,0,.23.84,1.43,1.43,0,0,0,.88.11,2.72,2.72,0,0,0,.82-.48c3.32-2.26,6.54-4.68,9.86-6.95,3.05-2.09,5.9-4.47,9.07-6.38A7.31,7.31,0,0,0,83.12,50a18.46,18.46,0,0,1,3.2-2.15,70.83,70.83,0,0,0,8.41-5.62,30.68,30.68,0,0,1,4.82-3,35,35,0,0,1,3.76-3.17A19.75,19.75,0,0,0,106,34a19.89,19.89,0,0,1,3.65-3.15c1.56-.85,2.62-2.35,4.29-3.11a5.35,5.35,0,0,0,2.48-2.55V19.36l.72-1.68.28-4C117.63,12.67,118.28,12,118.13,11.11ZM163,93.77a15.06,15.06,0,0,0-.9-1.21,5,5,0,0,0-.82-.6l-1.52.13c-1.11,1-2.31,2.1-3.47,3.2s-2,2.05-3.13,3c-.83.74-1.76,1.39-2.64,2.07a9.41,9.41,0,0,1-2.41,3,6.74,6.74,0,0,0-1,1.08c-.76,1.23-1.73,2.33-2.41,3.57-1.47,2.65-2.7,5.43-4,8.16,0,1.17-.84,2.11-.92,3.21a30.31,30.31,0,0,1-.94,3.69,1.39,1.39,0,0,0,.07.46c1.61.8,1.61.8,6.59.47,2.1-.85,4-2,5-4.17A13.13,13.13,0,0,1,152,118a40.15,40.15,0,0,0,4.35-6.88,52.2,52.2,0,0,0,1.93-4.9c.57-1.65,1.68-3.12,2.22-4.78a45.6,45.6,0,0,1,2.34-5.33ZM35.94,120.37a14.76,14.76,0,0,1-.13-2.35c.14-1.51-.7-2.78-.91-4.18-.16-1-.95-1.64-1.42-2.46-.65-1.11-1.45-2.12-2.12-3.2a15.33,15.33,0,0,0-4.27-4.49,13.42,13.42,0,0,1-4.29-4.47,5,5,0,0,0-1-1c-1.23,1.37-1.72,3.06-2.47,4.93v6.22c.38,1,.67,1.75.93,2.51.46,1.36.81,2.76,1.38,4.07,1.72,4,3.51,7.91,6.2,11.12,1.54,1.19,2.93,2.28,4.33,3.34a4.47,4.47,0,0,0,.86.4,3.21,3.21,0,0,0,2.37-.25c.64-1.05.63-2.41,1.26-3.45V122Zm36.13,6.75a6.16,6.16,0,0,0-3.94,2.34c1,1.79.43,3.81.9,5.68.56.77.47,1.9,1.26,2.39l2.95.72c.06-.09.22-.21.24-.35a7.1,7.1,0,0,0-.21-3.79,8.36,8.36,0,0,1-.56-2.82c-.05-1.13-.08-2.26-.19-3.38C72.5,127.63,72.23,127.38,72.07,127.12Zm6.53,8.83a6.9,6.9,0,0,0-.33-2.33,9.36,9.36,0,0,1-.74-4.22c-.07-1.77-.07-3.54-.15-5.3,0-.27-.28-.53-.43-.8-1.18-.12-1.68.72-2.2,1.53-.35,1.21.43,2.17.63,3.07.31,2.39,0,4.67,1,6.82a5.66,5.66,0,0,1,.17,1.91c.06,1.12.1,2.24.14,3.38l1.21,1.43H79a9.32,9.32,0,0,0,.35-4.21Zm2.17-3.31a2.5,2.5,0,0,0,1.47-1.77c.27-.91.11-1.92.64-2.76a3.44,3.44,0,0,0,.25-3.22,14,14,0,0,1-.84-4.65c0-.21-.31-.39-.48-.59A5.3,5.3,0,0,0,79.38,122l.21,8.07Zm26.33-22.5c.16-.2.48-.41.48-.63q0-4.82-.09-9.65c0-.28-.26-.56-.39-.84a1.27,1.27,0,0,0-1.28.71c0,2.42-.09,5-.12,7.56,0,.48.06,1,.09,1.4A2.87,2.87,0,0,0,107.09,110.14Zm-43.81,22c-.36,2.82-.34,3.39.14,4.4,1.39,1.24,1.79,1.29,3.28.43a2.7,2.7,0,0,0,0-.95,32.86,32.86,0,0,1-1.12-4.6c0-.09-.2-.15-.3-.22Zm40-25.66c.81-1.31.44-2.74.34-4.14,0-.14-.17-.26-.26-.39l-1-.13L100,104a6,6,0,0,0,2.34,2.42ZM53,68.17c-.87-.67-1.85-.36-2.79-.3a6.52,6.52,0,0,0-2.51,1.51l1.27,1.42c1-.18,2,.06,3-.52A9.61,9.61,0,0,0,53,68.17Zm34.72,46.46A11.87,11.87,0,0,0,84.31,118c0,1.06.07,2.16.16,3.25,0,.42.26.56.53.42a10.39,10.39,0,0,0,1.15-2.48,7.06,7.06,0,0,1,1.51-2.89,3.11,3.11,0,0,0,.39-.84A.62.62,0,0,0,87.69,114.64Z"/></g></g></svg>