<svg xmlns="http://www.w3.org/2000/svg" xmlns:xlink="http://www.w3.org/1999/xlink" xml:space="preserve" version="1.1" style="shape-rendering:geometricPrecision;text-rendering:geometricPrecision;image-rendering:optimizeQuality;" viewBox="0 0 846.66 1058.325" x="0px" y="0px" fill-rule="evenodd" clip-rule="evenodd"><defs><style type="text/css">
   
    .fil0 {fill:black}
   
  </style></defs><g><path class="fil0" d="M279.22 658.62c-0.03,-0.09 36.21,83.74 -15.35,86.19 -7.63,0 -10.18,10.17 -5.09,12.71 27.96,22.88 58.47,2.54 63.56,10.17 17.8,30.51 50.85,27.97 78.82,50.85 5.08,2.54 12.71,-2.54 12.71,-10.17 -2.55,-7.63 -7.63,-17.8 -15.26,-25.43 17.8,2.55 25.43,2.55 45.77,15.26 7.63,5.09 15.26,-5.08 10.17,-10.17 -50.85,-81.36 -116.95,-17.8 -122.04,-119.5 30.51,2.54 59.1,5.28 92.74,1.66 20.35,27.97 46.12,49.79 6.2,71.02 -10.17,5.09 10.39,21.4 20.56,16.31 5.08,0 20.34,-7.63 22.88,-5.09 10.17,22.89 71.19,30.51 81.36,45.77 7.62,5.08 15.25,-2.54 12.71,-7.63 -5.08,-12.71 -12.71,-22.88 -20.34,-33.05 12.71,2.55 22.88,7.63 38.14,15.26 5.08,5.08 12.71,-2.54 10.17,-7.63 -22.88,-68.64 -80.92,-22.06 -124.14,-103.42 180.52,-38.14 284.32,-181.34 294.49,-361.86 33.05,-10.17 96.61,-40.68 22.88,-45.77 63.56,-5.08 15.67,-29.14 -20.34,-40.68 -22.89,-99.15 -94.08,-177.97 -198.32,-185.6 -162.72,-7.63 -142.38,104.24 -208.49,142.38 -86.45,48.31 -140.17,-1.55 -221.2,119.5 -22.76,32.6 -141.79,-10.88 -94.07,50.85 -10.17,7.63 -12.72,17.8 -7.63,27.97 -33.06,10.17 -12.72,35.59 2.54,53.39 91.53,119.49 46.85,184.21 236.57,236.71zm482.96 -432.49c-40.68,15.26 -35.6,40.68 0,58.48 10.17,-2.54 27.97,-7.63 38.14,-15.26 -61.02,0 -55.4,-24.53 -2.01,-29.62 -2.91,-1.94 -21.24,-8.66 -36.13,-13.6zm-10.18 71.21c-10.17,256.79 -226.28,404.26 -465.28,345.78 -180.52,-45.77 -137.29,-109.33 -233.91,-231.37 -43.38,-50.42 25.45,-14.92 5.09,-43.22 -18.55,-23.01 24.3,-16.38 10.17,-30.51 -49.82,-39.03 48.38,-1.48 83.9,-38.14 77.6,-117.41 132.21,-66.11 218.66,-116.96 68.65,-38.14 45.77,-147.47 200.86,-139.84 96.61,5.09 157.63,81.36 183.06,170.35 -50.85,20.34 -45.76,61.02 -2.55,83.91zm-122.03 -119.51c22.88,0 38.97,17.8 38.97,40.68 0,20.34 -16.09,38.14 -38.97,38.14 -22.88,0 -38.39,-17.8 -39.05,-38.14 0,-22.88 16.17,-40.68 39.05,-40.68zm-264.43 378.83c157.64,-22.88 76.28,-134.75 172.89,-175.43 7.63,-5.09 15.26,10.17 5.09,15.26 -88.99,38.14 0,165.26 -203.4,177.98 -26.23,-1.79 12.71,-18.64 17.8,-33.06 -40.68,22.88 -86.45,30.51 -122.04,-7.63 -10.99,-16.48 11.01,-13.27 25.43,-22.89 -22.88,2.54 -45.77,2.54 -61.02,-15.26 -7.27,-16.07 20.41,-12.79 35.59,-33.05 -43.72,-0.57 -65.84,-40.58 -43.22,-43.22 55.94,-5.09 73.73,-122.04 203.4,-106.79 7.63,0 7.63,15.26 -2.54,15.26 -119.5,-15.26 -124.58,86.45 -190.69,104.24 13.47,23.58 50.86,9.78 50.86,27.97 -2.71,13.78 -18.15,24.41 -33.05,33.05 13,6.41 48.53,3.87 63.56,2.54 30.32,-0.72 -9.72,28.3 -27.96,35.59 38.14,27.97 81.36,7.63 114.41,-17.8 7.63,-2.54 15.26,2.54 12.71,10.17 -2.03,8.11 -12.11,27.36 -17.82,33.07zm282.22 -353.41c-29.95,-25.44 -57.33,21.5 -22.88,35.6 -10.83,-16.91 -0.11,-38.14 22.88,-35.6zm-228.82 566.98c-48.31,-40.68 -96.62,0 -101.7,-104.24 -7.05,-0.81 -14.49,-2.31 -19.55,-3.9 10.17,30.51 20.07,69.39 -5.88,90.34 15.26,0 33.05,-12.71 43.22,7.63 17.8,22.88 30.51,20.34 48.31,27.97 -5.09,-7.63 -15.26,-15.26 -20.34,-17.8 -12.71,-7.63 -2.54,-20.34 5.09,-15.26 17.8,10.17 33.05,10.17 50.85,15.26zm22.88 -101.7c17.8,22.88 43.22,50.85 15.26,73.73 10.17,-5.09 22.88,-10.17 30.51,2.54 10.17,12.71 33.05,17.8 50.85,25.43 -7.63,-10.17 -17.8,-15.26 -30.51,-20.34 -7.63,-2.54 -2.54,-17.8 5.09,-15.26 20.34,7.63 40.68,7.63 58.48,15.26 -22.88,-27.97 -73.73,-5.09 -114.41,-83.9 -3.16,0.66 -9.79,1.77 -15.27,2.54z"/></g></svg>