<svg xmlns="http://www.w3.org/2000/svg" xmlns:xlink="http://www.w3.org/1999/xlink" version="1.1" x="0px" y="0px" viewBox="0 0 122.97 113.0625" style="enable-background:new 0 0 122.97 90.45;" xml:space="preserve"><g><path d="M55.305,41.148c-0.152-0.774-0.599-1.451-1.227-1.856c-2.643-1.711-6.216-2.969-10.073-4.224   c-4.52,6.133-6.723,11.559-7.64,14.292c-0.421,1.253-1.442,2.214-2.732,2.57C16.895,56.556,8.82,60.135,6.896,61.041   c-0.345,2.683-0.818,5.912-1.503,9.913c-0.202,1.179,0.291,2.354,1.254,2.994c5.909,3.929,10.883,5.108,15.271,6.149   c3.922,0.93,7.627,1.809,11.284,4.431c0.75,0.537,1.658,0.73,2.489,0.52c6.088-1.512,10.815-5.538,15.387-9.432   c3.279-2.792,6.375-5.429,9.847-7.069c0.97-0.458,1.433-1.537,1.077-2.51C58.486,56.431,56.147,45.432,55.305,41.148z    M46.782,64.23c-0.196,0.205-0.459,0.309-0.722,0.309c-0.249,0-0.498-0.092-0.691-0.277c-0.399-0.383-0.413-1.016-0.031-1.414   c3.661-3.823,3.731-8.18,3.732-8.223c0.003-0.55,0.451-0.995,1-0.995c0.001,0,0.002,0,0.003,0c0.551,0.002,0.997,0.447,0.997,0.998   C51.069,54.837,51.021,59.804,46.782,64.23z"/><path d="M28.183,29.942c-4.115,2.513-6.667,4.139-8.718,5.444c-2.55,1.624-4.392,2.798-7.552,4.6   c-1.374,0.784-2.39,2.141-2.788,3.721c-0.846,3.357-1.047,5.628-1.353,9.064c-0.146,1.639-0.315,3.543-0.591,5.939   c3.201-1.418,11.212-4.643,25.921-8.708c0.648-0.18,1.16-0.657,1.369-1.279c0.928-2.765,3.111-8.171,7.53-14.304   c-3.923-1.263-7.965-2.58-11.793-4.453C29.51,29.626,28.716,29.615,28.183,29.942z"/><path d="M90.603,52.874c-4.06-6.635-7.647-8.223-10.812-9.624c-5.765-2.553-9.125-4.973-10.336-24.073   c-0.686,0.118-1.367,0.275-2.031,0.512c-8.397,2.998-16.429,11.692-19.068,14.75c2.543,0.921,4.876,1.923,6.809,3.173   c1.08,0.699,1.846,1.847,2.102,3.149c0.833,4.237,3.146,15.115,6.611,24.588c0.571,1.56,0.095,3.238-1.091,4.313   C64.517,71.88,67.342,75.45,70,75.45h19c3.076-0.061,5.649-1.6,7.224-4.332c2.089-3.626,2.909-7.97,3.743-12.954   c-0.226,0.014-0.454,0.032-0.676,0.032C95.726,58.196,92.75,56.384,90.603,52.874z"/><path d="M42.927,32.617c1.155,0.372,2.294,0.738,3.403,1.112c2.062-2.477,10.826-12.497,20.423-15.922   c1.056-0.376,2.144-0.616,3.242-0.735c-0.763-1.223-1.266-2.191-1.69-3.012c-0.255-0.493-0.482-0.935-0.729-1.351   c-0.2-0.338-0.369-0.645-0.522-0.923c-0.837-1.521-1.036-1.881-4.116-2.393l-0.415-0.068c-7.352-1.222-8.677-1.441-17.572-1.876   C44,7.396,42.812,8.015,42.234,8.843c-5.178,7.417-9.541,14.035-10.483,19.626C35.364,30.165,39.201,31.419,42.927,32.617z    M38.503,23.583c0.104-0.056,10.499-5.646,14.939-9.785c0.403-0.377,1.037-0.355,1.413,0.05c0.376,0.403,0.354,1.036-0.05,1.413   c-4.63,4.316-14.922,9.852-15.358,10.086c-0.15,0.08-0.312,0.118-0.471,0.118c-0.357,0-0.702-0.191-0.882-0.527   C37.833,24.45,38.016,23.845,38.503,23.583z"/><path d="M87.319,16.606c-1.997,1.389-3.977,3.286-5.061,4.38c4.981,3.095,11.842,7.691,17.976,12.957l7.713-5.577   c-0.078-0.188-0.154-0.376-0.23-0.567c-1.243-3.106-2.944-7.36-16.917-11.721C89.623,15.71,88.322,15.908,87.319,16.606z"/><path d="M63.266,7.421c3.881,0.645,4.47,1.458,5.54,3.4c0.144,0.262,0.302,0.55,0.491,0.868c0.265,0.447,0.511,0.921,0.785,1.452   c0.516,0.998,1.155,2.228,2.269,3.886c2.357,0.134,4.7,0.821,6.828,2.086c0.415,0.246,0.863,0.516,1.329,0.798   c0.726-0.748,2.076-2.087,3.642-3.39c-9.072-0.491-12.093-8.834-12.125-8.929c-0.18-0.522,0.097-1.091,0.619-1.271   c0.524-0.178,1.091,0.097,1.271,0.618c0.133,0.38,3.256,8.914,13.298,7.458c1.308-0.564,2.802-0.661,4.183-0.228   c2.064,0.644,3.871,1.291,5.469,1.936c-0.567-1.447-0.993-2.856-1.283-3.941c-0.413-1.541-1.372-2.915-2.701-3.869   C87.53,4.455,80.747,1.745,77.18,0.472c-2.008-0.717-4.208-0.612-6.036,0.285c-4.124,2.026-7.322,4.842-8.984,6.48   c0.229,0.038,0.449,0.074,0.691,0.115L63.266,7.421z"/><path d="M6.136,48.965c0.215-1.827,0.506-3.588,1.049-5.746c0.53-2.105,1.892-3.917,3.736-4.969   c3.118-1.779,4.943-2.941,7.469-4.55c2.058-1.312,4.619-2.942,8.75-5.465c0.775-0.474,1.739-0.624,2.695-0.462   c0.35-1.83,1.022-3.737,1.927-5.716c-3.69,0.077-7.858-0.677-10.209-1.183c-1.002-0.212-2.02-0.046-2.863,0.475   C12.599,25.111,5.195,32.102,2.132,35.273c-0.957,0.99-1.34,2.354-1.025,3.645C2.116,43.056,4.545,46.819,6.136,48.965z    M17.954,26.451c0.036-0.002,3.598-0.14,5.721-0.997c0.513-0.207,1.096,0.041,1.302,0.553c0.207,0.512-0.041,1.095-0.553,1.301   c-2.451,0.99-6.238,1.136-6.398,1.142c-0.012,0.001-0.024,0.001-0.036,0.001c-0.536,0-0.979-0.425-0.999-0.964   C16.971,26.934,17.402,26.471,17.954,26.451z"/><path d="M122.154,38.183c-0.105-1.522-1.063-2.857-2.44-3.399c-2.299-0.906-4.792-1.322-4.817-1.327   c-3.495-0.65-5.079-1.855-6.03-3.286l-7.091,5.127c0.686,0.615,1.363,1.235,2.02,1.864c1.648,1.58,2.231,4.037,1.483,6.261   c-1.657,4.929-2.419,9.526-3.156,13.973c-0.088,0.533-0.176,1.052-0.263,1.572c4.647,2.475,6.026,2.058,7.355,1.649   c0.978-0.302,1.863-0.571,2.675-0.817c4.563-1.387,6.646-2.02,9.588-3.73c0.947-0.551,1.518-1.564,1.491-2.645   C122.849,48.671,122.406,41.835,122.154,38.183z M119.861,51.99c-0.194,0.28-0.506,0.431-0.823,0.431   c-0.196,0-0.395-0.058-0.568-0.178c-9.585-6.641-9.549-8.525-7.991-13.48c0.168-0.534,0.35-1.111,0.527-1.749   c0.148-0.532,0.698-0.845,1.231-0.694c0.532,0.147,0.843,0.699,0.695,1.231c-0.184,0.66-0.372,1.259-0.546,1.813   c-1.236,3.931-1.609,5.117,7.222,11.235C120.063,50.913,120.176,51.536,119.861,51.99z"/><path d="M102.412,38.604c-8.034-7.701-18.645-14.44-24.254-17.772c-1.907-1.133-4.008-1.735-6.114-1.821   c-0.164,0.036-0.328,0.02-0.487-0.025c-0.037,0-0.073-0.002-0.11-0.002c1.188,18.897,4.373,20.321,9.153,22.437   c3.262,1.444,7.322,3.242,11.708,10.41c1.976,3.228,4.672,4.654,8.001,4.284c0.68-4.077,1.49-8.618,3.074-13.329   C103.885,41.292,103.504,39.651,102.412,38.604z M91.239,38.617c-0.022,0-0.045-0.001-0.068-0.002   c-6.103-0.409-8.563-2.177-8.665-2.252c-0.445-0.327-0.54-0.953-0.211-1.398c0.326-0.441,0.946-0.538,1.391-0.217   c0.045,0.032,2.216,1.509,7.619,1.871c0.551,0.037,0.968,0.514,0.931,1.065C92.2,38.212,91.761,38.617,91.239,38.617z"/><path d="M110.01,81.529c-2.336,0-5.026,1.413-5.18,2.061c0.002,0.755,1.64,1.54,5.299,1.54c1.773,0,2.832-0.576,2.832-1.541   C112.96,82.733,112.045,81.529,110.01,81.529z"/><circle cx="110" cy="73.45" r="1"/><ellipse cx="92" cy="83.95" rx="2" ry="1.5"/><path d="M76.295,84.95c-1.912,0-4.206,1.227-4.332,1.768c0.001,1.648,2.774,1.732,3.331,1.732c1.548,0,2.706-0.792,2.706-1.5   C78,86.038,77.704,84.95,76.295,84.95z"/><path d="M59.881,81.238c-0.411-0.327-0.898-0.504-1.383-0.504c-0.036,0-0.072,0-0.107,0.002c-0.476,0.026-0.886,0.226-1.154,0.563   c-0.583,0.731-0.344,1.894,0.531,2.591c0.441,0.352,0.969,0.52,1.49,0.502c0.476-0.026,0.886-0.226,1.154-0.563   C60.994,83.098,60.756,81.935,59.881,81.238z"/><path d="M6.956,84.277C4.531,84.277,4,84.763,4,84.95c0,0.449,0,1.5,2.5,1.5c1.473,0,2.5-0.79,2.5-1.5   C9,84.619,9,84.277,6.956,84.277z"/><circle cx="1" cy="76.45" r="1"/><circle cx="17" cy="89.45" r="1"/></g></svg>