<svg xmlns="http://www.w3.org/2000/svg" xmlns:xlink="http://www.w3.org/1999/xlink" version="1.1" x="0px" y="0px" viewBox="0 0 100 125" enable-background="new 0 0 100 100" xml:space="preserve"><path fill="#000000" d="M87.2 42.2c-17.1-9.1-34.1 6.1-36.8 7c-14.8 5.4-21.5-5.2-22-15c-0.5-11.4-7.6-16-7.6-16 c8.9-3-0.4-2.6 3.9-5.2c4.3-2.6-3.5-0.2-3.5-2.4c0-2.2-4.5 3.5-4.5 0.9c0-2.6-2.4 3.7-4.1 1.5c-1.7-2.2-0.2 3.9-2.6 3.7 C7.6 16.5 9.4 21 9.4 21s5 0.4 2.8 1.5c-2.2 1.1-5.3 6.3-3.7 5c1.1-0.9 4.3-0.9 4.8 0.9c0.4 1.7-8 5.7-7.3 19.4 c0.6 13.4 12.1 13.4 15.6 23.1c2.8 10.4 0.7 14.5-0.5 16c-2.8 0.4-7.9 1.4-8.4 4.3c1.8-1.1 4.1-2 6.1-2.6c-1.4 1-2.9 2.3-3.2 3.7 c1.5-1.2 3.3-2.3 4.9-3.1c-0.9 1.2-1.7 2.4-1.7 3.3c2-1.6 3.2-2.9 3.9-3.6c0.2 0.3 0.4 1.2 0.7 3.4c1.4-2.4 1.2-4.8 1-6 c0.8-0.6 1.5-1.2 1.6-1.4c0.2-0.2-0.6 0-1.8 0.5c0.2-1.5 1.9-16.3 4.3-14.4c7.4 5.9 6 10.9 5 13.1c-1.9 0.4-4.8 1.3-5.5 3.3 C29 86.9 30 86.3 31 86c-1.4 1-2.8 2.3-3.1 3.6c1.4-1.2 3.2-2.3 4.7-3.1c0 0.1-0.1 0.1-0.1 0.2C31.7 87.8 31 89 31 89.8 c1-0.8 1.8-1.5 2.4-2.1c0.1 0 0.2 0 0.3-0.1c0.1 0 0.1 0 0.2 0c-0.6 1.6-1.4 3.2 0.1 1.5c0.8-0.9 1.2-1.6 1.5-2.3 c0.4-0.5 0.4-1.1 0.6-2.1c0.1-0.3 0.1-0.6 0.1-0.9c0.7-0.5 1.2-0.9 1.3-1.1c0.1-0.2-0.4 0-1.3 0.3c0.2-3.9-1.4-8.3-1.7-9.1 c-0.3-0.9-1.6-3.4 4.1-0.2c10.2 6.1 12.7-3 14.7-2.2c0.7 0.3 1.2 1.4-0.2 2.4c2.8-0.2 4-1.6 5.4-3.2c0 1.2 0.4 2.6-1.7 4.3 c9-1.6 7.5-13.4 9.3-9.7c1.1 2.4 0.7 5.3-2.2 10.4c7.7-3.6 6.7-17.1 7.9-14.3c1.1 2.9 1.2 8.6-1.2 13.5c5.2-3.2 5.4-10.6 5.4-13.2 c0-2.6-1.5-5.8 0.6-3.7C86.5 70.7 63 83 75.7 76.3c12.7-6.7 9-19.8 7.8-21.8c-0.7-1.4-1.6-4.4 0.6-2.4c10.8 12.5-2.5 28-2.5 28 C89.8 78.7 103.5 50.9 87.2 42.2"/></svg>