<svg xmlns="http://www.w3.org/2000/svg" xmlns:xlink="http://www.w3.org/1999/xlink" version="1.1" x="0px" y="0px" viewBox="0 0 90 112.5" enable-background="new 0 0 90 90" xml:space="preserve"><path d="M65.405,44.02L82.99,61.605l-0.003,0.003c5.446,5.673,1.257,18.842-0.652,20.751c-1.736,1.736-15.075,6.096-20.751,0.652  l-0.003,0.003L43.997,65.428c0,0,3.41-4.479,6.934-8.468c13.784,13.758,21.301,15.295,21.301,15.295s-1.537-7.517-15.295-21.301  C60.926,47.43,65.405,44.02,65.405,44.02z M47.765,50.519l-0.682,0.682c16.61,16.61,24.111,20.017,24.111,20.017  s-3.407-7.501-20.017-24.111l-2.921,2.921l4.711,4.711c-0.058,0.061-0.114,0.116-0.173,0.178l0.175-0.175l6.646,6.646  C56.34,58.984,47.765,50.519,47.765,50.519z M5.735,8.488l0.029-0.029c-1.145-1.404-0.863-2.48-0.863-2.48s0.088,0.651,1.338,2.006  L6.226,7.997l41.484,41.484l2.921-2.921L9.147,5.076L9.143,5.08c0,0,0,0,0,0C8.004,3.941,6.166,3.933,5.038,5.061  C3.91,6.189,3.918,8.027,5.056,9.166c0,0,0,0,0,0L5.052,9.171l41.484,41.484l0.683-0.683L5.735,8.488z"/></svg>