<svg xmlns="http://www.w3.org/2000/svg" xmlns:xlink="http://www.w3.org/1999/xlink" xml:space="preserve" style="shape-rendering:geometricPrecision;text-rendering:geometricPrecision;image-rendering:optimizeQuality;" viewBox="0 0 0.32185 0.4023125" x="0px" y="0px" fill-rule="evenodd" clip-rule="evenodd"><defs><style type="text/css">
   
    .fil0 {fill:black;fill-rule:nonzero}
   
  </style></defs><g><path class="fil0" d="M0.160925 0c0.0888583,0 0.160925,0.0720709 0.160925,0.160925 0,0.0888583 -0.0720669,0.160925 -0.160925,0.160925 -0.0888583,0 -0.160925,-0.0720669 -0.160925,-0.160925 0,-0.0888583 0.0720709,-0.160925 0.160925,-0.160925zm0 0.00509449c-0.0881378,0 -0.155831,0.0692913 -0.155831,0.155831 0,0.086063 0.0697598,0.155831 0.155831,0.155831 0.086063,0 0.155831,-0.0697677 0.155831,-0.155831 0,-0.0877953 -0.0680276,-0.155831 -0.155831,-0.155831zm7.87402e-006 0.0338386c0.0673622,0 0.121992,0.0546299 0.121992,0.121992 0,0.0673622 -0.0546299,0.122 -0.121992,0.122 -0.0673701,0 -0.122,-0.0546299 -0.122,-0.122 0,-0.0673622 0.0546339,-0.121992 0.122,-0.121992zm0 0.00509449c-0.0645709,0 -0.116906,0.0523307 -0.116906,0.116898 0,0.0645669 0.0523346,0.116902 0.116906,0.116902 0.0645669,0 0.116894,-0.0523346 0.116894,-0.116902 0,-0.064563 -0.0523346,-0.116898 -0.116894,-0.116898z"/><path class="fil0" d="M0.160925 0.0557047c0.0581024,0 0.10522,0.0471181 0.10522,0.10522 0,0.0581024 -0.0471181,0.10522 -0.10522,0.10522 -0.0581024,0 -0.10522,-0.0471181 -0.10522,-0.10522 0,-0.0581024 0.0471181,-0.10522 0.10522,-0.10522zm0 0.00509843c-0.0553031,0 -0.100122,0.0448189 -0.100122,0.100122 0,0.0553031 0.0448189,0.100122 0.100122,0.100122 0.0553031,0 0.100122,-0.0448189 0.100122,-0.100122 0,-0.0553031 -0.0448189,-0.100122 -0.100122,-0.100122z"/><path class="fil0" d="M0.156602 0.239854c0.00456693,0 0.00456693,-0.00694488 0,-0.00694488 -0.0373976,0 -0.0677087,-0.0303189 -0.0677087,-0.0677087 0,-0.00456693 -0.00694488,-0.00456693 -0.00694488,0 0,0.0412126 0.033437,0.0746535 0.0746535,0.0746535z"/></g></svg>