<svg xmlns="http://www.w3.org/2000/svg" viewBox="0 0 68 57.5" x="0px" y="0px"><path fill="#000000" d="M658,720 C657.337348,720 656,720 656,720 L656,716 C656,716 657.56824,716 658,716 C659.001027,716 659.427392,715.744181 660.585786,714.585786 C662.427392,712.744181 663.667693,712 666,712 C668.332307,712 669.572608,712.744181 671.414214,714.585786 C672.572608,715.744181 672.998973,716 674,716 C675.001027,716 675.427392,715.744181 676.585786,714.585786 C678.427392,712.744181 679.667693,712 682,712 C684.332307,712 685.572608,712.744181 687.414214,714.585786 C688.572608,715.744181 688.998973,716 690,716 C691.001027,716 691.427392,715.744181 692.585786,714.585786 C694.427392,712.744181 695.667693,712 698,712 C700.332307,712 701.572608,712.744181 703.414214,714.585786 C704.572608,715.744181 704.998973,716 706,716 C707.001027,716 707.427392,715.744181 708.585786,714.585786 C710.427392,712.744181 711.667693,712 714,712 C716.332307,712 717.572608,712.744181 719.414214,714.585786 C720.572608,715.744181 720.998973,716 722,716 C722.709501,716 724,716 724,716 L724,720 C724,720 722.751755,720 722,720 C719.667693,720 718.427392,719.255819 716.585786,717.414214 C715.427392,716.255819 715.001027,716 714,716 C712.998973,716 712.572608,716.255819 711.414214,717.414214 C709.572608,719.255819 708.332307,720 706,720 C703.667693,720 702.427392,719.255819 700.585786,717.414214 C699.427392,716.255819 699.001027,716 698,716 C696.998973,716 696.572608,716.255819 695.414214,717.414214 C693.572608,719.255819 692.332307,720 690,720 C687.667693,720 686.427392,719.255819 684.585786,717.414214 C683.427392,716.255819 683.001027,716 682,716 C680.998973,716 680.572608,716.255819 679.414214,717.414214 C677.572608,719.255819 676.332307,720 674,720 C671.667693,720 670.427392,719.255819 668.585786,717.414214 C667.427392,716.255819 667.001027,716 666,716 C664.998973,716 664.572608,716.255819 663.414214,717.414214 C661.572608,719.255819 660.332307,720 658,720 Z M670.159616,709.879329 C671.671655,699.783903 670.487559,690.901278 667.533588,683.372489 C666.826652,681.570719 666.072243,680.005565 665.322476,678.686982 C665.064327,678.232987 664.826882,677.844262 664.616703,677.522072 C664.497652,677.339574 664.418952,677.226039 664.38719,677.182727 C663.418418,675.861674 664.361799,674 666,674 C688.536178,674 704.089534,690.421472 705.836001,712.759532 C705.751235,712.678104 705.651465,712.580397 705.535534,712.464466 C703.050787,709.979719 701.092943,709 698,709 C694.907057,709 692.949213,709.979719 690.464466,712.464466 C690.262746,712.666186 690.109952,712.812731 690,712.914352 C689.890048,712.812731 689.737254,712.666186 689.535534,712.464466 C687.050787,709.979719 685.092943,709 682,709 C678.907057,709 676.949213,709.979719 674.464466,712.464466 C674.262746,712.666186 674.109952,712.812731 674,712.914352 C673.890048,712.812731 673.737254,712.666186 673.535534,712.464466 C672.350477,711.279409 671.285272,710.436693 670.159616,709.879329 L670.159616,709.879329 Z" transform="translate(-656 -674)"/></svg>