<svg xmlns="http://www.w3.org/2000/svg" xmlns:xlink="http://www.w3.org/1999/xlink" xmlns:serif="http://www.serif.com/" viewBox="0 0 64 80" version="1.1" xml:space="preserve" style="" x="0px" y="0px" fill-rule="evenodd" clip-rule="evenodd" stroke-linejoin="round" stroke-miterlimit="2"><g transform="matrix(1,0,0,1,-212,-281)"><g transform="matrix(1,0,0,1,-751.465,0)"><g><path d="M1011.47,334L1011.47,341L979.465,341L979.465,334L1011.47,334ZM1005.88,287.36L1015.47,291L1023.47,336L1012.47,337.833L1012.47,312L1011.47,312L1011.47,324L984.722,324L1005.88,287.36ZM985.054,287.36L992.001,299.392L979.465,321.105L979.465,312L978.465,312L978.465,337.833L967.465,336L975.465,291L985.054,287.36ZM1011.47,325L979.465,325L979.465,333L1011.47,333L1011.47,325ZM1004.93,287L1001.47,285L979.465,323.105L979.472,324L983.567,324L1004.93,287ZM986.001,287L989.465,285L994.888,294.392L992.578,298.392L986.001,287ZM999.156,287L991.775,287L990.62,285L1000.31,285L999.156,287Z"/></g></g></g></svg>