<svg xmlns="http://www.w3.org/2000/svg" xmlns:xlink="http://www.w3.org/1999/xlink" version="1.1" x="0px" y="0px" viewBox="0 0 100 125" enable-background="new 0 0 100 100" xml:space="preserve"><path fill="#000000" stroke="#000000" stroke-miterlimit="10" d="M138.606-28.069"/><path fill="#000000" stroke="#000000" stroke-miterlimit="10" d="M164.604-3.638"/><path d="M92.612,7.794l-0.059-0.058c-17.21,8.419-49.674,43.105-53.585,47.666c2.355,1.411,3.739,2.241,4.834,3.126l24.95-25.372  L45.014,59.673c0.954,1.035,1.87,2.362,3.425,4.625C52.748,60.104,84.771,26.114,92.612,7.794z"/><path d="M20.221,91.778c4.688-4.985,10.483-15.202,24.869-24.703l-5.121-3.295l-3.609-4.904  C25.427,75.198,5.278,91.411,5.278,91.411C6.032,93.738,14.458,94.157,20.221,91.778z"/><path d="M53.355,68.779c-3.715-1.104-5.406-4.051-5.142-4.249c-0.013-0.021-2.752-3.785-3.672-4.775  c-0.117-0.124-0.24-0.232-0.363-0.342c-0.015-0.015-0.032-0.028-0.047-0.045c-0.015-0.014-0.031-0.029-0.046-0.043  c-0.118-0.116-0.231-0.235-0.363-0.346c-1.04-0.859-4.957-3.38-4.978-3.392c-0.182,0.273-3.219-1.246-4.535-4.893  c-0.973-2.708-1.946,0.939-2.189,1.264c-0.484,0.634,4.778,6.354,4.59,6.583l3.681,4.818l0.043,0.028l0.032,0.042l5.02,3.399  c0.218-0.199,6.231,4.729,6.835,4.207C52.529,70.775,56.114,69.598,53.355,68.779z"/></svg>