<svg xmlns="http://www.w3.org/2000/svg" xmlns:xlink="http://www.w3.org/1999/xlink" version="1.1" x="0px" y="0px" viewBox="0 0 140 175" enable-background="new 0 0 140 140" xml:space="preserve"><g><path d="M69.9997864,57.7337685c0.2897949-1.1400146,1.3098145-2.0300293,2.5200195-2.1799316   c0.369873-0.0500488,2.2897949-0.2700195,5.3398438-0.4300537c0.7199707-0.0300293,1.4499512-0.0599365,2.1799316-0.0699463   c0.9001465-3.5300293,0.9501953-6.8200684,0.1401367-9.7900391L69.5097961,6.2738056   c-0.1000977-0.4000244-0.4301758-0.6800537-0.8400879-0.7299805c-0.1699219-0.0200195-17.7199707-2.1301267-33.3999023,2.1499023   C29.1496887,9.2738056,19.1096497,13.1037617,6.0395813,22.383791c-0.2797852,0.2099609-0.4697266,0.3399658-0.5197754,0.3699951   c-0.4101563,0.2299805-0.6101074,0.6999512-0.4802246,1.1398926l10.3300781,37.8100586l0.3100586,1.1800537   c3.1401367,11.4699669,18.5100098,17.8900108,30.8598633,21.2598839c1.5900879,0.4400635,3.2001953,0.6501465,4.8100586,0.6501465   c4.6501465,0,9.2099609-1.7900391,12.6401367-5.1000977L69.9997864,57.7337685z M67.0498352,30.0937519   c0.0898438,0.2800293,0.0498047,0.5799561-0.1000977,0.8299561c-0.0400391,0.0600586-0.8798828,1.4500751-2,2.9699726   c-1.1201172,1.5300293-2.7299805,2.6501465-4.5400391,3.1401367c-0.7099609,0.1999512-1.4499512,0.2999268-2.1799316,0.2999268   c-1.1401367,0-2.2700195-0.2299805-3.3300781-0.6900635c-1.7399902-0.7399902-3.1699219-1.5098877-3.2299805-1.539917   c-0.2600098-0.1400146-0.4499512-0.3800049-0.5100098-0.6700439c-0.0600586-0.2800293,0-0.5799561,0.1799316-0.8199463   c0.6901855-0.9100342,4.25-5.4899921,6.4699707-6.0999775c2.2102051-0.6000977,7.6101074,1.5300293,8.6601563,1.9699707   C66.7497864,29.5937519,66.9497375,29.8138447,67.0498352,30.0937519z M48.2497864,30.1436787   c2.5300293-10.4699707,14.4799805-11.119873,14.5998535-11.119873c0.5600586-0.0300293,1.0200195,0.3999023,1.0500488,0.9499512   c0.0200195,0.5500488-0.3999023,1.0200195-0.9599609,1.0500488c-0.4299316,0.0200195-10.5700684,0.5899658-12.7399902,9.5899658   c-0.1101074,0.4599609-0.5200195,0.7600098-0.9799805,0.7600098c-0.0700684,0-0.1499023,0-0.2299805-0.0200195   C48.4497375,31.2237568,48.1196594,30.6837177,48.2497864,30.1436787z M12.5498352,26.6037617   c-0.170166,0.1199951-0.3701172,0.1700439-0.5600586,0.1700439c-0.3200684,0-0.6401367-0.1500244-0.8300781-0.4400635   c-0.3100586-0.4499512-0.1899414-1.0799561,0.2700195-1.3900146c4.9099121-3.3299561,14.7199707-9.3499756,25.1999512-12.2099609   c0.5300293-0.1400146,1.0900879,0.1699219,1.2299805,0.6999512c0.1501465,0.5300293-0.1699219,1.0800781-0.6999512,1.2299805   C26.9597473,17.4537373,17.3596497,23.3437519,12.5498352,26.6037617z M16.8396301,32.833744   c-0.25-0.4799805-0.0698242-1.0899677,0.420166-1.3499775c0.0998535-0.0500488,10.7199707-5.5800781,18.2299805,2.1500263   c0.3798828,0.4000244,0.369873,1.0299072-0.0300293,1.4100342c-0.1899414,0.1899414-0.4399414,0.2799072-0.6899414,0.2799072   c-0.2600098,0-0.5200195-0.0999756-0.7199707-0.2999268c-6.4501953-6.6400166-15.4702148-1.9699707-15.8500977-1.7700195   C17.7097473,33.5137978,17.0996399,33.3237343,16.8396301,32.833744z M20.7798157,44.3237343   c-0.5900879-0.289917-0.9599609-0.4899902-0.9902344-0.5c-0.2597656-0.1400146-0.4499512-0.3900146-0.5097656-0.6700439   c-0.0600586-0.289917,0-0.5898438,0.1799316-0.8199463c0.6899414-0.9100342,4.25-5.4899902,6.4699707-6.0999756   c2.1999512-0.6099854,7.6000977,1.5300293,8.6599121,1.9599609c0.2800293,0.1101074,0.4802246,0.3400879,0.5800781,0.6201172   c0.0900879,0.2698975,0.0500488,0.579834-0.0998535,0.829834c-0.0400391,0.0600586-0.880127,1.4400635-2,2.9700928   c-1.1201172,1.5299072-2.7302246,2.6500244-4.5400391,3.1400146c-0.7099609,0.1999512-1.4501953,0.2900391-2.1801758,0.2900391   c-1.1398926,0-2.2700195-0.2299805-3.329834-0.6800537C22.1496887,44.9937782,21.3596497,44.6137733,20.7798157,44.3237343z    M42.3796692,76.3837891c-0.1499023,0.4100342-0.5300293,0.6700439-0.9499512,0.6700439   c-0.1098633,0-0.2199707-0.0200195-0.3300781-0.0600586c-10.1398926-3.6099854-16.8798828-8.2099609-19.5100098-13.2900352   c-0.2600098-0.4899902-0.0698242-1.0899658,0.420166-1.3399658c0.5-0.2600098,1.0998535-0.0699463,1.3498535,0.4200439   c2.3601074,4.5599327,8.9001465,8.9399376,18.4101563,12.3199425   C42.2895813,75.2938232,42.5596008,75.8637695,42.3796692,76.3837891z M51.2698059,74.0837402   c-0.4401855,0-0.8400879-0.289917-0.9699707-0.7399902c-0.1401367-0.5299072,0.1699219-1.0799561,0.7099609-1.2199707   l3.4599609-0.9500732c0.5300293-0.1398926,1.0800781,0.1700439,1.2299805,0.7000732   c0.1398926,0.5299072-0.1699219,1.0799561-0.6999512,1.2299805l-3.4699707,0.9500732   C51.4497375,74.0737305,51.3596497,74.0837402,51.2698059,74.0837402z M56.2895813,77.8337402l-3.4599609,0.9500732   c-0.0898438,0.0300293-0.1799316,0.039917-0.2700195,0.039917c-0.4399414,0-0.8398438-0.289917-0.9599609-0.7399902   c-0.1499023-0.5299072,0.170166-1.0799561,0.7001953-1.2299805l3.4599609-0.9400635   c0.5297852-0.1398926,1.0898438,0.1600342,1.2299805,0.7000732C57.139679,77.1436768,56.8198547,77.6937256,56.2895813,77.8337402z    M51.9697571,68.84375c-1.25,0.3399658-2.5200195,0.5-3.7700195,0.5c-5.3400879,0-10.4299316-2.9799805-12.9399414-7.9100304   c-0.170166-0.3199463-0.1401367-0.7199707,0.0698242-1.0200195c0.2099609-0.2999268,0.5600586-0.4699707,0.9301758-0.4199219   c0.0698242,0,6.9499512,0.7299805,13.0400391-0.9299316c3.0498047-0.8300781,5.9599609-2.2800293,8.1098633-3.5300293   c2.1601563-1.2399902,3.5500488-2.2800293,3.5800781-2.3100586c0.2998047-0.2199707,0.6899414-0.2600098,1.0200195-0.1099854   c0.3398438,0.1600342,0.5600586,0.4799805,0.579834,0.8499756C63.0198059,60.7838173,58.5498352,67.0438232,51.9697571,68.84375z"/><path d="M134.4997864,74.3537598c-0.0800781-0.0499268-0.2800293-0.1900635-0.5800781-0.4000244   c-12.8000488-9.0500488-22.5700684-12.7800255-28.5-14.3100548c-10.4099121-2.8498535-21.6699219-2.7999268-27.4599609-2.5198975   c-3.170166,0.1600342-5.1101074,0.4000244-5.1899414,0.4100342c-0.4001465,0.0499268-0.7399902,0.3399658-0.8400879,0.7299805   L61.8198547,95.1937256L61.5097961,96.34375c-3.0600586,11.1800537,6.6799316,24.25,15.3798828,33.2399902   c3.4101563,3.5,8.0500488,5.4100342,12.8100586,5.4100342c1.5700684,0,3.1499023-0.2099609,4.6999512-0.6300049   c12.0600586-3.2999268,27.0900879-9.5799561,30.1599121-20.7999268l10.4101563-38.0800781   C135.0796204,75.0638428,134.8796692,74.59375,134.4997864,74.3537598z M78.4580383,70.6968994   c0.1171875,0.0048828,11.8134766,0.6337891,14.2851563,10.8808594c0.1298828,0.5371094-0.2001953,1.0771484-0.7373047,1.2060547   c-0.0791016,0.0195313-0.1572266,0.0283203-0.2353516,0.0283203c-0.4511719,0-0.8603516-0.3076172-0.9707031-0.765625   c-2.1162109-8.7714844-12.0107422-9.3320313-12.4306641-9.3515625c-0.5517578-0.0253906-0.9785156-0.4931641-0.953125-1.0439453   S77.8906555,70.6715088,78.4580383,70.6968994z M74.4397278,82.3637695c-0.1599121-0.25-0.1899414-0.5599365-0.1000977-0.8399658   c0.0900879-0.2700195,0.3000488-0.5,0.5700684-0.6101074c1.0400391-0.4199219,6.3100586-2.5100098,8.4799805-1.9199219   c2.1801758,0.5999756,5.6601563,5.0799561,6.3300781,5.9699707c0.1799316,0.2299805,0.25,0.5300293,0.1799316,0.8200684   c-0.0600586,0.2800293-0.25,0.5300293-0.5100098,0.6699219c-0.0500488,0.0300293-1.4599609,0.7700195-3.1599121,1.5   c-1.0300293,0.4499512-2.1401367,0.6700439-3.2600098,0.6700439c-0.7099609,0-1.4301758-0.0899658-2.130127-0.2800293   c-1.7697754-0.4899902-3.3498535-1.5799561-4.4499512-3.0799561c-0.5500488-0.75-1.0300293-1.4599609-1.369873-1.9899902   C74.6697083,82.7437744,74.4597473,82.3936768,74.4397278,82.3637695z M89.4726868,128.4185791   c-0.1220703,0.4443359-0.5244141,0.7363281-0.9638672,0.7363281c-0.0878906,0-0.1767578-0.0117188-0.2646484-0.0351563   l-3.3828125-0.9248047c-0.5332031-0.1455078-0.8466797-0.6962891-0.7011719-1.2285156   c0.1464844-0.5332031,0.7021484-0.8427734,1.2285156-0.7011719l3.3828125,0.9248047   C89.304718,127.3355713,89.6181946,127.8863525,89.4726868,128.4185791z M90.7373352,123.7926025   c-0.1220703,0.4443359-0.5244141,0.7363281-0.9638672,0.7363281c-0.0878906,0-0.1767578-0.0117188-0.2646484-0.0351563   l-3.3828125-0.9248047c-0.5332031-0.1455078-0.8466797-0.6962891-0.7011719-1.2285156   c0.1464844-0.5332031,0.703125-0.8427734,1.2285156-0.7011719l3.3828125,0.9248047   C90.5693665,122.7095947,90.882843,123.260376,90.7373352,123.7926025z M89.7597961,116.9437256   c-3.1601563-0.8699951-6.5400391-1.0699463-9.0200195-1.0699463c-2.1899414,0-3.6801758,0.1600342-3.7099609,0.1600342   c-0.3701172,0.039917-0.7299805-0.1201172-0.9301758-0.4200439c-0.2099609-0.2999268-0.2399902-0.7000732-0.0698242-1.0200195   c3.0297852-5.9599609,9.9099121-9.0100098,16.3498535-7.25c6.4401855,1.7600098,10.8100586,7.8800049,10.3901367,14.5599365   c-0.0200195,0.3601074-0.2399902,0.6900635-0.5800781,0.8400879c-0.130127,0.0600586-0.2700195,0.0899658-0.4199219,0.0899658   c-0.2102051,0-0.420166-0.0599365-0.6000977-0.1999512C101.1196594,122.59375,95.7097473,118.5737305,89.7597961,116.9437256z    M118.7871399,114.3804932c-2.5712891,4.9677734-9.1669922,9.4589844-19.0712891,12.9873047   c-0.1113281,0.0390625-0.2246094,0.0576172-0.3359375,0.0576172c-0.4111328,0-0.7958984-0.2548828-0.9423828-0.6640625   c-0.1845703-0.5205078,0.0869141-1.0927734,0.6064453-1.2783203c9.2851563-3.3066406,15.6660156-7.5761719,17.9677734-12.0224609   c0.2529297-0.4882813,0.8544922-0.6835938,1.3476563-0.4277344   C118.8496399,113.2867432,119.0410461,113.8902588,118.7871399,114.3804932z M121.0395813,94.2938232   c-0.0598145,0.289917-0.2397461,0.5299072-0.5,0.6699219c-0.0598145,0.0300293-1.4599609,0.7800293-3.1599121,1.5100098   c-1.0400391,0.4399414-2.1499023,0.6699219-3.2600098,0.6699219c-0.7199707,0-1.4399414-0.0998535-2.1398926-0.289917   c-1.7700195-0.4799805-3.3500977-1.5799561-4.4499512-3.0799561c-1.0900879-1.4899902-1.920166-2.8400879-1.9501953-2.9000244   c-0.1499023-0.25-0.1899414-0.5599365-0.0998535-0.8299561c0.0900879-0.2800293,0.3000488-0.5100098,0.5700684-0.6201172   c1.0397949-0.4199219,6.3198242-2.5100098,8.4897461-1.9099121c2.170166,0.5899658,5.6501465,5.0699463,6.3200684,5.9599609   C121.0395813,93.7137451,121.1096497,94.0037842,121.0395813,94.2938232z M123.420929,84.2271729   c-0.2587891,0.4873047-0.8642578,0.6728516-1.3525391,0.4140625c-0.3701172-0.1962891-9.1757813-4.7480469-15.4589844,1.7265625   c-0.1962891,0.2021484-0.4570313,0.3037109-0.7177734,0.3037109c-0.2509766,0-0.5019531-0.09375-0.6962891-0.2822266   c-0.3964844-0.3847656-0.40625-1.0175781-0.0214844-1.4140625c7.3427734-7.5625,17.7304688-2.1552734,17.8349609-2.0986328   C123.4951477,83.135376,123.679718,83.7398682,123.420929,84.2271729z M128.9717102,77.87854   c-0.1933594,0.2851563-0.5087891,0.4384766-0.8291016,0.4384766c-0.1933594,0-0.3886719-0.0556641-0.5605469-0.171875   c-4.6992188-3.1865234-14.0703125-8.9375-24.0332031-11.6611328c-0.5332031-0.1455078-0.8466797-0.6953125-0.7011719-1.2285156   c0.1474609-0.5332031,0.7001953-0.8427734,1.2285156-0.7011719c10.2421875,2.7998047,19.8271484,8.6796875,24.6289063,11.9345703   C129.1621399,76.7994385,129.2812805,77.4215088,128.9717102,77.87854z"/></g></svg>