<svg xmlns="http://www.w3.org/2000/svg" xmlns:svg="http://www.w3.org/2000/svg" viewBox="0 0 270.93332 338.66665" version="1.1" xml:space="preserve" x="0px" y="0px"><g transform="translate(1146.7697,1565.9391)"><path style="" d="m -1020.5635,-1363.3985 c -16.8545,-1.855 -32.1192,-9.2383 -44.316,-21.435 -12.5567,-12.5568 -20.7458,-29.7716 -22.3396,-46.9619 -0.3592,-3.8739 -0.3654,-12.6184 -0.012,-16.1777 2.5479,-25.6237 17.6778,-48.0543 40.0788,-59.4182 6.3839,-3.2386 11.9775,-5.1912 18.7793,-6.5555 5.8953,-1.1825 7.5983,-1.3249 15.7466,-1.3171 8.4278,0.01 10.7003,0.252 17.59474,1.8882 27.93384,6.6294 51.17015,30.7064 56.88806,58.9462 2.03473,10.0491 2.03294,21.6421 -0.005,31.6872 -3.14013,15.4787 -11.6654,30.4046 -23.18104,40.5848 -10.371,9.1684 -23.32585,15.498 -36.74484,17.9531 -6.36262,1.1642 -16.07292,1.5121 -22.48952,0.8059 z m 1.4505,-17.8537 c 0.2199,-0.3559 -0.4391,-0.4539 -5.2869,-0.7862 -3.7365,-0.2561 -8.0772,-0.7764 -10.2526,-1.2289 -0.8307,-0.1728 -1.057,-1.1693 -0.2646,-1.1653 0.4904,0 5.4716,0.5897 8.7974,1.0372 2.3394,0.3148 5.9945,0.3692 5.7113,0.085 -0.1088,-0.1091 -1.7945,-0.2669 -3.7461,-0.3505 -1.9515,-0.084 -3.6235,-0.2274 -3.7155,-0.3193 -0.092,-0.092 -0.091,-0.3652 0,-0.6071 0.1503,-0.3917 0.5385,-0.4203 3.5384,-0.2607 1.8533,0.099 4.0245,0.2864 4.8249,0.4172 2.6772,0.4379 6.6145,0.5227 6.6145,0.1425 0,-0.1871 0.6846,-0.5872 1.5214,-0.889 0.8367,-0.3018 3.724,-1.3403 6.4161,-2.3077 6.68711,-2.4029 7.33325,-3.0454 1.323,-1.3155 -3.6738,1.0574 -4.8484,1.1728 -4.713,0.4631 0.064,-0.335 0.7096,-0.6323 2.3345,-1.0749 4.7257,-1.2871 8.94473,-2.7161 11.08564,-3.7546 1.60804,-0.78 2.30493,-0.9991 2.51355,-0.7902 0.20855,0.2087 -0.18856,0.7484 -1.43115,1.9448 -0.94589,0.9107 -2.01745,1.863 -2.38125,2.1162 -0.64676,0.4501 -0.65001,0.4689 -0.14617,0.8454 0.29437,0.2199 0.7481,0.3132 1.05833,0.2176 0.69722,-0.2149 7.31682,-3.8962 8.87742,-4.9369 2.16024,-1.4406 5.82083,-4.2532 5.82083,-4.4725 0,-0.3604 -0.28408,-0.2459 -1.10658,0.4462 -0.96206,0.8095 -1.33828,0.8398 -1.22692,0.099 0.12534,-0.834 5.99767,-4.7586 7.15298,-4.7804 1.02532,-0.019 1.46931,-0.369 3.01797,-2.376 1.0662,-1.3818 1.39904,-2.0706 1.0005,-2.0706 -0.0868,0 -1.00286,0.5953 -2.03559,1.3229 -1.03274,0.7276 -2.03326,1.3229 -2.22337,1.3229 -0.85173,0 -0.20395,-1.0608 1.49573,-2.4493 1.677,-1.37 3.032,-3.1069 2.4238,-3.1069 -0.13549,0 -0.74513,0.4167 -1.35475,0.926 -1.13255,0.9462 -2.11666,1.21 -2.11666,0.5673 0,-0.1973 1.10133,-1.3155 2.44739,-2.4849 2.52193,-2.1909 5.2589,-4.9671 6.72066,-6.817 0.66223,-0.838 0.90261,-0.9887 1.16892,-0.7327 0.35758,0.3437 -0.0251,0.979 -3.84786,6.3884 -0.9629,1.3626 -1.71041,2.5983 -1.66114,2.7462 0.22153,0.6646 5.05134,-5.3941 7.32065,-9.1833 0.35158,-0.587 1.07831,-1.6031 1.61494,-2.258 2.65402,-3.2386 5.8843,-8.9059 7.49624,-13.1515 0.79363,-2.0904 0.002,-1.379 -1.30355,1.1712 -2.55812,4.9972 -6.874,10.922 -7.95609,10.922 -0.61123,0 -0.40557,-0.4806 0.93648,-2.1885 1.75949,-2.2391 3.65358,-5.3383 5.44231,-8.9049 1.5796,-3.1496 1.81253,-4.1997 0.55414,-2.4982 -1.16193,1.5711 -2.59588,3.0083 -3.00155,3.0083 -0.47301,0 -0.52261,0.093 1.83617,-3.445 1.15638,-1.7344 2.02697,-3.321 2.02959,-3.6988 0.003,-0.3638 0.48289,-1.9141 1.06748,-3.4452 2.51097,-6.5764 3.44503,-11.636 2.14813,-11.636 -0.1131,0 -0.4015,0.9227 -0.64089,2.0505 -1.13669,5.3549 -3.49517,11.1251 -6.58905,16.1205 -1.79487,2.8981 -3.76455,5.3769 -4.27252,5.3769 -0.80888,0 -0.63879,-0.6168 0.60336,-2.1879 3.49892,-4.4256 6.76799,-11.0652 8.43245,-17.1267 0.6147,-2.2385 0.67271,-2.8175 0.53027,-5.2917 -0.17665,-3.0682 -0.65177,-5.8208 -1.00473,-5.8208 -0.12543,0 -0.22805,0.2906 -0.22805,0.6459 0,0.3552 -0.095,0.7045 -0.21107,0.7762 -0.47677,0.2947 -0.83226,-0.3513 -1.36607,-2.4824 -1.32604,-5.294 -2.64887,-8.4184 -5.83834,-13.7899 -1.65455,-2.7865 -1.81825,-3.2581 -1.21158,-3.4909 0.52263,-0.2006 4.13879,6.0433 6.56161,11.3297 1.31072,2.8598 1.63073,2.4258 0.52039,-0.7058 -1.9923,-5.6191 -4.01732,-9.0097 -7.55851,-12.6557 -4.53524,-4.6694 -6.50685,-6.9208 -6.50685,-7.4303 0,-0.279 0.1192,-0.5072 0.26488,-0.5072 0.33088,0 1.91358,1.6254 3.307,3.3963 0.58208,0.7397 1.14763,1.3497 1.25677,1.3556 1.11105,0.059 -2.20989,-4.2587 -6.04442,-7.8594 -2.96807,-2.787 -3.54912,-3.2463 -3.54438,-2.8015 0.002,0.2299 2.00965,2.6642 3.63243,4.4053 0.89143,0.9564 0.91686,1.0334 0.48079,1.4552 -0.43348,0.4193 -0.50931,0.3841 -1.29581,-0.6025 -0.45946,-0.5763 -1.31757,-1.5883 -1.9069,-2.2489 -0.58934,-0.6606 -1.26337,-1.5082 -1.49784,-1.8836 -0.23448,-0.3753 -1.32931,-1.3873 -2.43295,-2.2489 -1.37894,-1.0765 -2.07475,-1.8149 -2.22441,-2.3603 -0.19993,-0.7286 -0.31401,-0.7942 -1.39033,-0.7988 -0.90424,0 -1.60419,-0.2638 -3.05899,-1.1358 -2.19164,-1.3136 -8.07679,-3.4899 -13.73344,-5.0786 -3.96104,-1.1125 -4.98124,-1.5957 -4.46324,-2.1137 0.3434,-0.3434 3.0946,0.363 8.80959,2.2619 2.38528,0.7926 4.43911,1.441 4.56406,1.441 0.12496,0 0.22719,-0.1766 0.22719,-0.3924 0,-0.5563 -1.98895,-1.4893 -5.82083,-2.7305 -4.49981,-1.4576 -8.86701,-2.5943 -12.03851,-3.1336 -3.5632,-0.6058 -11.8651,-0.5983 -15.7427,0.014 -18.5535,2.9309 -34.4125,12.4657 -45.3687,27.2767 -8.1329,10.9943 -12.5323,22.3657 -13.9117,35.958 -0.4072,4.0126 -0.1722,14.7597 0.3882,17.7524 1.2586,6.7212 2.0831,9.4075 4.3503,14.1739 3.1486,6.6195 8.4971,13.1029 15.9606,19.3475 5.8044,4.8565 8.8578,6.7424 15.6439,9.6625 7.2912,3.1374 14.0095,5.0138 19.4978,5.4456 2.7517,0.2165 8.1805,0.1704 8.3296,-0.071 z m -0.092,-3.9964 c -0.4898,-0.1957 -0.5606,-0.3282 -0.3263,-0.6104 0.3256,-0.3924 5.8632,-0.8771 6.3788,-0.5584 0.6306,0.3897 -0.3595,0.8909 -2.0699,1.0479 -0.9733,0.089 -2.1268,0.2092 -2.5633,0.2666 -0.4366,0.057 -1.0753,-0.01 -1.4193,-0.1457 z m -18.8988,-1.0543 c -2.4057,-0.5913 -3.0976,-0.9148 -3.0976,-1.4486 0,-0.5283 0.4096,-0.4942 3.5133,0.2925 3.0998,0.7858 3.1268,0.7979 2.9292,1.3127 -0.1907,0.4968 -0.8028,0.4682 -3.3449,-0.1566 z m 10.0434,0.3687 c -0.097,-0.097 -0.1764,-0.3947 -0.1764,-0.6615 0,-0.4456 0.2809,-0.4851 3.4479,-0.4851 2.9173,0 3.4729,0.065 3.6104,0.4236 0.089,0.233 0,0.5288 -0.2067,0.6574 -0.4272,0.2705 -6.4115,0.3293 -6.6752,0.066 z m 10.6054,-2.3873 c -0.2547,-0.066 -0.463,-0.3417 -0.463,-0.6114 0,-0.8093 2.0023,-0.8705 2.3092,-0.071 0.2561,0.6673 -0.6381,0.9976 -1.8462,0.6819 z m -30.6905,-0.6775 c -0.2269,-0.6168 0.1064,-0.9922 0.8808,-0.9922 0.6467,0 0.7717,0.1071 0.7717,0.6615 0,0.5531 -0.1254,0.6614 -0.7655,0.6614 -0.421,0 -0.8201,-0.1488 -0.887,-0.3307 z m 5.1582,-0.4713 c -0.6606,-0.2655 -0.798,-0.9889 -0.2293,-1.2071 0.2013,-0.077 0.7954,0.039 1.3202,0.2583 0.6788,0.2836 0.9087,0.5174 0.7963,0.8102 -0.1734,0.452 -0.9631,0.5101 -1.8872,0.1386 z m -9.2791,-1.3897 c -0.2295,-0.2766 -0.2188,-0.4805 0.044,-0.84 0.2908,-0.3977 0.4432,-0.4235 0.9375,-0.1589 0.3317,0.1775 0.5532,0.511 0.5056,0.7611 -0.1074,0.5636 -1.0868,0.7202 -1.4872,0.2378 z m 41.6433,-0.8699 c -0.8018,-0.8018 -0.2115,-1.8209 0.9587,-1.655 0.7009,0.099 0.9711,1.0794 0.4655,1.6885 -0.4119,0.4964 -0.9059,0.4848 -1.4242,-0.034 z m -44.072,-0.3021 c -1.1312,-0.4188 -1.2521,-1.4064 -0.1701,-1.3904 0.6401,0.01 1.493,0.572 1.493,0.9847 0,0.2166 -0.6881,0.6643 -0.8815,0.5735 -0.024,-0.011 -0.2231,-0.087 -0.4414,-0.1678 z m 63.49999,-0.4317 c 0,-0.5064 0.56725,-0.9575 3.68135,-2.9279 2.81554,-1.7814 3.4624,-2.0355 3.4624,-1.3599 0,0.4653 -0.97727,1.2248 -4.07527,3.167 -2.40568,1.5081 -3.06848,1.7502 -3.06848,1.1208 z m -57.41459,-0.092 c -0.6422,-0.244 -1.3219,-0.9276 -1.1688,-1.1754 0.2017,-0.3264 1.2895,-0.2835 2.0927,0.082 1.2228,0.5572 0.3581,1.5801 -0.9239,1.0929 z m 49.21251,-0.9423 c 0,-0.2533 1.40799,-1.0865 3.8309,-2.267 2.10699,-1.0265 4.37573,-2.2413 5.04163,-2.6994 1.11755,-0.7689 1.97539,-0.8945 1.97539,-0.2893 0,0.4648 -2.495,2.0854 -5.72889,3.7211 -3.42148,1.7306 -5.11903,2.2395 -5.11903,1.5346 z m 9.96246,-2.2297 c -0.49851,-0.4985 0.0737,-1.1558 2.20447,-2.5321 2.43993,-1.5761 3.28358,-1.8635 3.13007,-1.0663 -0.12883,0.6689 -4.98697,3.9459 -5.33454,3.5984 z m -13.60047,-2.3947 c -0.3819,-0.1332 -0.4465,-1.0269 -0.09,-1.2471 0.4092,-0.253 1.0822,0.1492 1.0822,0.6467 0,0.5089 -0.4587,0.7865 -0.9922,0.6004 z m 21.47207,-2.82 c -0.21887,-0.5703 0.0152,-0.8517 1.80348,-2.1682 1.77414,-1.306 2.05829,-1.3964 2.05829,-0.6548 0,0.3146 -0.58975,0.9631 -1.52135,1.6731 -2.05091,1.5629 -2.16116,1.6171 -2.34042,1.1499 z m -3.79925,-0.2797 c -0.24838,-0.2992 0.3213,-0.8329 3.02882,-2.8373 1.8341,-1.3577 3.5076,-2.5071 3.71888,-2.5542 0.56077,-0.1249 0.48105,0.8751 -0.10444,1.3101 -0.26873,0.1996 -1.4798,1.1146 -2.69127,2.0333 -2.89969,2.1989 -3.54802,2.5349 -3.95199,2.0481 z m -2.20761,-2.1659 c -0.10204,-0.102 -0.18553,-0.4633 -0.18553,-0.8029 0,-0.4864 0.14405,-0.6174 0.67903,-0.6174 0.58422,0 0.66734,0.1013 0.59531,0.7254 -0.08,0.6934 -0.69675,1.087 -1.08881,0.6949 z m 4.13117,-1.8492 c -0.19181,-0.4999 1.61967,-2.191 2.36402,-2.207 0.74119,-0.016 0.53977,0.6015 -0.54032,1.6562 -1.09403,1.0683 -1.56996,1.212 -1.8237,0.5508 z m 4.94371,-3.1488 c 0,-0.441 2.0378,-2.7723 2.42325,-2.7723 0.65575,0 0.46176,0.9026 -0.42714,1.9874 -0.95938,1.1708 -1.99611,1.5784 -1.99611,0.7849 z m 7.08985,-7.4105 c -0.1024,-0.1034 0.22577,-0.832 0.72927,-1.6191 1.33712,-2.0902 9.02397,-12.653 9.48863,-13.0386 0.45638,-0.3788 0.9485,-0.1683 0.9485,0.4057 0,0.4338 -7.9998,11.1531 -9.82935,13.1708 -0.63297,0.698 -1.23464,1.1846 -1.33705,1.0812 z m -66.42324,-2.6184 c -4.4108,-1.5741 -5.7985,-7.0567 -2.7018,-10.6745 1.2579,-1.4696 2.8115,-2.1778 4.7703,-2.1746 5.0537,0.01 8.285,5.1614 5.9906,9.5535 -1.5662,2.998 -4.9805,4.3942 -8.0591,3.2956 z m 20.3606,-1.1127 c -0.3127,-0.3127 -0.2061,-1.0911 0.1692,-1.2352 0.5333,-0.2046 1.0326,0.2109 0.925,0.7697 -0.098,0.5096 -0.766,0.7937 -1.0942,0.4655 z m -48.3344,-5.5731 c -2.7375,-1.4193 -2.8538,-5.3468 -0.2062,-6.9611 1.741,-1.0614 4.1211,-0.4297 5.2294,1.3881 1.0291,1.6879 0.4787,4.2898 -1.1305,5.3442 -1.0254,0.6719 -2.8331,0.7782 -3.8927,0.2288 z m 64.1751,-4.7296 c -0.2287,-0.2287 -0.4158,-0.6369 -0.4158,-0.9071 0,-0.5742 0.6739,-1.3229 1.1906,-1.3229 1.07234,0 1.60876,1.8742 0.6789,2.3719 -0.6953,0.3721 -0.9662,0.3457 -1.4537,-0.1419 z m 34.08538,-2.8662 c -0.15921,-0.4149 0.96749,-2.6177 1.51066,-2.9533 0.15776,-0.098 0.4591,0 0.66966,0.2055 0.33405,0.3341 0.27002,0.5465 -0.50256,1.6676 -0.97484,1.4146 -1.43559,1.7112 -1.67776,1.0802 z m 1.03623,-10.8636 c -1.00541,-0.4373 -1.67077,-1.6054 -1.67077,-2.9334 0,-0.7454 0.20517,-1.1708 0.89958,-1.8652 0.76786,-0.7678 1.08168,-0.8996 2.14313,-0.8996 1.06144,0 1.37527,0.1318 2.14312,0.8996 0.74906,0.7491 0.89959,1.0934 0.89959,2.0578 0,1.3894 -0.55077,2.2598 -1.74587,2.7591 -1.08811,0.4547 -1.58923,0.4512 -2.66878,-0.018 z m 7.92317,-3.6207 c 0.42592,-2.5711 1.75823,-4.7272 2.20369,-3.5664 0.2417,0.6299 -1.29915,4.2507 -1.8544,4.3576 -0.42727,0.082 -0.47579,-0.028 -0.34929,-0.7912 z m -51.84828,0.05 c -2.9461,-1.7963 -1.6129,-6.3607 1.8578,-6.3607 0.9116,0 2.354,1.0551 2.9007,2.122 1.4864,2.9001 -1.9433,5.9552 -4.7585,4.2387 z m -46.0948,-5.6732 c -0.4302,-0.5183 -0.1371,-1.4089 0.5337,-1.6219 0.7251,-0.2301 1.3398,0.3512 1.2439,1.1763 -0.06,0.513 -0.2506,0.704 -0.7636,0.7637 -0.3763,0.044 -0.8326,-0.099 -1.014,-0.3181 z m 37.16,-3.9564 c -0.6349,-0.4643 -0.4164,-1.3401 0.3619,-1.4506 1.0283,-0.146 1.4911,1.0443 0.593,1.525 -0.3467,0.1855 -0.6296,0.1635 -0.9549,-0.074 z m 59.43422,-1.1968 c -0.19463,-0.1234 -0.31369,-0.5085 -0.26458,-0.8559 0.0714,-0.5047 0.24793,-0.6315 0.87942,-0.6315 0.87806,0 1.2066,0.6704 0.65453,1.3356 -0.35991,0.4337 -0.75086,0.4804 -1.26937,0.1518 z m -42.28142,-4.1352 c -0.092,-0.2398 0.01,-0.6097 0.2188,-0.822 0.5294,-0.5294 1.3235,-0.1869 1.2216,0.5269 -0.1003,0.7033 -1.1975,0.9281 -1.4404,0.2951 z m 23.32072,-2.7284 c -3.72208,-1.7626 -4.44798,-6.0748 -1.49482,-8.8799 2.30241,-2.187 6.59154,-1.4557 8.19501,1.3973 0.83245,1.4812 0.7929,3.7107 -0.0926,5.2217 -1.29531,2.2103 -4.44125,3.2867 -6.60755,2.2609 z m -89.51652,-0.014 c -0.4784,-0.3033 -0.2878,-1.6306 0.2858,-1.9897 0.6016,-0.3767 1.3564,0.07 1.4755,0.8734 0.1567,1.0562 -0.8498,1.6941 -1.7613,1.1163 z m 103.03422,-1.257 c -0.22442,-0.5848 0.45507,-1.2843 1.03242,-1.0627 0.26858,0.1031 0.40343,0.3963 0.35125,0.7638 -0.10551,0.743 -1.12847,0.964 -1.38367,0.2989 z m 3.19514,-2.3924 c -0.32572,-0.3257 -0.18034,-1.3529 0.21283,-1.5038 0.37121,-0.1425 1.19828,0.4459 1.19828,0.8525 0,0.5658 -1.02395,1.0385 -1.41111,0.6513 z m -1.6682,-3.66 c -0.20961,-0.5462 0.0746,-1.1906 0.52507,-1.1906 0.52966,0 1.05407,0.7137 0.87236,1.1872 -0.19836,0.5169 -1.19944,0.5193 -1.39743,0 z m -45.97716,-3.2085 c -0.2066,-0.5385 0.2836,-1.1571 0.9169,-1.1571 0.5042,0 0.9293,0.8659 0.6483,1.3205 -0.2631,0.4258 -1.384,0.3087 -1.5652,-0.1634 z m 39.95335,-7.6697 c -0.096,-0.2503 -0.0643,-0.5654 0.0705,-0.7002 0.40962,-0.4097 1.22741,-0.097 1.22741,0.4695 0,0.6822 -1.05285,0.8693 -1.29792,0.2307 z m -3.43026,-2.7447 c -1.05417,-1.1668 -1.16749,-1.5278 -0.55363,-1.7633 0.47508,-0.1823 1.34536,0.5347 1.86234,1.5345 0.30356,0.587 0.30474,0.7498 0.007,0.9967 -0.27651,0.2295 -0.56918,0.059 -1.31595,-0.7679 z m -52.84159,-0.7736 c -2.0487,-0.6555 -3.2877,-2.4877 -3.088,-4.5664 0.3794,-3.9481 5.3386,-5.3772 7.7389,-2.2302 1.9958,2.6167 0.3685,6.4675 -2.9082,6.8817 -0.5821,0.074 -1.3663,0.035 -1.7427,-0.085 z m 48.4395,-4.6742 c -1.80054,-1.7382 -2.13167,-2.2875 -1.58336,-2.6264 0.369,-0.228 4.26747,3.3231 4.1744,3.8025 -0.16213,0.8352 -0.81435,0.5392 -2.59104,-1.1761 z m -10.43778,-6.553 c -0.61608,-0.4505 -0.37144,-1.2315 0.38576,-1.2315 0.69405,0 0.98243,0.7184 0.48716,1.2137 -0.32155,0.3216 -0.45376,0.3242 -0.87292,0.018 z m -42.94282,-0.8786 c -1.0869,-0.4379 -0.8544,-2.205 0.2902,-2.205 0.7637,0 1.2342,0.4705 1.2342,1.2342 0,0.4808 -0.7277,1.221 -1.1071,1.1262 -0.046,-0.012 -0.2337,-0.081 -0.4173,-0.1554 z m 36.07143,-2.3562 c -0.22867,-0.2287 -0.41577,-0.5774 -0.41577,-0.7748 0,-0.1975 0.1871,-0.5462 0.41577,-0.7749 0.79915,-0.7991 1.96548,-0.3393 1.96548,0.7749 0,1.1142 -1.16633,1.574 -1.96548,0.7748 z m -12.68943,-4.8838 c -1.7939,-0.5628 -2.0823,-0.7762 -1.7579,-1.301 0.1948,-0.3152 0.4575,-0.3269 1.5706,-0.07 1.964,0.4533 3.2005,1.032 3.2005,1.4977 0,0.5431 -1.014,0.5005 -3.0132,-0.1267 z m -6.7102,-1.1803 c -0.8897,-0.3867 -1.1435,-1.1008 -0.4815,-1.3548 0.3958,-0.1519 2.2674,0.618 2.2674,0.9327 0,0.222 -0.5794,0.8205 -0.7805,0.8062 -0.08,-0.01 -0.5325,-0.1785 -1.0054,-0.3841 z m 0.3307,124.484 c -0.09,-0.1455 -0.9829,-0.2645 -1.9843,-0.2645 -1.0015,0 -1.8945,0.119 -1.9844,0.2645 -0.1039,0.1681 0.6198,0.2646 1.9844,0.2646 1.3645,0 2.0882,-0.097 1.9843,-0.2646 z m 2.1884,-0.2149 c 0.1587,-0.4762 -0.3882,-0.3762 -0.5727,0.1048 -0.099,0.2576 -0.04,0.3786 0.1536,0.3142 0.1729,-0.058 0.3615,-0.2462 0.4191,-0.419 z m 10.4017,-1.0792 c 4.74191,-1.9596 5.26931,-2.2176 5.26931,-2.5776 0,-0.5589 -0.63183,-0.4406 -3.12383,0.585 -4.20418,1.7301 -5.34288,2.2974 -5.34288,2.6614 0,0.5515 0.4953,0.448 3.1974,-0.6688 z m -5.448,-0.3831 c 1.3004,-0.4162 1.8784,-0.737 1.9443,-1.0793 0.082,-0.4271 -0.026,-0.4645 -0.8823,-0.304 -1.5645,0.2935 -4.1852,1.3114 -4.3033,1.6715 -0.1647,0.5025 1.1308,0.3873 3.2413,-0.2882 z m 16.3397,-4.214 c 1.12779,-0.7169 2.05053,-1.4163 2.05053,-1.5542 0,-0.1379 -1.19443,0.3628 -2.65428,1.1127 -2.15707,1.108 -2.5975,1.4318 -2.35127,1.7285 0.16666,0.2008 0.43834,0.2867 0.60375,0.1908 0.16542,-0.096 1.22349,-0.7608 2.35127,-1.4778 z m -7.86285,0.7454 c 0.50465,-0.2109 0.91754,-0.5697 0.91754,-0.7973 0,-0.3731 -0.0947,-0.3744 -0.95835,-0.014 -0.52709,0.2202 -1.00334,0.4004 -1.05833,0.4004 -0.055,0 -0.1,0.1786 -0.1,0.3969 0,0.4891 0.0593,0.4897 1.19912,0.014 z m 23.60349,-13.0497 c 0.4433,-1.1552 -1.18869,-0.2386 -3.74977,2.106 -1.17141,1.0725 -1.52363,1.5548 -1.38987,1.9034 0.15044,0.392 0.56637,0.1358 2.59262,-1.5972 1.32739,-1.1352 2.47355,-2.2207 2.54702,-2.4122 z m 6.30243,-5.7556 c 4.72636,-5.1566 5.14287,-5.649 5.14287,-6.0798 0,-0.9885 -0.568,-0.4594 -6.04632,5.632 -1.55947,1.7339 -2.68493,3.2127 -2.68493,3.5277 0,0.2984 0.0967,0.5027 0.21494,0.4542 0.11821,-0.048 1.63626,-1.6389 3.37344,-3.5341 z m 4.31722,-7.736 0.62956,-0.9889 -0.82799,0.7771 c -0.80053,0.7513 -1.04078,1.2108 -0.62956,1.204 0.10914,0 0.48174,-0.4483 0.82799,-0.9922 z m 3.81824,-1.57 c 0.78487,-1.1031 0.69276,-1.6206 -0.10779,-0.6056 -0.76375,0.9683 -1.08221,1.5836 -0.8197,1.5836 0.1274,0 0.54477,-0.4401 0.92749,-0.978 z m -1.76456,-1.5396 c 0.53287,-0.8025 0.90426,-1.5237 0.82532,-1.6027 -0.16505,-0.165 -0.98575,0.9452 -1.62771,2.202 -0.675,1.3215 -0.27415,1.0221 0.80239,-0.5993 z m 2.90798,-2.7795 c 0.38716,-0.585 0.64179,-1.1258 0.56584,-1.2018 -0.19966,-0.1996 -1.52685,1.4423 -1.52685,1.889 0,0.599 0.2085,0.4499 0.96101,-0.6872 z m 6.86376,-39.1388 c -0.21994,-2.232 -1.05696,-5.266 -1.60361,-5.8126 -0.35738,-0.3574 -0.40033,-0.3484 -0.40033,0.084 0,0.2662 0.29068,1.5716 0.64595,2.9009 0.35527,1.3294 0.77657,2.923 0.93624,3.5415 0.43433,1.6824 0.6259,1.3583 0.42175,-0.7135 z m -0.15185,-8.3457 c 0,-0.5776 -1.34013,-3.9079 -1.75153,-4.3527 -0.68826,-0.744 -0.67482,-0.02 0.0399,2.1503 0.39836,1.2098 0.77487,2.2889 0.83669,2.398 0.20269,0.3579 0.87491,0.2076 0.87491,-0.1956 z m -6.35106,-10.059 c -0.5984,-1.1635 -1.32438,-2.0173 -1.31938,-1.5517 0.005,0.4227 1.62137,3.0608 1.7792,2.903 0.0854,-0.085 -0.12151,-0.6935 -0.45982,-1.3513 z m 2.64689,1.1842 c 0,-0.789 -2.01735,-4.4124 -2.29951,-4.1302 -0.19336,0.1933 1.7921,4.4032 2.07665,4.4032 0.12257,0 0.22286,-0.1228 0.22286,-0.273 z m -6.00145,-5.2553 c -0.18586,-0.7107 -1.58123,-2.3147 -1.81458,-2.0859 -0.19299,0.1893 1.43816,2.5633 1.77199,2.579 0.0955,0 0.11468,-0.2174 0.0426,-0.4931 z m -3.01632,-4.8212 c -0.35816,-0.503 -0.65405,-0.7194 -0.71867,-0.5255 -0.11181,0.3354 0.99963,1.7084 1.21149,1.4965 0.0638,-0.064 -0.15796,-0.5007 -0.49282,-0.971 z m 0.791,-2.152 c -0.64043,-1.2383 -1.56281,-1.9496 -1.56281,-1.2051 0,0.3653 1.31226,1.8004 1.64631,1.8004 0.12341,0 0.0858,-0.2679 -0.0835,-0.5953 z m -3.7918,-3.1412 c 0.32931,-0.5328 -5.36759,-5.5239 -6.30509,-5.5239 -0.1327,0 -0.19564,0.1369 -0.13988,0.3042 0.11474,0.3442 5.79644,5.4912 6.07865,5.5066 0.10056,0.01 0.2654,-0.1236 0.36632,-0.2869 z m -8.61893,-5.0948 c 0,-0.3521 -2.54647,-2.2812 -3.01125,-2.2812 -0.37329,0 0.41447,0.8197 1.68834,1.7568 1.38473,1.0187 1.32291,0.9942 1.32291,0.5244 z m 0.99166,-2.478 c 0.18046,-0.5414 -6.10563,-4.6317 -10.28706,-6.6936 -1.61061,-0.7943 -2.89784,-0.9318 -2.48613,-0.2656 0.087,0.1408 1.6197,1.0411 3.40591,2.0005 1.78622,0.9595 4.49076,2.5609 6.01008,3.5586 2.73425,1.7956 3.16542,1.9754 3.3572,1.4001 z m -8.39468,-2.8395 c -0.18408,-0.2218 -0.52847,-0.3993 -0.76531,-0.3945 -0.33308,0.01 -0.28729,0.1282 0.20217,0.5358 0.70247,0.585 1.08604,0.4887 0.56314,-0.1413 z" fill="#000000" stroke-width="0.264583"/></g></svg>