<svg xmlns="http://www.w3.org/2000/svg" viewBox="0 0 24 30" fill="none" x="0px" y="0px"><path d="M10.5 3.59809C10.0217 3.32195 9.85783 2.71036 10.134 2.23207L11.134 0.500014C11.4101 0.0217217 12.0217 -0.142153 12.5 0.133989C12.9783 0.410131 13.1422 1.02172 12.866 1.50001L11.866 3.23207C11.5899 3.71036 10.9783 3.87423 10.5 3.59809Z" fill="black"/><path d="M15.6962 6.59809C15.2179 6.32195 15.054 5.71036 15.3301 5.23207L16.3301 3.50001C16.6063 3.02172 17.2179 2.85785 17.6962 3.13399C18.1744 3.41013 18.3383 4.02172 18.0622 4.50001L17.0622 6.23207C16.786 6.71036 16.1744 6.87423 15.6962 6.59809Z" fill="black"/><path d="M1 24C0.447715 24 0 23.5523 0 23V11C0 10.4477 0.447715 10 1 10H3.88852C4.44081 10 4.88852 10.4477 4.88852 11V14.4918L7.63433 16.4953L8.10557 15.5528C8.24933 15.2653 8.52252 15.0644 8.83982 15.0129C9.15711 14.9614 9.47981 15.0656 9.70711 15.2929L10.726 16.3118L11.1056 15.5528C11.2493 15.2653 11.5225 15.0644 11.8398 15.0129C12.1571 14.9614 12.4798 15.0656 12.7071 15.2929L13.726 16.3118L14.1056 15.5528C14.2493 15.2653 14.5225 15.0644 14.8398 15.0129C15.1571 14.9614 15.4798 15.0656 15.7071 15.2929L16.726 16.3118L17.1056 15.5528C17.2406 15.2827 17.4905 15.0881 17.7855 15.0233C18.0804 14.9585 18.3889 15.0305 18.6247 15.2191L23.6247 19.2191C23.8619 19.4089 24 19.6962 24 20V23C24 23.5523 23.5523 24 23 24H1Z" fill="black"/><path d="M11.3301 6.23207C11.054 6.71036 11.2179 7.32195 11.6962 7.59809C12.1744 7.87423 12.786 7.71036 13.0622 7.23207L14.0622 5.50001C14.3383 5.02172 14.1744 4.41013 13.6962 4.13399C13.2179 3.85785 12.6063 4.02172 12.3301 4.50001L11.3301 6.23207Z" fill="black"/><path d="M8.5 12.5981C8.02171 12.3219 7.85783 11.7104 8.13397 11.2321L9.13397 9.50002C9.41012 9.02172 10.0217 8.85785 10.5 9.13399C10.9783 9.41013 11.1422 10.0217 10.866 10.5L9.86602 12.2321C9.58988 12.7104 8.97829 12.8742 8.5 12.5981Z" fill="black"/><path d="M12.3301 10.2321C12.054 10.7104 12.2179 11.3219 12.6962 11.5981C13.1744 11.8742 13.786 11.7104 14.0622 11.2321L15.0622 9.50001C15.3383 9.02172 15.1744 8.41013 14.6962 8.13399C14.2179 7.85785 13.6063 8.02172 13.3301 8.50002L12.3301 10.2321Z" fill="black"/><path d="M6.13397 3.23207C5.85783 3.71036 6.02171 4.32195 6.5 4.59809C6.97829 4.87423 7.58988 4.71036 7.86602 4.23207L8.86602 2.50001C9.14217 2.02172 8.97829 1.41013 8.5 1.13399C8.02171 0.857846 7.41012 1.02172 7.13397 1.50001L6.13397 3.23207Z" fill="black"/><path d="M7.5 8.59809C7.02171 8.32195 6.85783 7.71036 7.13397 7.23207L8.13397 5.50001C8.41012 5.02172 9.02171 4.85785 9.5 5.13399C9.97829 5.41013 10.1422 6.02172 9.86602 6.50001L8.86602 8.23207C8.58988 8.71036 7.97829 8.87423 7.5 8.59809Z" fill="black"/><path d="M20.5263 8.23207C20.2501 8.71036 20.414 9.32195 20.8923 9.59809C21.3706 9.87423 21.9822 9.71036 22.2583 9.23207L23.2583 7.50001C23.5345 7.02172 23.3706 6.41013 22.8923 6.13399C22.414 5.85785 21.8024 6.02172 21.5263 6.50001L20.5263 8.23207Z" fill="black"/><path d="M16.8923 10.5981C16.414 10.3219 16.2501 9.71036 16.5263 9.23207L17.5263 7.50001C17.8024 7.02172 18.414 6.85785 18.8923 7.13399C19.3706 7.41013 19.5345 8.02172 19.2583 8.50001L18.2583 10.2321C17.9822 10.7104 17.3706 10.8742 16.8923 10.5981Z" fill="black"/><path d="M17.5263 13.2321C17.2501 13.7104 17.414 14.3219 17.8923 14.5981C18.3706 14.8742 18.9822 14.7104 19.2583 14.2321L20.2583 12.5C20.5345 12.0217 20.3706 11.4101 19.8923 11.134C19.414 10.8578 18.8024 11.0217 18.5263 11.5L17.5263 13.2321Z" fill="black"/></svg>