<svg xmlns="http://www.w3.org/2000/svg" data-name="Layer 1" viewBox="0 0 73.67 102.5375" x="0px" y="0px"><title>muffin icon</title><path d="M16.63,78.44a20.3,20.3,0,0,1-2.16-6.23C13.28,66.32,12.12,60.42,11,54.53c-.12-.6-.21-1.2-.35-1.8C9.83,49.47,8.82,46.25,9,43.09c-2-1.54-3.79-2.88-5.53-4.26A5.69,5.69,0,0,1,1,34.49a8.22,8.22,0,0,0-.6-2.67A7.91,7.91,0,0,1,.38,27a7.46,7.46,0,0,1,3.88-5.2l2-1.06c.12-1.09.26-2.18.34-3.29a6.94,6.94,0,0,1,4.1-6,13.25,13.25,0,0,1,4-1.52c2.52-.35,4.16-1.77,5.78-3.55a22.33,22.33,0,0,1,4.69-3.87C30.06-.53,35.34-.6,40.72,1.18a10.85,10.85,0,0,1,5.43,3.25,4,4,0,0,0,3.58,1.36A13.52,13.52,0,0,1,56,7.07a13,13,0,0,1,6.27,5.19c1.36,2.22,2.8,4.52,3,7.21,1.38,1,2.68,2,4,3a13.06,13.06,0,0,1,1.36,1.21c3.42,3.57,3.73,7.77,2.4,12.25A6.67,6.67,0,0,1,69.08,40c-.64.3-1.32.5-2,.75-.19.65-.38,1.22-.53,1.81a23.48,23.48,0,0,1-.84,3.57c-1.8,4.42-2,9.13-2.61,13.76-.65,5.16-1.17,10.33-1.68,15.5-.14,1.43-.81,1.94-2.18,2.44a83,83,0,0,1-13.58,3.47A48.15,48.15,0,0,1,28,81.13c-3.4-.63-6.76-1.47-10.14-2.23A11.38,11.38,0,0,1,16.63,78.44ZM50.28,38.73,54,40.19a10.76,10.76,0,0,0,9.44-.29,19.16,19.16,0,0,1,3.42-1.26,5.17,5.17,0,0,0,3.7-3.71,10,10,0,0,0-4.08-11.79c-.92-.64-1.92-1.16-2.88-1.73a4.12,4.12,0,0,1-1.8-2.33C61,16.89,60,14.79,59,12.67a3.92,3.92,0,0,0-1-1.16,10.59,10.59,0,0,0-6.45-3.18c-1.31-.1-2.64-.2-3.94-.39a5.67,5.67,0,0,1-2-.63,17,17,0,0,1-1.93-1.48,16.61,16.61,0,0,0-11.2-3.22,7.1,7.1,0,0,0-2.08.45,20.08,20.08,0,0,0-9.17,5.83,8.05,8.05,0,0,1-3.78,2.44c-1.16.38-2.35.69-3.5,1.08a7.65,7.65,0,0,0-5.44,6.05A1.32,1.32,0,0,0,9.17,20c.21.13.29.47.43.72-.89,1.42-2.29,2-3.59,2.83-3,1.84-4.83,6.8-3.31,9.91,1.38,2.83,3.24,5.45,6.38,6.7a16.08,16.08,0,0,0,6.54,1.36,42.74,42.74,0,0,0,8.5-.83,38.13,38.13,0,0,1,5.73-.88c1.58-.13,3.35-.43,4.13,1.64.09.24.45.4.72.53,1.48.67,2.95,1.42,4.48,1.95a5,5,0,0,0,2.69.24C45.25,43.38,48.47,42.23,50.28,38.73ZM18.58,76.41c1.84.45,3.82.87,5.77,1.4A51.35,51.35,0,0,0,45,79.16,72.16,72.16,0,0,0,58.63,75.6c.43-3.76.83-7.39,1.25-11s.76-7.3,1.31-10.92,1.29-7.13,2-10.76a36.92,36.92,0,0,1-5.94.24,42.17,42.17,0,0,1-6-1.59c-1.43.89-3,1.89-4.53,2.83a10,10,0,0,1-9.65.78c-2-.9-4.07-1.85-5.48-3.89-2.33.45-4.63.81-6.91,1.34a36.84,36.84,0,0,1-11.51,1,5,5,0,0,0-1.38.27C11.94,48.31,17,72.56,18.58,76.41Z"/><path d="M28.61,13.85c0,.57,0,.85-.06.94a9.7,9.7,0,0,1-3.74,2.48,5.32,5.32,0,0,1-1.78.17,1,1,0,0,1-.78-1.36,3.41,3.41,0,0,1,3.2-2.36C26.44,13.72,27.44,13.8,28.61,13.85Z"/><path d="M51.21,24.06c-.19.25-.4.83-.78,1a2.45,2.45,0,0,1-1.71,0,2.59,2.59,0,0,1-.89-3.65,1.3,1.3,0,0,1,1-.47C49.51,21,51.1,23.07,51.21,24.06Z"/><path d="M27.76,26.33a2.75,2.75,0,0,1-1.27,2.9,1.65,1.65,0,0,1-2.37-.53,1.4,1.4,0,0,1,.56-2.07C25.64,26,26.63,25.5,27.76,26.33Z"/><path d="M15.59,25a9.87,9.87,0,0,1-.5,3.84,1.57,1.57,0,0,1-1.31,1.11c-.72.11-1.12-.38-1.38-1A1.48,1.48,0,0,1,12.7,27C13.48,26.43,14.31,25.88,15.59,25Z"/><path d="M58.55,32.94c-1.17-.31-1.89-.76-2-1.65a3.54,3.54,0,0,1,.31-1.74c.33-.82,1.38-.79,2.65,0,.9.56,1.15,1.31.64,2a2.85,2.85,0,0,1-.41.44C59.35,32.3,59,32.61,58.55,32.94Z"/><path d="M36,32.57c-.33,1-.55,1.64-.74,2.18a1.61,1.61,0,0,1-2.09-.06,2.75,2.75,0,0,1-1.17-2,1.36,1.36,0,0,1,1.64-1.33A19.5,19.5,0,0,1,36,32.57Z"/><path d="M40.58,17.87c.05,1.48-1.16,2.26-2.14,1.82a2.52,2.52,0,0,1-1.16-3.33,1.29,1.29,0,0,1,2-.39A18.3,18.3,0,0,1,40.58,17.87Z"/><path d="M45.31,34.46A1.82,1.82,0,0,1,43.87,32a.72.72,0,0,1,.18-.25,1.34,1.34,0,0,1,1.67-.08,1.53,1.53,0,0,1,.88,1.75C46.4,34,46.05,34.49,45.31,34.46Z"/><path d="M41.26,10.37a2,2,0,0,1-.24.54,1.49,1.49,0,0,1-1.94.07,1.37,1.37,0,0,1-.36-1.64,1.25,1.25,0,0,1,.7-.54A1.66,1.66,0,0,1,41.26,10.37Z"/><path d="M50.64,70c.87-6.42,1.82-13.48,2.79-20.53a5.09,5.09,0,0,1,.47-1.75,1.64,1.64,0,0,1,1.1-.82c.57,0,.84.56.8,1.08-.13,1.62-.32,3.23-.5,4.85a13.12,13.12,0,0,0-.27,1.5C55,59,54,63.45,53.19,68c-.24,1.29-.32,2.62-.52,3.93-.07.51-.33,1-1,1a1.17,1.17,0,0,1-1.06-1.25C50.63,71.3,50.64,71,50.64,70Z"/><path d="M43.36,55.08c-.37,4.14-.75,8.27-1.1,12.4-.12,1.42-.15,2.84-.32,4.24a1.1,1.1,0,0,1-.74.79,1.1,1.1,0,0,1-.89-.64,13.38,13.38,0,0,1-.35-3.6c.53-4.94.81-9.89.92-14.86A14.9,14.9,0,0,1,41.11,51a2.38,2.38,0,0,1,.54-1.06,1,1,0,0,1,.81-.3,1,1,0,0,1,.63.59,3.92,3.92,0,0,1,.11,1.19c0,1.22,0,2.43,0,3.65Z"/><path d="M19.76,48.5a8.43,8.43,0,0,1,1,1.43,25.77,25.77,0,0,1,1,3.2c1.25,5.33,2.46,10.68,3.67,16,.29,1.28.52,2.58.71,3.87,0,.2-.33.65-.49.64a2.23,2.23,0,0,1-1-.4c-.14-.09-.19-.35-.25-.55a24.87,24.87,0,0,1-1.1-3.8c-.73-5.46-2.44-10.69-3.66-16a25.73,25.73,0,0,1-.59-3C19,49.53,19.43,49.12,19.76,48.5Z"/><path d="M30.28,47.61c.16.12.39.2.47.36a3.32,3.32,0,0,1,.41,1.11C31.77,55.54,32.35,62,33,68.47c.12,1.21.42,2.4.53,3.61,0,.31-.28.91-.5.94a1.81,1.81,0,0,1-1.36-.32,2.26,2.26,0,0,1-.52-1.37c-.49-5.86-.94-11.73-1.41-17.59-.12-1.51-.27-3-.33-4.54a3.92,3.92,0,0,1,.36-1.44C29.78,47.66,30.1,47.66,30.28,47.61Z"/></svg>