<svg xmlns="http://www.w3.org/2000/svg" xmlns:xlink="http://www.w3.org/1999/xlink" version="1.1" x="0px" y="0px" viewBox="0 0 100 125" style="enable-background:new 0 0 100 100;" xml:space="preserve"><g><path d="M58.8,9.8c0.1,0,0.2,0,0.2-0.1c0,0,1.2-0.6,1.7-1.7c0.2-0.5,0.4-1.3,0.1-2.3c-0.1-0.2-0.2-0.6-0.2-0.6   c-0.1-0.2-0.2-0.3-0.4-0.4c-0.2-0.1-0.4,0-0.5,0.1c0,0-0.3,0.2-0.5,0.4c-0.8,0.7-1.2,1.4-1.3,1.9c-0.3,1.2,0.3,2.3,0.3,2.3   C58.4,9.7,58.6,9.8,58.8,9.8z M59.1,7.5c0.1-0.3,0.3-0.7,0.7-1.1c0.1,0.6,0,1-0.1,1.3c0,0,0,0,0,0c-0.1,0.3-0.3,0.5-0.5,0.7   C59,8.1,59,7.8,59.1,7.5z"/><path d="M56.7,7.8c0.1,0,0.1,0,0.2,0c0.2,0,0.4-0.1,0.5-0.4c0-0.1,0.6-1.5,0-2.9c-0.2-0.6-0.8-1.4-1.8-2.1C55.4,2.3,55,2.1,55,2.1   c-0.2-0.1-0.4-0.1-0.5,0c-0.2,0.1-0.3,0.2-0.3,0.4c0,0-0.1,0.4-0.1,0.7c-0.1,1.3,0.2,2.2,0.5,2.8C55.1,7.3,56.6,7.8,56.7,7.8z    M55.1,3.5c0.7,0.5,1.1,1.1,1.2,1.5c0.2,0.5,0.2,1,0.1,1.4c-0.3-0.2-0.7-0.5-1-1C55.3,5.1,55.1,4.4,55.1,3.5z"/><path d="M45.7,7.7c0.8,0.7,1.6,0.9,2.1,0.9c0.1,0,0.2,0,0.3,0c1.1,0,2-0.7,2-0.7c0.2-0.2,0.3-0.5,0.1-0.8c0,0-0.8-1.1-1.9-1.3   c-0.5-0.1-1.3-0.1-2.3,0.3c-0.2,0.1-0.5,0.3-0.5,0.3c-0.2,0.1-0.3,0.2-0.3,0.4s0,0.4,0.2,0.5C45.3,7.3,45.5,7.5,45.7,7.7z M48,6.9   c0.3,0.1,0.6,0.2,0.8,0.4c-0.2,0.1-0.5,0.2-0.8,0.1c-0.3,0-0.7-0.1-1.2-0.4C47.3,6.9,47.7,6.9,48,6.9z"/><path d="M44.8,17.8c0,0,0.3,0.1,0.4,0.1c0.1,0,0.3,0,0.4,0c0.6,0,1.1-0.2,1.4-0.3c0.8-0.4,1.2-1.3,1.2-1.4c0.1-0.3,0-0.6-0.3-0.7   c-0.1,0-1-0.4-1.9,0c-0.4,0.2-0.9,0.5-1.4,1.2c-0.1,0.1-0.2,0.4-0.2,0.4c-0.1,0.2-0.1,0.4,0,0.5C44.5,17.6,44.6,17.7,44.8,17.8z    M46.5,16.4C46.5,16.4,46.5,16.4,46.5,16.4c0.1,0,0.2-0.1,0.3-0.1C46.7,16.4,46.6,16.5,46.5,16.4c-0.1,0.1-0.2,0.2-0.4,0.2   C46.2,16.6,46.4,16.5,46.5,16.4z"/><path d="M46.1,4.3c0.5,0.7,1,1,1.4,1.1c0,0,0,0,0,0c0.3,0.1,0.5,0.1,0.8,0.1c0.6,0,1-0.2,1.1-0.2c0.3-0.1,0.4-0.4,0.3-0.7   c0-0.1-0.4-1-1.2-1.4c-0.4-0.2-1-0.4-1.8-0.2c-0.2,0-0.4,0.1-0.4,0.1c-0.2,0-0.3,0.2-0.4,0.3c-0.1,0.2-0.1,0.4,0,0.5   C45.9,3.9,46,4.2,46.1,4.3z M48,4.3c0.1,0,0.2,0.1,0.2,0.1C48.1,4.4,48,4.4,48,4.3c-0.2,0-0.3,0-0.5-0.1C47.7,4.1,47.9,4.2,48,4.3z   "/><path d="M36.1,15.6c0.1,0.2,0.2,0.3,0.4,0.3c0,0,0.4,0.1,0.6,0.1c0.2,0,0.4,0,0.5,0c0.8,0,1.4-0.2,1.7-0.4c1.1-0.5,1.5-1.8,1.5-1.8   c0.1-0.3,0-0.6-0.3-0.7c-0.1,0-1.2-0.5-2.4,0c-0.5,0.2-1.2,0.6-1.8,1.5l0.4,0.2c0,0,0,0,0,0l-0.4-0.2c0,0,0,0,0,0   c-0.1,0.2-0.3,0.5-0.3,0.5C36,15.2,36,15.4,36.1,15.6z M38.7,14.1c0.3-0.1,0.6-0.1,0.8-0.1c-0.1,0.2-0.4,0.4-0.6,0.6   c-0.3,0.1-0.7,0.3-1.2,0.3C38,14.5,38.4,14.3,38.7,14.1z"/><path d="M40.4,8.5c0.4,0.8,1,1.3,1.4,1.5c0.4,0.2,0.9,0.3,1.2,0.3c0.5,0,0.8-0.1,0.9-0.1c0.3-0.1,0.5-0.4,0.4-0.7   c0-0.1-0.3-1.2-1.2-1.7c-0.4-0.3-1-0.5-2-0.5c-0.2,0-0.5,0-0.5,0c-0.2,0-0.4,0.1-0.5,0.3c-0.1,0.2-0.1,0.4,0,0.5   C40.2,8,40.3,8.3,40.4,8.5z M42.5,8.6c0.2,0.1,0.3,0.3,0.4,0.4c-0.2,0-0.4-0.1-0.5-0.1h0c-0.2-0.1-0.4-0.3-0.7-0.6   C42.1,8.4,42.4,8.5,42.5,8.6z"/><path d="M37.2,12.2C37.2,12.2,37.2,12.2,37.2,12.2c0.1,0,0.3,0,0.4-0.1c0.6-0.1,1-0.4,1.3-0.7c0.5-0.5,0.6-1.3,0.6-1.4   c0-0.3-0.2-0.6-0.5-0.6c-0.1,0-0.9-0.1-1.4,0.4c-0.3,0.2-0.6,0.6-0.8,1.2c0,0.1-0.1,0.3-0.1,0.3c0,0.2,0,0.4,0.1,0.5   C36.9,12.2,37,12.2,37.2,12.2z"/><path d="M31.2,17.4c0,0,0.2,0.1,0.3,0.1c0.3,0.1,0.7,0.2,0.9,0.2c0.2,0,0.4,0,0.5-0.1c0.7-0.2,1.2-0.8,1.2-0.9   c0.2-0.3,0.1-0.6-0.1-0.8c-0.1-0.1-0.7-0.5-1.5-0.4c-0.3,0-0.8,0.2-1.3,0.6c-0.1,0.1-0.3,0.2-0.3,0.2c-0.1,0.1-0.2,0.3-0.2,0.5   C30.9,17.1,31.1,17.3,31.2,17.4z"/><path d="M32.3,13.9c-0.1,0.1-0.2,0.3-0.2,0.5c0,0.2,0.2,0.3,0.3,0.4c0,0,0.3,0.1,0.4,0.2c0.5,0.2,0.9,0.2,1.2,0.2   c0.3,0,0.5,0,0.6-0.1c0.9-0.2,1.5-1,1.5-1.1c0.2-0.3,0.1-0.6-0.1-0.8c-0.1-0.1-0.9-0.6-1.8-0.5c-0.4,0.1-1,0.2-1.7,0.8   C32.5,13.7,32.3,13.9,32.3,13.9z M34.5,13.9c0.1,0,0.2,0,0.3,0C34.7,14,34.6,14,34.5,14c-0.1,0-0.3,0.1-0.5,0   C34.2,14,34.3,13.9,34.5,13.9z"/><path d="M30.4,19.5c-0.1,0.1-0.2,0.3-0.2,0.5c0,0.2,0.2,0.3,0.3,0.4c0,0,0.3,0.1,0.5,0.2c0.5,0.2,0.9,0.3,1.3,0.3   c0.3,0,0.5,0,0.7-0.1h0c1-0.2,1.6-1.1,1.7-1.2c0.2-0.3,0.1-0.6-0.1-0.8c-0.1-0.1-1-0.7-2-0.6c-0.5,0.1-1.1,0.3-1.8,0.9   C30.6,19.2,30.4,19.5,30.4,19.5z M32.7,19.4c0.2,0,0.4,0,0.5,0c-0.1,0.1-0.3,0.2-0.5,0.2h0c-0.2,0-0.5,0.1-0.8,0   C32.2,19.5,32.5,19.4,32.7,19.4z"/><path d="M39.5,24.8c0,0,0.3,0.1,0.6,0.1c0.3,0.1,0.6,0.1,0.9,0.1c0.6,0,1-0.1,1.3-0.2c1.1-0.4,1.6-1.6,1.6-1.6   c0.1-0.3,0-0.6-0.3-0.7c0,0-1.2-0.6-2.3-0.3c-0.5,0.1-1.2,0.5-1.9,1.3c-0.1,0.2-0.3,0.5-0.3,0.5c-0.1,0.2-0.1,0.4-0.1,0.5   C39.2,24.6,39.3,24.8,39.5,24.8z M41.7,23.3c0.3-0.1,0.5-0.1,0.8,0c-0.2,0.2-0.4,0.4-0.6,0.5c-0.3,0.1-0.6,0.2-1.2,0.2   C41.1,23.5,41.5,23.4,41.7,23.3z"/><path d="M42.3,27.5c0-0.1-0.4-0.9-1.2-1.1c-0.3-0.1-0.9-0.2-1.6,0c-0.1,0-0.4,0.1-0.4,0.1c-0.2,0.1-0.3,0.2-0.4,0.4   c-0.1,0.2,0,0.4,0.1,0.5c0,0,0.2,0.2,0.3,0.3c0.5,0.6,1,0.8,1.4,0.9c0.2,0,0.3,0.1,0.5,0.1c0.6,0,1.1-0.3,1.2-0.3   C42.3,28.1,42.4,27.7,42.3,27.5z"/><path d="M35.8,25.4c-0.3-0.2-0.6-0.1-0.8,0.1c-0.1,0.1-0.7,1-0.5,2c0.1,0.5,0.3,1.1,0.9,1.8c0.1,0.1,0.4,0.4,0.4,0.4   c0.1,0.1,0.3,0.2,0.4,0.2c0,0,0.1,0,0.1,0c0.2,0,0.3-0.2,0.4-0.3c0,0,0.1-0.3,0.2-0.5c0.3-0.9,0.3-1.6,0.2-2   C36.8,26.1,35.9,25.5,35.8,25.4z M35.9,28.2c-0.2-0.3-0.3-0.6-0.3-0.8c0-0.2,0-0.4,0-0.5c0.1,0.1,0.2,0.3,0.2,0.5   C36,27.6,36,27.8,35.9,28.2z"/><path d="M34.3,22.8c-0.1,0-0.8-0.2-1.5,0.1c-0.3,0.2-0.7,0.5-1,1c-0.1,0.1-0.2,0.3-0.2,0.3c-0.1,0.2-0.1,0.4,0,0.5   c0.1,0.2,0.3,0.3,0.5,0.3c0,0,0.2,0,0.3,0c0,0,0,0,0.1,0c0.6,0,1.1-0.2,1.3-0.4c0.6-0.4,0.8-1.2,0.8-1.3   C34.8,23.2,34.6,22.9,34.3,22.8z"/><path d="M33.2,25.9c-0.1,0-0.9-0.3-1.7,0.1c0,0,0,0,0,0c-0.3,0.2-0.8,0.5-1.2,1.2c-0.1,0.1-0.2,0.4-0.2,0.4c-0.1,0.2-0.1,0.4,0,0.5   c0.1,0.2,0.3,0.3,0.5,0.3c0,0,0.3,0,0.4,0c0,0,0,0,0.1,0c0.7,0,1.2-0.2,1.5-0.4c0.7-0.5,0.9-1.3,1-1.4C33.7,26.3,33.5,26,33.2,25.9   z"/><path d="M27.3,15.3c-0.4,0-1,0-1.7,0.3c-0.1,0.1-0.4,0.2-0.4,0.2C25.1,16,25,16.1,25,16.3c0,0.2,0.1,0.4,0.2,0.5   c0,0,0.2,0.2,0.3,0.3c0.6,0.5,1.2,0.6,1.6,0.6c0,0,0,0,0.1,0c0.8,0,1.5-0.6,1.6-0.6c0.2-0.2,0.3-0.6,0.1-0.8   C28.8,16.1,28.2,15.4,27.3,15.3z M27.2,16.5c0,0-0.1,0-0.1,0C27.1,16.5,27.2,16.5,27.2,16.5C27.2,16.5,27.2,16.5,27.2,16.5   C27.2,16.5,27.2,16.5,27.2,16.5z"/><path d="M32,12.3c1.1,0,2-0.8,2.1-0.8c0.2-0.2,0.3-0.6,0.1-0.8c0,0-0.8-1-2-1.2c-0.5-0.1-1.3,0-2.2,0.4c-0.2,0.1-0.5,0.3-0.5,0.3   c-0.2,0.1-0.3,0.3-0.3,0.5s0.1,0.4,0.2,0.5c0,0,0.3,0.2,0.5,0.4C30.7,12.2,31.5,12.3,32,12.3C32,12.3,32,12.3,32,12.3z M32,10.7   c0.3,0,0.5,0.2,0.7,0.3c-0.2,0.1-0.5,0.2-0.8,0.2c-0.3,0-0.7-0.1-1.1-0.3C31.4,10.7,31.8,10.7,32,10.7z"/><path d="M58.6,32.6c-0.2-0.2-0.6-0.2-0.8,0.1c-0.2,0.2-0.2,0.6,0.1,0.8c1.5,1.3,1,2.7,1,2.8c-0.3,0.9-0.8,1.5-1.4,1.8   c-1.2,0.5-2.6-0.2-2.6-0.2c-0.3-0.1-0.6,0-0.8,0.2c-0.1,0.3,0,0.6,0.2,0.8c0.1,0,1,0.5,2.2,0.5c0.4,0,0.9-0.1,1.3-0.3   c1-0.4,1.7-1.2,2-2.4C60,36.6,60.8,34.4,58.6,32.6z"/><path d="M74.6,58.1c-0.5-1.4-0.8-2.7-0.9-3.4c0.1-1.4-0.3-2.7-0.5-3.3c0-0.1-0.1-0.2-0.2-0.3c-0.5-2.7-1.6-6.7-2.2-8.9   c0.4-1.7,1.2-5.5,1.5-7.3c0.2-1.1-0.3-2.7-1.5-4.2c-1-1.3-2.6-2.7-4.2-2.9c-2-1-4.1-2-4.8-2.3c0,0,0,0,0,0c2-1,3.1-3.1,3.1-5.9   l0-0.3c0-1.2,0-2.5-0.7-3.5c-0.3-0.4-0.4-0.9-0.4-1.4c0-0.2,0-0.3,0-0.5c0-2-1.1-3.1-3.7-3.6c-0.7-0.1-1.3-0.2-1.9-0.2   c-1.6-0.1-2.6-0.2-3.3-1.6l0-0.1C54,6.1,53.3,4.6,51,4.5c-0.2,0-0.4,0.1-0.6,0.2c-0.2,0.2-0.3,0.4-0.3,0.7c0,0.5,0.3,0.9,0.8,0.9   c0.2,0.1,0.9,0.9,1.5,2c0.1,0.4,0.3,1.4,0.8,2.3c-0.5-0.2-1-0.4-1.8-0.9c-2.4-1.6-5.2,0-6.1,0.7c-1.1-0.2-2.2,0.2-3,0.4   c-0.3,0.1-0.6,0.2-0.9,0.2c-0.5,0.1-0.8,0.5-0.8,1c0,0.5,0.4,1,0.9,1c0.7,0,2,0.1,3.1,0.1c-0.1,0-0.2,0.1-0.3,0.1   c-0.6,0.3-1.2,0.7-1.9,1.1c-0.8,0.5-1.6,1.1-2.5,1.4c-1.8,0.7-4.6,3.5-4.7,3.7c-0.1,0.1-0.1,0.1-0.1,0.2l-0.7,2.2   c-0.1,0.3,0,0.5,0.3,0.7c0.2,0.1,0.5,0.1,0.7-0.1c1-1,2.7-2.4,4-3.1c-0.9,1.7-1.4,2.1-1.6,2.2c-1.1,0.7-2.5,2.6-2.7,2.9   c-0.1,0.2-0.1,0.4,0,0.6c0.1,0.2,0.3,0.3,0.5,0.3h0.4c0.1,0,0.2,0,0.3-0.1c0.6-0.4,3.7-2.5,4.2-3c0.5-0.5,2.4-3.7,3-4.8   c0.7-0.4,1-0.6,1.4-1.1c0.1-0.1,0.2-0.2,0.3-0.3c0.5-0.5,1.6-1.2,2.3-1.5c0.7,0.5,1.8,1.1,3.4,1.3c0.3,0.1,0.7,0.1,1,0.1   c0.9,0.1,1.6,0.2,2.1,0.4c0,0,0.1,0,0.1,0.1c0,0,0,0.1,0,0.1c-0.5,0.9-0.8,1.9-0.8,3c-0.1,0-0.3,0-0.4,0c-0.5-0.1-1.2-0.2-2.1-0.3   c0.8-0.2,1.3-0.8,1.4-0.9c0.2-0.2,0.2-0.6,0-0.8c-0.1-0.1-0.8-0.8-1.8-0.8c-0.4,0-1.1,0.1-1.8,0.6c-0.2,0.1-0.4,0.3-0.4,0.3   c-0.2,0.1-0.2,0.3-0.2,0.5c0,0.2,0.1,0.4,0.3,0.5c0,0,0.3,0.2,0.4,0.3c0,0,0,0,0,0c0.3,0.2,0.7,0.3,1,0.4c-0.6,0.1-1.1,0.2-1.6,0.4   c-1,0.4-1.9,0.7-3.5,0.1c0,0,0,0-0.1,0l-1.1-0.3c-0.2-0.1-0.5-0.1-0.7,0c-0.3,0.2-0.5,0.5-0.5,0.8c0,0.3,0.1,0.6,0.3,0.7   c0,0,0.1,0.1,0.1,0.1c0.7,0.6,2.5,2.3,4.8,1.2c1-0.5,1.8-0.6,2.4-0.6c-1.8,0.5-3.3,1.6-5.2,3c-0.7,0.5-1.1,0.8-1.4,1   c-0.1,0.1-0.2,0.1-0.3,0.2l0,0l0,0c-0.2,0.2-0.4,0.4-0.2,0.7c0,0.4,0.1,0.7,0.3,0.9c0.2,0.2,0.5,0.3,0.8,0.2   c0.2-0.1,1.3-0.6,1.6-0.7c0.9-0.7,2.5-1.7,4.1-2.3c0.6-0.3,1.2-0.4,1.9-0.5c0.6-0.1,1.1-0.2,1.7-0.4c0.7-0.3,1.5-0.1,2.1,0.5   c0.5,0.4,1,0.8,1.5,1.1c0.1,0,0.1,0.2,0.1,0.3c0,0.1-0.1,0.2-0.2,0.2c-0.9,0.2-3.2,0.8-5.5,1.5c-1,0.3-1.7,0.7-2.2,1.4   c-1.4,1.1-3,2.7-3,3.8c0,1,1,2.8,1.8,4.2l-0.4,4.2c-0.2,0.7-1.9,6.5-2.6,10.2c-0.1,0.1-0.1,0.2-0.2,0.3c-0.1,0.3-0.2,0.7-0.4,1.3   c0,0.1-0.1,0.1-0.1,0.2L44,53.5c-0.1,0.6-0.4,1.6-0.6,2.6c-0.4,1.2-0.7,2.4-0.8,3.3c0,0.7-0.3,1.1-0.6,1.6c-0.4,0.7-1,1.5-1,3   c0,2.7,0.9,3.3,1.1,3.4c0.3,0.1,0.6,0.1,0.8-0.2l0-0.1c0.4-0.6,0.6-1.3,0.6-2c0-0.5,0.1-1,0.2-1.5c0,0.5,0.1,1,0.3,1.5   c0.5,1.2,1.5,3.8,1.5,3.9c0.1,0.2,0.3,0.4,0.6,0.4c0.3,0,0.5-0.2,0.5-0.4c0-0.1,0.4-1.3-0.2-3c-0.5-1.4-0.4-2.4,0.4-3.6   c0,0,0-0.1,0.1-0.1c0.1,0.4,0.2,0.7,0.2,0.7c0.1,0.3,0.3,0.4,0.6,0.4c0,0,0,0,0,0c0.3,0,0.5-0.2,0.6-0.4c0.1-0.3,0.1-0.6,0.1-1   c0-0.9,0.1-2.2,1.1-4.3c0.2-0.5,0.4-1,0.4-1.5c0.4,3,1.2,5.8,2,8c1.4,3.7,1.7,4.9,1.8,5.2c0,1-0.2,9.7,2,15.1   c0.4,1.1,1.1,3.1,0.9,3.9c-0.1,0.4-0.2,0.9-0.4,1.5l0,0.1c-0.6,0.8-1,1-1.2,1c-1.3,0-2.7,2.3-2.7,3.5c0,0.8-0.5,1.6-0.6,1.6   c-0.1,0.2-0.1,0.5,0,0.7c0.2,0.2,0.4,0.3,0.6,0.2c0.1,0,1.2-0.4,2.6-2.4c0.4-0.5,0.7-0.8,1.1-0.9c0.6,0.5,2,0.7,2.6,0.8   c0.4,0.4,1,0.7,1.7,1c0.5,0.2,0.9,0.3,1.3,0.4c0.8,0.2,0.8,0.2,0.8,0.6c0,0.3,0.1,0.6,0.4,0.8c0.7,0.6,2.2,0.7,3,0.7   c0.1,0,0.2,0,0.3,0c0.3,0,0.5-0.2,0.5-0.5c0.1-0.3-0.1-0.5-0.3-0.6c-1.1-0.5-2.1-1.3-2.1-1.6c0-0.5-0.4-1-1.3-1.5   c0.1-0.1,0.3-0.2,0.4-0.3c0.6-0.5,2.7,0,4,0.5c0.2,0.1,0.5,0,0.7-0.2c0.2-0.2,0.2-0.5,0-0.7c-0.1-0.1-1.6-2.1-4.6-2.2   c-1.7-0.1-2.7-1.8-3-2.6c0.4,0,0.8-0.1,1.2-0.1c1.2,0,2-0.1,2.3-0.1c0.4,0,1.8,0.6,2.9,1.1c0.2,0.1,0.5,0.1,0.7-0.1   c0.2-0.2,0.2-0.5,0-0.7c-0.5-0.7-2.3-3-3.7-2.7c-0.1,0-0.2,0-0.3,0c-0.7-0.1-1.2-0.5-1.5-1.2c-0.4-1-0.6-2.1-0.7-2.5   c0.3-0.9,2.2-6.3,3.1-12.3c1.2-1.8,1.9-5.7,2.3-9.9c0.2,0.7,0.6,1.3,1,1.9c0.2,0.4,0.5,0.8,0.5,1c0.1,0.3,0.4,0.5,0.7,0.4   c0.3-0.1,0.5-0.4,0.4-0.7c-0.2-1.3-0.4-2.8-0.4-3.1c0.1-0.1,0.1-0.2,0.2-0.4c0.2-0.3,0.4-0.6,0.6-1.3c0,0.1,0,0.3,0,0.4   c0,0.9,0,1.7,0.4,2.2c0.6,0.9,0.7,2.7,0.2,4c-0.7,1.8,1.6,3.5,1.9,3.7c0.2,0.2,0.5,0.2,0.7,0c0.2-0.2,0.3-0.4,0.2-0.7   c0,0-0.5-1.3,0-3.1c0.2-0.6,0.3-1.2,0.3-1.7c0,0,0,0,0,0c0.2,0.1,0.5,0,0.7-0.2C74.9,61.9,75.3,60.2,74.6,58.1z M69.9,31.3   c0.9,1.2,1.4,2.5,1.3,3.2c-0.2,0.9-0.5,2.3-0.8,3.7l-0.6-5.8c0-0.3,0-0.6-0.1-1c0-0.1-0.1-0.3-0.2-0.6C69.7,31,69.8,31.2,69.9,31.3   z M50.6,17.8c-0.1,0.1-0.3,0.1-0.4,0.1c-0.2,0-0.4,0-0.7-0.1C50,17.7,50.4,17.7,50.6,17.8z M47,32.4c0-0.3,0.4-0.9,1.3-1.8   c-0.1,0.4-0.1,0.8-0.1,1l-0.3,3C47.3,33.6,47,32.8,47,32.4z M49.8,49.4c-0.2,1.2-0.3,2.5-0.3,3.8c-0.3-1-0.7-1.8-0.9-2.2l0-0.1   c0.5-1.4,2.5-6.7,3-7.8c0.1-0.1,0.1-0.2,0.1-0.3c0.1-0.1,0.2-0.4,0.3-1l0,0.4c-0.2,0.3-0.5,1.1-1,2.3c0,0.1-0.8,2.4-1.1,3.7   C50,48.5,49.9,49,49.8,49.4z M63.7,96.6c-0.1,0-0.2-0.1-0.2-0.1c0,0,0,0,0-0.1C63.6,96.4,63.7,96.5,63.7,96.6z M66.9,57.8   c0.2-3,0.1-6-0.1-8.1c-0.4-2.9-1.5-6.3-1.8-7.1l0.3-1.7c0.2,0.8,0.4,1.4,0.6,1.8c0.5,0.8,1.6,3.8,3.2,8.2c-0.1,0.2-0.1,0.3-0.1,0.5   c0,0.2,0,0.3,0,0.5c-0.2,0.9-0.4,1.6-0.6,2.1c-0.1,0.2-0.1,0.4-0.2,0.5c-0.1,0.2-0.1,0.5-0.2,0.7C67.7,56.2,67.4,57.1,66.9,57.8z    M73.7,61.3C73.7,61.3,73.6,61.3,73.7,61.3c-0.1-0.6-0.2-1.1-0.4-1.6c-0.6-1.8-0.6-2.5-0.6-2.5c0-0.3-0.3-0.6-0.6-0.6c0,0,0,0,0,0   c-0.3,0-0.6,0.3-0.6,0.6c0,0.1,0,0.9,0.6,2.9c0.3,1,0.5,1.8,0,3.8c-0.2,0.7-0.3,1.4-0.3,1.9c-0.3-0.4-0.5-0.8-0.3-1.2   c0.6-1.6,0.5-3.9-0.4-5.1c-0.2-0.2-0.2-1-0.2-1.5c0-0.4,0-0.8,0-1.2c0-0.4-0.2-0.9-0.3-1.3l0-0.1c-0.1-0.2-0.3-0.4-0.5-0.4   c-0.2,0-0.4,0.1-0.6,0.3c-0.3,0.5-0.6,1.1-0.7,1.6c-0.2,0.8-0.4,1.1-0.6,1.4c-0.1,0.2-0.2,0.4-0.3,0.6c0,0.1-0.1,0.3-0.1,0.5   c-0.1-0.3-0.1-0.6,0-0.8c0.6-0.9,0.9-1.9,1.2-2.8c0.1-0.2,0.1-0.5,0.2-0.7c0.1-0.2,0.1-0.3,0.2-0.5c0.2-0.6,0.5-1.3,0.7-2.4   c0,0,0-0.1,0-0.1c0-0.1,0-0.3,0-0.4c0-0.1,0-0.2,0.1-0.4c0.1-0.1,0.1-0.3,0-0.4c-1-2.7-2.7-7.4-3.3-8.6c-0.3-0.6-0.6-1.8-0.8-3.7   c0.4-0.5,0.7-1.3,0.7-2.5c-0.1-2.2-1-2.7-1.2-2.8c-0.3-0.1-0.7,0-0.8,0.3c-0.1,0.3,0,0.6,0.3,0.8c0,0,0.5,0.3,0.6,1.8   c0,1-0.3,1.6-0.6,2c0,0.1-0.1,0.1-0.1,0.2c0,0-0.1,0-0.1,0.1c-0.1,0.1-0.6,0.3-1.5,0.3c-1.2,0-1.8-1-1.8-1   c-0.1-0.3-0.5-0.4-0.8-0.2c-0.3,0.1-0.4,0.5-0.2,0.8c0,0.1,0.9,1.6,2.8,1.6c0.4,0,0.8,0,1.1-0.1l-0.6,3c0,0.1,0,0.2,0,0.3   c0,0,1.4,3.9,1.8,7c0.7,5.6-0.3,16.5-2.2,19.1c-0.1,0.1-0.1,0.2-0.1,0.2c-1,6.5-3.1,12.3-3.1,12.3c0,0.1,0,0.2,0,0.3   c0,0.1,0.2,1.5,0.8,2.8c0.4,1.1,1.4,1.9,2.5,2c0.2,0,0.4,0,0.6,0c0.2,0,0.4,0.1,0.7,0.3c-0.3-0.1-0.6-0.2-0.8-0.2   c-0.5,0-1.6,0-2.4,0.1c0,0-0.1,0-0.1,0c-0.4,0.1-0.8,0.1-1.2,0.1c-0.7-3.9-0.8-15-0.9-16.1c0.4-1.1,0.7-1.6,0.9-1.7   c0.2-0.2,0.2-0.6-0.1-0.8c-0.2-0.2-0.6-0.2-0.8,0c0.1-4,0.4-12.1,0.3-14.1l0-0.9c0.2-0.2,0.4-0.5,0.7-0.7c0.4-0.4,1.8-2.3,1.9-2.5   c0.2-0.3,0.1-0.6-0.1-0.8c-0.3-0.2-0.6-0.1-0.8,0.1c-0.6,0.8-1.5,2.1-1.8,2.4c-0.4,0.4-0.9,0.9-0.9,1c-0.1,0.1-0.1,0.2-0.1,0.4   l0,1.2c0.1,2.6-0.4,16-0.4,16.2c0,0,0,0.1,0,0.1l0,0.3c0,0.8,0.2,13.1,1,16.8c0,0.1,0,0.2,0,0.2c0,0.1,0,0.1,0,0.2   c0,0.2,1.2,3.8,4.3,3.9c0.2,0,0.4,0,0.6,0.1c-0.5,0-1,0.1-1.4,0.4c-0.4,0.3-0.8,0.5-1.1,0.6c-0.2,0.1-0.4,0.3-0.5,0.5l0,0.1   c0,0.3,0.1,0.5,0.3,0.6c0.9,0.4,1.4,0.7,1.6,0.9c-0.3-0.2-0.7-0.3-1-0.4c-0.3-0.1-0.7-0.2-1.2-0.4c-0.9-0.3-1.2-0.7-1.4-0.8   c-0.1-0.1-0.2-0.2-0.4-0.2c-1.1-0.1-1.9-0.4-2.1-0.5c-0.1-0.2-0.2-0.3-0.4-0.3c-0.6-0.1-1.5,0-2.4,1.3c-0.2,0.3-0.4,0.5-0.6,0.7   c0-0.1,0-0.1,0-0.2c0-0.8,1.2-2.3,1.6-2.3c0.7,0,1.4-0.5,2.2-1.5c0-0.1,0.1-0.1,0.1-0.2l0.1-0.2c0.2-0.6,0.3-1.2,0.4-1.6   c0.2-1.4-0.9-4.2-1-4.5c-2.2-5.3-2-14.6-2-14.7c0,0,0-0.1,0-0.1c0,0-0.2-1-1.9-5.4C51,58.9,50.3,53.4,51,49.6   c0.1-0.4,0.2-0.8,0.3-1.3c0.3-1.2,1.1-3.5,1.1-3.5c0.5-1.4,1-2.2,1-2.2c0.1-0.1,0.1-0.2,0.1-0.3l-0.5-6.5c0-0.3-0.3-0.5-0.6-0.5   c0,0,0,0,0,0c-0.3,0-0.6,0.2-0.6,0.5c-0.3,4.9-0.7,6.1-0.9,6.5c-0.1,0.1-0.1,0.2-0.2,0.4c0,0,0,0,0,0c0,0,0,0,0,0   c-0.5,1.2-2.5,6.3-3,7.8c0,0,0,0,0,0l-0.1,0.4c-0.1,0.2,0,0.4,0.1,0.5c0,0,2.1,3.2,0.8,5.9c-0.3,0.7-0.6,1.4-0.8,2   c0-0.1,0-0.2,0-0.3c0-0.3,0-0.6,0.1-1.1c0-0.3-0.2-0.6-0.5-0.6c-0.3,0-0.6,0.2-0.7,0.5c-0.1,0.4-0.1,0.9-0.1,1.4   c-0.1,0.9-0.2,2.2-0.5,2.7c-0.5,0.8-0.8,1.6-0.9,2.4c-0.2-1,0.3-2.7,0.7-3.4c0.5-1,0.3-3.4,0.3-3.8c0-0.3-0.3-0.5-0.6-0.5   c0,0,0,0,0,0c-0.3,0-0.6,0.2-0.6,0.6c0,0-0.1,2.8-1.1,4.2c-1.1,1.7-1.3,3.4-1.3,4c0,0.2,0,0.3-0.1,0.5c-0.1-0.4-0.2-0.9-0.2-1.7   c0-1.2,0.4-1.8,0.8-2.4c0.4-0.5,0.8-1.2,0.8-2.1c0-0.7,0.4-1.9,0.7-3c0.3-1.1,0.6-2.1,0.7-2.8c0,0,0,0,0-0.1l0-0.4c0,0,0-0.1,0-0.1   c0.1-0.6,0.3-1.1,0.3-1.3c0-0.1,0.1-0.2,0.1-0.2c0-0.1,0.1-0.1,0.1-0.2c0.7-3.7,2.6-10.1,2.6-10.2c0,0,0-0.1,0-0.1l0.4-4.4   c0,0,0,0,0,0l0.4-4.8c0,0,0-0.1,0-0.1c0-0.3,0.3-1.9,0.8-2.7c0,0,0.1-0.1,0.1-0.1c0.3-0.2,0.7-0.4,1.1-0.5c2.3-0.6,4.6-1.2,5.5-1.5   c0.5-0.1,0.9-0.5,1-1c0.2-0.6-0.1-1.3-0.7-1.6c-0.4-0.2-0.9-0.5-1.2-0.9c-0.9-0.9-2.2-1.1-3.3-0.7c-0.5,0.2-1,0.3-1.6,0.4   c-0.7,0.1-1.4,0.3-2.1,0.6c-1.7,0.7-3.4,1.8-4.3,2.5c0,0-0.1,0.1-0.3,0.1c0.2-0.2,0.5-0.4,0.8-0.6c2.3-1.7,3.8-2.8,6-3.1   c0.2,0,0.4-0.1,0.6-0.1c0.2,0,0.3-0.2,0.4-0.4c0.1-0.2,0-0.4-0.1-0.5c0,0-0.1-0.1-0.1-0.1c-0.7-0.7-2.3-1.6-5.3-0.2   c-1.1,0.5-2.1,0.1-3-0.6l0.2,0c1.9,0.7,3.2,0.2,4.2-0.1c0.5-0.2,1-0.3,1.5-0.4c1.1-0.1,2.3,0.2,2.9,0.3c0.5,0.1,1,0,1.5-0.2   c0.2-0.1,0.3-0.3,0.3-0.5l0-0.1c0,0,0-0.1,0-0.1c0-0.9,0.2-1.8,0.6-2.6c0.2-0.3,0.2-0.7,0.1-1.1c-0.1-0.3-0.4-0.6-0.8-0.7   c-0.6-0.2-1.4-0.3-2.4-0.5c-0.3,0-0.6-0.1-0.9-0.1c-1.6-0.2-2.5-0.8-3.2-1.3c-0.2-0.1-0.4-0.2-0.6-0.1c-0.7,0.3-2.2,1.2-2.9,1.9   c-0.1,0.1-0.2,0.2-0.3,0.3c-0.4,0.4-0.5,0.6-1.3,0.9c-0.1,0.1-0.2,0.1-0.3,0.2c-0.8,1.4-2.6,4.4-2.9,4.7c-0.1,0.1-0.2,0.2-0.4,0.3   c0.4-0.6,1-1.5,1.8-3.1c0-0.1,0.1-0.2,0.1-0.2c0.1-0.1,0.1-0.2,0-0.4c0,0,0,0,0-0.1c0-0.1-0.1-0.2-0.1-0.2c0,0-0.1-0.1-0.1-0.1   c-0.1-0.1-0.2-0.1-0.3-0.1c-1.2,0.1-3.1,1.5-4.4,2.6l0-0.1c0.8-0.8,3-2.8,4.2-3.3c1-0.4,1.9-1,2.7-1.5c0.6-0.4,1.2-0.8,1.7-1   c0.5-0.2,0.8-0.5,1.1-0.8c0.1-0.1,0.2-0.2,0.3-0.3c0.1-0.1,0.2-0.3,0.2-0.5c0-0.2-0.1-0.4-0.2-0.5c0,0,0,0-0.1,0   c0-0.1-0.1-0.2-0.2-0.3c-0.2-0.2-0.5-0.2-0.7-0.1c-0.5,0.1-1.6,0.1-2.5,0.1c0.8-0.2,1.7-0.5,2.6-0.3c0.2,0,0.4,0,0.5-0.2   c0.3-0.3,2.9-2.1,4.9-0.8c0.9,0.6,1.5,0.8,2.1,1.1l0.2,0.1c0,0,0.1,0,0.1,0c0.2,0,0.4,0.1,0.7,0.2c0.4,0.2,0.8,0.3,1.2,0.2l2.2,0.8   c0.5,0.2,0.8,0.3,1,0.3c-0.5,0.1-1,0.1-1.4-0.1c-1.2-0.5-2-0.4-2.7-0.2c-0.1,0-0.3,0-0.4,0.1c0,0,0-0.1-0.1-0.1   c-0.4-0.5-1.8-1.6-3.4-2.1c-1.1-0.4-2.3-0.2-3.3,0.5c-0.2,0.1-0.3,0.3-0.2,0.5s0.2,0.4,0.3,0.5c0.4,0.2,0.8,0.4,1.2,0.6   c0.9,0.5,1.9,1.1,3.4,1.2c0,0,0,0,0,0l1.3,0.1c0,0,0,0,0,0c0,0,0,0,0,0c0.5,0,0.9,0,1.3-0.1c0.6-0.1,1.2-0.2,2,0.2   c0.4,0.2,0.9,0.3,1.3,0.3c0.3,0,0.7-0.1,1-0.2c0.5-0.2,0.7-0.2,0.7-0.2c0.3,0,0.4-0.1,0.5-0.3c0.1-0.2,0.1-0.4-0.1-0.6   c-0.2-0.3-0.3-0.4-0.4-0.5c-0.2-0.3-0.3-0.4-0.7-0.5c-0.2,0-0.5-0.1-1.1-0.4c0,0,0,0,0,0c0,0,0,0,0,0L55.2,11c0,0,0,0,0,0   c0,0,0,0,0,0c-0.7-0.2-1.4-1.9-1.7-3.1c0,0,0-0.1,0-0.1c-0.2-0.4-0.6-1.1-1.1-1.7c0.6,0.4,1,1.3,1.7,2.8l0,0.1c1,2,2.5,2.2,4.2,2.3   c0.6,0,1.2,0.1,1.8,0.2c2.3,0.4,2.7,1.2,2.7,2.5c0,0.2,0,0.3,0,0.4c0,0.8,0.2,1.5,0.6,2.1c0.5,0.7,0.5,1.7,0.5,2.8l0,0.3   c0,2.4-1,4.2-2.7,4.9c-0.2,0.1-0.3,0.2-0.3,0.4c-0.1,0.2-0.2,0.6,0.1,1.2c0.1,0.1,0.2,0.3,0.3,0.3c0.3,0.2,2.7,1.3,5,2.5   c0,0,0.1,0,0.1,0.1c0,0,0,0,0,0c0,0,0,0,0,0c0,0,0,0,0,0c0,0,0,0,0,0c0,0,0,0,0,0c1.1,0.2,2.2,2.5,2.3,2.9c0,0.3,0.1,0.6,0.1,0.8   c0,0,0,0.1,0,0.1l0.9,9.5c0,0,0,0,0,0c0,0,0,0.1,0,0.1c0.6,2.2,1.8,6.3,2.3,9c0,0.1,0,0.1,0.1,0.2c0.1,0.1,0.1,0.2,0.1,0.2   c0.2,0.5,0.5,1.6,0.4,2.9c0,0,0,0.1,0,0.1c0.1,0.9,0.3,2.2,0.9,3.8C74,59.9,73.8,60.9,73.7,61.3z M48.7,11.9   c-0.1,0-0.2-0.1-0.2-0.1c0.4-0.1,0.8-0.1,1.3,0.1c0.7,0.3,1.4,0.7,2,1.1c-0.1,0-0.1,0-0.2,0C50.4,12.9,49.6,12.4,48.7,11.9z"/><path d="M62,19.4C62,19.4,62,19.4,62,19.4c0.7,0,1.1-0.5,1.1-0.5c0.1-0.1,0.1-0.2,0-0.3c0,0-0.5-0.6-1.1-0.6   c-0.6,0-1.1,0.5-1.1,0.5c0,0-0.1,0.1-0.1,0.2c0,0.1,0,0.1,0.1,0.2C61.2,19.2,61.6,19.4,62,19.4z"/><path d="M58.6,18.9c0.1-0.1,0.1-0.2,0-0.3c0,0-0.5-0.6-1.1-0.6c-0.6,0-1.1,0.5-1.1,0.5c0,0-0.1,0.1-0.1,0.2c0,0.1,0,0.1,0.1,0.2   c0.3,0.4,0.7,0.5,1.1,0.5c0,0,0,0,0,0C58.2,19.5,58.6,19,58.6,18.9z"/></g></svg>