<svg xmlns="http://www.w3.org/2000/svg" viewBox="0 0 96.09 122.0625" x="0px" y="0px"><title>plane</title><g data-name="Layer 2"><g data-name="line copy"><path d="M77.24,41.32a4.36,4.36,0,0,1-.27-1.6A4.84,4.84,0,0,1,77.31,38l1.45-1.55c7.48-8,21.39-22.76,16.19-33.37A4.59,4.59,0,0,0,92.57.85C81.23-3.85,66.21,12.11,59,19.77l-.53.57a1.56,1.56,0,0,1-1.36.47L51.69,20C36.58,17.8,22.3,15.71,6.46,16.68a4.53,4.53,0,0,0-2.62,1A14.23,14.23,0,0,0,.83,21l-.14.22a4.55,4.55,0,0,0,3,6.88A139.07,139.07,0,0,1,22.32,33.2,139.32,139.32,0,0,1,40,40.79a1.53,1.53,0,0,1,.82,1.07.55.55,0,0,1,0,.18l-.07.09a1.85,1.85,0,0,0-.36,1.18C35,50.09,29.73,57.13,24.78,64.25a1.55,1.55,0,0,1-1.21.67l-14.16.57a4.53,4.53,0,0,0-2.89,1.18c-2.11,1.94-4.46,4.47-3.89,6.94C3,75,4.11,76,6.05,76.58a53.92,53.92,0,0,0,8.43,1.48c2,.24,4.08.5,6,.91a1.58,1.58,0,0,1,1.21,1.13c.54,1.93.93,4,1.3,6a54.3,54.3,0,0,0,2,8.32c.7,1.91,1.77,3,3.19,3.23a3.39,3.39,0,0,0,.55,0c2.29,0,4.46-2.32,6.12-4.39a4.55,4.55,0,0,0,1-3l-.36-14.18a1.53,1.53,0,0,1,.59-1.25c6.83-5.45,13.55-11.2,20-17.09a1.57,1.57,0,0,1,1.29-.4,1.53,1.53,0,0,1,1.12.75A137.75,137.75,0,0,1,73.66,93.89,4.58,4.58,0,0,0,76.45,97a4.42,4.42,0,0,0,4.07-.43,8.5,8.5,0,0,0,.74-.53,11.12,11.12,0,0,0,3-3.61,4.56,4.56,0,0,0,.53-2.15,127.7,127.7,0,0,0-2.27-24.48C78.17,45.38,77.38,41.72,77.24,41.32Zm4.52,49.39a1.66,1.66,0,0,1-.12.31,8.24,8.24,0,0,1-2.22,2.65c-.18.14-.36.26-.54.38a1.52,1.52,0,0,1-1.36.14,1.57,1.57,0,0,1-1-1.06A141.07,141.07,0,0,0,61.12,56.6a4.61,4.61,0,0,0-2-1.8,26.94,26.94,0,0,0,1.89-2,1.5,1.5,0,0,0-2.26-2,24.78,24.78,0,0,1-3.58,3.36,1.47,1.47,0,0,0-.57,1,5.19,5.19,0,0,0-.46.36c-6.38,5.84-13.06,11.55-19.83,17a4.61,4.61,0,0,0-1.72,3.68l.36,14.17a1.47,1.47,0,0,1-.33,1c-2.67,3.35-3.72,3.28-3.83,3.27s-.51-.33-.86-1.29A50.06,50.06,0,0,1,26,85.51c-.38-2.05-.78-4.17-1.36-6.22A4.6,4.6,0,0,0,21.14,76c-2.09-.44-4.23-.7-6.3-1A51,51,0,0,1,6.89,73.7c-1-.29-1.3-.62-1.34-.77s-.16-1.16,3-4.05a1.51,1.51,0,0,1,1-.39l14.16-.58a4.55,4.55,0,0,0,3.56-2c4.94-7.11,10.19-14.14,15.61-20.91a4.37,4.37,0,0,0,.9-1.91l2.42-3.26a1.5,1.5,0,0,0-2.41-1.79l-.92,1.24a4.57,4.57,0,0,0-1.47-1.21A141.31,141.31,0,0,0,23.3,30.37a139.78,139.78,0,0,0-19-5.18,1.55,1.55,0,0,1-1.13-.92,1.51,1.51,0,0,1,.1-1.43l.11-.17A11.82,11.82,0,0,1,5.73,20a1.58,1.58,0,0,1,.91-.35c2.65-.16,5.26-.23,7.84-.23C27,19.44,38.85,21.17,51.25,23l3.7.53c-.66.7-1.33,1.38-2,2.06a1.49,1.49,0,0,0,0,2.12,1.5,1.5,0,0,0,2.12,0c1.22-1.22,2.43-2.47,3.6-3.73a1.41,1.41,0,0,0,.28-.45,4.43,4.43,0,0,0,1.7-1.12l.54-.57C67.41,15.21,82-.28,91.43,3.62a1.66,1.66,0,0,1,.83.78c4.29,8.75-8.7,22.57-15.68,30L75.11,36a3.2,3.2,0,0,0-.51.82,1.5,1.5,0,0,0-.32.19A21.56,21.56,0,0,0,70,41.71a1.5,1.5,0,0,0,.43,2.08,1.46,1.46,0,0,0,.82.25,1.48,1.48,0,0,0,1.25-.68,19.63,19.63,0,0,1,1.63-2.1,7.11,7.11,0,0,0,.28,1c.18.63,2.08,9.47,5.22,24.12a128.55,128.55,0,0,1,2.2,23.86A2.29,2.29,0,0,1,81.76,90.71Z"/></g></g></svg>