<svg xmlns="http://www.w3.org/2000/svg" xmlns:xlink="http://www.w3.org/1999/xlink" version="1.1" x="0px" y="0px" viewBox="0 0 100 125" style="enable-background:new 0 0 100 100;" xml:space="preserve"><g><path d="M95.402,60.631c-5.02-26.441-34.334-25.89-41.966-25.285l5.98-19.512l-7.687-2.52l-0.463,8.594   c-1.053-1.778-2.667-3.913-5.057-5.785C47.558,8.814,39.687-0.08,28.88,0C16.633,0.091,4.048,7.521,4.048,7.521   s1.769,15.674,24.438,18.997c8.789,1.288,13.971-1.404,16.423-6.416c1.571,0.731,4.308,2.562,6.086,6.861l-0.446,8.276   c-6.396-1.612-39.494-8.259-44.432,25.391C3.037,81.628,20.827,101.918,38.686,96.22c-10.681-11.276-1.168-29.3-1.168-29.3   c-4.478,22.632,6.345,30.613,10.24,31.623C75.981,105.861,99.919,84.428,95.402,60.631z M42.804,15.626   c0,0-3.068-3.039-12.04-4.915c-8.973-1.877-23.35-2.485-23.35-2.485S22.322,6.3,31.294,8.176   C40.266,10.052,43.03,14.547,42.804,15.626z"/></g></svg>