<svg xmlns="http://www.w3.org/2000/svg" xmlns:xlink="http://www.w3.org/1999/xlink" xmlns:sketch="http://www.bohemiancoding.com/sketch/ns" viewBox="0 0 51 73.75" version="1.1" x="0px" y="0px"><title>31 - Raft (Solid)</title><desc>Created with Sketch.</desc><g stroke="none" stroke-width="1" fill="none" fill-rule="evenodd" sketch:type="MSPage"><g sketch:type="MSLayerGroup" fill="#000000"><path d="M46.5,50 C45.079,50 43.825,50.675 43,51.706 C42.175,50.675 40.921,50 39.5,50 C38.079,50 36.825,50.675 36,51.706 C35.175,50.675 33.921,50 32.5,50 C31.079,50 29.825,50.675 29,51.706 C28.175,50.675 26.921,50 25.5,50 C24.079,50 22.825,50.675 22,51.706 C21.175,50.675 19.921,50 18.5,50 C17.079,50 15.825,50.675 15,51.706 C14.175,50.675 12.921,50 11.5,50 C10.079,50 8.825,50.675 8,51.706 C7.175,50.675 5.921,50 4.5,50 C2.019,50 0,52.019 0,54.5 C0,56.981 2.019,59 4.5,59 C5.921,59 7.175,58.325 8,57.293 C8.825,58.325 10.079,59 11.5,59 C12.921,59 14.175,58.325 15,57.293 C15.825,58.325 17.079,59 18.5,59 C19.921,59 21.175,58.325 22,57.293 C22.825,58.325 24.079,59 25.5,59 C26.921,59 28.175,58.325 29,57.293 C29.825,58.325 31.079,59 32.5,59 C33.921,59 35.175,58.325 36,57.293 C36.825,58.325 38.079,59 39.5,59 C40.921,59 42.175,58.325 43,57.293 C43.825,58.325 45.079,59 46.5,59 C48.981,59 51,56.981 51,54.5 C51,52.019 48.981,50 46.5,50 L46.5,50 Z M11.5,57 C10.121,57 9,55.878 9,54.5 C9,53.122 10.121,52 11.5,52 C12.879,52 14,53.122 14,54.5 C14,55.878 12.879,57 11.5,57 L11.5,57 Z M25.5,57 C24.121,57 23,55.878 23,54.5 C23,53.122 24.121,52 25.5,52 C26.879,52 28,53.122 28,54.5 C28,55.878 26.879,57 25.5,57 L25.5,57 Z M39.5,57 C38.121,57 37,55.878 37,54.5 C37,53.122 38.121,52 39.5,52 C40.879,52 42,53.122 42,54.5 C42,55.878 40.879,57 39.5,57 L39.5,57 Z" sketch:type="MSShapeGroup"/><path d="M1,49 L49,49 C49.553,49 50,48.552 50,48 C50,47.448 49.553,47 49,47 L28,47 L28,44 L35.001,44 C35.783,44 36.514,43.615 36.957,42.971 C37.399,42.326 37.496,41.506 37.21,40.761 C36.433,38.738 36.319,37.743 36.045,35.339 L35.937,34.396 L34.832,33.733 L34.253,31.998 L32.93,31.808 L33.809,31.281 L32.934,29.53 L35.214,28.879 L35.22,28.131 C35.257,23.703 35.964,19.479 37.216,16.225 C37.496,15.494 37.399,14.674 36.957,14.029 C36.514,13.385 35.783,13 35.001,13 L28,13 L28,9.033 L25.993,9.033 C25.994,9.021 26,9.012 26,9 L26,7.023 L26,6.977 L26,1 C26,0.679 25.846,0.377 25.585,0.189 C25.323,1.33226763e-15 24.988,-0.049 24.684,0.051 L15.684,3.051 C15.275,3.188 15,3.569 15,4 C15,4.431 15.275,4.812 15.684,4.949 L24,7.721 L24,9 C24,9.012 24.006,9.021 24.007,9.033 L22,9.033 L22,13 L14.999,13 C14.217,13 13.486,13.385 13.043,14.029 C12.601,14.674 12.504,15.494 12.787,16.232 C15.433,23.111 15.433,33.889 12.784,40.775 C12.504,41.506 12.601,42.326 13.043,42.971 C13.486,43.615 14.217,44 14.999,44 L22,44 L22,47 L1,47 C0.447,47 0,47.448 0,48 C0,48.552 0.447,49 1,49 L1,49 Z M24,11.033 L26,11.033 L26,13 L24,13 L24,11.033 Z M24,44 L26,44 L26,47 L24,47 L24,44 Z" sketch:type="MSShapeGroup"/></g></g></svg>