<svg xmlns="http://www.w3.org/2000/svg" xmlns:xlink="http://www.w3.org/1999/xlink" version="1.1" x="0px" y="0px" viewBox="0 0 48 60" enable-background="new 0 0 48 48" xml:space="preserve"><path d="M24,44.5c9.098,0,16.5-7.402,16.5-16.5c0-8.659-6.708-15.766-15.198-16.434l5.018-4.182  c0.006-0.005,0.009-0.013,0.015-0.018c0.021-0.019,0.036-0.042,0.054-0.065c0.021-0.028,0.043-0.054,0.058-0.085  c0.011-0.023,0.017-0.048,0.025-0.073c0.011-0.036,0.02-0.072,0.022-0.109C30.494,7.021,30.5,7.012,30.5,7  c0-0.017-0.008-0.031-0.009-0.047c-0.003-0.036-0.01-0.07-0.021-0.106c-0.009-0.029-0.02-0.055-0.035-0.081  c-0.008-0.014-0.01-0.03-0.019-0.044l-2-3C28.323,3.583,28.167,3.5,28,3.5h-8c-0.167,0-0.323,0.083-0.416,0.223l-2,3  c-0.009,0.014-0.011,0.03-0.019,0.044c-0.014,0.026-0.025,0.052-0.035,0.081c-0.011,0.035-0.018,0.069-0.021,0.106  C17.508,6.969,17.5,6.983,17.5,7c0,0.012,0.006,0.021,0.007,0.032c0.002,0.038,0.011,0.073,0.022,0.109  c0.008,0.025,0.013,0.05,0.025,0.073c0.015,0.031,0.036,0.058,0.058,0.085c0.018,0.023,0.033,0.046,0.054,0.065  c0.006,0.006,0.009,0.013,0.015,0.018l5.018,4.182C14.208,12.234,7.5,19.341,7.5,28C7.5,37.098,14.902,44.5,24,44.5z M20.268,4.5  h7.465l1.334,2H18.934L20.268,4.5z M19.381,7.5h9.238L24,11.349L19.381,7.5z M24,12.5c8.547,0,15.5,6.953,15.5,15.5  S32.547,43.5,24,43.5S8.5,36.547,8.5,28S15.453,12.5,24,12.5z"/><path d="M24,40.5c6.893,0,12.5-5.607,12.5-12.5S30.893,15.5,24,15.5S11.5,21.107,11.5,28S17.107,40.5,24,40.5z M24,16.5  c6.341,0,11.5,5.159,11.5,11.5S30.341,39.5,24,39.5S12.5,34.341,12.5,28S17.659,16.5,24,16.5z"/></svg>