<svg xmlns="http://www.w3.org/2000/svg" xmlns:xlink="http://www.w3.org/1999/xlink" version="1.1" x="0px" y="0px" viewBox="0 0 100 125" enable-background="new 0 0 100 100" xml:space="preserve"><g><path d="M60.1,41.4c1.1,0.1,2.3,0.3,2.8,0.3c0,0,0,0,0,0c0.4-0.1,2.7-0.6,4.3-1.1l1.6-2.5c-2.4,0.5-6.3,1.3-7.5,1.5L60.1,41.4z"/><path d="M31.2,38.2l1.6,2.5c1.7,0.4,4,1,4.3,1.1c0,0,0,0,0,0c0.4,0,1.7-0.1,2.8-0.3l-1.2-1.8C37.5,39.4,33.6,38.7,31.2,38.2z"/><path d="M76,30l-12.3-6.2l-13.6,5.2l-13.6-5.2L24.2,30l-1.9,7.1l4.1,18.7l7.9,11.2l2-3.5l-2.8,7.8l6.8,8.6l9-6.3v-5.6v-0.7   l-11.2-7.9h23.8l-11,7.8v0.8v5.6l9,6.3l6.8-8.6l-2.8-7.8l2,3.5l7.9-11.2l4.1-18.7L76,30z M42.9,52.2l-0.5-6.9l-1.5-2.4   c-1,0.1-3,0.4-3.7,0.4c-0.1,0-0.2,0-0.3,0c-0.4-0.1-4.3-1-4.7-1.2L31.8,42l-4-6.3l1.9,0.5c0.3,0.1,6,1.2,9.7,1.9l0.3,0.1l3,4.4   l0.8,2.3L42.9,52.2z M71.1,37.4L68.2,42l-0.3,0.1c-0.4,0.1-4.3,1.1-4.7,1.2c-0.1,0-0.2,0-0.3,0h0c-0.7,0-2.8-0.3-3.7-0.4l-1.5,2.4   l-0.5,6.9L56.5,45l0.8-2.3l3-4.4l0.3-0.1c3.7-0.7,9.4-1.9,9.7-1.9l1.9-0.5L71.1,37.4z"/><polygon points="43.1,60.9 50,65.8 56.9,60.9  "/><polygon points="42.7,80.1 45.6,85.7 50.1,85.7 54.6,85.7 57.5,80.1 50.1,75  "/><path d="M77.6,64.3l5.3,11.3l10.1-8l-2.9-7l-2.6-11.8l4.2,9l3-5.4l-3.2-11.6l-4.5-15.1l5.7,11.6l2.8-7.7L82.5,12L70.7,3.3L50,13.1   L29.3,3.3L17.5,12L4.7,29.5l2.8,7.7l5.7-11.6L8.7,40.7L5.4,52.3l3,5.4l4.2-9L10,60.6l-2.9,7l10.1,8l5.3-11.3L19,77.6l5.3,13.5   L50,96.7l25.7-5.6L81,77.6L77.6,64.3z M75.3,56.4l-8.5,12l1.5,2.6l-0.1,0.8l-8,10.1L58.8,81l-3.3,6.3h-5.4h-5.4L41.4,81L40,82   l-8-10.1L31.9,71l1.5-2.6l-8.5-12L20.6,37l2.2-8.1l11.8-6l-8.9-4.4l-7,4.4l7.1-5.1l10.8,4.3l13.4,5.1l13.1-5v0l10.9-4.4l7.1,5.1   l-7.3-4.4l-8.5,4.3l11.9,6.1l2.2,8.1L75.3,56.4z"/></g></svg>