<svg xmlns="http://www.w3.org/2000/svg" data-name="Layer 1" viewBox="0 0 64 80" x="0px" y="0px"><title>x</title><path d="M56.26,59.63h-.45V4.37h.45a1,1,0,0,0,0-2H7.74a1,1,0,0,0,0,2h.45V59.63H7.74a1,1,0,0,0,0,2H56.26a1,1,0,0,0,0-2Zm-2.41,0h-2c-.29-2.06-1.42-4.84-4.28-5.35a19.86,19.86,0,0,0-3.48-12.72A14.81,14.81,0,0,0,37.35,36C35.51,35.17,34.16,34.52,33,32c1.17-2.55,2.52-3.2,4.36-4.06a14.88,14.88,0,0,0,6.7-5.53A19.86,19.86,0,0,0,47.53,9.65c2.82-.51,4-3.22,4.26-5.28h2.06ZM14,59.63c.24-1.37,1-3.69,3.45-3.69H46.57c2.45,0,3.21,2.32,3.45,3.69Zm7.41-17.06a12.92,12.92,0,0,1,6-4.94A9.09,9.09,0,0,0,32,33.87a9.09,9.09,0,0,0,4.6,3.76,12.92,12.92,0,0,1,6,4.94,18.07,18.07,0,0,1,3.16,11.61H44l-11.3-9.29a1,1,0,0,0-1.23,0L20,54.18H18.23A18.07,18.07,0,0,1,21.39,42.57ZM50,4.37C49.76,5.75,49,8,46.57,8H17.43C15,8,14.24,5.75,14,4.37ZM18.23,9.74H45.77a18.08,18.08,0,0,1-3.16,11.62,18.43,18.43,0,0,1-1.38,1.72H22.77a18.43,18.43,0,0,1-1.38-1.72A18.08,18.08,0,0,1,18.23,9.74ZM39,25A18.2,18.2,0,0,1,36.6,26.3,9.09,9.09,0,0,0,32,30.06a9.09,9.09,0,0,0-4.6-3.76A18.2,18.2,0,0,1,25,25ZM23.11,54.18l9-7.27,8.84,7.27Zm-13-49.81h2c.31,2.06,1.45,4.77,4.27,5.28A19.86,19.86,0,0,0,20,22.37a14.88,14.88,0,0,0,6.7,5.53c1.84.86,3.19,1.51,4.36,4.06-1.17,2.56-2.52,3.21-4.36,4.07A14.81,14.81,0,0,0,20,41.56a19.86,19.86,0,0,0-3.48,12.72c-2.86.51-4,3.29-4.28,5.35h-2Z"/></svg>