<svg xmlns="http://www.w3.org/2000/svg" xmlns:xlink="http://www.w3.org/1999/xlink" version="1.1" x="0px" y="0px" viewBox="0 0 100 125" style="enable-background:new 0 0 100 100;" xml:space="preserve"><rect x="71.8" y="86.7" width="3" height="1"/><rect x="65.8" y="86.7" width="3" height="1"/><rect x="59.8" y="86.7" width="3" height="1"/><rect x="53.8" y="86.7" width="3" height="1"/><rect x="47.8" y="86.7" width="3" height="1"/><rect x="41.8" y="86.7" width="3" height="1"/><rect x="77.5" y="78.5" width="1" height="3"/><rect x="77.5" y="72.5" width="1" height="3"/><rect x="77.5" y="66.5" width="1" height="3"/><rect x="21.5" y="62.1" width="1" height="3"/><rect x="77.5" y="60.5" width="1" height="3"/><rect x="21.5" y="56.1" width="1" height="3"/><rect x="77.5" y="54.5" width="1" height="3"/><rect x="21.5" y="50.1" width="1" height="3"/><rect x="77.5" y="48.5" width="1" height="3"/><rect x="21.5" y="44.1" width="1" height="3"/><rect x="77.5" y="42.5" width="1" height="3"/><rect x="21.5" y="38.1" width="1" height="3"/><rect x="77.5" y="36.5" width="1" height="3"/><rect x="21.5" y="32.1" width="1" height="3"/><rect x="77.5" y="30.5" width="1" height="3"/><rect x="21.5" y="26.1" width="1" height="3"/><rect x="77.5" y="24.5" width="1" height="3"/><rect x="21.5" y="20.1" width="1" height="3"/><rect x="77.5" y="18.5" width="1" height="3"/><rect x="21.5" y="14.1" width="1" height="3"/><rect x="71.7" y="12.3" width="3" height="1"/><rect x="65.7" y="12.3" width="3" height="1"/><rect x="59.7" y="12.3" width="3" height="1"/><rect x="53.7" y="12.3" width="3" height="1"/><rect x="47.7" y="12.3" width="3" height="1"/><rect x="41.7" y="12.3" width="3" height="1"/><rect x="35.7" y="12.3" width="3" height="1"/><rect x="29.7" y="12.3" width="3" height="1"/><rect x="23.7" y="12.3" width="3" height="1"/><path d="M41.9,93c0,0-1.1-0.4-2.8-1.3l0.4-0.9c1.6,0.8,2.7,1.2,2.7,1.2L41.9,93z"/><path d="M36.4,90.3c-0.9-0.5-1.7-1-2.6-1.6l0.6-0.8c0.8,0.5,1.7,1.1,2.5,1.6L36.4,90.3z"/><path d="M31.4,87c-0.8-0.6-1.6-1.3-2.4-1.9l0.7-0.8c0.7,0.6,1.5,1.3,2.3,1.9L31.4,87z"/><path d="M26.8,83c-0.7-0.7-1.4-1.5-2.1-2.2l0.8-0.7c0.6,0.7,1.3,1.5,2,2.2L26.8,83z"/><path d="M22.9,78.4c-0.6-0.8-1.2-1.7-1.7-2.5l0.9-0.5c0.5,0.8,1,1.7,1.6,2.5L22.9,78.4z"/><path d="M19.8,73.1c-0.4-0.9-0.8-1.9-1.2-2.8l0.9-0.3c0.3,0.9,0.7,1.8,1.1,2.7L19.8,73.1z"/><rect x="78.3" y="10" transform="matrix(-0.845 -0.5347 0.5347 -0.845 139.2292 63.3212)" width="1" height="3"/><rect x="19.5" y="11.1" transform="matrix(-0.5922 -0.8058 0.8058 -0.5922 24.1562 35.4074)" width="3" height="1"/><path d="M81.9,4H18.1c-1.6,0-2.8,1.3-2.8,2.8V54c0,36.5,2.5,41.9,40.4,42c0,0,0,0,0.1,0h26.2c1.6,0,2.8-1.3,2.8-2.8V6.9  C84.8,5.3,83.5,4,81.9,4z M23.7,88.3l4.2-4.2l-0.7-0.7L23,87.6c-4.2-4.3-5.4-11.4-5.7-23.1C22.5,77.8,36.1,89.2,47,93.8  C35.2,93.5,28,92.1,23.7,88.3z M82.8,93.2v0.1l-1.1-1.7l-0.8,0.5l1.2,1.8c0,0,0,0-0.1,0H56.3c-0.2,0-0.4,0-0.7,0  c-12.1-0.1-38.4-20.1-38.4-40V7.1l0.8,1l0.8-0.6l-1.1-1.6c0.1-0.1,0.3-0.1,0.4-0.1h63.7l-0.9,1.5l0.8,0.5l1-1.6  c0.1,0.1,0.1,0.2,0.1,0.4L82.8,93.2L82.8,93.2z"/><rect x="77.2" y="87.6" transform="matrix(-0.5348 -0.845 0.845 -0.5348 46.428 201.6877)" width="3" height="1"/></svg>