<svg xmlns="http://www.w3.org/2000/svg" xmlns:xlink="http://www.w3.org/1999/xlink" version="1.1" x="0px" y="0px" viewBox="0 0 50 62.5" enable-background="new 0 0 50 50" xml:space="preserve"><g><path d="M49,36.6l-4.5,4.5l-4.6-4.5l-4.6,4.5l-4.5-4.5l-4.6,4.5l-4.5-4.5l-4.6,4.5l-4.4-4.4c0.3-0.6,0.4-1.3,0.5-1.9l3.7-2.6   l1.2-6.3l6.3,1.2l1.2-6.3L32,22l1.2-6.3l6.3,1.2l1.2-6.3l6.3,1.2l-5.5-8L5.6,28.4C3,29,1,31.4,1,34.3c0,2.1,1.1,4,2.8,5.1v6.8H49   V36.6z M7.1,37.6c-1.8,0-3.3-1.5-3.3-3.3c0-1.8,1.5-3.3,3.3-3.3c1.8,0,3.3,1.5,3.3,3.3C10.5,36.2,8.9,37.6,7.1,37.6z"/></g></svg>