<svg xmlns="http://www.w3.org/2000/svg" xmlns:xlink="http://www.w3.org/1999/xlink" xml:space="preserve" version="1.1" style="shape-rendering:geometricPrecision;text-rendering:geometricPrecision;image-rendering:optimizeQuality;" viewBox="0 0 70553 88191.25" x="0px" y="0px" fill-rule="evenodd" clip-rule="evenodd"><defs><style type="text/css">
   
    .fil0 {fill:black;fill-rule:nonzero}
   
  </style></defs><g><path class="fil0" d="M9002 40950l24525 0c329,-408 508,-905 508,-1443l0 -4185c0,-1269 -1040,-2309 -2309,-2309l-20923 0c-1269,0 -2309,1040 -2309,2309l0 4185c0,538 179,1035 508,1443zm37939 4743c3033,0 5493,2460 5493,5493 0,1598 -683,3041 -1782,4049l566 0c660,-829 1871,-2200 3195,-3701 2543,-2884 5524,-6262 5524,-6616 0,-1388 -1138,-2525 -2525,-2525l-49495 0c-1388,0 -2526,1137 -2526,2525 0,354 2981,3732 5525,6616 1324,1501 2534,2872 3195,3701l566 0c-2306,-2113 -2385,-5721 -173,-7933 2090,-2090 5459,-2152 7625,-135 399,372 743,803 1017,1279 965,-1672 2757,-2753 4759,-2753 2002,0 3795,1081 4759,2753 965,-1672 2757,-2753 4759,-2753 2002,0 3795,1081 4759,2753 965,-1672 2757,-2753 4759,-2753zm2 10985l-33182 0c-258,0 -485,-135 -612,-339 -564,-741 -1869,-2219 -3310,-3853 -2712,-3074 -5891,-6677 -5891,-7568 0,-1984 1478,-3656 3413,-3929 -200,-460 -310,-963 -310,-1482l0 -4185c0,-2065 1687,-3752 3752,-3752l2355 0c504,-2286 2551,-3968 4932,-3968l6717 0 0 -253c0,-2283 1866,-4148 4149,-4148l5810 0c208,-1506 1295,-2774 2797,-3176l9548 -2559c384,-103 779,126 882,510l67 252 16061 -4303c397,-106 816,-41 1147,155l1 -2c336,194 598,516 706,918l579 2161c106,397 41,816 -155,1148l1 0c-193,336 -515,598 -918,706l-15636 4190c2267,21 4110,1879 4110,4148l0 1642c974,923 1580,2226 1580,3661l0 1155c0,729 -162,1444 -459,2092l675 0c1073,0 1949,875 1949,1948l0 3113c2057,149 3679,1877 3679,3958 0,891 -3178,4494 -5891,7568 -1473,1671 -2804,3179 -3346,3902 -141,188 -357,287 -575,288l0 2 -4625 0zm-3710 -1443c-414,-378 -769,-820 -1051,-1309 -282,489 -637,931 -1051,1309l2102 0zm-9518 0c-414,-378 -769,-820 -1051,-1309 -282,489 -637,931 -1051,1309l2102 0zm-9518 0c-413,-378 -768,-820 -1051,-1309 -282,489 -637,931 -1050,1309l2101 0zm25608 -6913c-1543,-1542 -4031,-1585 -5624,-101 -727,677 -1205,1618 -1280,2669 -6,106 -35,206 -83,296 47,87 76,185 83,291 144,2105 1907,3759 4042,3758 2235,0 4048,-1813 4048,-4049 0,-1118 -454,-2131 -1186,-2864zm-8342 3160c6,-106 36,-207 83,-296 -46,-87 -76,-186 -83,-291 -144,-2105 -1906,-3759 -4040,-3759 -1067,0 -2038,412 -2760,1085 -727,677 -1205,1618 -1280,2669 -6,106 -35,206 -83,296 47,87 76,185 83,291 144,2105 1907,3759 4042,3758 2129,0 3888,-1646 4038,-3753zm-9518 0c6,-106 36,-207 83,-296 -46,-87 -75,-186 -82,-291 -144,-2105 -1907,-3759 -4041,-3759 -1067,0 -2038,412 -2760,1085 -727,677 -1204,1618 -1279,2669 -7,106 -36,206 -84,296 47,87 76,185 83,291 144,2105 1907,3759 4042,3758 2129,0 3888,-1646 4038,-3753zm-9518 0c7,-106 36,-207 84,-296 -47,-87 -76,-186 -83,-291 -144,-2105 -1907,-3759 -4040,-3759 -2237,0 -4050,1813 -4050,4050 0,2237 1813,4050 4051,4049 2129,0 3888,-1646 4038,-3753zm-4039 -2704c1329,0 2407,1078 2407,2408 0,1330 -1078,2408 -2407,2408 -1330,0 -2408,-1078 -2408,-2408 0,-1330 1078,-2408 2408,-2408zm682 1726c-606,-606 -1647,-175 -1647,682 0,857 1041,1288 1647,682 377,-377 377,-988 0,-1364zm27871 -1726c1330,0 2408,1078 2408,2408 0,1330 -1078,2408 -2408,2408 -1330,0 -2408,-1078 -2408,-2408 0,-1330 1078,-2408 2408,-2408zm682 1726c-606,-606 -1647,-175 -1647,682 0,857 1041,1288 1647,682 377,-377 377,-988 0,-1364zm-10200 -1726c1330,0 2408,1078 2408,2408 0,1330 -1078,2408 -2408,2408 -1330,0 -2408,-1078 -2408,-2408 0,-1330 1079,-2408 2408,-2408zm683 1726c-606,-606 -1648,-176 -1648,682 0,857 1042,1288 1648,682 376,-377 376,-988 0,-1364zm-10201 -1726c1330,0 2408,1078 2408,2408 0,1330 -1078,2408 -2408,2408 -1329,0 -2408,-1078 -2408,-2408 0,-1330 1079,-2408 2408,-2408zm683 1726c-606,-606 -1648,-175 -1648,682 0,857 1042,1288 1648,682 376,-377 376,-988 0,-1364zm18267 -31207l-68 -252 -8852 2372c-866,232 -1512,932 -1706,1784l11672 0 -1046 -3904zm2195 2625l16060 -4303c19,-5 35,-18 45,-35l1 1c8,-16 11,-36 5,-56l-579 -2161c-5,-19 -18,-34 -34,-44l0 -1c-16,-8 -35,-11 -55,-6l-16060 4303 617 2302zm3463 6107l0 -680c0,-1486 -1219,-2705 -2705,-2705l-20852 0c-1487,0 -2705,1219 -2705,2705l0 253 24234 0c721,0 1407,152 2028,427zm908 7870c437,-609 672,-1324 672,-2092l0 -1155c0,-1988 -1631,-3607 -3608,-3607 -10798,0 -21597,0 -32395,0 -1589,0 -2973,1046 -3441,2525l17077 0c2065,0 3752,1687 3752,3752l0 577 17943 0zm2837 5051l0 -3103c0,-276 -229,-505 -506,-505l-20274 0 0 2165c0,506 -104,994 -293,1443l21073 0z"/></g></svg>