<svg xmlns="http://www.w3.org/2000/svg" xmlns:xlink="http://www.w3.org/1999/xlink" version="1.1" x="0px" y="0px" viewBox="0 0 100 125" enable-background="new 0 0 100 100" xml:space="preserve"><path d="M70.662,20.711c-0.314-0.147-0.683-0.121-0.974,0.067c-0.29,0.191-0.462,0.518-0.452,0.865  c0.105,3.752-1.45,5.693-2.611,6.613c-1.234-10.77-11.96-13.926-12.074-13.957c-0.307-0.088-0.641-0.021-0.893,0.178  c-0.251,0.199-0.392,0.508-0.378,0.828c0.193,4.399-1.51,7.314-3.313,10.4c-1.932,3.307-3.93,6.725-3.93,12.135  c0,0.16,0.014,0.316,0.018,0.477c-0.348,0.029-0.656,0.236-0.813,0.549c-0.032,0.066-3.318,6.647-7.24,10.57  c-0.327,0.327-0.387,0.837-0.145,1.23c0.375,0.607,0.746,1.185,1.119,1.748L18.23,79.58c-1.021,1.337-0.7,3.305,0.779,4.784  c0.902,0.902,1.984,1.374,2.996,1.374c0.648,0,1.268-0.194,1.791-0.593L50.96,64.401c0.563,0.372,1.141,0.744,1.748,1.118  c0.162,0.1,0.344,0.148,0.524,0.148c0.258,0,0.515-0.1,0.707-0.293c3.923-3.924,10.505-7.208,10.57-7.24  c0.307-0.152,0.51-0.451,0.546-0.79c0.021,0,0.041,0.002,0.062,0.002c0.146,0,0.294-0.002,0.441-0.005  c9.266-0.217,16.804-8.628,16.804-18.749C82.362,26.354,71.14,20.936,70.662,20.711z M22.582,83.556  c-0.604,0.464-1.543,0.011-2.158-0.605c-0.614-0.614-1.065-1.552-0.604-2.156l20.346-26.642c2.635,3.67,5.389,6.423,9.059,9.059  L22.582,83.556z M53.1,63.406c-5.867-3.708-9.422-7.263-13.129-13.13c2.775-2.971,5.114-6.913,6.278-9.031  c4.396,6.269,9.614,11.487,15.884,15.883C60.014,58.291,56.069,60.63,53.1,63.406z M52.729,46.183  c0.101-2.461,1.104-3.13,2.371-3.937c1.212-0.771,2.676-1.703,3.082-4.198c1.62,0.803,4.376,2.715,4.563,6.482  c0.241,4.815-3.808,6.177-5.117,6.49C55.905,49.495,54.269,47.89,52.729,46.183z M65.512,55.342l-0.395,0.005  c-0.763,0-1.512-0.063-2.247-0.167c-1.186-0.845-2.343-1.712-3.451-2.621c2.565-1.006,5.559-3.429,5.324-8.128  c-0.27-5.397-4.813-8.107-7.177-8.787c-0.302-0.084-0.626-0.025-0.878,0.163c-0.251,0.188-0.398,0.485-0.398,0.799  c0,2.513-0.95,3.117-2.264,3.953c-1.118,0.712-2.432,1.572-3.011,3.63c-0.955-1.154-1.871-2.355-2.757-3.594  c-0.144-0.896-0.222-1.815-0.222-2.754c0-4.868,1.776-7.907,3.657-11.125c1.678-2.873,3.407-5.833,3.586-10.016  c2.804,1.203,9.275,4.881,9.456,13.249c0.007,0.319,0.166,0.616,0.429,0.8c0.264,0.182,0.598,0.227,0.898,0.123  c0.202-0.069,4.555-1.65,5.118-7.566c2.858,1.807,9.181,6.77,9.181,15.287C80.362,47.638,73.7,55.15,65.512,55.342z"/></svg>