<svg xmlns="http://www.w3.org/2000/svg" xmlns:xlink="http://www.w3.org/1999/xlink" version="1.1" x="0px" y="0px" viewBox="0 0 100 125" style="enable-background:new 0 0 100 100;" xml:space="preserve"><g><path d="M85.3,14.3c1.7-1.7,0.2-5,0.1-5.1c-0.1-0.2-0.2-0.3-0.4-0.3c-0.2,0-0.4,0-0.5,0.1c-1,0.9-2.2,1.7-2.8,2   c0.1-0.2,0.2-0.5,0.3-0.7C82.4,9,83.1,7.2,82.7,5c-0.6-2.9-2.9-3.9-4-4c-0.2,0-0.4,0.1-0.5,0.2l-4.2,5.4c-0.6,0.8-1.4,1.3-2.3,1.5   c-3.6,0.7-5.7,5-6.4,6.6c-0.5,0.4-3.1,2.4-6,4.2c-0.3,0.2-0.4,0.5-0.3,0.8c0.2,0.7,1.5,1.5,3.4,1.8c-1.1,1.4-2.8,3.4-4.1,4.6   c-0.2,0.1-0.3,0.3-0.5,0.5c-0.5,0.3-4.3,2.5-6.5,3.5c-0.2,0.1-0.4,0.3-0.4,0.6s0.2,0.5,0.5,0.5c0,0,0.4,0.1,1.2,0.1   c-0.6,0.5-1.2,0.9-1.7,1.2c-3.2,1.9-6.9,3.7-10.7,5.6c-4.8,2.4-10.3,5.1-15.9,8.4c-11.2,6.7-8.7,27.7-8.4,30.3   c-0.6,0.8-1,1.4-1,1.4c-0.1,0.1-0.1,0.2-0.1,0.3c-1.5,8.8-0.6,16.3-0.2,19.1c0.1,0.8,0.8,1.4,1.6,1.4h6.6c0.5,0,1-0.2,1.3-0.6   c0.3-0.3,0.5-0.8,0.5-1.3c0-0.4-0.1-0.9-0.3-1.3c-0.6-1.3-2.8-1.9-3.8-2.1l0-2.8c0-0.8,0-1.6,0.2-2.4l2,4.6   c0.1,0.2,0.3,0.4,0.5,0.4c0,0,0,0,0.1,0c0.3,0,0.5-0.2,0.5-0.5l0.9-5.4l0.6,0.5c0.2,0.1,0.4,0.2,0.6,0.1c0.2-0.1,0.3-0.3,0.4-0.5   l1.2-8.2c1-0.8,2.1-1.6,3-2.3c1.4-1,2.6-1.9,3.4-2.7c1.3-1.2,2.9-3.5,4.6-5.9c0.8-0.6,7.2-5.5,11.7-7.4c3.5-1.5,6-2.7,7.1-3.3   c0.5,3.1,1.3,10.6,1.7,15.1c0.1,1.4,0.1,3-0.2,4.8c-0.3,2.1,0.3,3.5,0.6,3.9c0.9,5.6,3.2,5.9,5.6,5.8c0.5,0,0.9-0.1,1.3,0   c1.1,0.3,2.1,0.1,2.7-0.3h5.8c0.2,0,0.4-0.1,0.5-0.3c0,0,0.6-1.2,0.2-2.4c-0.3-0.8-0.9-1.4-1.9-1.8c-0.1,0-0.2,0-0.3,0l-0.9,0.1   c-0.4-1.2-1.5-4.7-1.5-6.3V76c0-9,0.3-15,0.7-16.7c0.2-0.8,0.6-1.8,0.9-2.8c0.8-2.4,1.9-5.4,2-8.1c0.4-0.6,0.8-1.4,1.4-2.4l0.7-1.2   c1.5-2.5,2.5-4.7,3.3-7.1c0.1,0.1,0.2,0.2,0.4,0.2c0.2,0,0.4-0.1,0.6-0.3c1.2-2.3,0.8-6.4,0.6-7.8c0.1-1.2,0.2-2.5,0.2-3.7   C81.5,21.7,84.1,15.5,85.3,14.3z M25.3,86.4l-0.6-0.5c-0.2-0.1-0.4-0.2-0.6-0.1c-0.2,0.1-0.3,0.2-0.4,0.5l-0.7,4.5l-1.7-4   c1-2.4,2.9-4.4,4.9-6.2L25.3,86.4z M71.2,56.1c-0.4,1.1-0.7,2.1-0.9,2.9c-0.6,2.3-0.8,10.5-0.8,17v0.1c0,2.1,1.7,6.9,1.7,7.1   c0.1,0.3,0.3,0.4,0.6,0.4l1.3-0.1c0.6,0.3,1,0.6,1.1,1c0.2,0.4,0.1,0.9,0,1.2h-4.4c0.1-0.3,0.1-0.6,0-0.9c-0.2-0.9-0.9-1.6-1.9-2.2   l-1.7-16.6c0.3-4.9,0.7-10.6,1.8-11.5c0.8-0.7,1.4-1.2,2-1.7c1.4-1.1,2.1-1.8,2.8-2.6C72.6,52.3,71.9,54.3,71.2,56.1z M65.7,76.4   c0.1-0.5,0.2-1.3,0.3-2.4l0.8,8.1c-0.1,0-0.2-0.1-0.3-0.1C64.7,81.6,65.3,78,65.7,76.4z M80.3,26.1c0,1.2-0.1,2.4-0.2,3.7   c0,0,0,0.1,0,0.1c0.2,1.7,0.3,4,0,5.7c-0.1-0.1-0.3-0.2-0.5-0.2c-0.3,0-0.5,0.2-0.5,0.4c-0.8,2.9-1.9,5.4-3.6,8.3l-0.7,1.2   c-2.6,4.3-2.6,4.3-5.4,6.6c-0.5,0.5-1.2,1-2,1.7c-1.6,1.4-2,7.7-2.3,15.8c-0.1,3-0.2,5.7-0.5,6.6c-1.2,5.2,0.2,6.7,1.6,7.1   c1.5,0.4,2.4,1.1,2.6,1.9c0,0.2,0,0.4-0.2,0.5c-0.4,0.4-1.1,0.6-2.1,0.4c-0.5-0.1-1.1-0.1-1.6,0c-1.7,0.1-3.5,0.2-4.3-4.9   c0-0.1,0-0.2-0.1-0.2c0,0-0.8-1.3-0.5-3.2c0.3-1.9,0.4-3.6,0.2-5.1c-0.5-4.9-1.3-13.6-1.8-16c0,0,0,0,0,0c0,0,0,0,0,0l-1.6-6   c-0.1-0.3-0.4-0.5-0.7-0.4c-0.3,0.1-0.5,0.4-0.4,0.7l1.4,5.5c-0.9,0.5-3.5,1.8-7.4,3.5c-3.1,1.3-7,4-9.5,5.8   c2.3-3.8,4.3-7.4,4.4-7.7c0.2-0.3,0-0.6-0.2-0.8c-0.3-0.2-0.6,0-0.8,0.2c0,0.1-3,5.6-6.1,10.3c0,0,0,0,0,0   c-1.6,2.4-3.2,4.6-4.4,5.8c-0.8,0.8-2,1.6-3.3,2.6c-4.6,3.4-10.9,8.1-10.5,14.8v3.3c0,0.3,0.2,0.5,0.5,0.6c1,0.1,3.1,0.7,3.4,1.5   c0.1,0.3,0.2,0.6,0.2,0.9c0,0.2-0.1,0.3-0.2,0.4c-0.1,0.1-0.3,0.2-0.5,0.2h-6.6c-0.2,0-0.4-0.2-0.5-0.4c-0.4-2.7-1.3-10,0.1-18.5   c0.8-1.1,6.4-8.5,6.8-12.2c0-0.2,0-0.3-0.1-0.4c-1.3-1.6-2.4-6.6-2.7-8.4c-0.1-0.3-0.4-0.5-0.7-0.5c-0.3,0.1-0.5,0.4-0.5,0.7   c0,0.3,1.1,6.5,2.8,8.8c-0.3,2.2-2.7,6-4.5,8.6c-0.5-5.2-1.4-22.2,8-27.9c5.5-3.3,10.7-5.9,15.8-8.4c3.9-1.9,7.5-3.7,10.8-5.6   c0.8-0.5,1.8-1.2,3.1-2.3c0.2-0.2,0.3-0.4,0.2-0.7c-0.1-0.2-0.3-0.4-0.6-0.4c-0.1,0-0.2,0-0.3,0c2.2-1.1,4.5-2.5,4.6-2.6   c0,0,0.1,0,0.1-0.1c0.2-0.2,0.4-0.4,0.5-0.5c1.6-1.4,3.7-4,4.8-5.4c0.7-0.1,2.8-0.4,3.8-0.9c0.3-0.2,0.4-0.5,0.2-0.8   c-0.2-0.3-0.5-0.4-0.8-0.2c-0.8,0.4-2.6,0.7-3.6,0.8c0,0,0,0,0,0c-1.5,0-2.6-0.5-3.1-0.8c2.8-1.8,5.2-3.6,5.7-4   c0.1-0.1,0.2-0.2,0.3-0.3c0.5-1.3,2.5-5.4,5.6-6.1c1.2-0.2,2.2-0.9,3-1.9l3.9-5.1c0.7,0.2,2.2,0.8,2.7,3c0.4,1.9-0.2,3.4-0.6,4.5   c-0.3,0.8-0.6,1.5-0.2,2c0.1,0.2,0.4,0.4,0.6,0.4c0.8,0.1,2.3-0.9,3.4-1.8c0.3,1,0.5,2.4-0.2,3.1C83,15,80.4,21.5,80.3,26.1z"/><path d="M73.1,10.8c-0.1-0.1-0.2-0.1-0.3,0l-1.1,0.7c-0.1,0-0.1,0.1-0.1,0.2l-0.3,2.1c0,0.1,0,0.2,0.1,0.2c0.1,0.1,0.1,0.1,0.2,0.1   c0,0,0,0,0,0c0.1,0,0.5,0,0.9-0.4c0.5-0.5,0.8-1.4,0.8-2.6C73.3,11,73.2,10.9,73.1,10.8z"/></g></svg>