<svg xmlns="http://www.w3.org/2000/svg" xmlns:xlink="http://www.w3.org/1999/xlink" version="1.1" x="0px" y="0px" viewBox="0 0 504 630" style="enable-background:new 0 0 504 504;" xml:space="preserve"><g><path d="M478.789,46.829c-18.798-18.542-45.941-26.929-77.921-24.453L396.53,3.122c-0.485-2.155-2.629-3.508-4.781-3.023   c-2.155,0.486-3.509,2.626-3.023,4.781l4.129,18.326c-16.381,1.875-32.429,6.14-48.095,13.14L328.16,8.066   c-1.118-1.905-3.568-2.544-5.475-1.425c-1.905,1.118-2.543,3.569-1.425,5.475l16.091,27.415C320,48.001,312,52.001,300.188,60.255   l-37.105-49.517c-1.325-1.769-3.832-2.127-5.6-0.803c-1.768,1.325-2.127,3.832-0.803,5.6l36.918,49.267   C284,72.001,272,80.001,259.901,92.798l-40.43-39.879c-1.572-1.551-4.104-1.534-5.657,0.039c-1.551,1.573-1.534,4.105,0.039,5.657   l40.36,39.81c-10.213,9.576-22.213,25.576-28.31,33.27l-50.104-36.53c-1.784-1.3-4.287-0.909-5.589,0.876   c-1.301,1.785-0.909,4.287,0.876,5.589l50.196,36.596C216,144.001,204,164.001,200.339,174.861l-28.001-15.99   c-1.918-1.096-4.361-0.428-5.457,1.49c-1.095,1.918-0.428,4.361,1.49,5.457l28.714,16.398   c-6.739,15.947-11.302,31.913-13.36,47.309l-18.689-4.096c-2.16-0.474-4.291,0.893-4.764,3.051   c-0.473,2.158,0.893,4.291,3.051,4.764l19.564,4.288c-0.02,0.264-0.051,0.53-0.07,0.794c-1.695,23.601-12.319,45.083-29.916,60.489   L16.45,418.278c-10.192,8.923-16.027,21.28-16.429,34.794c-0.402,13.525,4.96,26.799,14.712,36.418   c9.397,9.269,22.228,14.51,35.404,14.51c0.491,0,0.984-0.007,1.477-0.022c13.649-0.406,26.135-6.153,35.159-16.181L194.124,368.5   c18.426-20.477,45.045-31.226,73.013-29.504c51.04,3.152,113.217-24.944,162.258-73.317C476.11,219.6,504,162.637,504,113.304   C504,86.084,495.282,63.097,478.789,46.829z M392.905,229.532c-44.264,43.661-96.502,68.338-136.622,68.336   c-18.648-0.001-34.682-5.333-46.074-16.57c-10.152-10.014-15.842-24.276-16.58-41.413l25.263,5.537   c0.289,0.063,0.577,0.094,0.86,0.094c1.838,0,3.494-1.275,3.903-3.145c0.473-2.158-0.893-4.291-3.051-4.764l-26.961-5.91   c0.625-14.253,4.287-29.652,10.585-45.404l22.797,13.019c0.625,0.357,1.307,0.527,1.979,0.527c1.389,0,2.739-0.724,3.478-2.017   c1.095-1.918,0.428-4.361-1.49-5.457l-23.608-13.482c4.318-12.37,10.936-24.375,20.378-35.933l14.326,10.444   c0.711,0.519,1.536,0.769,2.353,0.769c1.235,0,2.453-0.57,3.235-1.644c1.302-1.785,0.91-4.287-0.875-5.588l-14.421-10.514   c9.92-14.152,19.243-25.61,27.527-32.376l15.687,15.473c0.779,0.769,1.794,1.152,2.809,1.152c1.033,0,2.065-0.397,2.848-1.191   c1.551-1.573,1.534-4.105-0.039-5.657l-15.606-15.393C276,88.001,280,84.001,298.417,71.232l10.744,14.338   c0.786,1.049,1.988,1.602,3.204,1.602c0.835,0,1.676-0.26,2.396-0.799c1.768-1.325,2.127-3.832,0.803-5.6l-10.548-14.076   C320,56.001,328,52.001,341.478,46.56l13.742,23.412c0.745,1.269,2.081,1.976,3.454,1.976c0.688,0,1.385-0.177,2.021-0.551   c1.905-1.118,2.543-3.569,1.425-5.475l-13.17-22.438c16.191-6.303,31.845-9.879,46.113-10.478l6.012,26.684   c0.419,1.859,2.069,3.122,3.898,3.122c0.292,0,0.587-0.032,0.883-0.099c2.155-0.486,3.509-2.626,3.023-4.781l-5.617-24.935   c16.962,0.71,31.547,6.046,42.126,16.481c10.905,10.756,16.668,26.41,16.668,45.269   C462.055,135.814,435.558,187.461,392.905,229.532z"/><path d="M392.046,93.901c0.655,1.507,2.125,2.407,3.67,2.407c0.532,0,1.073-0.107,1.592-0.333c2.026-0.88,2.955-3.236,2.075-5.262   L380.86,48.083c-0.881-2.027-3.238-2.956-5.262-2.075c-2.026,0.88-2.955,3.236-2.075,5.262L392.046,93.901z"/><path d="M355.145,118.559c0.722,1.345,2.102,2.109,3.528,2.109c0.639,0,1.287-0.153,1.888-0.477   c1.947-1.045,2.678-3.47,1.633-5.416L334.409,63.01c-1.045-1.947-3.472-2.679-5.416-1.633c-1.947,1.045-2.678,3.47-1.633,5.416   L355.145,118.559z"/><path d="M325.093,131.796c0.768,0.705,1.737,1.053,2.704,1.053c1.081,0,2.159-0.436,2.948-1.295   c1.494-1.628,1.385-4.158-0.243-5.652L295.956,94.2c-1.628-1.493-4.158-1.385-5.652,0.243s-1.385,4.158,0.243,5.652   L325.093,131.796z"/><path d="M388.757,183.434l-43.22-30.451c-1.806-1.271-4.302-0.84-5.574,0.966c-1.272,1.806-0.84,4.301,0.966,5.574l43.22,30.451   c0.7,0.493,1.504,0.73,2.3,0.73c1.257,0,2.495-0.591,3.273-1.697C390.996,187.202,390.563,184.707,388.757,183.434z"/><path d="M430.535,73.404c-0.35-2.181-2.4-3.67-4.582-3.317c-2.181,0.349-3.667,2.4-3.317,4.582l9.262,57.856   c0.315,1.967,2.014,3.368,3.945,3.368c0.21,0,0.423-0.017,0.637-0.051c2.181-0.349,3.667-2.4,3.317-4.582L430.535,73.404z"/><path d="M383.696,105.454c-1.147-1.888-3.607-2.486-5.496-1.339c-1.888,1.148-2.487,3.609-1.339,5.496l27.784,45.676   c0.753,1.238,2.071,1.922,3.421,1.922c0.708,0,1.425-0.188,2.075-0.583c1.888-1.148,2.487-3.609,1.339-5.496L383.696,105.454z"/><path d="M253.705,236.381c1.559,0,3.041-0.917,3.686-2.443c0.86-2.035-0.092-4.382-2.126-5.242l-43.22-18.271   c-2.038-0.861-4.382,0.092-5.242,2.126c-0.86,2.035,0.092,4.382,2.126,5.242l43.22,18.271   C252.658,236.279,253.186,236.381,253.705,236.381z"/><path d="M278.401,199.84c1.414,0,2.785-0.752,3.512-2.08c1.061-1.938,0.351-4.369-1.587-5.43l-46.697-25.57   c-1.936-1.061-4.368-0.35-5.429,1.587c-1.061,1.938-0.351,4.368,1.587,5.429l46.696,25.57   C277.092,199.682,277.751,199.84,278.401,199.84z"/><path d="M290.109,166.662c0.743,0.608,1.64,0.904,2.53,0.904c1.159,0,2.308-0.5,3.098-1.467c1.399-1.709,1.147-4.229-0.563-5.628   l-35.19-28.792c-1.71-1.399-4.23-1.146-5.628,0.563c-1.399,1.709-1.147,4.229,0.563,5.628L290.109,166.662z"/><path d="M321.776,178.268c-1.295-1.788-3.796-2.188-5.586-0.894c-1.789,1.295-2.189,3.796-0.894,5.586l30.871,42.631   c0.782,1.08,2.004,1.654,3.243,1.654c0.813,0,1.634-0.248,2.343-0.761c1.789-1.296,2.189-3.796,0.894-5.586L321.776,178.268z"/><path d="M294.455,268.014l-58.655-9.135c-2.188-0.346-4.228,1.154-4.568,3.336c-0.34,2.183,1.154,4.228,3.336,4.568l58.655,9.135   c0.209,0.033,0.416,0.048,0.621,0.048c1.938,0,3.64-1.411,3.947-3.385C298.132,270.399,296.638,268.354,294.455,268.014z"/><path d="M317.486,241.118l-46.307-27.405c-1.9-1.125-4.354-0.496-5.479,1.405c-1.125,1.901-0.496,4.354,1.405,5.479l46.307,27.405   c0.639,0.378,1.341,0.558,2.033,0.558c1.367,0,2.699-0.701,3.446-1.963C320.017,244.696,319.388,242.243,317.486,241.118z"/></g></svg>