<svg xmlns="http://www.w3.org/2000/svg" xmlns:xlink="http://www.w3.org/1999/xlink" version="1.1" x="0px" y="0px" viewBox="0 0 64 80" style="enable-background:new 0 0 64 64;" xml:space="preserve"><g><g><path d="M26.38,53.44c-4.32,0-8.29-1.41-11.2-4.32c-7.1-7.1-5.26-20.48,4.1-29.84c9.36-9.36,22.75-11.2,29.84-4.1    c7.1,7.1,5.26,20.48-4.1,29.84C39.5,50.54,32.58,53.44,26.38,53.44z M37.92,11.83c-5.94,0-12.61,2.81-17.94,8.14    C11,28.95,9.16,41.72,15.87,48.43c6.71,6.71,19.48,4.87,28.45-4.1c8.98-8.98,10.82-21.74,4.1-28.45    C45.7,13.15,41.98,11.83,37.92,11.83z"/></g><g><path d="M15.86,64c-0.61,0-1.21-0.19-1.72-0.55l-0.72-0.51c-0.71-0.5-1.16-1.32-1.24-2.25c-0.11-1.21-1.14-1.94-3.25-2.3    c-0.6-0.1-1.15-0.39-1.59-0.83l-0.25-0.25c-0.45-0.45-0.74-1.05-0.86-1.78c-0.32-1.99-1.46-3.3-3.06-3.51    c-1.02-0.13-1.85-0.57-2.39-1.26l-0.07-0.09c-0.65-0.83-0.86-1.88-0.59-2.89c0.27-1.01,0.98-1.82,1.95-2.22l9.58-3.92    c0.25-0.1,0.54,0.02,0.64,0.27c0.1,0.25-0.02,0.54-0.27,0.64l-9.58,3.92c-0.68,0.28-1.18,0.85-1.37,1.56    c-0.19,0.71-0.04,1.45,0.42,2.03l0.07,0.1c0.48,0.62,1.21,0.83,1.74,0.89c2.05,0.26,3.51,1.88,3.9,4.33    c0.08,0.52,0.28,0.94,0.58,1.24l0.25,0.25c0.29,0.29,0.66,0.48,1.06,0.55c0.95,0.16,3.84,0.65,4.07,3.19    c0.06,0.64,0.36,1.21,0.83,1.54l0.72,0.51c0.5,0.35,1.12,0.46,1.7,0.29c0.59-0.16,1.06-0.58,1.3-1.14l4.06-9.52    c0.11-0.25,0.4-0.37,0.65-0.26c0.25,0.11,0.37,0.4,0.26,0.65l-4.06,9.52c-0.36,0.83-1.06,1.45-1.94,1.7    C16.4,63.96,16.13,64,15.86,64z"/></g><g><path d="M52.48,22.71c-0.19,0-0.37-0.11-0.45-0.3c-0.11-0.25,0.01-0.54,0.26-0.65l9.52-4.06c0.56-0.24,0.97-0.71,1.14-1.3    c0.17-0.59,0.06-1.2-0.29-1.7l-0.51-0.72c-0.33-0.47-0.89-0.77-1.54-0.83c-2.53-0.23-3.02-3.12-3.19-4.07    c-0.07-0.4-0.26-0.77-0.55-1.06l-0.25-0.25c-0.3-0.3-0.72-0.5-1.24-0.58c-2.45-0.4-4.06-1.85-4.33-3.9    c-0.07-0.53-0.28-1.26-0.89-1.74l-0.1-0.08c-0.58-0.45-1.32-0.6-2.03-0.42c-0.71,0.19-1.28,0.69-1.56,1.37l-3.92,9.58    c-0.1,0.25-0.39,0.37-0.64,0.27c-0.25-0.1-0.37-0.39-0.27-0.64l3.92-9.58c0.4-0.97,1.21-1.68,2.22-1.95    c1.01-0.27,2.07-0.05,2.89,0.59l0.1,0.08c0.7,0.54,1.13,1.37,1.26,2.39c0.2,1.59,1.52,2.73,3.51,3.06    c0.73,0.12,1.33,0.41,1.78,0.86l0.25,0.25c0.44,0.44,0.72,0.99,0.83,1.59c0.36,2.11,1.09,3.14,2.3,3.25    c0.93,0.08,1.75,0.54,2.25,1.24l0.51,0.72c0.52,0.74,0.69,1.66,0.44,2.54c-0.25,0.87-0.87,1.58-1.7,1.93l-9.52,4.06    C52.61,22.69,52.54,22.71,52.48,22.71z"/></g><g><path d="M18.67,51.61c-0.04,0-0.08,0-0.12-0.02c-0.26-0.07-0.42-0.33-0.36-0.6c2.44-9.57,1.22-18.04-3.61-25.16    c-0.15-0.23-0.09-0.53,0.13-0.68c0.23-0.15,0.53-0.09,0.68,0.13c4.99,7.36,6.25,16.1,3.75,25.95    C19.09,51.46,18.89,51.61,18.67,51.61z"/></g><g><path d="M25,53.4c-0.08,0-0.15-0.02-0.23-0.06c-0.24-0.13-0.33-0.42-0.21-0.66c6.37-12.2,4.91-24.21-4.12-33.83    c-0.19-0.2-0.18-0.51,0.02-0.7c0.2-0.19,0.51-0.18,0.7,0.02c9.2,9.8,10.76,22.54,4.27,34.96C25.34,53.31,25.17,53.4,25,53.4z"/></g><g><path d="M34.11,52.02c-0.07,0-0.14-0.01-0.2-0.04c-0.25-0.11-0.36-0.4-0.24-0.65c7.09-15.55,5.36-28.58-5.02-37.7    c-0.2-0.18-0.22-0.49-0.04-0.69c0.18-0.2,0.49-0.22,0.69-0.04c10.74,9.43,12.56,22.86,5.27,38.84    C34.48,51.91,34.3,52.02,34.11,52.02z"/></g><g><path d="M44.67,45.17c-0.05,0-0.1-0.01-0.15-0.02c-0.26-0.08-0.4-0.36-0.32-0.62c4.46-13.84,2.33-25.19-6.16-32.81    c-0.2-0.18-0.22-0.49-0.04-0.7c0.18-0.2,0.49-0.22,0.7-0.04c8.8,7.9,11.02,19.61,6.44,33.84C45.07,45.03,44.88,45.17,44.67,45.17z    "/></g><g><path d="M12.14,54.3c-0.58,0-1.16-0.22-1.61-0.66c-0.89-0.89-0.89-2.33,0-3.22c0.86-0.86,2.36-0.86,3.22,0l0,0l0,0    c0.89,0.89,0.89,2.33,0,3.22C13.3,54.08,12.72,54.3,12.14,54.3z M12.14,50.74c-0.34,0-0.67,0.13-0.91,0.38    c-0.5,0.5-0.5,1.32,0,1.82c0.5,0.5,1.32,0.5,1.82,0s0.5-1.32,0-1.82l0,0C12.81,50.88,12.48,50.74,12.14,50.74z"/></g><g><path d="M52.03,14.41c-0.58,0-1.16-0.22-1.61-0.67l0,0l0,0l0,0c-0.43-0.43-0.67-1-0.67-1.61c0-0.61,0.24-1.18,0.67-1.61    c0.89-0.89,2.33-0.89,3.22,0c0.89,0.89,0.89,2.33,0,3.22C53.2,14.19,52.61,14.41,52.03,14.41z M52.03,10.85    c-0.33,0-0.66,0.13-0.91,0.38c-0.24,0.24-0.38,0.57-0.38,0.91c0,0.34,0.13,0.67,0.38,0.91l0,0c0.5,0.5,1.32,0.5,1.82,0    s0.5-1.32,0-1.82C52.69,10.98,52.36,10.85,52.03,10.85z"/></g></g></svg>