<svg xmlns="http://www.w3.org/2000/svg" xmlns:xlink="http://www.w3.org/1999/xlink" version="1.1" x="0px" y="0px" viewBox="0 0 64 80" style="enable-background:new 0 0 64 64;" xml:space="preserve"><g><path d="M25.6,34.5c0.5-0.2,1.1,0,1.3,0.6c0.2,0.5,0,1.1-0.6,1.3C25.1,36.8,24,37,23.1,37c-0.2,0-0.4,0-0.7,0h0c0,0-0.1,0-0.1,0   c-0.1,0-0.1,0-0.2,0c-2.6-0.3-4.1-2-4.1-2.1c-0.4-0.4-0.3-1.1,0.1-1.4c0.4-0.4,1-0.3,1.4,0.1c0.1,0.1,0.8,0.8,2,1.2   c0.1-1.2,0.4-3,1-5.2c-0.8-0.1-1.6-0.2-2.4-0.2C11.8,29.3,5,36.1,5,44.5s6.8,15.2,15.2,15.2s15.2-6.8,15.2-15.2   c0-6.9-4.6-12.7-10.9-14.6c-0.6,2.1-0.8,3.9-1,5C24.1,34.9,24.8,34.8,25.6,34.5z"/><path d="M55.6,30.3c-4.2-5-11.1-6.4-16.8-3.9c0.9,1.6,1.9,2.9,2.7,3.8c0.3-0.3,0.6-0.7,0.8-1.2c0.3-0.5,0.9-0.7,1.4-0.4   c0.5,0.3,0.7,0.9,0.4,1.4c-2,3.7-5,4.1-6.3,4.1C37.3,34,37,34,37,34c-0.5-0.1-0.9-0.6-0.8-1.2c0.1-0.5,0.6-0.9,1.1-0.8   c0.1,0,1.3,0.2,2.6-0.5c-0.8-0.9-1.8-2.3-2.8-4.2c-0.6,0.4-1.3,0.8-1.8,1.3c-1.2,1-2.3,2.3-3.1,3.6c3.2,3.1,5.2,7.5,5.2,12.3   c0,2.4-0.5,4.7-1.4,6.7c5.3,4,12.8,3.8,17.9-0.6C60,45.5,60.7,36.4,55.6,30.3z"/><path d="M38.7,5.8c0.2-0.4,0.1-1-0.3-1.3c-0.4-0.3-1-0.3-1.3,0.1c-0.7,0.7-1.4,1.5-2.1,2.2c-11.4-1.2-19.7,0.6-24.7,5.6   c-5.4,5.3-4.8,12.2-4.8,12.5c0,0.3,0.2,0.6,0.4,0.7c0.2,0.1,0.4,0.2,0.5,0.2c0.1,0,0.2,0,0.3,0c0,0,3.6-1.1,6-1.4   c0.2,0,0.4,0,0.8,0c2.6-0.1,9-0.4,13.3-5.8c-2.2,4.2-3.5,8-4.3,11c0.7,0.1,1.3,0.3,1.9,0.4c1.3-5.1,4.2-12.4,10.4-19.9   c-2,7.1,0,13.2,2.2,17.2c0.6-0.3,1.1-0.6,1.7-0.9C36.2,21.8,34.1,14.5,38.7,5.8z M17,17.5c-0.2,0.2-0.5,0.3-0.7,0.3   c-0.3,0-0.5-0.1-0.7-0.3c-0.4-0.4-0.4-1,0-1.4c4.7-4.8,15.7-8.2,19-9.1c0.1,0,0.2,0,0.3-0.1c-0.8,0.9-1.6,1.8-2.3,2.8   C26.6,11.6,20,14.4,17,17.5z"/></g></svg>