<svg xmlns="http://www.w3.org/2000/svg" xmlns:xlink="http://www.w3.org/1999/xlink" version="1.1" x="0px" y="0px" viewBox="0 0 100 125" style="enable-background:new 0 0 100 100;" xml:space="preserve"><g><path d="M97.9,32.5c-0.1-0.6-0.5-0.9-0.8-1c0.7-1.4,1.3-3.3,0.2-4.6c-0.4-0.5-0.9-0.9-1.3-1c0.6-1.3,1.1-3,0.4-5   c0-0.1-0.1-0.2-0.2-0.3c-0.2-0.2-0.6-0.4-1-0.5c0-0.7-0.1-1.5-0.9-1.8c-0.5-0.2-0.8-0.1-1.2,0.4c0.1-0.4,0.1-0.8,0-1   c-0.1-0.4-0.5-0.9-1-1c-0.7-0.1-1.5,0.3-3,2.6c0-0.1-0.1-0.1-0.1-0.2c-0.2-0.3-0.5-0.4-0.9-0.4c-0.8,0.1-1.3,0.9-3.3,5.1   c-1.6,3.3-3.7,7.9-5.5,9.4c-1.5,1.3-7.5,5-13.6,8.8c-0.1-0.8-0.5-1.8-1.2-2.4c0.2-0.9,0.2-2.2-0.6-3.1c0.3-1.1,0.8-3.6,0-5.2   c0-1.5-0.2-3.8-1.1-4.8c0.2-0.9,0.3-2.8-0.6-4c-0.3-0.5-0.8-0.8-1.3-1c0-0.9-0.2-2.6-1.2-3.8c-0.5-0.6-1.1-1-1.8-1.2   c0.2-1.7,0.4-5.3-2.3-6.2c-0.9-0.3-1.7-0.2-2.3,0.1c0.1-1.8-0.3-3.6-1.9-4c-0.6-0.2-1.2-0.1-1.7,0.3c-0.3,0.2-0.6,0.5-0.8,0.9   c-0.2-0.9-0.5-1.6-0.9-2.2C47.4,5.2,46.9,5,46.3,5c-1.8,0-2.8,2.5-3.3,5c-0.7-2.1-1.9-4-3.8-4c-0.3,0-0.6,0.2-0.9,0.4   c-0.5,0.6-1.7,2,0.5,21.6c0.8,7,1.7,13.9,2.1,17.1c-1.3-1-2.3-2-2.9-2.9c-1.3-2.1-4-3.4-6.7-3.2c-2.9,0.2-5.4,1.8-6.6,4.4   c-0.1,0.1-0.2,0.2-0.4,0.4c-0.2-0.3-0.4-0.5-0.6-0.8c-0.4-0.5-0.9-1.1-1.5-1.8c-0.2-0.2-0.4-0.5-0.7-0.7c1.2-0.3,3.1-1.2,4.9-3.9   c3.6-5.4,1-8.2,0.8-8.3C27,28.1,26.7,28,26.5,28c-0.1,0-3.4,0.2-6.1,5.2c-1.1,2-1.5,3.5-1.6,4.6c-0.8-0.8-1.7-1.7-2.6-2.5   c1.1-0.5,2.6-1.8,3.7-4.6c1.8-4.4-0.3-6.4-0.4-6.5c-0.2-0.2-0.5-0.3-0.8-0.2c-0.1,0-2.5,0.8-4.4,4.6c-0.8,1.7-1.1,3-1.2,4   c-0.8-0.7-1.4-1.2-1.8-1.5c0.4-0.9,0.9-2.5,0.6-4.3c-0.5-2.9-2.8-4.2-2.9-4.2c-0.3-0.2-0.8-0.1-1,0.2c-0.1,0.1-1.7,2.1-1.2,5   c0.2,1,0.6,1.9,1.1,2.5c-0.7,0-1.4,0.1-2.1,0.4c-2.8,1-3.7,3.4-3.8,3.5c-0.1,0.4,0,0.8,0.3,1c0.1,0.1,2.3,1.4,5.1,0.4   c1.6-0.5,2.6-2,3.1-3c0.5,0.4,1.3,1.1,2.3,2c0.3,0.3,0.7,0.6,1,0.9c0.1,0.1,0.1,0.1,0.2,0.1c0,0,0,0,0,0c-1.1-0.2-2.7-0.1-5.1,1   c-3.9,1.7-4.7,4.1-4.7,4.2c-0.1,0.3,0,0.6,0.2,0.8c0.1,0.1,2,2.2,6.5,0.6c4.1-1.5,5-3.8,5.2-4.6c0,0,0,0,0,0c1,1,2.1,2,3,2.9   c0.1,0.1,0.1,0.1,0.2,0.2c0,0.1,0.1,0.2,0.1,0.2c0.1,0.1,0.2,0.2,0.3,0.3c-1-0.3-2.9-0.3-6,1.3c-5.1,2.5-5.4,5.8-5.4,6   c0,0.2,0.1,0.4,0.2,0.6c0.1,0.1,2.9,2.8,8.3-0.6c3.7-2.3,4.2-5,4.2-5.8c0.4,0.5,0.8,0.9,1.1,1.3c0.2,0.3,0.5,0.6,0.7,0.9   c0,0,0.1,0.1,0.1,0.1c-0.1,0-0.1,0.1-0.2,0.2c-0.6,0.9-0.9,1.6-0.6,2.3c0.1,0.2,0.2,0.4,0.4,0.5c0.2,0.1,0.4,0.1,0.6,0   c0,0,0.6-0.3,1.2-0.4c0.1,0,0.2-0.1,0.3-0.1c0.1,0.2,0.2,0.4,0.4,0.6l0.1,0.2c0.1,0.1,0.2,0.3,0.3,0.4l0.3,0.5l0.3,0.6   c0.1,0.2,0.2,0.4,0.2,0.5c0,0.1,0.1,0.2,0.1,0.2l0.1,0.3c0.2,0.4,0.6,0.6,1,0.4c0.4-0.2,0.6-0.6,0.4-1L28,49.7c0,0,0-0.1-0.1-0.2   c-0.1-0.2-0.2-0.4-0.3-0.6l-0.3-0.6L27,47.8c0,0-0.1-0.1-0.1-0.1c0,0,0,0,0,0c1,0.2,2.1,0.5,2.9,1.5c0.2,0.3,0.5,0.6,0.7,1   c1.1,1.4,2.2,2.9,2.7,5c0.7,3.1,5.2,12.9,16.8,19.1c-0.2,0-0.5,0.1-0.7,0.2c-0.8,0.4-1.3,1.2-1.5,2.5c-0.2,1.3,0,2.4,0.6,3.1   c0.5,0.6,1.1,0.9,1.5,1c0.1,0.1,0.4,0.3,0.6,0.6c0.1,1.9,1.3,2.7,2.1,2.9c0.5,0.5,1.5,1.4,2.4,1.4c0.7,0,0.9-0.4,1-0.6   c0.2-0.4,0.1-0.7,0-1.1c0.1-0.1,0.2-0.2,0.3-0.4c0-0.1,0.1-0.2,0.1-0.4c0.3,0.2,0.5,0.2,0.8,0.1c0.5-0.2,1-0.7,1-1.5   c0-0.4,0-1-0.6-1.7l0.8-0.3c0.4,0.1,0.8,0.1,1.1,0.2c0.2,0,0.5-0.1,0.6-0.3c0,0,0.4-0.4,1-0.3c0.8,0.2,1.8,0.7,2.3,0.9   c1.4,2.4,5.4,9.2,7.1,10.2l3,2.5c0.2,0.2,0.6,0.2,0.8,0.1c0.1-0.1,0.2-0.2,0.3-0.3c0.8,0.8,1.8,1.6,3.1,1.9c0.1,0,0.1,0,0.2,0   c0.2,0,0.4-0.1,0.6-0.3c0.2-0.2,0.3-0.5,0.2-0.8c0,0-0.2-0.6-0.4-1.3c0.9,0.2,1.9,0.3,2.5,0c0.3-0.2,0.5-0.4,0.5-0.8   c0.1-0.4-0.1-1-0.4-1.5c0.2,0,0.3,0,0.5-0.1c0.3-0.1,0.5-0.3,0.5-0.6c0.1-0.3,0.2-0.7-1-2.2c0.3-0.1,0.5-0.3,0.5-0.6   c0.3-0.8-0.7-2-1.5-2.9c0-0.1,0-0.1,0-0.2c0.1-1.1-1.1-2.5-3.8-4.4c-0.9-0.6-1.7-1.1-2.4-1.6c-3.2-2.1-4.6-3.1-6.3-7.2   c-1.1-2.7-2.4-4.7-3.4-6c0.6,0.3,1.2,0.4,1.9,0.2c0.5-0.2,0.8-0.4,1-0.6c0.7,0.4,1.5,0.7,2.2,0.3c0.4-0.2,0.7-0.6,0.9-0.9   c0.8,0.6,2,1.3,3,1.2c0.8-0.1,1.2-0.4,1.3-0.8c0.4,0.1,0.9,0.2,1.3,0c0.5-0.2,0.6-0.7,0.6-1.2c1.1,0.6,1.9,0.7,2.4,0.3   c0.5-0.4,0.6-0.9,0.6-1.5c0.5,0.2,0.9,0.2,1.3,0.1c0.3-0.1,0.5-0.3,0.6-0.6c0.1-0.2,0.1-0.5,0.1-0.9c0.6,0.2,1.1,0.2,1.6-0.2   c0.4-0.3,0.6-0.8,0.6-1.2c0.4,0,0.9,0,1.2-0.3c0.5-0.4,0.6-0.9,0.5-1.5c0.3,0,0.6-0.1,0.8-0.3c0.5-0.3,0.7-0.9,0.6-1.5   c0.3-0.1,0.7-0.2,1.2-0.5c0.5-0.3,0.7-0.7,0.8-1.2c0.1-0.4,0-0.7-0.1-1c0.5-0.2,1.1-0.5,1.5-1.1c0.4-0.5,0.5-1.1,0.4-1.5   c0.7-0.3,1.5-0.8,1.8-1.7c0.2-0.7,0.2-1.4,0.2-1.8c0.7-0.4,1.9-1.1,2.3-2.1c0.4-1,0.3-2.4,0.1-3.1c0.4-0.5,1-1.4,1.4-2.9   c0.1-0.6,0.3-1.4,0-2C97.1,35.2,98.2,33.8,97.9,32.5z M7,34c-1.3,0.4-2.4,0.2-3.1,0c0.4-0.6,1.2-1.4,2.4-1.9c1-0.4,2-0.3,2.8-0.2   C8.7,32.7,8,33.6,7,34z M10,30.2c-0.5-0.6-1.3-1.5-1.5-2.8c-0.2-1.3,0.1-2.4,0.4-3c0.5,0.5,1.2,1.4,1.5,2.7   C10.6,28.4,10.3,29.5,10,30.2z M10.5,40.7c-2.4,0.9-3.7,0.5-4.3,0.2C6.6,40.2,7.6,39,9.8,38c2.7-1.2,4.2-1.1,4.8-0.6   C14.4,38,13.5,39.6,10.5,40.7z M15.8,29.2c1-2.1,2.2-3.1,2.9-3.5c0.3,0.6,0.6,2-0.3,4.3c-1.2,3-2.7,3.8-3.4,4   C14.6,33.4,14.5,31.9,15.8,29.2z M16.2,47c-3.4,2.1-5.3,1.5-6,1.1c0.2-0.8,1.1-2.6,4.4-4.3c3.4-1.7,4.7-1.3,5.1-1.1   C19.5,43.4,19,45.3,16.2,47z M20.5,39c-0.2-0.3-0.6-1.7,1.2-5c1.7-3.2,3.6-4.1,4.4-4.3c0.4,0.7,1,2.7-1.2,6   C23.1,38.4,21.2,38.9,20.5,39z M39.4,7.6c1.5,0.3,2.6,4.2,3,6.9c0.1,0.4,0.4,0.7,0.8,0.7c0.4,0,0.7-0.3,0.8-0.7   c0.2-3.7,1.3-7.9,2.3-7.9c0.1,0,0.2,0,0.4,0.2c0.8,0.9,0.9,3.8,0.7,6.3c0,0.4,0.3,0.8,0.7,0.9c0.4,0,0.8-0.3,0.9-0.7   c0.2-2.5,0.9-4.5,1.6-5c0.1-0.1,0.2-0.1,0.4-0.1c1,0.3,0.9,2.9,0.3,5.2c-0.1,0.4,0.1,0.8,0.5,1c0.4,0.1,0.8-0.1,1-0.5   c0.5-1.5,1.3-2.1,2.4-1.7c2.1,0.7,1.1,5.1,1.1,5.1c-0.1,0.2,0,0.5,0.1,0.6c0.1,0.2,0.3,0.3,0.6,0.3c2.7,0.2,2.4,3.9,2.4,4.1   c0,0.4,0.3,0.8,0.7,0.9c0.4,0,0.7,0.2,0.9,0.5c0.6,0.9,0.4,2.6,0.2,3.3c-0.1,0.4,0.1,0.8,0.5,0.9c0.4,0.3,0.7,2.1,0.7,3.9   c0,0.1,0,0.3,0.1,0.4c0.6,0.9,0.2,3.3-0.2,4.6c-0.1,0.3,0,0.7,0.3,0.9c0.9,0.6,0.2,2.2,0.2,2.2c-0.1,0.2-0.1,0.5,0,0.7   c0.1,0.2,0.3,0.4,0.6,0.4c0.4,0.1,0.7,1.1,0.8,2.1c-6.1,3.7-12.1,7.2-13.6,8.1c-1.2-0.6-4.8-2.5-7.9-4.6   C40.2,28.9,38.3,10,39.4,7.6z M49.8,79c-0.3-0.4-0.4-1-0.3-1.9c0.1-0.7,0.3-1.1,0.6-1.3c0.1-0.1,0.2-0.1,0.3-0.1   c0.3,0,0.6,0.1,0.6,0.1c0.2,0.1,0.4,0.1,0.6,0.1l0.6-0.2c0.5,0.3,1.3,0.9,2.2,1.5l-0.3,0.4c-0.5-0.6-1.1-1.1-1.9-1.2   c-0.4-0.1-1.5-0.3-2,0.5c-0.4,0.5-0.1,1.2,0.2,1.7c0.1,0.1,0.1,0.1,0.2,0.2c0,0,0.1,0.1,0.3,0.2c-0.1,0.2-0.2,0.4-0.2,0.5   c-0.1,0-0.2-0.1-0.3-0.1C50.4,79.4,50,79.4,49.8,79z M55.9,79.2c-0.3,0.1-0.5,0.4-0.5,0.7c0,0.1,0,0.1,0,0.2   c-0.1,0-0.3-0.1-0.5-0.1c-0.4-0.1-1.5-0.3-2,0.5c-0.4,0.5-0.1,1.2,0.2,1.7c0.1,0.1,0.1,0.1,0.2,0.2c0.4,0.3,0.9,0.6,1.2,0.9   c-0.1,0.1-0.2,0.2-0.3,0.4c0,0,0,0.1,0,0.2c-0.2-0.2-0.4-0.3-0.5-0.5c-0.1-0.1-0.3-0.2-0.5-0.3c0,0-1-0.1-1-1.7c0,0,0,0,0,0   c0,0,0,0,0-0.1c-0.1-0.6,0.1-1.4,0.3-1.5c0,0,0,0,0,0c0,0,0,0,0.1,0c0,0,0,0,0.1-0.1c0,0,0,0,0,0c0.1-0.1,0.3-0.3,0.8-0.2   c0,0.1,0.1,0.2,0.2,0.2c0.2,0.1,0.3,0.2,0.5,0.2c0.2,0,0.4-0.1,0.6-0.3l1.2-1.2c0.4,0.2,0.7,0.5,1.1,0.7L55.9,79.2z M94.3,36.8   c0.1,0.2,0.4,0.3,0.6,0.4c0,0.1,0,0.3-0.1,0.6c-0.4,1.7-1.2,2.4-1.2,2.4c-0.3,0.2-0.4,0.5-0.3,0.9c0.1,0.4,0.4,1.7,0,2.5   c-0.3,0.7-1.4,1.3-2.1,1.6c-0.2,0.1-0.4,0.2-0.4,0.4s-0.1,0.4,0,0.6c0,0,0.2,0.6,0,1.4c-0.2,0.6-1.2,0.9-1.5,1   c-0.3,0.1-0.6,0.3-0.6,0.6s0.1,0.6,0.3,0.8c0,0,0,0.2-0.2,0.4C88.3,51,87.4,51,87.4,51c-0.3,0-0.6,0.2-0.7,0.4   c-0.1,0.3-0.1,0.6,0.1,0.8c0.1,0.2,0.4,0.6,0.3,0.8c0,0,0,0.1-0.1,0.1c-0.4,0.3-0.7,0.3-0.8,0.3c-0.1,0-0.2,0-0.1,0   c-0.3-0.2-0.7-0.1-0.9,0.1c-0.3,0.2-0.3,0.6-0.2,0.9c0.1,0.2,0.2,0.6,0.2,0.8c-0.2,0.1-0.5,0-0.6,0c-0.3-0.1-0.6,0-0.8,0.2   c-0.2,0.2-0.3,0.6-0.2,0.8c0.1,0.2,0.2,0.6,0.2,0.8c-0.2,0-0.6-0.1-0.9-0.3c-0.3-0.1-0.7-0.1-0.9,0.2c-0.2,0.3-0.3,0.6-0.1,0.9   c0.1,0.2,0.2,0.5,0.2,0.6c-0.3,0-1-0.3-1.5-0.7c-0.3-0.2-0.7-0.2-1,0c-0.3,0.2-0.4,0.6-0.2,0.9c0.1,0.3,0.3,0.6,0.3,0.9   c-0.4-0.2-0.8-0.5-1.3-0.8c-0.3-0.2-0.7-0.2-1,0c-0.3,0.2-0.4,0.6-0.2,1c0.3,0.5,0.5,1.1,0.5,1.5c-0.5-0.2-1.4-0.7-2.2-1.3   c-0.3-0.2-0.7-0.2-1,0c-0.3,0.2-0.4,0.6-0.2,1c0.2,0.4,0.3,0.8,0.4,1.1c-0.3-0.1-0.6-0.3-0.9-0.5c-0.3-0.2-0.8-0.2-1,0.1   c-0.3,0.3-0.3,0.7,0,1c0,0,0,0.1,0.1,0.1c-0.8-0.1-2-1.1-2.7-1.8c-0.2-0.2-0.6-0.3-0.9-0.1c-0.3,0.2-0.5,0.5-0.4,0.8   c0.1,0.4,0,0.9-0.2,1c-0.2,0-1-0.3-1.5-0.8c-0.3-0.2-0.7-0.3-1-0.1c-0.3,0.2-0.4,0.6-0.2,0.9c0,0-0.1,0.1-0.3,0.2   c-0.6,0.2-1.3-0.4-1.5-0.7c-0.2-0.2-0.5-0.3-0.8-0.2c-0.3,0-0.5,0.2-0.6,0.5c-0.1,0-0.4-0.1-0.6-0.3c-0.4-0.3-0.8-0.2-1.1,0.2   c-0.3,0.3-0.2,0.8,0.2,1.1c0,0,2.9,2.3,4.9,7.3c1.8,4.6,3.6,5.8,6.9,7.9c0.7,0.5,1.5,1,2.3,1.6c2.5,1.7,3,2.6,3.1,2.9   c-0.1,0.1-0.2,0.3-0.2,0.4c0,0.3,0,0.5,0.2,0.7c0.6,0.5,1,1,1.2,1.4c-0.1,0-0.2,0-0.2,0c-0.3-0.1-0.7,0.1-0.8,0.4   c-0.2,0.3-0.1,0.7,0.1,0.9c0.4,0.4,0.8,0.9,1.1,1.3c-0.1,0-0.2-0.1-0.4-0.1c-0.3-0.1-0.7,0-0.9,0.3c-0.2,0.3-0.2,0.7,0,1   c0.4,0.5,0.9,1.2,1.1,1.6c-0.5-0.1-1.3-0.3-2-0.5c-0.3-0.1-0.6-0.1-0.8,0.1c-0.2,0.2-0.3,0.5-0.3,0.7c0.1,0.4,0.1,0.7,0.2,1.1   c-1.2-0.9-2-2.1-2-2.1c-0.1-0.2-0.4-0.4-0.7-0.4c-0.1,0-0.1,0-0.2,0c-0.3,0.1-0.5,0.4-0.6,0.7l-1.7-1.4c0,0-0.1-0.1-0.2-0.1   c-0.8-0.4-4.1-5.4-6.6-9.8c-0.1-0.1-0.2-0.2-0.3-0.3c-0.1,0-1.6-0.9-2.8-1.2c-1-0.3-1.8,0.1-2.3,0.4c-3.5-2.1-6-3.7-6.5-4.1   c-0.4-0.5-0.7-0.8-0.7-0.8c-0.1-0.1-0.2-0.2-0.3-0.2c-12-5.8-16.5-15.6-17.2-18.6c-0.5-2.4-1.8-4.1-3-5.6c-0.2-0.3-0.5-0.6-0.7-0.9   c-1.1-1.6-2.8-1.9-3.9-2.2c-0.3-0.1-0.6-0.1-0.8-0.2c-0.3-0.2-0.8-0.2-1.3-0.1c-0.2,0-0.4,0.1-0.5,0.3c-0.1-0.1-0.3-0.1-0.4-0.1   c0-0.1,0.1-0.2,0.1-0.3c0.1,0,0.2-0.1,0.3-0.2c0.5-0.5,1-1,1-1c0.1-0.1,0.2-0.2,0.2-0.3c1-2.2,3-3.5,5.4-3.6   c2.2-0.1,4.3,0.9,5.3,2.5c2.5,4.1,13.2,9.3,13.6,9.6c0.2,0.1,0.5,0.1,0.8,0c1.1-0.6,25.9-15.1,29.3-18.1c1.9-1.7,4-6,5.7-9.6   c0,0.3,0.1,0.7,0.5,0.8c0.4,0.2,0.9,0,1.1-0.4c2.1-4.4,3.4-6.1,3.9-6.7c-0.3,1.6-2.2,5.5-4,8.7c-0.2,0.3-0.1,0.7,0.1,1   c0.3,0.3,0.7,0.3,1,0.1c1.1-0.7,2.3-2.8,3.9-5.6c0.3-0.5,0.6-1.2,1-1.7c0,0.3,0.1,0.6,0.3,0.8c0.3,0.2,0.7,0.2,0.9,0   c0.1-0.1,0.2-0.1,0.3-0.1c0.6,2.2-0.6,4.1-1.2,4.8c-0.3,0.3-0.2,0.8,0.1,1.1c0.3,0.3,0.8,0.3,1.1,0c0.1-0.1,0.3-0.2,0.5-0.2   c0.2,0,0.5,0.2,0.7,0.5c0.8,1.1-0.7,3.7-1.6,4.9c-0.3,0.3-0.2,0.8,0.1,1.1c0.3,0.3,0.8,0.2,1.1-0.1c0.2-0.2,0.4-0.4,0.6-0.6   c-0.2,0.7-1.1,1.8-1.9,2.6C94.1,36,94.1,36.4,94.3,36.8z"/><ellipse cx="30.4" cy="43.7" rx="1.1" ry="1"/></g></svg>