<svg xmlns="http://www.w3.org/2000/svg" data-name="Layer 1" viewBox="0 0 512 640" x="0px" y="0px"><title>Flute 3</title><path d="M337.509,326.7a10.812,10.812,0,1,0,7.648,3.163A10.786,10.786,0,0,0,337.509,326.7Z"/><path d="M289.488,278.676a10.812,10.812,0,1,0,7.649,3.163A10.78,10.78,0,0,0,289.488,278.676Z"/><path d="M241.467,230.655a10.812,10.812,0,1,0,7.649,3.163A10.787,10.787,0,0,0,241.467,230.655Z"/><rect x="52.915" y="75.499" width="56.257" height="11.089" transform="translate(-33.569 81.043) rotate(-45)"/><path d="M111.925,72.145l-39.78,39.78,64.65,64.65,39.78-39.78Zm12.968,73.565a20.816,20.816,0,1,1,14.719-6.1A20.679,20.679,0,0,1,124.893,145.71Z"/><rect x="25.878" y="31.315" width="56.257" height="45.384" transform="translate(-22.37 54.006) rotate(-45)"/><rect x="412.94" y="435.523" width="56.257" height="11.089" transform="translate(-182.696 441.068) rotate(-45)"/><path d="M385.529,374.717a10.812,10.812,0,1,0,7.649,3.163A10.78,10.78,0,0,0,385.529,374.717Z"/><rect x="398.028" y="420.611" width="56.257" height="11.089" transform="translate(-176.519 426.156) rotate(-45)"/><rect x="434.921" y="447.507" width="56.257" height="31.084" transform="translate(-191.801 463.05) rotate(-45)"/><path d="M183.645,143.866l-39.779,39.78L395.275,435.054l39.779-39.78Zm72.542,112.321a20.817,20.817,0,1,1,6.1-14.72A20.682,20.682,0,0,1,256.187,256.187Zm48.021,48.02a20.815,20.815,0,1,1,6.1-14.719A20.677,20.677,0,0,1,304.208,304.207Zm48.021,48.021a20.819,20.819,0,1,1,6.1-14.719A20.682,20.682,0,0,1,352.229,352.228Zm33.3,54.119a20.82,20.82,0,1,1,14.72-6.1A20.679,20.679,0,0,1,385.529,406.347Z"/><path d="M124.893,114.075a10.816,10.816,0,1,0,7.648,3.168A10.745,10.745,0,0,0,124.893,114.075Z"/></svg>