<svg xmlns="http://www.w3.org/2000/svg" xmlns:xlink="http://www.w3.org/1999/xlink" version="1.1" x="0px" y="0px" viewBox="0 0 48 60" style="enable-background:new 0 0 48 48;" xml:space="preserve"><g><path d="M11.5,20c0-1.65-1.35-3-3-3s-3,1.35-3,3s1.35,3,3,3S11.5,21.65,11.5,20z M8.5,22c-1.1,0-2-0.9-2-2s0.9-2,2-2s2,0.9,2,2   S9.6,22,8.5,22z"/><path d="M15.5,3.5c-2.21,0-4,1.91-4,4.25s1.79,4.25,4,4.25s4-1.91,4-4.25S17.71,3.5,15.5,3.5z M15.5,11c-1.65,0-3-1.46-3-3.25   s1.35-3.25,3-3.25s3,1.46,3,3.25S17.15,11,15.5,11z"/><path d="M17,8c0,0.83-0.67,1.5-1.5,1.5C15.22,9.5,15,9.72,15,10s0.22,0.5,0.5,0.5c1.38,0,2.5-1.12,2.5-2.5c0-0.28-0.22-0.5-0.5-0.5   S17,7.72,17,8z"/><path d="M7.5,7.5c-2.21,0-4,1.79-4,4s1.79,4,4,4s4-1.79,4-4S9.71,7.5,7.5,7.5z M7.5,14.5c-1.65,0-3-1.35-3-3s1.35-3,3-3s3,1.35,3,3   S9.15,14.5,7.5,14.5z"/><path d="M9,11.5C9,12.33,8.33,13,7.5,13C7.22,13,7,13.22,7,13.5S7.22,14,7.5,14c1.38,0,2.5-1.12,2.5-2.5c0-0.28-0.22-0.5-0.5-0.5   S9,11.22,9,11.5z"/><path d="M9.5,19.5C9.22,19.5,9,19.72,9,20c0,0.28-0.22,0.5-0.5,0.5C8.22,20.5,8,20.72,8,21s0.22,0.5,0.5,0.5   c0.83,0,1.5-0.67,1.5-1.5C10,19.72,9.78,19.5,9.5,19.5z"/><path d="M17,18.5c-1.65,0-3,1.35-3,3s1.35,3,3,3s3-1.35,3-3S18.65,18.5,17,18.5z M17,23.5c-1.1,0-2-0.9-2-2s0.9-2,2-2s2,0.9,2,2   S18.1,23.5,17,23.5z"/><path d="M18,21c-0.28,0-0.5,0.22-0.5,0.5c0,0.28-0.22,0.5-0.5,0.5c-0.28,0-0.5,0.22-0.5,0.5S16.72,23,17,23   c0.83,0,1.5-0.67,1.5-1.5C18.5,21.22,18.28,21,18,21z"/><path d="M20.5,11.5c-1.65,0-3,1.35-3,3s1.35,3,3,3s3-1.35,3-3S22.15,11.5,20.5,11.5z M20.5,16.5c-1.1,0-2-0.9-2-2s0.9-2,2-2   s2,0.9,2,2S21.6,16.5,20.5,16.5z"/><path d="M21.5,14c-0.28,0-0.5,0.22-0.5,0.5c0,0.28-0.22,0.5-0.5,0.5c-0.28,0-0.5,0.22-0.5,0.5s0.22,0.5,0.5,0.5   c0.83,0,1.5-0.67,1.5-1.5C22,14.22,21.78,14,21.5,14z"/><path d="M14,18.5c1.65,0,3-1.35,3-3s-1.35-3-3-3s-3,1.35-3,3S12.35,18.5,14,18.5z M14,13.5c1.1,0,2,0.9,2,2s-0.9,2-2,2s-2-0.9-2-2   S12.9,13.5,14,13.5z"/><path d="M14,17c0.83,0,1.5-0.67,1.5-1.5c0-0.28-0.22-0.5-0.5-0.5s-0.5,0.22-0.5,0.5c0,0.28-0.22,0.5-0.5,0.5   c-0.28,0-0.5,0.22-0.5,0.5S13.72,17,14,17z"/><path d="M23.5,19.5c0,1.65,1.35,3,3,3s3-1.35,3-3s-1.35-3-3-3S23.5,17.85,23.5,19.5z M26.5,17.5c1.1,0,2,0.9,2,2s-0.9,2-2,2   s-2-0.9-2-2S25.4,17.5,26.5,17.5z"/><path d="M36.5,12c2.21,0,4-1.91,4-4.25s-1.79-4.25-4-4.25s-4,1.91-4,4.25S34.29,12,36.5,12z M36.5,4.5c1.65,0,3,1.46,3,3.25   S38.15,11,36.5,11s-3-1.46-3-3.25S34.85,4.5,36.5,4.5z"/><path d="M36.5,10.5c1.38,0,2.5-1.12,2.5-2.5c0-0.28-0.22-0.5-0.5-0.5S38,7.72,38,8c0,0.83-0.67,1.5-1.5,1.5   C36.22,9.5,36,9.72,36,10S36.22,10.5,36.5,10.5z"/><path d="M28.5,7.5c-2.21,0-4,1.79-4,4s1.79,4,4,4s4-1.79,4-4S30.71,7.5,28.5,7.5z M28.5,14.5c-1.65,0-3-1.35-3-3s1.35-3,3-3   s3,1.35,3,3S30.15,14.5,28.5,14.5z"/><path d="M30,11.5c0,0.83-0.67,1.5-1.5,1.5c-0.28,0-0.5,0.22-0.5,0.5s0.22,0.5,0.5,0.5c1.38,0,2.5-1.12,2.5-2.5   c0-0.28-0.22-0.5-0.5-0.5S30,11.22,30,11.5z"/><path d="M26.5,21c0.83,0,1.5-0.67,1.5-1.5c0-0.28-0.22-0.5-0.5-0.5S27,19.22,27,19.5c0,0.28-0.22,0.5-0.5,0.5   c-0.28,0-0.5,0.22-0.5,0.5S26.22,21,26.5,21z"/><path d="M38,18.5c-1.65,0-3,1.35-3,3s1.35,3,3,3s3-1.35,3-3S39.65,18.5,38,18.5z M38,23.5c-1.1,0-2-0.9-2-2s0.9-2,2-2s2,0.9,2,2   S39.1,23.5,38,23.5z"/><path d="M39,21c-0.28,0-0.5,0.22-0.5,0.5c0,0.28-0.22,0.5-0.5,0.5c-0.28,0-0.5,0.22-0.5,0.5S37.72,23,38,23   c0.83,0,1.5-0.67,1.5-1.5C39.5,21.22,39.28,21,39,21z"/><path d="M41.5,11.5c-1.65,0-3,1.35-3,3s1.35,3,3,3s3-1.35,3-3S43.15,11.5,41.5,11.5z M41.5,16.5c-1.1,0-2-0.9-2-2s0.9-2,2-2   s2,0.9,2,2S42.6,16.5,41.5,16.5z"/><path d="M42.5,14c-0.28,0-0.5,0.22-0.5,0.5c0,0.28-0.22,0.5-0.5,0.5c-0.28,0-0.5,0.22-0.5,0.5s0.22,0.5,0.5,0.5   c0.83,0,1.5-0.67,1.5-1.5C43,14.22,42.78,14,42.5,14z"/><path d="M35,18.5c1.65,0,3-1.35,3-3s-1.35-3-3-3s-3,1.35-3,3S33.35,18.5,35,18.5z M35,13.5c1.1,0,2,0.9,2,2s-0.9,2-2,2s-2-0.9-2-2   S33.9,13.5,35,13.5z"/><path d="M35,17c0.83,0,1.5-0.67,1.5-1.5c0-0.28-0.22-0.5-0.5-0.5s-0.5,0.22-0.5,0.5c0,0.28-0.22,0.5-0.5,0.5   c-0.28,0-0.5,0.22-0.5,0.5S34.72,17,35,17z"/><path d="M31.5,22.5c-1.65,0-3,1.35-3,3s1.35,3,3,3s3-1.35,3-3S33.15,22.5,31.5,22.5z M31.5,27.5c-1.1,0-2-0.9-2-2s0.9-2,2-2   s2,0.9,2,2S32.6,27.5,31.5,27.5z"/><path d="M15.5,35c2.21,0,4-1.91,4-4.25s-1.79-4.25-4-4.25s-4,1.91-4,4.25S13.29,35,15.5,35z M15.5,27.5c1.65,0,3,1.46,3,3.25   S17.15,34,15.5,34s-3-1.46-3-3.25S13.85,27.5,15.5,27.5z"/><path d="M15.5,33.5c1.38,0,2.5-1.12,2.5-2.5c0-0.28-0.22-0.5-0.5-0.5S17,30.72,17,31c0,0.83-0.67,1.5-1.5,1.5   c-0.28,0-0.5,0.22-0.5,0.5S15.22,33.5,15.5,33.5z"/><path d="M7.5,30.5c-2.21,0-4,1.79-4,4s1.79,4,4,4s4-1.79,4-4S9.71,30.5,7.5,30.5z M7.5,37.5c-1.65,0-3-1.35-3-3s1.35-3,3-3   s3,1.35,3,3S9.15,37.5,7.5,37.5z"/><path d="M9.5,34C9.22,34,9,34.22,9,34.5C9,35.33,8.33,36,7.5,36C7.22,36,7,36.22,7,36.5S7.22,37,7.5,37c1.38,0,2.5-1.12,2.5-2.5   C10,34.22,9.78,34,9.5,34z"/><path d="M32.5,25c-0.28,0-0.5,0.22-0.5,0.5c0,0.28-0.22,0.5-0.5,0.5c-0.28,0-0.5,0.22-0.5,0.5s0.22,0.5,0.5,0.5   c0.83,0,1.5-0.67,1.5-1.5C33,25.22,32.78,25,32.5,25z"/><path d="M21.5,26.5c0,1.65,1.35,3,3,3s3-1.35,3-3s-1.35-3-3-3S21.5,24.85,21.5,26.5z M26.5,26.5c0,1.1-0.9,2-2,2s-2-0.9-2-2   s0.9-2,2-2S26.5,25.4,26.5,26.5z"/><path d="M24,27.5c0,0.28,0.22,0.5,0.5,0.5c0.83,0,1.5-0.67,1.5-1.5c0-0.28-0.22-0.5-0.5-0.5S25,26.22,25,26.5   c0,0.28-0.22,0.5-0.5,0.5C24.22,27,24,27.22,24,27.5z"/><path d="M23.5,37.5c0-1.65-1.35-3-3-3s-3,1.35-3,3s1.35,3,3,3S23.5,39.15,23.5,37.5z M20.5,39.5c-1.1,0-2-0.9-2-2s0.9-2,2-2   s2,0.9,2,2S21.6,39.5,20.5,39.5z"/><path d="M21.5,37c-0.28,0-0.5,0.22-0.5,0.5c0,0.28-0.22,0.5-0.5,0.5c-0.28,0-0.5,0.22-0.5,0.5s0.22,0.5,0.5,0.5   c0.83,0,1.5-0.67,1.5-1.5C22,37.22,21.78,37,21.5,37z"/><path d="M14,35.5c-1.65,0-3,1.35-3,3s1.35,3,3,3s3-1.35,3-3S15.65,35.5,14,35.5z M14,40.5c-1.1,0-2-0.9-2-2s0.9-2,2-2s2,0.9,2,2   S15.1,40.5,14,40.5z"/><path d="M15,38c-0.28,0-0.5,0.22-0.5,0.5c0,0.28-0.22,0.5-0.5,0.5c-0.28,0-0.5,0.22-0.5,0.5S13.72,40,14,40   c0.83,0,1.5-0.67,1.5-1.5C15.5,38.22,15.28,38,15,38z"/><path d="M25.5,38.5c-1.65,0-3,1.35-3,3s1.35,3,3,3s3-1.35,3-3S27.15,38.5,25.5,38.5z M25.5,43.5c-1.1,0-2-0.9-2-2s0.9-2,2-2   s2,0.9,2,2S26.6,43.5,25.5,43.5z"/><path d="M37.5,35c2.21,0,4-1.91,4-4.25s-1.79-4.25-4-4.25s-4,1.91-4,4.25S35.29,35,37.5,35z M37.5,27.5c1.65,0,3,1.46,3,3.25   S39.15,34,37.5,34s-3-1.46-3-3.25S35.85,27.5,37.5,27.5z"/><path d="M37.5,33.5c1.38,0,2.5-1.12,2.5-2.5c0-0.28-0.22-0.5-0.5-0.5S39,30.72,39,31c0,0.83-0.67,1.5-1.5,1.5   c-0.28,0-0.5,0.22-0.5,0.5S37.22,33.5,37.5,33.5z"/><path d="M28.5,30.5c-2.21,0-4,1.79-4,4s1.79,4,4,4s4-1.79,4-4S30.71,30.5,28.5,30.5z M28.5,37.5c-1.65,0-3-1.35-3-3s1.35-3,3-3   s3,1.35,3,3S30.15,37.5,28.5,37.5z"/><path d="M30.5,34c-0.28,0-0.5,0.22-0.5,0.5c0,0.83-0.67,1.5-1.5,1.5c-0.28,0-0.5,0.22-0.5,0.5s0.22,0.5,0.5,0.5   c1.38,0,2.5-1.12,2.5-2.5C31,34.22,30.78,34,30.5,34z"/><path d="M26.5,41c-0.28,0-0.5,0.22-0.5,0.5c0,0.28-0.22,0.5-0.5,0.5c-0.28,0-0.5,0.22-0.5,0.5s0.22,0.5,0.5,0.5   c0.83,0,1.5-0.67,1.5-1.5C27,41.22,26.78,41,26.5,41z"/><path d="M4.5,26.5c0,1.65,1.35,3,3,3s3-1.35,3-3s-1.35-3-3-3S4.5,24.85,4.5,26.5z M9.5,26.5c0,1.1-0.9,2-2,2s-2-0.9-2-2s0.9-2,2-2   S9.5,25.4,9.5,26.5z"/><path d="M7,27.5C7,27.78,7.22,28,7.5,28C8.33,28,9,27.33,9,26.5C9,26.22,8.78,26,8.5,26S8,26.22,8,26.5C8,26.78,7.78,27,7.5,27   C7.22,27,7,27.22,7,27.5z"/><path d="M41.5,34.5c-1.65,0-3,1.35-3,3s1.35,3,3,3s3-1.35,3-3S43.15,34.5,41.5,34.5z M41.5,39.5c-1.1,0-2-0.9-2-2s0.9-2,2-2   s2,0.9,2,2S42.6,39.5,41.5,39.5z"/><path d="M42.5,37c-0.28,0-0.5,0.22-0.5,0.5c0,0.28-0.22,0.5-0.5,0.5c-0.28,0-0.5,0.22-0.5,0.5s0.22,0.5,0.5,0.5   c0.83,0,1.5-0.67,1.5-1.5C43,37.22,42.78,37,42.5,37z"/><path d="M35,35.5c-1.65,0-3,1.35-3,3s1.35,3,3,3s3-1.35,3-3S36.65,35.5,35,35.5z M35,40.5c-1.1,0-2-0.9-2-2s0.9-2,2-2s2,0.9,2,2   S36.1,40.5,35,40.5z"/><path d="M36,38c-0.28,0-0.5,0.22-0.5,0.5c0,0.28-0.22,0.5-0.5,0.5c-0.28,0-0.5,0.22-0.5,0.5S34.72,40,35,40   c0.83,0,1.5-0.67,1.5-1.5C36.5,38.22,36.28,38,36,38z"/></g></svg>