<svg xmlns="http://www.w3.org/2000/svg" xmlns:xlink="http://www.w3.org/1999/xlink" version="1.1" x="0px" y="0px" viewBox="0 0 48 60" style="enable-background:new 0 0 48 48;" xml:space="preserve"><path d="M24,43c-6.686,0-18-1.053-18-5c0-1.334,1.297-2.431,3.865-3.275C7.297,33.728,6,32.48,6,31c0-0.914,0.51-1.745,1.522-2.485  C2.527,27.438,0,25.924,0,24c0-1.538,1.555-2.787,4.733-3.786C2.917,19.307,2,18.231,2,17c0-2.178,2.836-3.566,6.087-4.442  C6.688,11.841,6,10.994,6,10c0-3.947,11.314-5,18-5s18,1.053,18,5c0,1.334-1.297,2.431-3.865,3.275C40.703,14.272,42,15.52,42,17  c0,0.914-0.51,1.745-1.522,2.485C45.473,20.562,48,22.076,48,24c0,1.538-1.555,2.787-4.733,3.786C45.083,28.693,46,29.769,46,31  c0,2.178-2.836,3.566-6.087,4.442C41.312,36.159,42,37.006,42,38C42,41.947,30.686,43,24,43z M8,10.005  c0.002,0,0.34,0.91,4.046,1.808c0.462,0.112,0.781,0.533,0.764,1.007c-0.017,0.475-0.366,0.872-0.834,0.951  C6.165,14.746,4,16.269,4,17c0,0.414,0.909,1.455,4.35,2.432c0.442,0.125,0.742,0.538,0.726,0.998  c-0.017,0.46-0.345,0.849-0.795,0.943C3.066,22.461,2,23.722,2,24c0,0.362,1.491,1.944,8.788,3.08  c0.451,0.07,0.797,0.438,0.841,0.892c0.044,0.454-0.225,0.881-0.655,1.037C8.626,29.858,8,30.66,8,31c0,0.421,1.07,1.751,5.956,2.84  c0.465,0.104,0.792,0.521,0.783,0.997c-0.01,0.477-0.355,0.879-0.824,0.963C9.197,36.644,8.049,37.754,8,38.006  C8.189,39.015,14.008,41,24,41s15.811-1.985,16-3.005l0,0c-0.002,0-0.34-0.91-4.046-1.808c-0.462-0.112-0.781-0.533-0.764-1.007  c0.017-0.475,0.366-0.872,0.834-0.951C41.835,33.254,44,31.731,44,31c0-0.414-0.909-1.455-4.35-2.432  c-0.442-0.125-0.742-0.538-0.726-0.998c0.017-0.46,0.345-0.849,0.795-0.943C44.934,25.539,46,24.278,46,24  c0-0.362-1.491-1.944-8.788-3.08c-0.451-0.07-0.797-0.438-0.841-0.892c-0.044-0.454,0.225-0.881,0.655-1.037  C39.374,18.142,40,17.34,40,17c0-0.421-1.07-1.751-5.956-2.84c-0.465-0.104-0.792-0.521-0.783-0.997  c0.01-0.477,0.355-0.879,0.824-0.963c4.717-0.843,5.866-1.954,5.915-2.205C39.811,8.985,33.992,7,24,7S8.189,8.985,8,10.005  L8,10.005z"/></svg>