<svg xmlns="http://www.w3.org/2000/svg" xmlns:xlink="http://www.w3.org/1999/xlink" version="1.1" x="0px" y="0px" viewBox="0 0 126.021 157.5" style="enable-background:new 0 0 126.021 126;" xml:space="preserve"><g><path d="M123.633,77.424c-0.324-1.527-0.58-2.734-0.709-3.63c-5.748-27.252,2.901-61.203,2.989-61.543   c0.021-0.082,0.032-0.166,0.032-0.251V1c0-0.553-0.448-1-1-1h-48c-0.266,0-0.521,0.106-0.709,0.295   c-0.188,0.188-0.292,0.444-0.291,0.711c0.041,7.043,0.405,13.601,0.757,19.942c1.088,19.583,1.948,35.06-8.389,45.271   c-18.661,12.274-31.787,21.013-43.41,30.028c-4.357,1.744-7.645,3.82-9.617,5.065c-0.976,0.616-1.699,0.637-3.125,0.628   c-1.536-0.021-4.585,0.047-7.779,0.558c-1.639,0.26-3.014,1.324-3.705,2.761c-0.005,0.012-0.011,0.023-0.016,0.035   c-0.154,0.327-0.284,0.666-0.361,1.026c-0.856,4.013-0.445,8.607,8.762,12.393c0.768,3.03,4.565,6.287,8.881,6.287   c2.956,0,4.131-1.285,5.268-2.527c0.049-0.054,0.1-0.108,0.15-0.162c0.349,1.052,1.11,1.957,2.183,2.413   c1.077,0.458,2.344,0.704,3.642,0.704c1.862,0,3.781-0.513,5.294-1.631c0.964,1.442,3.021,2.051,4.379,2.182   c0.032,0.003,0.064,0.005,0.096,0.005c0.005,0,0.011,0,0.016,0c2.922-0.048,4.616-0.789,5.977-1.385   c0.61-0.267,1.098-0.476,1.58-0.576c1.019,1.517,3.137,1.977,4.415,1.977c3.266,0,5.968-1.245,8.829-2.563   c2.625-1.21,5.6-2.582,9.559-3.25c6.517-1.15,15.494-0.444,23.415,0.178c4.141,0.326,8.053,0.634,11.23,0.634   c0.011,0,0.022,0,0.033,0c7.785-0.505,13.598-3.222,17.276-8.074C129,102.747,125.375,85.644,123.633,77.424z M4.699,104.473   c2.858-0.456,5.592-0.536,7.136-0.533c0.534,3.075-1.222,6.195-3.263,6.896c-2.1,0.723-4.227-1.134-5.879-5.092   C3.145,105.083,3.864,104.606,4.699,104.473z M17.011,111.102c1.358,0.891,2.144,2.208,2.133,3.626   c-0.01,1.274-0.668,2.382-1.717,2.889c-1.332,0.643-3.147,0.275-5.077-0.999c0.157-0.198,0.323-0.399,0.48-0.597   C14.13,114.378,15.401,112.778,17.011,111.102z M28.801,114.397c1.033,0.682,1.643,1.696,1.691,2.875   c0.048,1.208-0.516,2.315-1.438,2.821c-0.943,0.519-2.182,0.374-3.537-0.392C26.236,117.979,27.513,116.076,28.801,114.397z    M35.945,122c0-1.012,0.629-2.32,1.687-3.691c1.787-0.219,2.926,0.66,3.4,1.617c0.505,1.02,0.493,2.576-0.93,3.987   c-0.343,0.034-0.701,0.061-1.094,0.069C38.616,123.93,35.945,123.517,35.945,122z M47.945,122.02   c0.028-0.335,0.514-1.628,1.4-3.135c0.989,0.085,2.146,0.494,2.738,1.421c0.681,1.065,0.352,2.496-0.137,3.647   c-0.327,0.03-0.659,0.048-0.997,0.048C50.825,123.999,47.945,123.959,47.945,122.02z M119.692,111.716   c-3.312,4.369-8.631,6.82-15.747,7.284c-3.04,0-6.927-0.306-11.042-0.629c-8.04-0.632-17.151-1.347-23.912-0.155   c-4.213,0.711-7.317,2.142-10.055,3.404c-1.656,0.763-3.178,1.458-4.737,1.899c0.552-2.023,0.121-3.424-0.433-4.291   c-0.762-1.192-1.989-1.848-3.211-2.151c1.378-1.807,3.268-3.525,5.614-4.026c0.54-0.115,0.885-0.646,0.77-1.187   c-0.116-0.54-0.65-0.892-1.187-0.769c-3.417,0.729-6.013,3.487-7.677,6.072c-0.068,0.07-0.115,0.156-0.16,0.243   c-0.003,0.005-0.007,0.01-0.01,0.016c-0.014,0.027-0.035,0.049-0.046,0.078c-1.253,2.034-1.915,3.899-1.915,4.495   c0,0.039,0.006,0.074,0.007,0.112c-0.623,0.151-1.206,0.392-1.805,0.654c-0.381,0.167-0.782,0.339-1.219,0.501   c0.571-1.381,0.561-2.882-0.105-4.227c-0.695-1.405-1.961-2.323-3.477-2.641c0.921-0.896,1.986-1.774,3.146-2.569   c1.224-0.712,4.79-2.61,6.579-2.838c0.548-0.07,0.936-0.571,0.866-1.119s-0.572-0.926-1.119-0.865   c-2.554,0.326-7.138,2.98-7.393,3.133c-3.558,2.434-7.138,6.226-7.45,9.417c-1.875,2.032-5.369,2.295-7.647,1.327   c-0.481-0.205-0.838-0.593-1.03-1.054c0.941,0.417,1.777,0.574,2.49,0.574c0.981,0,1.735-0.286,2.228-0.557   c1.582-0.867,2.552-2.694,2.474-4.654c-0.071-1.765-0.968-3.319-2.442-4.357c1.314-1.583,2.431-2.755,2.666-2.999   c2.165-1.66,6.546-2.96,6.591-2.974c0.53-0.155,0.833-0.711,0.678-1.241c-0.155-0.529-0.709-0.831-1.241-0.678   c-0.197,0.059-4.864,1.441-7.312,3.358c-0.035,0.026-0.067,0.056-0.098,0.087c-0.255,0.259-6.125,6.287-7.874,11.104   c-0.711,0.539-1.25,1.114-1.722,1.63c-1.034,1.13-1.717,1.877-3.792,1.877c-3.601,0-6.391-2.705-6.929-4.723   c0.026-0.032,0.05-0.063,0.076-0.095c1.951,1.335,3.593,1.749,4.873,1.749c1.008,0,1.793-0.255,2.331-0.515   c1.74-0.841,2.832-2.631,2.848-4.674c0.015-1.986-0.98-3.8-2.698-5.063c1.588-1.5,3.509-3.081,6.019-4.824   c2.826-1.483,9.738-3.888,9.808-3.912c0.522-0.181,0.798-0.75,0.617-1.272c-0.181-0.521-0.753-0.8-1.272-0.616   c-0.293,0.102-7.213,2.509-10.141,4.061c-0.035,0.019-0.069,0.039-0.102,0.062c-6.488,4.498-9.348,8.108-12.113,11.602   c-0.527,0.666-1.063,1.335-1.618,2.01c-6.265-2.613-7.658-5.366-7.645-7.928c1.964,3.352,4.108,4.127,5.667,4.127   c0.632,0,1.167-0.127,1.556-0.261c3.083-1.06,5.102-5.127,4.617-8.843c0.809-0.089,1.615-0.312,2.516-0.881   c1.933-1.221,5.169-3.265,9.419-4.95c0.088-0.035,0.17-0.082,0.245-0.14c11.61-9.016,24.752-17.763,43.476-30.078   c0.054-0.036,0.104-0.077,0.151-0.122c11.056-10.845,10.173-26.745,9.054-46.876C78.365,14.824,78.02,8.615,77.953,2h45.992v9.876   c-0.581,2.318-8.646,35.46-2.99,62.266c0.128,0.896,0.39,2.133,0.721,3.697C123.357,85.768,126.854,102.268,119.692,111.716z"/><path d="M109.078,56.279c0.038-4.534,0.073-8.816,2.946-12.621c0.333-0.44,0.246-1.067-0.195-1.4   c-0.442-0.335-1.069-0.246-1.4,0.195c-3.271,4.332-3.312,9.15-3.35,13.81c-0.054,6.484-0.1,12.084-8.538,15.823   c-0.505,0.224-0.733,0.814-0.509,1.319C98.196,73.778,98.562,74,98.946,74c0.135,0,0.273-0.027,0.405-0.086   C108.967,69.653,109.024,62.854,109.078,56.279z"/><path d="M115.356,84.978c-0.633,0.387-15.529,9.678-16.354,26.896c-0.026,0.552,0.399,1.021,0.951,1.047   c0.016,0.001,0.033,0.001,0.049,0.001c0.53,0,0.972-0.417,0.998-0.952c0.773-16.14,15.253-25.195,15.399-25.285   c0.471-0.288,0.619-0.903,0.331-1.374C116.442,84.838,115.827,84.688,115.356,84.978z"/></g></svg>