<svg xmlns="http://www.w3.org/2000/svg" xmlns:xlink="http://www.w3.org/1999/xlink" xml:space="preserve" version="1.1" style="shape-rendering:geometricPrecision;text-rendering:geometricPrecision;image-rendering:optimizeQuality;" viewBox="0 0 333 416.25" x="0px" y="0px" fill-rule="evenodd" clip-rule="evenodd"><defs><style type="text/css">
   
    .fil0 {fill:black}
   
  </style></defs><g><path class="fil0" d="M157 64c-4,3 -10,7 -16,12 -1,-1 -3,-1 -6,-1 -7,0 -12,5 -12,13 0,4 2,8 5,10 0,1 0,2 0,3 -3,13 -4,18 -5,23l-12 6 -19 -41 -2 -14c2,0 4,-2 4,-4 0,-3 -2,-5 -5,-5 -2,0 -4,2 -4,5 0,1 1,3 2,4l0 13 -1 0 -6 -14c1,0 1,-1 1,-3 0,-2 -2,-4 -5,-4 -2,0 -4,2 -4,4 0,3 2,5 4,5 1,3 3,11 4,14l0 0c-2,-2 -7,-8 -10,-10 0,-1 1,-1 1,-2 0,-2 -2,-4 -5,-4 -2,0 -4,2 -4,4 0,3 2,5 4,5 1,0 1,0 1,-1l6 11 21 61c0,0 6,21 26,5 0,0 1,0 1,-1 1,27 9,54 9,54 0,0 -22,-23 -33,-13 -12,10 -11,25 -8,36 3,11 4,13 4,13l-22 -10 -10 -17c0,0 0,-1 0,-2 0,-3 -2,-5 -5,-5 -3,0 -5,2 -5,5 0,3 2,5 5,5l9 15 -1 0 -13 -13c0,0 0,0 0,0 0,-3 -3,-5 -5,-5 -3,0 -6,2 -6,5 0,3 3,5 6,5 0,0 1,0 2,0l14 12 0 0 -17 -6c-1,-2 -3,-3 -5,-3 -3,0 -6,2 -6,5 0,2 3,5 6,5 1,0 3,-1 4,-3l15 6 -1 1 -14 2c-1,-2 -3,-3 -5,-3 -3,0 -5,2 -5,5 0,2 2,5 5,5 2,0 4,-2 5,-4l16 0 41 23c0,0 8,2 14,-2 6,-5 5,-14 3,-21 -1,-6 -1,-17 -1,-17 0,0 26,20 37,27 6,4 10,4 13,4 2,0 6,0 13,-4 11,-7 37,-27 37,-27 0,0 0,11 -2,17 -1,7 -3,16 3,21 6,4 14,2 14,2l42 -23 16 0c0,2 2,4 4,4 3,0 6,-3 6,-5 0,-3 -3,-5 -6,-5 -2,0 -3,1 -4,3l-14 -2 -2 -1 15 -6c1,2 3,3 5,3 3,0 5,-3 5,-5 0,-3 -2,-5 -5,-5 -3,0 -5,1 -5,3l-17 6 -1 0 14 -12c1,0 2,0 3,0 3,0 5,-2 5,-5 0,-3 -2,-5 -5,-5 -3,0 -5,2 -5,5 0,0 0,0 0,0l-14 13 0 0 8 -15c3,0 5,-2 5,-5 0,-3 -2,-5 -5,-5 -3,0 -5,2 -5,5 0,1 0,2 0,2l-9 17 -23 10c0,0 2,-2 5,-13 2,-11 4,-26 -8,-36 -12,-10 -34,13 -34,13 0,0 8,-27 9,-54 1,1 1,1 2,1 19,16 25,-5 25,-5l21 -61 6 -11c0,1 1,1 1,1 3,0 5,-2 5,-5 0,-2 -2,-4 -5,-4 -2,0 -4,2 -4,4 0,1 0,1 0,2 -3,2 -8,8 -9,10l-1 0c1,-3 4,-11 4,-14 3,0 4,-2 4,-5 0,-2 -2,-4 -4,-4 -3,0 -5,2 -5,4 0,2 1,3 2,3l-7 14 -1 0 0 -13c2,-1 3,-3 3,-4 0,-3 -2,-5 -5,-5 -2,0 -4,2 -4,5 0,2 1,4 3,4l-1 14 -20 41 -11 -6c-1,-5 -3,-10 -5,-23 0,-1 -1,-2 -1,-3 3,-2 6,-6 6,-10 0,-8 -6,-13 -13,-13 -2,0 -4,0 -6,1 -5,-5 -11,-9 -16,-12 -1,-4 -5,-7 -9,-7 -5,0 -9,3 -10,7z"/></g></svg>