<svg xmlns="http://www.w3.org/2000/svg" xmlns:xlink="http://www.w3.org/1999/xlink" version="1.1" x="0px" y="0px" viewBox="0 0 487.652 381.0675" style="enable-background:new 0 0 487.652 304.854;" xml:space="preserve"><g><path d="M269.917,135.322c10.67-0.584,16.197-1.565,19.016-2.336c-3.475-1.621-10.192-3.753-19.592-5.367   c-6.734-1.156-13.135-1.743-18.349-1.743c-4.193,0-7.62,0.38-9.836,1.148c-2.86,0.991-3.875,2.41-3.796,2.808   C237.641,131.258,244.318,136.72,269.917,135.322z"/><path d="M233.943,34.704c6.125,0,9.242-2.457,9.354-3.21c-0.112-0.753-3.229-3.21-9.354-3.21c-6.135,0-9.252,2.465-9.355,3.214   C224.69,32.239,227.808,34.704,233.943,34.704z"/><path d="M172.975,41.961c3.25,0,5.677-1.72,5.677-3.258s-2.428-3.258-5.677-3.258s-5.678,1.72-5.678,3.258   S169.725,41.961,172.975,41.961z"/><path d="M403.54,98.176c-3.505,3.025-5.107,6.548-4.394,9.662c1.023,4.469,6.888,8.489,16.121,11.094   c3.519-0.147,6.987-0.351,10.357-0.62c-1.594-7.531-2.296-16.944-2.494-24.958C415.63,91.515,408.067,94.269,403.54,98.176z"/><path d="M22.034,190.688c4.862,7.551,9.659,14.568,12.253,18.317c12.498-5.836,25.637-5.55,36.368-5.304   c5.361,0.123,9.992,0.229,13.437-0.448c3.451-0.679,7.228-1.708,11.226-2.798c9.544-2.601,20.369-5.554,32.367-5.407   c5.48,0.065,11.326,0.503,17.516,0.967c12.539,0.939,26.75,2.005,42.171,0.222c9.179-1.063,18.757-2.702,28.02-4.288   c14.301-2.449,27.793-4.749,38.1-4.642c12.783,0.151,47.195,1.219,61.718,1.682c-1.45-2.942-3.144-6.303-5.115-10.125   c-5.005,0.323-9.962,0.49-14.881,0.388c-17.685-0.371-42.616,0.14-62.647,0.55c-10.934,0.225-20.377,0.419-26.3,0.419   c-4.964,0-14.331,0.731-24.248,1.506c-18.512,1.445-31.174,2.214-39.83,2.214c-12.509,0-16.657-1.604-18.031-5.092   c-1.402-3.56-6.84-17.029-12.1-30.057c-1.667-4.13-3.294-8.159-4.736-11.735c-5.087,0.07-9.634,0.068-13.82-0.009   c-33.124-0.611-80.103,3.751-91.684,8.16c5.013,6.949,8.643,16.924,12.165,26.63C16.696,179.316,19.26,186.38,22.034,190.688z    M72.477,156.338c7.67,0,13.678,4.945,13.678,11.258s-6.008,11.258-13.678,11.258c-7.669,0-13.677-4.945-13.677-11.258   S64.807,156.338,72.477,156.338z"/><ellipse cx="304.418" cy="41.8" rx="5.267" ry="3.646"/><path d="M102.457,53.829c-0.085,2.707-0.284,10.018-0.497,18.029c7.311-0.551,12.881,2.894,15.943,6.871   c3.995,5.187,4.583,11.952,1.463,16.834c-0.954,1.494-2.588,3.324-5.27,4.685c0.79,1.555,1.774,2.497,3.03,3.695   c1.665,1.588,3.737,3.564,5.597,7.187c1.181,2.3,2.167,5.155,3.211,8.18c0.604,1.749,1.359,3.932,2.21,6   c-0.5-7.779-0.777-13.589-0.576-16.001c0.324-3.883,1.459-18.319,1.822-22.938c-2.087-2.993-7.793-11.247-13.586-20.242   c-3.261-5.065-5.974-12.541-8.846-20.455c-1.976-5.446-4.096-11.274-6.462-16.373c0.286,4.014,0.697,8.243,1.035,11.718   C102.093,46.778,102.535,51.328,102.457,53.829z"/><path d="M72.477,170.854c3.25,0,5.678-1.72,5.678-3.258s-2.428-3.258-5.678-3.258s-5.677,1.72-5.677,3.258   S69.227,170.854,72.477,170.854z"/><path d="M112.625,91.254c1.289-2.017,0.854-5.161-1.06-7.646c-2.246-2.917-5.799-4.208-9.818-3.676   c-0.138,5.296-0.268,10.323-0.36,13.992C106.939,94.668,111.042,93.732,112.625,91.254z"/><path d="M110.127,122.598c1.44,3.609,5.283,13.128,9.348,23.198c2.635,6.528,5.311,13.156,7.509,18.609   c1.486-6.734,2.809-14.256,2.553-18.526c-0.11-1.842-0.265-4.125-0.439-6.638c-5.617-2.587-8.311-10.334-10.724-17.322   c-0.949-2.748-1.845-5.343-2.766-7.137c-1.243-2.42-2.521-3.64-4.002-5.052c-1.85-1.764-3.893-3.723-5.399-7.57   c-0.417,0.02-0.837,0.036-1.277,0.036c-0.955,0-1.984-0.063-3.056-0.165c1.026,4.397,3.264,9.331,5.311,13.832   C108.254,118.214,109.264,120.436,110.127,122.598z"/><path d="M122.532,61.795c4.864,7.554,9.66,14.569,12.253,18.316c12.498-5.836,25.637-5.552,36.366-5.304   c5.364,0.123,9.994,0.229,13.439-0.448c3.452-0.679,7.23-1.708,11.23-2.798c9.543-2.601,20.385-5.515,32.364-5.406   c5.481,0.064,11.329,0.503,17.52,0.967c12.539,0.939,26.75,2.005,42.167,0.221c9.181-1.062,18.76-2.702,28.023-4.288   c14.3-2.448,27.806-4.75,38.098-4.641c12.781,0.151,47.192,1.219,61.716,1.682c-10.722-21.594-29.067-54.767-32.602-58.677   c-2.3-2.543-14.963-1.152-27.213,0.192c-12.074,1.326-27.101,2.978-44.511,3.061c-19.096,0.091-39.171,1.003-58.585,1.885   c-21.587,0.979-41.976,1.907-58.797,1.598c-33.117-0.6-80.103,3.754-91.685,8.159c5.013,6.949,8.643,16.924,12.166,26.631   C117.194,50.423,119.757,57.488,122.532,61.795z M304.418,30.155c7.315,0,13.267,5.225,13.267,11.646s-5.951,11.646-13.267,11.646   s-13.267-5.225-13.267-11.646S297.102,30.155,304.418,30.155z M233.943,20.284c9.894,0,17.354,4.819,17.354,11.21   s-7.461,11.21-17.354,11.21c-9.894,0-17.355-4.819-17.355-11.21S224.049,20.284,233.943,20.284z M172.975,27.446   c7.669,0,13.677,4.945,13.677,11.258s-6.008,11.258-13.677,11.258c-7.67,0-13.678-4.945-13.678-11.258   S165.305,27.446,172.975,27.446z"/><path d="M317.243,70.939c-9.369,1.604-19.057,3.264-28.454,4.351c-16.173,1.872-30.79,0.776-43.684-0.19   c-6.062-0.454-11.787-0.883-17.016-0.944c-10.879-0.154-21.13,2.662-30.167,5.125c-4.143,1.128-8.055,2.194-11.789,2.929   c-4.302,0.847-9.338,0.729-15.167,0.597c-10.644-0.245-22.632-0.51-33.661,4.963c-0.075,0.959-0.171,2.176-0.28,3.556   c9.813-5.923,21.926-6.142,30.293-2.598c6.731,2.85,10.429,7.857,9.893,13.395c-0.969,10.011-15.123,18.362-40.984,24.232   c0.123,1.869,0.252,3.754,0.378,5.579c2.75-0.355,6.215-1.078,9.83-1.834c7.342-1.538,15.678-3.278,23.115-3.168   c3.422,0.053,8.284,0.246,13.914,0.471c14.192,0.565,33.119,1.315,46.094,0.513c0.817-3.606,4.041-6.736,8.975-8.447   c9.262-3.213,26.586-0.669,31.676,0.187c4.253,0.715,16.898,3.089,23.827,7.008c6.461-0.373,17.063-1.882,28.251-3.473   c15.458-2.198,31.452-4.462,40.575-4.387c3.16,0.03,6.839,0.104,10.888,0.187c7.115,0.145,15.387,0.312,23.962,0.297   c-3.975-3.276-5.7-6.75-6.366-9.66c-1.396-6.098,1.143-12.478,6.965-17.504c5.759-4.97,15.169-8.552,24.784-6.927   c0.059-3.199,0.204-5.773,0.389-7.315c-0.254-1.502-1.679-4.974-3.854-9.652c-10.427-0.337-51.547-1.645-65.736-1.812   C344.341,66.267,331.174,68.553,317.243,70.939z"/><path d="M63.702,224.986c-7.884-3.339-20.166-2.229-28.035,6.132c-0.266,3.35-0.501,6.289-0.623,7.746   c-0.11,1.314-0.008,4.422,0.196,8.285c31.634-7.378,33.415-15.916,33.511-16.906C68.965,228.034,66.283,226.079,63.702,224.986z"/><path d="M140.659,255.917c-2.86,0.991-3.875,2.41-3.796,2.808c0.281,1.428,6.954,6.893,32.558,5.491   c10.669-0.584,16.196-1.565,19.015-2.337c-3.475-1.62-10.192-3.753-19.592-5.366C156.694,254.426,145.63,254.192,140.659,255.917z"/><path d="M314.77,247.825c3.519-0.147,6.987-0.351,10.356-0.62c-1.594-7.531-2.296-16.943-2.494-24.958   c-7.499-1.839-15.062,0.914-19.589,4.822c-3.506,3.025-5.107,6.547-4.395,9.662C299.672,241.2,305.537,245.22,314.77,247.825z"/><path d="M297.816,221.012c5.76-4.97,15.169-8.552,24.783-6.927c0.059-3.194,0.203-5.765,0.388-7.309   c-0.195-1.034-1.27-3.968-3.89-9.66c-10.483-0.339-51.527-1.644-65.7-1.811c-9.577-0.104-22.723,2.141-36.656,4.526   c-9.368,1.604-19.055,3.264-28.45,4.351c-16.177,1.872-30.793,0.775-43.689-0.191c-6.06-0.454-11.784-0.883-17.012-0.944   c-10.872-0.118-21.131,2.663-30.17,5.126c-4.141,1.128-8.052,2.194-11.785,2.929c-4.301,0.847-9.333,0.732-15.166,0.596   c-10.644-0.244-22.633-0.51-33.663,4.964c-0.075,0.959-0.171,2.175-0.28,3.555c9.813-5.923,21.925-6.141,30.292-2.598   c6.731,2.85,10.43,7.857,9.894,13.395c-0.969,10.011-15.123,18.362-40.984,24.232c0.123,1.868,0.252,3.752,0.378,5.576   c2.75-0.355,6.214-1.075,9.831-1.832c7.342-1.538,15.677-3.28,23.115-3.168c3.423,0.053,8.286,0.246,13.917,0.471   c14.19,0.564,33.116,1.313,46.092,0.513c0.817-3.606,4.041-6.736,8.975-8.448c9.262-3.211,26.586-0.669,31.676,0.188   c4.252,0.714,16.896,3.088,23.825,7.007c6.461-0.373,17.065-1.881,28.256-3.473c15.172-2.158,30.852-4.389,40.064-4.389   c0.171,0,0.34,0.001,0.508,0.002c3.161,0.03,6.841,0.104,10.891,0.188c7.115,0.144,15.385,0.312,23.959,0.296   c-3.975-3.276-5.7-6.75-6.366-9.66C289.454,232.417,291.993,226.039,297.816,221.012z"/><path d="M421.905,168.702c-6.554,0.65-17.523,1.74-38.947,2.466c-13.476,0.456-27.188,2.303-40.448,4.089   c-8.125,1.094-16.026,2.154-23.778,2.913c3.096,6.059,5.415,10.805,7.159,14.556c8.313-3.018,21.681-4.622,39.89-4.764   c5.992-0.047,8.403-1.499,11.739-3.51c4.888-2.946,10.969-6.62,28.108-6.296c19.644,0.362,54.7-1.808,73.311-3.092   c-3.898-2.08-8.564-4.248-13.404-5.775c-7.104-2.241-14.102-6.211-20.87-10.051c-3.063-1.738-6.02-3.415-8.809-4.824   c-0.712,4.781-1.841,8.759-3.409,10.968c-1.601,2.256-3.49,2.787-4.792,2.835C426.269,168.268,424.439,168.45,421.905,168.702z"/><path d="M373.589,126.986c-4.016-0.082-7.666-0.156-10.8-0.186c-8.539-0.103-24.917,2.25-39.373,4.307   c-9.054,1.288-17.731,2.522-24.339,3.17c-0.078,0.487-0.204,0.888-0.313,1.165c-1.529,3.874-6.945,6.694-28.409,7.868   c-2.857,0.156-5.586,0.233-8.178,0.233c-15.358,0.001-25.926-2.715-30.414-7.758c-13.473,1.005-33.648,0.204-48.616-0.392   c-5.577-0.222-10.393-0.414-13.716-0.464c-6.563-0.11-14.42,1.546-21.354,2.998c-4.067,0.852-7.759,1.62-10.914,1.993   c0.141,2.054,0.266,3.924,0.359,5.479c0.486,8.089-3.25,23.46-4.968,30.011c7.862,1.537,34.125-0.513,48.841-1.662   c10.514-0.82,19.594-1.529,24.871-1.529c5.841,0,15.246-0.193,26.136-0.417c20.105-0.412,45.126-0.928,62.98-0.55   c14.63,0.308,29.896-1.747,46.061-3.925c13.456-1.813,27.37-3.687,41.246-4.156c21.163-0.717,31.97-1.79,38.427-2.431   c2.086-0.207,3.721-0.369,5.115-0.46c2.178-4.096,3.824-22.286,1.388-34.102C409.728,127.72,388.987,127.299,373.589,126.986z    M190.717,168.994c-8.182,0-14.839-5.76-14.839-12.839s6.657-12.839,14.839-12.839s14.839,5.76,14.839,12.839   S198.899,168.994,190.717,168.994z M358.007,159.966c-7.724,0-13.774-4.498-13.774-10.241s6.05-10.242,13.774-10.242   c7.724,0,13.774,4.499,13.774,10.242S365.731,159.966,358.007,159.966z M408.409,131.219c9.523,0.938,16.453,7.059,15.776,13.935   c-0.352,3.568-2.741,6.724-6.557,8.658c-2.655,1.346-5.868,2.053-9.234,2.053c-0.792,0-1.594-0.04-2.398-0.119   c-4.22-0.415-8.139-1.894-11.032-4.164c-3.366-2.641-5.095-6.201-4.744-9.77C390.896,134.935,398.877,130.274,408.409,131.219z"/><path d="M399.901,145.288c1.686,1.323,4.192,2.232,6.877,2.497c2.684,0.263,5.321-0.14,7.232-1.108   c1.308-0.663,2.135-1.525,2.212-2.306c0.169-1.713-3.174-4.656-8.598-5.19c-0.556-0.055-1.096-0.08-1.616-0.08   c-4.558,0-7.677,1.958-7.828,3.495C398.104,143.376,398.747,144.382,399.901,145.288z"/><path d="M169.249,101.35c0.214-2.209-2.468-4.164-5.049-5.257c-7.884-3.339-20.166-2.229-28.035,6.132   c-0.266,3.35-0.502,6.29-0.623,7.746c-0.11,1.314-0.008,4.422,0.196,8.285C167.372,110.878,169.153,102.34,169.249,101.35z"/><path d="M358.007,147.483c-3.85,0-5.774,1.814-5.774,2.242s1.925,2.241,5.774,2.241s5.774-1.813,5.774-2.241   S361.857,147.483,358.007,147.483z"/><ellipse cx="190.717" cy="156.155" rx="6.839" ry="4.839"/><path d="M399.523,201.957c-5.66,0-9.133,1.808-9.927,2.744c0.794,0.937,4.267,2.745,9.927,2.745c5.66,0,9.132-1.809,9.927-2.745   C408.656,203.764,405.182,201.957,399.523,201.957z"/><path d="M363.72,256.602c-0.139-0.283-0.617-0.525-1.247-0.633c-0.247-0.043-0.505-0.063-0.772-0.063   c-0.944,0-1.996,0.259-2.988,0.747c-1.273,0.626-2.308,1.559-2.838,2.561c-0.299,0.564-0.399,1.091-0.26,1.374   c0.328,0.666,2.533,1.164,5.008-0.052c1.273-0.626,2.307-1.559,2.838-2.56C363.759,257.411,363.859,256.885,363.72,256.602   L363.72,256.602z"/><path d="M467.85,201.437c-0.851,0-1.895,0.203-2.991,0.742c-1.273,0.626-2.308,1.559-2.838,2.561   c-0.299,0.564-0.399,1.091-0.26,1.374c0.328,0.666,2.533,1.164,5.008-0.052c1.272-0.626,2.307-1.559,2.838-2.561   c0.299-0.564,0.399-1.091,0.26-1.374C469.684,201.756,468.919,201.437,467.85,201.437z"/><path d="M273.095,255.878c-4.017-0.082-7.668-0.156-10.804-0.186c-8.515-0.088-24.915,2.251-39.37,4.307   c-9.056,1.288-17.734,2.522-24.343,3.17c-0.078,0.487-0.204,0.888-0.314,1.166c-1.528,3.873-6.945,6.693-28.408,7.868   c-2.856,0.156-5.585,0.233-8.175,0.233c-15.359,0-25.929-2.715-30.417-7.759c-13.471,1.003-33.645,0.204-48.612-0.393   c-5.578-0.222-10.396-0.414-13.72-0.464c-6.55-0.123-14.42,1.546-21.354,2.998c-4.067,0.852-7.759,1.62-10.914,1.993   c0.141,2.054,0.266,3.924,0.359,5.479c0.485,8.089-3.25,23.46-4.968,30.011c7.862,1.536,34.126-0.511,48.843-1.661   c10.513-0.82,19.593-1.529,24.869-1.529c5.84,0,15.242-0.193,26.129-0.417c20.106-0.413,45.128-0.93,62.987-0.55   c14.627,0.313,29.896-1.747,46.062-3.926c13.455-1.812,27.369-3.686,41.244-4.156c21.154-0.716,31.961-1.789,38.419-2.43   c2.089-0.207,3.727-0.37,5.122-0.46c2.179-4.097,3.824-22.287,1.388-34.103C309.233,256.613,288.494,256.19,273.095,255.878z    M90.219,297.886c-8.182,0-14.839-5.76-14.839-12.839s6.657-12.838,14.839-12.838s14.839,5.759,14.839,12.838   S98.401,297.886,90.219,297.886z M257.51,288.86c-7.724,0-13.774-4.499-13.774-10.242s6.05-10.242,13.774-10.242   c7.724,0,13.774,4.499,13.774,10.242S265.233,288.86,257.51,288.86z M323.687,274.046c-0.352,3.568-2.741,6.724-6.557,8.658   c-2.655,1.346-5.868,2.053-9.234,2.053c-0.792,0-1.594-0.04-2.398-0.119c-4.22-0.415-8.139-1.894-11.032-4.164   c-3.366-2.641-5.095-6.201-4.744-9.77c0.352-3.568,2.741-6.724,6.557-8.658c3.28-1.662,7.41-2.348,11.633-1.934   c4.22,0.415,8.139,1.894,11.032,4.164C322.309,266.918,324.038,270.478,323.687,274.046z"/><path d="M467.217,242.542c-2.09,0-3.79,1.7-3.79,3.79s1.7,3.79,3.79,3.79c2.09,0,3.791-1.7,3.791-3.79   S469.307,242.542,467.217,242.542z"/><path d="M464.842,226.165c-5.322-0.595-11.941-1.336-22.219-1.245c-9.635,0.085-14.426,2.256-19.974,4.769   c-5.557,2.517-11.855,5.37-23.236,5.883c-12.02,0.541-16.491,3.014-20.084,4.999c-2.699,1.492-5.489,3.035-10.009,3.133   c-5.362,0.114-10.198-1.378-14.882-2.822c-8.466-2.609-14.71-4.528-21.809,3.033c0.385,2.074,0.83,3.998,1.347,5.674   c1.928,6.242,2.67,16.737,2.132,26.187c7.911-0.067,25.554-0.307,43.192-1.152c14.31-0.687,24.867-2.567,37.09-4.746   c7.764-1.384,16.564-2.952,27.232-4.333c7.424-0.962,15.183-1.301,22.029-1.6c8.001-0.351,20.026-0.876,22-2.899v-36.019   c-1.93,0.717-4.315,1.3-7.276,1.623C474.696,227.27,470.348,226.782,464.842,226.165z M370.529,261.722   c-1.321,2.492-3.586,4.621-6.377,5.993c-2.176,1.07-4.426,1.581-6.541,1.582c-4.005,0-7.529-1.833-9.175-5.181   c-1.289-2.621-1.154-5.773,0.371-8.649c1.321-2.493,3.585-4.621,6.376-5.994c2.792-1.372,5.86-1.863,8.641-1.39   c3.208,0.549,5.787,2.368,7.076,4.989C372.188,255.694,372.053,258.846,370.529,261.722z M435.583,253.774   c-2.835,1.045-5.654,1.543-8.258,1.543c-5.713,0-10.396-2.394-11.966-6.655c-1.211-3.286-0.343-7.084,2.381-10.42   c2.277-2.789,5.719-5.131,9.69-6.594c9.057-3.338,17.939-1.09,20.226,5.113C449.941,242.964,444.639,250.438,435.583,253.774z    M467.217,258.123c-6.501,0-11.79-5.289-11.79-11.79s5.289-11.79,11.79-11.79c6.501,0,11.791,5.289,11.791,11.79   S473.718,258.123,467.217,258.123z"/><path d="M405.482,186.154c-14.838-0.274-19.407,2.484-23.831,5.149c-3.748,2.259-7.624,4.594-15.806,4.658   c-16.628,0.13-29.401,1.575-36.739,4.106c2.136,5.357,1.968,6.605,1.85,7.461c-0.525,3.805-0.652,15.79,0.401,26.929   c9.033-6.276,17.98-3.52,25.438-1.222c4.264,1.314,8.268,2.547,12.351,2.469c2.549-0.056,3.966-0.839,6.313-2.136   c4.095-2.264,9.704-5.364,23.594-5.99c9.843-0.443,14.92-2.743,20.296-5.178c5.84-2.646,11.879-5.381,23.204-5.481   c10.75-0.077,17.644,0.676,23.18,1.295c5.21,0.582,8.973,1.004,13.777,0.48c5.332-0.582,7.419-2.047,8.143-2.769v-33.459   C473.606,183.503,429.238,186.592,405.482,186.154z M399.523,215.446c-10.449,0-18.032-4.519-18.032-10.745   c0-6.226,7.583-10.744,18.032-10.744s18.032,4.519,18.032,10.744C417.556,210.927,409.972,215.446,399.523,215.446z    M476.675,207.248c-1.321,2.493-3.585,4.621-6.376,5.994c-2.177,1.07-4.426,1.582-6.542,1.582c-4.004,0-7.529-1.834-9.174-5.181   c-1.289-2.621-1.154-5.773,0.371-8.649c1.321-2.493,3.585-4.621,6.376-5.994c6.298-3.098,13.202-1.517,15.716,3.599   C478.334,201.219,478.199,204.372,476.675,207.248z"/><path d="M314.006,270.571c-1.686-1.323-4.192-2.232-6.877-2.497c-0.54-0.053-1.077-0.079-1.607-0.079   c-2.108,0-4.098,0.413-5.625,1.188c-1.308,0.663-2.135,1.525-2.212,2.306c-0.077,0.781,0.566,1.787,1.72,2.692   c1.686,1.323,4.192,2.232,6.877,2.497c2.684,0.262,5.321-0.14,7.232-1.108c1.308-0.663,2.135-1.525,2.212-2.306   C315.803,272.482,315.16,271.476,314.006,270.571z"/><path d="M435.781,238.093c-1.587,0-3.503,0.294-5.584,1.061c-2.611,0.963-4.893,2.475-6.26,4.148   c-0.964,1.181-1.232,2.153-1.07,2.594c0.449,1.221,4.676,2.314,9.952,0.372c5.276-1.944,7.781-5.52,7.332-6.741   C439.876,238.788,438.218,238.093,435.781,238.093z"/><path d="M12.127,220.148c1.289-2.018,0.853-5.162-1.06-7.646c-2.246-2.915-5.798-4.206-9.818-3.675   c-0.138,5.297-0.268,10.326-0.36,13.992C6.442,223.562,10.543,222.626,12.127,220.148z"/><path d="M90.219,280.21c-3.707,0-6.839,2.216-6.839,4.838c0,2.623,3.132,4.839,6.839,4.839s6.839-2.216,6.839-4.839   C97.058,282.425,93.926,280.21,90.219,280.21z"/><path d="M257.51,276.376c-3.85,0-5.774,1.814-5.774,2.242s1.925,2.242,5.774,2.242s5.774-1.814,5.774-2.242   S261.359,276.376,257.51,276.376z"/><path d="M1.959,182.721c-0.085,2.723-0.284,10.028-0.497,18.029c7.312-0.551,12.881,2.895,15.943,6.871   c3.995,5.187,4.583,11.952,1.463,16.835c-0.955,1.494-2.588,3.324-5.27,4.685c0.79,1.554,1.774,2.496,3.03,3.694   c1.665,1.588,3.737,3.564,5.597,7.187c1.181,2.3,2.167,5.156,3.212,8.181c0.604,1.749,1.359,3.932,2.21,5.999   c-0.5-7.779-0.777-13.588-0.576-16.001c0.323-3.883,1.459-18.319,1.822-22.937c-2.087-2.993-7.793-11.247-13.586-20.243   c-3.261-5.065-5.974-12.541-8.846-20.455C4.486,169.12,2.365,163.292,0,158.193c0.286,4.013,0.697,8.24,1.035,11.714   C1.595,175.668,2.037,180.22,1.959,182.721z"/><path d="M28.6,268.134c-5.617-2.587-8.311-10.335-10.724-17.322c-0.949-2.747-1.845-5.343-2.766-7.137   c-1.243-2.42-2.521-3.64-4.002-5.052c-1.85-1.764-3.892-3.722-5.398-7.569c-0.417,0.02-0.837,0.036-1.277,0.036   c-0.955,0-1.985-0.063-3.056-0.165c1.026,4.396,3.264,9.329,5.31,13.829c1.069,2.352,2.08,4.573,2.943,6.736   c1.439,3.608,5.28,13.121,9.344,23.187c2.637,6.532,5.315,13.164,7.513,18.621c1.486-6.735,2.809-14.256,2.553-18.527   C28.928,272.93,28.774,270.647,28.6,268.134z"/></g></svg>