<svg xmlns="http://www.w3.org/2000/svg" xmlns:xlink="http://www.w3.org/1999/xlink" version="1.1" x="0px" y="0px" viewBox="0 0 100 125" enable-background="new 0 0 100 100" xml:space="preserve"><g><polygon fill="none" points="35.771,22.036 23.061,30.582 34.074,30.582 35.221,30.582  "/><path fill="none" d="M49.363,31.471H46.61H36.132l2.52,23.693c1.01-2.118,2.448-5.388,4.062-9.058   C44.925,41.075,47.417,35.407,49.363,31.471z"/><polygon fill="none" points="36.665,21.989 36.112,30.582 46.61,30.582 48.695,30.582  "/><polygon fill="none" points="21.325,30.582 13.165,21.714 6.347,30.582  "/><polygon fill="none" points="53.553,30.582 64.052,30.582 63.498,21.989 51.468,30.582  "/><path fill="none" d="M53.553,31.471H50.8c1.946,3.937,4.439,9.606,6.652,14.639c1.614,3.67,3.051,6.94,4.061,9.057l2.518-23.696   H53.553z"/><polygon fill="none" points="64.392,22.036 64.943,30.582 75.615,30.582 77.103,30.582  "/><path fill="none" d="M68.626,8.597l-4.205,12.386l13.934,9.37c0.029,0.019,0.047,0.047,0.07,0.071   c0.011,0.012,0.023,0.02,0.032,0.033c0.029,0.039,0.049,0.081,0.064,0.126h1.239l6.573-9.342L68.626,8.597z"/><polygon fill="none" points="50.082,30.481 63.195,21.113 50.082,8.579 36.968,21.113  "/><path fill="none" d="M35.238,31.471h-1.164H23.067c4.826,7.526,11.957,18.871,14.648,23.283L35.238,31.471z"/><polygon fill="none" points="22.125,30.14 35.743,20.983 31.537,8.594 13.804,21.096  "/><path fill="none" d="M62.204,56.911L51.429,89.74l27.539-36.192l-1.227-21.435C72.045,41.002,62.881,55.622,62.204,56.911z"/><polygon fill="none" points="21.569,31.471 6.281,31.471 20.375,52.334  "/><path fill="none" d="M37.962,56.91c-0.674-1.288-9.724-15.723-15.54-24.796l-1.226,21.421L48.92,89.731L37.962,56.91z"/><polygon fill="none" points="78.595,31.471 79.789,52.336 93.724,31.471  "/><polygon fill="none" points="23.453,8.332 15.272,18.974 30.365,8.332  "/><polygon fill="none" points="48.978,8.404 32.387,8.335 36.47,20.359  "/><polygon fill="none" points="86.967,21.886 80.847,30.582 93.653,30.582  "/><path fill="none" d="M61.314,56.772c-1.001-1.949-2.705-5.821-4.676-10.304c-2.182-4.963-4.63-10.524-6.557-14.436   c-1.926,3.911-4.373,9.47-6.555,14.432c-1.97,4.482-3.674,8.353-4.675,10.303l11.328,33.93L61.314,56.772z"/><path fill="none" d="M75.615,31.471H64.926l-2.475,23.286c2.692-4.416,9.826-15.769,14.646-23.286H75.615z"/><polygon fill="none" points="63.694,20.36 67.776,8.335 51.185,8.404  "/><polygon fill="none" points="76.547,8.332 69.785,8.332 84.777,19.037  "/><path d="M94.995,31.062c0.001-0.016-0.003-0.031-0.003-0.047c-0.001-0.056-0.014-0.11-0.036-0.162   c-0.005-0.011-0.002-0.025-0.008-0.036c-0.005-0.009-0.014-0.012-0.02-0.021c-0.008-0.013-0.01-0.028-0.02-0.041l-7.605-9.891   L77.119,7.617c-0.084-0.109-0.214-0.174-0.352-0.174h-8.369c0,0-0.001,0-0.002,0L50.082,7.52L31.768,7.443   c-0.001,0-0.001,0-0.002,0h-8.533c-0.138,0-0.268,0.064-0.352,0.174L12.782,20.754l-7.69,10.003   c-0.01,0.013-0.012,0.028-0.02,0.042c-0.005,0.008-0.015,0.012-0.02,0.021c-0.006,0.011-0.003,0.024-0.008,0.035   c-0.023,0.053-0.035,0.107-0.036,0.163c0,0.016-0.004,0.031-0.003,0.047c0.006,0.07,0.028,0.138,0.067,0.198   c0.003,0.004,0.002,0.009,0.005,0.013l15.299,22.647c0.002,0.003,0.006,0.004,0.008,0.007c0.003,0.005,0.004,0.01,0.008,0.015   l29.44,38.438c0.01,0.013,0.026,0.018,0.037,0.03c0.016,0.017,0.027,0.038,0.047,0.053c0.002,0.001,0.004,0.001,0.006,0.002   c0.01,0.007,0.022,0.008,0.033,0.014c0.07,0.044,0.147,0.073,0.229,0.074l0.002,0.001l0,0l0,0h0.001   c0.001,0,0.002-0.001,0.004-0.001c0.081-0.001,0.157-0.03,0.227-0.074c0.011-0.007,0.023-0.007,0.034-0.015   c0.002-0.001,0.004-0.001,0.005-0.002c0.02-0.015,0.031-0.036,0.047-0.054c0.011-0.012,0.026-0.017,0.036-0.03l29.238-38.425   c0.003-0.004,0.004-0.01,0.007-0.015c0.002-0.003,0.006-0.004,0.008-0.008l15.134-22.66c0.003-0.004,0.002-0.009,0.004-0.013   C94.968,31.2,94.989,31.133,94.995,31.062z M78.521,30.582c-0.015-0.045-0.035-0.087-0.064-0.126   c-0.01-0.013-0.021-0.021-0.032-0.033c-0.023-0.024-0.041-0.051-0.07-0.071l-13.934-9.37l4.205-12.386l17.707,12.644l-6.573,9.342   H78.521z M31.537,8.594l4.206,12.389L22.125,30.14l-8.321-9.044L31.537,8.594z M50.082,8.579l13.114,12.534l-13.113,9.368   l-13.114-9.368L50.082,8.579z M75.615,30.582H64.943l-0.551-8.547l12.711,8.547H75.615z M57.452,46.111   c-2.213-5.033-4.706-10.702-6.652-14.639h2.753h10.478l-2.518,23.696C60.504,53.05,59.066,49.781,57.452,46.111z M38.652,55.165   l-2.52-23.693H46.61h2.753c-1.946,3.936-4.438,9.604-6.65,14.635C41.1,49.777,39.662,53.047,38.652,55.165z M34.074,30.582H23.061   l12.711-8.547l-0.551,8.547H34.074z M46.61,30.582H36.112l0.554-8.594l12.03,8.594H46.61z M63.498,21.989l0.554,8.594H53.553   h-2.085L63.498,21.989z M13.165,21.714l8.16,8.868H6.347L13.165,21.714z M34.074,31.471h1.164l2.476,23.283   c-2.691-4.411-9.822-15.757-14.648-23.283H34.074z M43.527,46.464c2.182-4.962,4.628-10.521,6.555-14.432   c1.927,3.912,4.374,9.473,6.557,14.436c1.971,4.483,3.674,8.354,4.676,10.304L50.18,90.698l-11.328-33.93   C39.853,54.817,41.557,50.946,43.527,46.464z M64.926,31.471h10.689h1.482c-4.82,7.517-11.953,18.869-14.646,23.286L64.926,31.471z    M86.967,21.886l6.687,8.697H80.847L86.967,21.886z M76.547,8.332l8.23,10.705L69.785,8.332H76.547z M63.694,20.36L51.185,8.404   l16.591-0.069L63.694,20.36z M48.978,8.404L36.47,20.359L32.387,8.335L48.978,8.404z M23.453,8.332h6.912L15.272,18.974   L23.453,8.332z M21.569,31.471l-1.194,20.863L6.281,31.471H21.569z M22.422,32.114c5.816,9.073,14.866,23.508,15.54,24.796   L48.92,89.731L21.197,53.534L22.422,32.114z M51.429,89.74l10.774-32.829c0.677-1.289,9.841-15.909,15.537-24.798l1.227,21.435   L51.429,89.74z M79.789,52.336l-1.195-20.864h15.129L79.789,52.336z"/></g></svg>