<svg xmlns="http://www.w3.org/2000/svg" xmlns:xlink="http://www.w3.org/1999/xlink" version="1.1" x="0px" y="0px" viewBox="0 0 100 125" enable-background="new 0 0 100 100" xml:space="preserve"><g><path fill="none" d="M52.672,15.692c-0.508,0.133-1.714,0.809-4.086,3.839C50.045,18.402,51.451,17.116,52.672,15.692z"/><path fill="none" d="M42.591,35.678c10.336-0.005,23.218-0.026,32.107-0.044v-6.056H42.617   C42.659,30.766,42.599,35.133,42.591,35.678z"/><path fill="none" d="M31.103,11.76c0.536,1.323,1.745,3.78,3.854,5.893c0.267,0.258,0.549,0.517,0.846,0.779   c0.214,0.182,0.419,0.369,0.649,0.541C36.102,14.29,32.783,12.415,31.103,11.76z"/><polygon fill="none" points="76.198,32.539 75.735,33.608 75.735,33.627 76.198,32.546  "/><polygon fill="none" points="77.201,25.746 77.201,25.744 77.191,25.768  "/><path fill="none" d="M46.427,27.613c-1.119,0-2.184-0.077-3.157-0.191l-0.585,1.12h32.191l0.672-1.568H51.584   C49.85,27.433,48.084,27.613,46.427,27.613z"/><polygon fill="none" points="26.644,28.542 35.336,28.542 36.419,26.974 27.876,26.974  "/><path fill="none" d="M72.196,37.084c-4.449-0.024-29.591-0.271-39.802-0.372c-1.465-0.002-2.749-0.005-3.794-0.009v57.25h43.597   V37.084z M32.643,87.565c0,0.286-0.232,0.518-0.518,0.518c-0.286,0-0.518-0.232-0.518-0.518V56.507   c0-0.286,0.232-0.518,0.518-0.518c0.286,0,0.518,0.232,0.518,0.518V87.565z M32.643,52.524c0,0.286-0.232,0.518-0.518,0.518   c-0.286,0-0.518-0.232-0.518-0.518v-7.964c0-0.286,0.232-0.518,0.518-0.518c0.286,0,0.518,0.232,0.518,0.518V52.524z"/><path fill="none" d="M28.086,35.633c0.081,0.001,1.722,0.017,4.324,0.043c0.803,0.001,1.66,0.002,2.568,0.002v-6.1h-8.882v6.073   c0.39,0.006,1.016,0.01,1.834,0.014C27.982,35.649,28.034,35.634,28.086,35.633z"/><path fill="none" d="M57.242,24.027c-0.553,0.493-1.143,0.904-1.747,1.279h20.766l0.672-1.568H57.602   C57.411,23.896,57.279,23.999,57.242,24.027z"/><path fill="none" d="M34.886,25.306c-0.825-0.412-1.717-0.941-2.666-1.568h-1.802l-1.232,1.568H34.886z"/><path d="M78.2,23.031c-0.008-0.021-0.021-0.037-0.032-0.057c-0.02-0.036-0.04-0.07-0.068-0.1c-0.017-0.019-0.036-0.033-0.056-0.049   c-0.029-0.024-0.059-0.045-0.093-0.062c-0.024-0.012-0.048-0.021-0.074-0.029c-0.019-0.006-0.034-0.017-0.054-0.021   c-0.02-0.004-0.04,0-0.06-0.002c-0.015-0.001-0.028-0.009-0.044-0.009H58.881c1.934-1.59,3.252-3.371,3.935-5.309   c0.026-0.053,0.055-0.104,0.08-0.157l0.046-0.096l0-0.005c1.572-2.897,1.104-4.956,0.3-6.261l0.043-0.041l-0.319-0.364   c-0.104-0.139-0.215-0.272-0.316-0.384c-1.899-2.305-3.59-3.03-4.758-3.211c-0.026-0.005-0.052-0.008-0.078-0.013   c-0.028-0.004-0.06-0.012-0.088-0.015c-0.066-0.025-0.124-0.033-0.155-0.038L57.295,6.77c-0.183-0.025-0.365-0.038-0.549-0.039   l-0.045-0.069l-0.395,0.103l-0.005,0.001c-0.068,0.003-0.134-0.003-0.202,0.003c-7.02,0.572-13.465,12.076-13.717,12.534   c-0.209,0.323-0.402,0.622-0.589,0.912C40.59,13.074,37.201,9.34,36.041,8.58l0.006-0.006c-1.606-1.479-3.192-2.49-4.747-3.048   l0.037-0.071l-0.643-0.156c-0.14-0.034-0.27-0.045-0.407-0.073c-0.225-0.052-0.448-0.089-0.671-0.121   c-0.136-0.02-0.275-0.045-0.409-0.059c-0.124-0.011-0.247-0.011-0.37-0.016c-1.141-0.071-2.189,0.056-3.095,0.422   c-2.269,0.675-3.238,2.201-3.656,3.363c-0.073,0.18-0.129,0.364-0.171,0.553c-0.137,0.547-0.147,0.926-0.147,0.933   c-0.115,3.105,2.243,6.289,4.696,8.746c1.483,1.549,3.028,2.772,4.204,3.611c0.02,0.015,0.041,0.031,0.061,0.045h-0.56   c-0.159,0-0.309,0.073-0.407,0.198l-4.588,5.84c-0.014,0.018-0.018,0.039-0.029,0.057c-0.019,0.031-0.036,0.061-0.048,0.096   c-0.012,0.034-0.016,0.068-0.021,0.103c-0.003,0.022-0.013,0.041-0.013,0.064v7.091c0,0.068,0.013,0.136,0.04,0.199   c0.136,0.328,0.146,0.336,2.463,0.348v57.773c0,0.286,0.232,0.518,0.518,0.518h44.633c0.096,0,0.181-0.033,0.258-0.079   c0.018-0.011,0.034-0.021,0.051-0.034c0.074-0.056,0.135-0.125,0.17-0.213c0.001-0.002,0.003-0.003,0.004-0.004l2.92-7.508   c0.023-0.06,0.035-0.123,0.035-0.188V35.741c0-0.099-0.035-0.186-0.083-0.264l2.126-4.962c0.028-0.064,0.042-0.134,0.042-0.204   V23.22C78.238,23.153,78.223,23.09,78.2,23.031z M77.201,25.746l-0.01,0.023l0.01-0.024V25.746z M74.875,28.542H42.684l0.585-1.12   c0.973,0.114,2.038,0.191,3.157,0.191c1.657,0,3.424-0.18,5.157-0.639h23.963L74.875,28.542z M35.803,18.432   c-0.297-0.262-0.58-0.521-0.846-0.779c-2.109-2.112-3.318-4.57-3.854-5.893c1.68,0.654,4.999,2.529,5.349,7.213   C36.223,18.801,36.017,18.614,35.803,18.432z M52.672,15.692c-1.221,1.424-2.627,2.709-4.086,3.839   C50.957,16.502,52.164,15.825,52.672,15.692z M35.336,28.542h-8.692l1.232-1.568h8.543L35.336,28.542z M74.699,29.578v6.056   c-8.889,0.019-21.771,0.04-32.107,0.044c0.008-0.545,0.068-4.912,0.026-6.1H74.699z M75.735,33.608l0.463-1.069l0,0.007   l-0.463,1.081V33.608z M76.262,25.306H55.496c0.604-0.375,1.194-0.785,1.747-1.279c0.037-0.028,0.169-0.131,0.36-0.289h19.332   L76.262,25.306z M30.418,23.738h1.802c0.949,0.627,1.841,1.155,2.666,1.568h-5.7L30.418,23.738z M26.096,29.578h8.882v6.1   c-0.909-0.001-1.766-0.001-2.568-0.002c-2.602-0.026-4.243-0.042-4.324-0.043c-0.051,0.001-0.104,0.016-0.156,0.032   c-0.818-0.004-1.444-0.008-1.834-0.014V29.578z M28.599,36.703c1.045,0.004,2.33,0.007,3.794,0.009   c10.212,0.101,35.353,0.348,39.802,0.372v56.869H28.599V36.703z"/><path d="M32.125,55.989c-0.286,0-0.518,0.232-0.518,0.518v31.058c0,0.286,0.232,0.518,0.518,0.518c0.286,0,0.518-0.232,0.518-0.518   V56.507C32.643,56.221,32.411,55.989,32.125,55.989z"/><path d="M32.125,44.043c-0.286,0-0.518,0.232-0.518,0.518v7.964c0,0.286,0.232,0.518,0.518,0.518c0.286,0,0.518-0.232,0.518-0.518   v-7.964C32.643,44.275,32.411,44.043,32.125,44.043z"/></g></svg>