<svg xmlns="http://www.w3.org/2000/svg" data-name="Layer 2" viewBox="0 0 64 80" x="0px" y="0px"><title>HingesDoor-Glyph</title><rect x="29" y="20" width="6" height="10"/><rect x="29" y="34" width="6" height="10"/><path d="M29,58a2,2,0,0,0,2,2h2a2,2,0,0,0,2-2V48H29Z"/><rect x="29" y="45" width="6" height="2"/><path d="M33,4H31a2,2,0,0,0-2,2V16h6V6A2,2,0,0,0,33,4Z"/><rect x="29" y="17" width="6" height="2"/><rect x="29" y="31" width="6" height="2"/><path d="M4,7V57a1,1,0,0,0,1,1H28V6H5A1,1,0,0,0,4,7Zm15.5,4.5A2.5,2.5,0,1,1,17,14,2.507,2.507,0,0,1,19.5,11.5Zm0,18A2.5,2.5,0,1,1,17,32,2.507,2.507,0,0,1,19.5,29.5Zm0,18A2.5,2.5,0,1,1,17,50,2.507,2.507,0,0,1,19.5,47.5Zm-9-27A2.5,2.5,0,1,1,8,23,2.507,2.507,0,0,1,10.5,20.5Zm0,18A2.5,2.5,0,1,1,8,41,2.507,2.507,0,0,1,10.5,38.5Z"/><path d="M59,6H36V58H59a1,1,0,0,0,1-1V7A1,1,0,0,0,59,6ZM44.5,52.5A2.5,2.5,0,1,1,47,50,2.507,2.507,0,0,1,44.5,52.5Zm0-18A2.5,2.5,0,1,1,47,32,2.507,2.507,0,0,1,44.5,34.5Zm0-18A2.5,2.5,0,1,1,47,14,2.507,2.507,0,0,1,44.5,16.5Zm9,27A2.5,2.5,0,1,1,56,41,2.507,2.507,0,0,1,53.5,43.5Zm0-18A2.5,2.5,0,1,1,56,23,2.507,2.507,0,0,1,53.5,25.5Z"/></svg>