<svg xmlns:dc="http://purl.org/dc/elements/1.1/" xmlns:cc="http://creativecommons.org/ns#" xmlns:rdf="http://www.w3.org/1999/02/22-rdf-syntax-ns#" xmlns:svg="http://www.w3.org/2000/svg" xmlns="http://www.w3.org/2000/svg" xmlns:sodipodi="http://sodipodi.sourceforge.net/DTD/sodipodi-0.dtd" xmlns:inkscape="http://www.inkscape.org/namespaces/inkscape" viewBox="0 0 8.4666665 10.583333625" version="1.1" x="0px" y="0px"><g transform="translate(0,-288.53332)"><path style="" d="m 1.1903706,289.06249 -0.048059,0.92139 0.7653284,0.50437 0.4547527,-0.34107 a 0.1323049,0.13230491 0 0 1 0.1731168,0.0119 l 0.1710479,0.17105 0.1710505,-0.17105 a 0.1323049,0.13230491 0 0 1 0.1870683,0 l 0.197403,0.1974 0.4433835,-0.22221 a 0.1323049,0.13230491 0 0 1 0.1591627,0.0315 l 0.2687188,0.30695 0.029456,-0.23616 a 0.1323049,0.13230491 0 0 1 0.1901692,-0.10232 l 0.4733555,0.23668 0.5384694,-0.23874 a 0.1323049,0.13230491 0 0 1 0.1193721,0.006 l 0.4056592,0.23203 0.5482881,-0.23823 a 0.1323049,0.13230491 0 0 1 0.136943,0.0196 l 0.334862,0.27854 0.4408011,-0.18914 -0.057878,-1.17822 z" fill="#000000" fill-rule="evenodd" stroke="none"/><path style="" d="M 4.2578125 6.640625 L 3.5039062 21.041016 C 3.4794074 21.49951 3.6139257 21.952842 3.8847656 22.324219 L 9.3789062 29.175781 C 9.7563072 29.693274 10.35833 30 11 30 L 21 30 C 21.64168 30 22.245647 29.693123 22.623047 29.175781 L 28.117188 22.324219 C 28.388028 21.952691 28.522587 21.49951 28.498047 21.041016 L 27.835938 7.5195312 L 26.228516 8.2089844 A 0.50005 0.50005 0 0 1 25.712891 8.1328125 L 24.449219 7.0800781 L 22.429688 7.9570312 A 0.50005 0.50005 0 0 1 21.982422 7.9335938 L 20.451172 7.0585938 L 18.433594 7.9550781 A 0.50005 0.50005 0 0 1 18.005859 7.9453125 L 16.638672 7.2597656 L 16.476562 8.5605469 A 0.50005 0.50005 0 0 1 15.603516 8.828125 L 14.109375 7.1191406 L 12.453125 7.9453125 A 0.50005 0.50005 0 0 1 11.876953 7.8496094 L 11.230469 7.2050781 L 10.583984 7.8515625 A 0.50005 0.50005 0 0 1 9.8769531 7.8515625 L 9.1835938 7.1582031 L 7.53125 8.3984375 A 0.50005 0.50005 0 0 1 6.9550781 8.4179688 L 4.2578125 6.640625 z M 8.5175781 11.25 A 0.50004991 0.50004993 0 0 1 8.6660156 11.269531 L 13.402344 12.515625 A 0.50004991 0.50004993 0 1 1 13.148438 13.482422 L 8.4121094 12.236328 A 0.50004991 0.50004993 0 0 1 8.5175781 11.251953 L 8.5175781 11.25 z M 23.53125 11.25 L 23.53125 11.251953 A 0.50004991 0.50004993 0 0 1 23.652344 12.236328 L 18.916016 13.482422 A 0.50004991 0.50004993 0 1 1 18.662109 12.515625 L 23.398438 11.269531 A 0.50004991 0.50004993 0 0 1 23.53125 11.25 z M 10.509766 13.746094 A 0.50004991 0.50004993 0 0 1 10.609375 13.757812 L 12.345703 14.005859 A 0.50004991 0.50004993 0 1 1 12.205078 14.994141 L 10.46875 14.746094 A 0.50004991 0.50004993 0 0 1 10.507812 13.751953 L 10.509766 13.746094 z M 21.505859 13.748047 L 21.507812 13.75 L 21.507812 13.751953 A 0.50004991 0.50004993 0 0 1 21.5625 14.748047 L 19.826172 14.996094 A 0.50004991 0.50004993 0 1 1 19.683594 14.007812 L 21.419922 13.759766 A 0.50004991 0.50004993 0 0 1 21.505859 13.748047 z M 14.515625 17.75 L 14.517578 17.75 A 0.50004999 0.50005 0 0 1 14.664062 17.779297 L 15.400391 18.023438 A 0.50004999 0.50005 0 1 1 15.085938 18.972656 L 14.349609 18.726562 A 0.50004999 0.50005 0 0 1 14.46875 17.751953 A 0.50004999 0.50005 0 0 1 14.515625 17.75 z M 17.466797 17.75 A 0.50004999 0.50005 0 0 1 17.650391 18.724609 L 16.914062 18.970703 A 0.50004999 0.50005 0 1 1 16.599609 18.021484 L 17.335938 17.777344 A 0.50004999 0.50005 0 0 1 17.466797 17.75 z M 14.607422 23 C 15.247552 23 15.52803 23.25 16 23.25 C 16.4249 23.24622 16.60988 23 17.25 23 C 17.90918 23 18.541703 23.277789 19.007812 23.773438 L 20.25 25.296875 C 20.25 25.296875 17.57303 24.796875 16 24.796875 C 14.42698 24.796875 11.5 25.296875 11.5 25.296875 L 12.849609 23.773438 C 13.315719 23.277827 13.948252 23 14.607422 23 z " transform="matrix(0.26458334,0,0,0.26458336,-2.5232634e-7,288.53332)" fill="#000000" fill-rule="evenodd" stroke="none"/></g></svg>