<svg xmlns="http://www.w3.org/2000/svg" xmlns:xlink="http://www.w3.org/1999/xlink" version="1.1" x="0px" y="0px" viewBox="0 0 100 125" enable-background="new 0 0 100 100" xml:space="preserve"><path d="M56.804,11.804h14.846c0.342,0,0.618-0.277,0.618-0.619V6.237c0-0.342-0.276-0.619-0.618-0.619H56.804  c-0.342,0-0.618,0.276-0.618,0.619v4.948C56.186,11.527,56.462,11.804,56.804,11.804z"/><path d="M46.907,12.423h6.186c0.342,0,0.618-0.277,0.618-0.619V5.619C53.711,5.277,53.435,5,53.093,5h-6.186  c-0.342,0-0.618,0.277-0.618,0.619v6.186C46.289,12.146,46.565,12.423,46.907,12.423z"/><path d="M28.351,11.804h14.846c0.342,0,0.618-0.277,0.618-0.619V6.237c0-0.342-0.276-0.619-0.618-0.619H28.351  c-0.342,0-0.618,0.276-0.618,0.619v4.948C27.732,11.527,28.009,11.804,28.351,11.804z"/><path d="M71.649,14.587h-8.944c0.124,2.716,1.051,4.938,2.783,6.6c2.122,2.036,5.069,2.929,7.39,3.318l-0.572-9.3  C72.285,14.864,71.991,14.587,71.649,14.587z"/><path d="M37.295,14.587h-8.944c-0.342,0-0.636,0.277-0.656,0.618L27.122,24.5c2.325-0.391,5.278-1.284,7.396-3.318  C36.245,19.521,37.171,17.3,37.295,14.587z"/><path d="M24.021,95h16.083c0.683,0,1.32-0.547,1.423-1.223l8.009-52.626c0.257-1.689,0.673-1.689,0.93,0l8.009,52.626  C58.576,94.453,59.214,95,59.896,95h16.083c0.683,0,1.203-0.553,1.161-1.235l-4.146-67.36c-2.643-0.392-6.189-1.382-8.791-3.878  c-2.108-2.022-3.226-4.696-3.354-7.939H50H39.149c-0.128,3.243-1.245,5.917-3.354,7.939c-2.602,2.496-6.147,3.487-8.791,3.878  l-4.146,67.361C22.817,94.447,23.338,95,24.021,95z"/></svg>