<svg xmlns="http://www.w3.org/2000/svg" xmlns:xlink="http://www.w3.org/1999/xlink" xml:space="preserve" version="1.1" style="shape-rendering:geometricPrecision;text-rendering:geometricPrecision;image-rendering:optimizeQuality;" viewBox="0 0 271 290" x="0px" y="0px" fill-rule="evenodd" clip-rule="evenodd"><defs><style type="text/css">
   
    .fil0 {fill:black}
   
  </style></defs><g><path class="fil0" d="M119 74l27 0c3,11 42,11 46,0l61 0c23,0 23,31 0,31l-61 0c-4,-11 -43,-11 -46,0l-27 0 0 -31z"/><path class="fil0" d="M58 123l0 -70c0,-4 4,-8 8,-8l0 -9c-5,-1 -8,-6 -8,-11l0 -14c0,-6 5,-11 11,-11l34 0c6,0 11,5 11,11l0 14c0,5 -3,10 -8,11l0 9c5,0 8,4 8,8l0 70c0,4 -3,8 -8,8l0 9c5,2 8,6 8,11l0 14c0,6 -5,11 -11,11l-34 0c-6,0 -11,-5 -11,-11l0 -14c0,-5 3,-9 8,-11l0 -9c-4,0 -8,-4 -8,-8zm12 -114c0,-1 -1,-3 -3,-3 -2,0 -3,2 -3,3l0 18c0,2 1,3 3,3 2,0 3,-1 3,-3l0 -18zm0 140c0,-1 -1,-3 -3,-3 -2,0 -3,2 -3,3l0 18c0,1 1,3 3,3 2,0 3,-2 3,-3l0 -18zm0 -29c0,-2 -1,-3 -3,-3 -2,0 -4,1 -4,3l0 1c0,2 2,3 4,3 2,0 3,-1 3,-3l0 -1zm0 -66c0,-1 -1,-3 -3,-3 -2,0 -3,2 -3,3l0 55c0,2 1,4 3,4 2,0 3,-2 3,-4l0 -55z"/><polygon class="fil0" points="34,182 137,182 137,200 34,200 "/><polygon class="fil0" points="0,208 171,208 171,232 0,232 "/></g></svg>