<svg xmlns="http://www.w3.org/2000/svg" viewBox="0 0 64 80" x="0px" y="0px"><title>lollipop_4</title><path d="M54.5469,10.0166c-1.5156.1064-6.6778.752-9.7666,4.6084a8.4249,8.4249,0,0,0-2.112,5.4756,10.1811,10.1811,0,0,1,7.4088-1.3565c5.5342.8457,8.9961,5.1817,10.2276,7.0059l.24.35A18.9136,18.9136,0,0,0,56.61,9.8577Z"/><path d="M29.4531,33.9834c1.5157-.1064,6.6778-.752,9.7666-4.6084A8.4245,8.4245,0,0,0,41.3317,23.9a9.5115,9.5115,0,0,1-5.38,1.5155,13.4749,13.4749,0,0,1-2.0292-.1591c-5.5342-.8457-8.9961-5.1817-10.2276-7.0059l-.24-.35A18.9136,18.9136,0,0,0,27.39,34.1423Z"/><path d="M58.65,26.875c-.85-1.26-3.9893-5.4072-8.874-6.1543a8.4342,8.4342,0,0,0-5.7971.91,10.2021,10.2021,0,0,1,4.88,5.7378c2.0332,5.2138.01,10.38-.9541,12.3593l-.1887.394A19.03,19.03,0,0,0,59.81,28.5673Z"/><path d="M46.1035,38.8574c.666-1.3662,2.6875-6.1592.8926-10.7617A8.4359,8.4359,0,0,0,43.31,23.5266a10.201,10.201,0,0,1-2.5282,7.0974c-3.4991,4.3692-8.9854,5.2-11.1807,5.3535l-.4044.0312a18.7124,18.7124,0,0,0,16.0213,4.6986Z"/><path d="M29.29,38.71,7.83,60.17a2.8284,2.8284,0,1,1-4-4L25.29,34.71A21.6427,21.6427,0,0,0,29.29,38.71Z"/><path d="M35.1406,16.6318a13.8987,13.8987,0,0,1-.6058-7.6035,15.0632,15.0632,0,0,0-4.9313,4.5352,1,1,0,1,1-1.6523-1.127,17.1325,17.1325,0,0,1,7.2561-5.9912,18.9062,18.9062,0,0,1,.8874-2.1728l.1887-.394A19.03,19.03,0,0,0,24.19,15.4327l1.16,1.6923c.85,1.26,3.9893,5.4072,8.874,6.1543a8.4271,8.4271,0,0,0,5.7982-.9092A10.2019,10.2019,0,0,1,35.1406,16.6318Z"/><path d="M42,3a19.0353,19.0353,0,0,0-3.2175.2927l-.886,1.85c-.0559.1145-.1236.2613-.1955.4219.3668-.1014.7364-.1933,1.1115-.2647a1,1,0,0,1,.375,1.9648,14.1114,14.1114,0,0,0-2.34.6716,12.6856,12.6856,0,0,0,.1562,7.9681,8.4359,8.4359,0,0,0,3.6866,4.5691,10.2007,10.2007,0,0,1,2.5283-7.0974c3.499-4.3692,8.9853-5.2,11.1806-5.3535l.4044-.0312A18.9078,18.9078,0,0,0,42,3Zm1,4a1,1,0,1,1,1-1A1,1,0,0,1,43,7Z"/></svg>