<svg xmlns="http://www.w3.org/2000/svg" xmlns:xlink="http://www.w3.org/1999/xlink" xml:space="preserve" version="1.1" style="shape-rendering:geometricPrecision;text-rendering:geometricPrecision;image-rendering:optimizeQuality;" viewBox="0 0 847 1058.75" x="0px" y="0px" fill-rule="evenodd" clip-rule="evenodd"><defs><style type="text/css">
   
    .fil0 {fill:black;fill-rule:nonzero}
   
  </style></defs><g><path class="fil0" d="M178 702c-37,-42 3,-107 37,-137 26,-23 66,-43 102,-38l472 -414 51 59 -471 414c0,37 -24,73 -51,96 -34,30 -104,61 -140,20zm160 -169c6,3 12,7 17,13 5,5 8,12 11,19l449 -395 -28 -32 -449 395zm-147 157c29,32 90,1 115,-21 25,-22 64,-78 35,-111 -28,-33 -89,-2 -114,21 -26,22 -64,78 -36,111z"/><path class="fil0" d="M49 356c-40,141 -58,399 153,399 18,0 35,-3 52,-8 -2,0 -5,1 -7,1 -32,5 -69,-3 -91,-28 -46,-54 -5,-136 39,-175 30,-26 70,-46 110,-45l65 -57c-15,-59 -44,-121 -77,-172 -15,14 -31,28 -48,39 -58,-47 -81,-116 -92,-187 -46,72 -80,151 -104,233zm-17 -5c30,-104 71,-189 132,-278 9,73 24,163 82,214 17,-13 34,-29 49,-45 44,65 77,131 95,207l-79 70c-39,-3 -75,14 -104,40 -36,32 -77,104 -37,149 41,47 119,17 156,-18 29,-27 52,-64 54,-103 11,-9 18,-16 28,-25 -9,61 -20,103 -65,149 -38,38 -88,63 -141,63 -226,0 -214,-268 -170,-423z"/></g></svg>