<svg xmlns="http://www.w3.org/2000/svg" xmlns:xlink="http://www.w3.org/1999/xlink" version="1.1" x="0px" y="0px" viewBox="0 0 72 90" style="enable-background:new 0 0 72 72;" xml:space="preserve"><g><path d="M59.84,24.48h1.37v1.37c0,0.41,0.34,0.75,0.75,0.75s0.75-0.34,0.75-0.75v-1.37h1.37c0.41,0,0.75-0.34,0.75-0.75   s-0.34-0.75-0.75-0.75h-1.37v-1.37c0-0.41-0.34-0.75-0.75-0.75s-0.75,0.34-0.75,0.75v1.37h-1.37c-0.41,0-0.75,0.34-0.75,0.75   S59.42,24.48,59.84,24.48z"/><path d="M48.88,11.56h1.37v1.37c0,0.41,0.34,0.75,0.75,0.75s0.75-0.34,0.75-0.75v-1.37h1.37c0.41,0,0.75-0.34,0.75-0.75   s-0.34-0.75-0.75-0.75h-1.37V8.69c0-0.41-0.34-0.75-0.75-0.75s-0.75,0.34-0.75,0.75v1.37h-1.37c-0.41,0-0.75,0.34-0.75,0.75   S48.47,11.56,48.88,11.56z"/><path d="M52.65,56.84c0.19,0,0.38-0.07,0.53-0.22l3.44-3.44c0.29-0.29,0.29-0.77,0-1.06s-0.77-0.29-1.06,0l-3.44,3.44   c-0.29,0.29-0.29,0.77,0,1.06C52.26,56.76,52.45,56.84,52.65,56.84z"/><path d="M61.16,47.58c0.14,0.14,0.33,0.22,0.53,0.22s0.39-0.08,0.53-0.22l5.31-5.31c0.29-0.29,0.29-0.77,0-1.06l-8.2-8.2   c-0.28-0.28-0.78-0.28-1.06,0l-5.31,5.31c-0.29,0.29-0.29,0.77,0,1.06l1.35,1.35l-1.5,1.5l-4.19-4.19c-0.28-0.28-0.78-0.28-1.06,0   l-4.23,4.23l-1.3-1.3l6.37-6.37c0.14-0.14,0.22-0.33,0.22-0.53s-0.08-0.39-0.22-0.53l-0.78-0.78l1.56-2.48   c0.19-0.3,0.14-0.68-0.1-0.93l-2.68-2.68l3.03-3.03c0.29-0.29,0.29-0.77,0-1.06s-0.77-0.29-1.06,0l-3.03,3.03l-2.68-2.68   c-0.25-0.25-0.63-0.29-0.93-0.1l-2.48,1.56l-0.78-0.78c-0.29-0.29-0.77-0.29-1.06,0l-6.37,6.37l-1.3-1.3l4.23-4.23   c0.14-0.14,0.22-0.33,0.22-0.53s-0.08-0.39-0.22-0.53l-4.19-4.19l1.5-1.5l1.35,1.35c0.14,0.14,0.33,0.22,0.53,0.22   s0.39-0.08,0.53-0.22L39,13.73c0.29-0.29,0.29-0.77,0-1.06l-8.2-8.2c-0.29-0.29-0.77-0.29-1.06,0l-5.31,5.31   c-0.29,0.29-0.29,0.77,0,1.06l1.35,1.35l-1.5,1.5l-4.19-4.19c-0.28-0.28-0.78-0.28-1.06,0l-9.52,9.52c-0.29,0.29-0.29,0.77,0,1.06   l4.19,4.19l-1.5,1.5l-1.35-1.35c-0.14-0.14-0.33-0.22-0.53-0.22s-0.39,0.08-0.53,0.22l-5.31,5.31c-0.14,0.14-0.22,0.33-0.22,0.53   s0.08,0.39,0.22,0.53l8.2,8.2c0.15,0.15,0.34,0.22,0.53,0.22s0.38-0.07,0.53-0.22l5.31-5.31c0.29-0.29,0.29-0.77,0-1.06l-1.35-1.35   l1.5-1.5l4.19,4.19c0.15,0.15,0.34,0.22,0.53,0.22s0.38-0.07,0.53-0.22l2.17-2.17c0,0,0,0,0,0s0,0,0,0l2.06-2.06l1.3,1.3   l-4.14,4.14c-0.04,0.04-0.07,0.1-0.1,0.15c-0.01,0.02-0.03,0.03-0.05,0.06l-2.08,4.29c-0.14,0.29-0.08,0.63,0.14,0.86l1.82,1.82   l-1.06,1.06l-3.47-3.47c-0.29-0.29-0.77-0.29-1.06,0l-2.66,2.66c-0.14,0.14-0.22,0.33-0.22,0.53s0.08,0.39,0.22,0.53l1.06,1.06   l-3.24,3.24L9.29,46.5c-0.03-0.01-0.06,0-0.09,0c-0.05-0.01-0.1-0.01-0.15-0.01c-0.05,0-0.09,0.01-0.14,0.03   c-0.05,0.01-0.09,0.03-0.14,0.05c-0.04,0.02-0.08,0.05-0.12,0.08c-0.02,0.02-0.05,0.03-0.08,0.05l-2.66,2.66   c-0.29,0.29-0.29,0.77,0,1.06l15.57,15.57c0.15,0.15,0.34,0.22,0.53,0.22s0.38-0.07,0.53-0.22l2.66-2.66   c0.02-0.02,0.03-0.05,0.05-0.07c0.03-0.04,0.06-0.08,0.09-0.13c0.02-0.04,0.04-0.09,0.05-0.13c0.01-0.05,0.02-0.09,0.03-0.14   c0-0.05,0-0.1-0.01-0.15c0-0.03,0-0.06,0-0.09l-1.44-5.86l3.24-3.24l1.06,1.06c0.15,0.15,0.34,0.22,0.53,0.22s0.38-0.07,0.53-0.22   l2.66-2.66c0.14-0.14,0.22-0.33,0.22-0.53s-0.08-0.39-0.22-0.53l-2.84-2.84l1.06-1.06l1.28,1.28c0.14,0.14,0.34,0.22,0.53,0.22   c0.11,0,0.22-0.02,0.33-0.07l4.29-2.08c0.02-0.01,0.04-0.04,0.06-0.05c0.05-0.03,0.1-0.05,0.14-0.09l4.14-4.14l1.3,1.3l-4.23,4.23   c-0.29,0.29-0.29,0.77,0,1.06l4.19,4.19l-1.5,1.5l-1.35-1.35c-0.14-0.14-0.33-0.22-0.53-0.22s-0.39,0.08-0.53,0.22L33,58.27   c-0.14,0.14-0.22,0.33-0.22,0.53s0.08,0.39,0.22,0.53l8.2,8.2c0.14,0.14,0.33,0.22,0.53,0.22s0.39-0.08,0.53-0.22l5.31-5.31   c0.29-0.29,0.29-0.77,0-1.06l-1.35-1.35l1.5-1.5l4.19,4.19c0.15,0.15,0.34,0.22,0.53,0.22s0.38-0.07,0.53-0.22l9.52-9.52   c0.14-0.14,0.22-0.33,0.22-0.53s-0.08-0.39-0.22-0.53l-4.19-4.19l1.5-1.5L61.16,47.58z M28.14,28.14   C28.14,28.14,28.14,28.14,28.14,28.14l-2.06,2.06l-1.29-1.29l4.11-4.11l1.29,1.29L28.14,28.14C28.14,28.14,28.14,28.14,28.14,28.14   z M30.27,6.06l7.14,7.14l-4.25,4.25l-7.14-7.14L30.27,6.06z M26.84,13.26l3.37,3.37l-1.5,1.5l-3.37-3.37L26.84,13.26z M13.2,37.41   l-7.14-7.14l4.25-4.25l1.35,1.35c0,0,0,0,0,0s0,0,0,0l5.78,5.78L13.2,37.41z M16.63,30.21l-3.37-3.37l1.5-1.5l3.37,3.37   L16.63,30.21z M23.91,32.37L11.1,19.56l8.46-8.46l12.81,12.81l-1.11,1.11l-1.82-1.82c-0.29-0.29-0.77-0.29-1.06,0l-5.17,5.17   c-0.29,0.29-0.29,0.77,0,1.06l1.82,1.82L23.91,32.37z M40.33,25.47l1.68-1.06l5.57,5.57l-1.06,1.68l-1.92-1.92L40.33,25.47z    M37.93,25.19l4.44,4.44l3.76,3.76c0,0,0,0,0,0l0.68,0.68l-6.37,6.37c0,0,0,0,0,0s0,0,0,0l-4.14,4.14l-4.44-4.44l-4.44-4.44   L37.93,25.19z M22.45,56.91l0.85,3.45L11.54,48.61l3.45,0.85L22.45,56.91z M22.02,64.39L7.51,49.89l1.6-1.6L23.62,62.8L22.02,64.39   z M26.14,52.46l-3.01,3.01l-6.69-6.69l3.01-3.01l3.35,3.35L26.14,52.46z M28.79,52.99l-4.94-4.94l-3.88-3.88c0,0,0,0,0,0   l-1.06-1.06l1.6-1.6l5.96,5.96l1.08,1.08c0,0,0,0,0,0l2.84,2.84L28.79,52.99z M28.07,46.97l-0.72-0.72l-1.78-1.78l1.06-1.06   l1.91,1.91l0.6,0.6L28.07,46.97z M32.16,46.81l-1.43-1.43c0,0,0,0,0,0l-1.04-1.04l-4.5-4.5l1.39-2.86l8.45,8.45L32.16,46.81z    M58.8,34.59l7.14,7.14l-4.25,4.25l-1.35-1.35c0,0,0,0,0,0s0,0,0,0l-4.43-4.43c0,0,0,0,0,0s0,0,0,0l-1.35-1.35L58.8,34.59z    M45.92,41.8l1.29,1.29l-4.11,4.11l-1.29-1.29L45.92,41.8z M41.73,65.94l-7.14-7.14l4.25-4.25l1.35,1.35c0,0,0,0,0,0s0,0,0,0   l5.78,5.78L41.73,65.94z M45.16,58.74l-3.37-3.37l1.5-1.5l3.37,3.37L45.16,58.74z M52.44,60.9l-4.19-4.19c0,0,0,0,0,0s0,0,0,0   l-4.43-4.43c0,0,0,0,0,0s0,0,0,0l-4.19-4.19l1.11-1.11l1.82,1.82c0.15,0.15,0.34,0.22,0.53,0.22s0.38-0.07,0.53-0.22l5.17-5.17   c0.29-0.29,0.29-0.77,0-1.06l-1.82-1.82l1.11-1.11L60.9,52.44L52.44,60.9z M57.24,46.66l-3.37-3.37l1.5-1.5l3.37,3.37L57.24,46.66z   "/><path d="M57.57,38.67c0.15,0.15,0.34,0.22,0.53,0.22c0.19,0,0.38-0.07,0.53-0.22c0.29-0.29,0.29-0.77,0-1.06l-0.27-0.27   c-0.29-0.29-0.77-0.29-1.06,0c-0.29,0.29-0.29,0.77,0,1.06L57.57,38.67z"/><path d="M62.13,43.24c0.15,0.15,0.34,0.22,0.53,0.22c0.19,0,0.38-0.07,0.53-0.22c0.29-0.29,0.29-0.77,0-1.06l-0.27-0.27   c-0.29-0.29-0.77-0.29-1.06,0c-0.29,0.29-0.29,0.77,0,1.06L62.13,43.24z"/><path d="M38.4,57.3c-0.29-0.29-0.77-0.29-1.06,0s-0.29,0.77,0,1.06l0.27,0.27c0.15,0.15,0.34,0.22,0.53,0.22   c0.19,0,0.38-0.07,0.53-0.22c0.29-0.29,0.29-0.77,0-1.06L38.4,57.3z"/><path d="M41.91,62.92l0.27,0.27c0.15,0.15,0.34,0.22,0.53,0.22c0.19,0,0.38-0.07,0.53-0.22c0.29-0.29,0.29-0.77,0-1.06l-0.27-0.27   c-0.29-0.29-0.77-0.29-1.06,0S41.61,62.63,41.91,62.92z"/><path d="M18.82,15.38l-3.44,3.44c-0.29,0.29-0.29,0.77,0,1.06c0.15,0.15,0.34,0.22,0.53,0.22s0.38-0.07,0.53-0.22l3.44-3.44   c0.29-0.29,0.29-0.77,0-1.06S19.12,15.09,18.82,15.38z"/><path d="M33.6,14.71c0.15,0.15,0.34,0.22,0.53,0.22c0.19,0,0.38-0.07,0.53-0.22c0.29-0.29,0.29-0.77,0-1.06l-0.27-0.27   c-0.29-0.29-0.77-0.29-1.06,0s-0.29,0.77,0,1.06L33.6,14.71z"/><path d="M29.82,8.81c-0.29-0.29-0.77-0.29-1.06,0s-0.29,0.77,0,1.06l0.27,0.27c0.15,0.15,0.34,0.22,0.53,0.22   c0.19,0,0.38-0.07,0.53-0.22c0.29-0.29,0.29-0.77,0-1.06L29.82,8.81z"/><path d="M13.37,34.39l0.27,0.27c0.15,0.15,0.34,0.22,0.53,0.22s0.38-0.07,0.53-0.22c0.29-0.29,0.29-0.77,0-1.06l-0.27-0.27   c-0.29-0.29-0.77-0.29-1.06,0S13.08,34.1,13.37,34.39z"/><path d="M9.87,28.76c-0.29-0.29-0.77-0.29-1.06,0c-0.29,0.29-0.29,0.77,0,1.06l0.27,0.27c0.15,0.15,0.34,0.22,0.53,0.22   c0.19,0,0.38-0.07,0.53-0.22c0.29-0.29,0.29-0.77,0-1.06L9.87,28.76z"/><path d="M14.88,61.77l-0.33,0.33c-0.29,0.29-0.29,0.77,0,1.06c0.15,0.15,0.34,0.22,0.53,0.22c0.19,0,0.38-0.07,0.53-0.22l0.33-0.33   c0.29-0.29,0.29-0.77,0-1.06C15.65,61.48,15.17,61.48,14.88,61.77z"/><path d="M12.78,63.87l-0.33,0.33c-0.29,0.29-0.29,0.77,0,1.06c0.15,0.15,0.34,0.22,0.53,0.22c0.19,0,0.38-0.07,0.53-0.22l0.33-0.33   c0.29-0.29,0.29-0.77,0-1.06C13.55,63.58,13.07,63.58,12.78,63.87z"/><path d="M10.68,65.97l-0.33,0.33c-0.29,0.29-0.29,0.77,0,1.06c0.15,0.15,0.34,0.22,0.53,0.22c0.19,0,0.38-0.07,0.53-0.22l0.33-0.33   c0.29-0.29,0.29-0.77,0-1.06C11.45,65.67,10.98,65.68,10.68,65.97z"/><path d="M13.04,59.93c0.29-0.29,0.29-0.77,0-1.06c-0.29-0.29-0.77-0.29-1.06,0l-0.33,0.33c-0.29,0.29-0.29,0.77,0,1.06   c0.15,0.15,0.34,0.22,0.53,0.22c0.19,0,0.38-0.07,0.53-0.22L13.04,59.93z"/><path d="M10.94,62.03c0.29-0.29,0.29-0.77,0-1.06c-0.29-0.29-0.77-0.29-1.06,0L9.55,61.3c-0.29,0.29-0.29,0.77,0,1.06   c0.15,0.15,0.34,0.22,0.53,0.22c0.19,0,0.38-0.07,0.53-0.22L10.94,62.03z"/><path d="M7.78,63.07L7.45,63.4c-0.29,0.29-0.29,0.77,0,1.06c0.15,0.15,0.34,0.22,0.53,0.22c0.19,0,0.38-0.07,0.53-0.22l0.33-0.33   c0.29-0.29,0.29-0.77,0-1.06S8.07,62.77,7.78,63.07z"/><path d="M10.13,57.03c0.29-0.29,0.29-0.77,0-1.06c-0.29-0.29-0.77-0.29-1.06,0L8.74,56.3c-0.29,0.29-0.29,0.77,0,1.06   c0.15,0.15,0.34,0.22,0.53,0.22c0.19,0,0.38-0.07,0.53-0.22L10.13,57.03z"/><path d="M8.04,59.13c0.29-0.29,0.29-0.77,0-1.06s-0.77-0.29-1.06,0L6.64,58.4c-0.29,0.29-0.29,0.77,0,1.06   c0.15,0.15,0.34,0.22,0.53,0.22c0.19,0,0.38-0.07,0.53-0.22L8.04,59.13z"/><path d="M4.88,60.16L4.55,60.5c-0.29,0.29-0.29,0.77,0,1.06c0.15,0.15,0.34,0.22,0.53,0.22c0.19,0,0.38-0.07,0.53-0.22l0.33-0.33   c0.29-0.29,0.29-0.77,0-1.06C5.65,59.87,5.17,59.87,4.88,60.16z"/></g></svg>