<svg xmlns="http://www.w3.org/2000/svg" xmlns:xlink="http://www.w3.org/1999/xlink" version="1.1" x="0px" y="0px" viewBox="0 0 504 439.45124999999996" style="enable-background:new 0 0 504 351.561;" xml:space="preserve"><g><path d="M503.644,280.241c-3.477-7.681-7.481-14.521-11.903-20.378c0.274-7.522-0.149-39.43-25.944-51.876   c-21.575-10.405-45.299-3.242-55.712,0.935c-4.64-51.625-21.345-102.382-46.207-140.042C334.131,23.818,295.443,0,252,0   s-82.131,23.818-111.878,68.88c-24.862,37.66-41.566,88.416-46.207,140.042c-10.414-4.177-34.14-11.34-55.713-0.934   c-25.794,12.446-26.217,44.354-25.943,51.876c-4.423,5.859-8.427,12.698-11.903,20.378c-0.749,1.653-0.29,3.604,1.117,4.751   c0.734,0.598,1.629,0.898,2.526,0.898c0.824,0,1.65-0.254,2.353-0.766c3.021-2.197,6.11-4.187,9.222-5.985   c1.245,5.134,3.499,13.105,6.83,20.05c-2.333,3.975-4.414,8.178-6.167,12.552c-0.657,1.64-0.161,3.517,1.221,4.617   c0.727,0.579,1.608,0.871,2.492,0.871c0.796,0,1.593-0.236,2.28-0.714c2.923-2.028,5.804-3.914,8.603-5.634   c5.242,4.831,13.697,10.947,23.25,16.802c-0.705,2.217-1.371,4.488-1.981,6.793c-0.43,1.627,0.204,3.349,1.586,4.309   c0.687,0.476,1.483,0.714,2.281,0.714c0.81,0,1.618-0.245,2.311-0.734c2.318-1.64,4.651-3.201,6.966-4.666   c12.681,6.83,34.527,17.001,52.164,17.001c17.234,0,29.856-3.946,40.992-7.428c9.016-2.818,16.801-5.253,25.548-5.253   c9.374,0,19.521,2.928,30.262,6.027c12.118,3.497,24.648,7.113,37.788,7.113s25.67-3.616,37.788-7.113   c10.741-3.1,20.888-6.027,30.262-6.027c8.747,0,16.532,2.435,25.548,5.253c11.136,3.481,23.758,7.428,40.992,7.428   c17.637,0,39.483-10.171,52.164-17c2.312,1.463,4.647,3.025,6.966,4.666c0.692,0.489,1.501,0.734,2.311,0.734   c0.797,0,1.595-0.238,2.281-0.714c1.382-0.96,2.016-2.682,1.586-4.309c-0.61-2.306-1.276-4.578-1.981-6.793   c9.581-5.872,18.057-12.005,23.253-16.8c2.796,1.719,5.677,3.604,8.599,5.632c0.688,0.478,1.484,0.714,2.28,0.714   c0.884,0,1.766-0.292,2.492-0.871c1.382-1.101,1.878-2.978,1.221-4.617c-1.754-4.377-3.836-8.581-6.167-12.552   c3.331-6.945,5.584-14.917,6.83-20.051c3.112,1.799,6.201,3.789,9.222,5.986c0.702,0.512,1.528,0.766,2.353,0.766   c0.896,0,1.792-0.301,2.526-0.898C503.934,283.846,504.393,281.895,503.644,280.241z M462.321,215.192   c15.342,7.402,19.782,24.13,21,35.137c-7.256-6.952-15.552-12.046-24.78-15.214c-0.498-4.807-3.148-9.147-7.358-11.799   c-7.993-5.037-17.017-8.627-26.404-10.622C435.368,210.178,449.512,209.014,462.321,215.192z M362.518,253.975   c0.231-6.847,2.133-13,5.652-18.288c6.841-10.278,21.214-16.565,38.449-16.816c0.357-0.006,0.713-0.009,1.07-0.009   c13.826,0,27.718,3.968,39.229,11.224c2.578,1.624,3.981,4.521,3.664,7.557c-0.215,2.036-1.212,3.877-2.813,5.189l-9.903,8.145   c-3.726,3.053-5.831,7.745-5.632,12.554l0.319,8.043c0.265,6.505-3.369,12.484-9.308,15.26c-0.296,0.144-0.6,0.271-0.911,0.393   l-11.073,4.327c-3.713,1.443-6.626,4.427-7.993,8.191l-2.419,6.708c-0.512,1.415-1.524,2.556-2.872,3.224   c-2.135,1.071-4.675,0.759-6.476-0.794C373.002,292.934,361.896,271.896,362.518,253.975z M344.98,133.82   c4.774,0,8.659,3.885,8.659,8.66s-3.885,8.66-8.659,8.66c-4.775,0-8.66-3.885-8.66-8.66S340.205,133.82,344.98,133.82z M252,121.44   c7.03,0,13.851,1.245,20.333,3.682c-2.39,6.27-8.702,19.108-20.333,19.108c-11.626,0-17.938-12.829-20.332-19.109   C238.15,122.685,244.97,121.44,252,121.44z M224.365,128.449c2.899,7.441,10.014,21.146,23.635,23.443v22.734l-15.167,15.596   c-1.541,1.584-1.505,4.116,0.078,5.656c1.582,1.54,4.115,1.505,5.656-0.078L252,181.987l13.433,13.813   c0.784,0.806,1.825,1.211,2.867,1.211c1.005,0,2.012-0.376,2.789-1.133c1.583-1.54,1.619-4.072,0.078-5.656L256,174.626v-22.734   c13.619-2.297,20.734-15.998,23.635-23.443c18.538,10.076,30.294,29.608,30.294,50.921c0,31.942-25.987,57.93-57.93,57.93   s-57.93-25.987-57.93-57.93C194.07,158.057,205.827,138.526,224.365,128.449z M159.02,133.82c4.775,0,8.66,3.885,8.66,8.66   s-3.885,8.66-8.66,8.66c-4.774,0-8.659-3.885-8.659-8.66S154.245,133.82,159.02,133.82z M97.382,218.87   c17.234,0.251,31.607,6.538,38.448,16.816c3.52,5.288,5.421,11.441,5.652,18.292c0.622,17.918-10.484,38.955-28.984,54.902   c-1.8,1.551-4.342,1.862-6.493,0.784c-1.329-0.658-2.342-1.799-2.853-3.212l-2.423-6.718c-1.364-3.757-4.277-6.74-7.983-8.181   l-11.081-4.33c-0.311-0.122-0.614-0.249-0.962-0.418c-5.887-2.75-9.521-8.729-9.256-15.237l0.319-8.04   c0.199-4.809-1.906-9.501-5.626-12.548l-9.916-8.156c-1.595-1.307-2.592-3.147-2.806-5.182c-0.318-3.038,1.085-5.935,3.664-7.56   C68.891,222.642,83.191,218.62,97.382,218.87z M41.678,215.192c12.799-6.173,26.928-5.017,37.513-2.505   c-9.376,1.998-18.39,5.596-26.373,10.628c-4.211,2.653-6.861,6.993-7.359,11.8c-9.238,3.172-17.542,8.273-24.803,15.236   C21.854,239.355,26.275,222.625,41.678,215.192z M16.531,269.503c-0.639,0.323-1.276,0.655-1.914,0.996   c1.556-2.462,3.179-4.773,4.863-6.924c7.667-9.8,16.608-16.5,27.231-20.411c0.986,2.245,2.487,4.248,4.438,5.845l9.915,8.156   c0.68,0.557,1.247,1.229,1.684,1.973C46.421,258.761,30.897,262.232,16.531,269.503z M22.898,275.302   c9.585-4.469,19.475-7.086,29.9-7.917c-10.038,6.687-18.45,14.644-25.147,23.785C25.294,285.127,23.706,278.864,22.898,275.302z    M29.978,302.068c0.128-0.21,0.257-0.419,0.386-0.628c7.813-12.657,18.941-23.148,33.132-31.261l-0.042,1.068   c-0.243,5.999,1.736,11.696,5.337,16.147C56.246,289.347,43.454,294.183,29.978,302.068z M56.804,319.962   c-7.401-4.616-14.072-9.378-18.668-13.299c11.062-5.997,21.586-9.754,31.853-11.358C64.746,302.57,60.335,310.822,56.804,319.962z    M63.075,326.026c4.222-11.925,9.981-22.249,17.109-30.792l9.657,3.774c1.563,0.607,2.792,1.868,3.366,3.449l2.421,6.712   c0.239,0.661,0.537,1.289,0.865,1.896C85.232,314.244,74.234,319.168,63.075,326.026z M386.59,343.101   c-16.013,0-27.498-3.591-38.605-7.063c-9.239-2.889-17.967-5.617-27.935-5.617c-10.505,0-21.179,3.08-32.479,6.342   c-11.584,3.343-23.562,6.799-35.57,6.799s-23.986-3.456-35.57-6.799c-11.301-3.262-21.975-6.342-32.479-6.342   c-9.968,0-18.695,2.729-27.935,5.617c-11.107,3.473-22.593,7.063-38.605,7.063c-11.155,0-26.635-4.872-44.073-13.792   c10.158-5.599,20.211-9.505,30.524-11.871c1.566,0.58,3.196,0.87,4.817,0.87c3.252,0,6.468-1.147,9.043-3.369   c19.598-16.892,31.287-38.433,31.763-58.214c4.715-1.456,15.089-4.101,23.661-2.347c5.271,1.083,9.614,4.071,14.213,7.233   c5.592,3.848,11.375,7.825,19.28,8.799c6.77,0.842,12.943-0.58,20.088-2.224c7.006-1.61,14.945-3.437,25.273-3.437   s18.268,1.826,25.273,3.437c5.685,1.307,10.752,2.473,15.995,2.473c1.348,0,2.707-0.077,4.091-0.249   c7.907-0.974,13.69-4.951,19.282-8.799c4.599-3.162,8.942-6.15,14.21-7.232c8.574-1.757,18.95,0.89,23.664,2.347   c0.478,19.784,12.166,41.323,31.762,58.214c2.578,2.224,5.797,3.371,9.049,3.371c1.622,0,3.252-0.292,4.815-0.872   c10.311,2.366,20.361,6.271,30.521,11.871C413.225,338.229,397.745,343.101,386.59,343.101z M407.507,311.066   c0.329-0.608,0.628-1.236,0.866-1.898l2.417-6.702c0.577-1.589,1.806-2.85,3.376-3.46l9.65-3.771   c7.127,8.541,12.884,18.864,17.109,30.792C429.761,319.166,418.765,314.243,407.507,311.066z M447.196,319.962   c-3.532-9.142-7.943-17.394-13.185-24.657c10.266,1.604,20.788,5.36,31.853,11.358   C461.267,310.584,454.596,315.346,447.196,319.962z M435.203,287.394c3.61-4.455,5.587-10.149,5.344-16.143l-0.042-1.071   c14.191,8.113,25.32,18.605,33.138,31.271c0.128,0.205,0.254,0.41,0.38,0.617C460.541,294.181,447.748,289.345,435.203,287.394z    M476.35,291.173c-6.7-9.143-15.11-17.101-25.146-23.786c10.426,0.831,20.316,3.448,29.9,7.916   C480.298,278.862,478.711,285.123,476.35,291.173z M487.467,269.501c-14.365-7.27-29.888-10.741-46.215-10.364   c0.438-0.745,1.006-1.418,1.689-1.978l9.902-8.145c1.955-1.601,3.458-3.604,4.444-5.851c10.623,3.911,19.565,10.612,27.233,20.413   c1.684,2.149,3.306,4.46,4.861,6.922C488.745,270.158,488.105,269.825,487.467,269.501z"/><path d="M179.314,287.55c-1.591-1.534-4.125-1.486-5.655,0.106c-1.533,1.591-1.485,4.123,0.106,5.655l13.53,13.029   c0.775,0.748,1.775,1.119,2.774,1.119c1.049,0,2.097-0.41,2.881-1.226c1.533-1.591,1.485-4.123-0.106-5.655L179.314,287.55z"/><path d="M150.655,305.256c-2.021-0.885-4.382,0.035-5.27,2.059l-8.18,18.67c-0.887,2.023,0.035,4.383,2.059,5.27   c0.522,0.229,1.067,0.337,1.604,0.337c1.54,0,3.008-0.895,3.666-2.396l8.18-18.67C153.601,308.502,152.679,306.143,150.655,305.256   z"/><path d="M224.882,309.479c-1.311-1.78-3.813-2.16-5.593-0.851s-2.16,3.813-0.851,5.593l8.81,11.97   c0.784,1.065,1.996,1.629,3.225,1.629c0.823,0,1.654-0.253,2.368-0.778c1.779-1.31,2.16-3.813,0.851-5.593L224.882,309.479z"/><path d="M236.782,280.621c-1.491-1.631-4.021-1.743-5.651-0.253s-1.743,4.021-0.253,5.651l6.5,7.11   c0.789,0.863,1.869,1.301,2.953,1.301c0.964,0,1.931-0.347,2.698-1.048c1.63-1.49,1.743-4.021,0.253-5.651L236.782,280.621z"/><path d="M269.91,304.559l-12.82,10.609c-1.702,1.409-1.94,3.931-0.532,5.632c0.791,0.956,1.934,1.45,3.084,1.45   c0.898,0,1.802-0.301,2.548-0.918l12.82-10.609c1.702-1.409,1.94-3.931,0.532-5.632   C274.133,303.389,271.611,303.151,269.91,304.559z"/><path d="M320.147,301.872c-1.457-1.658-3.983-1.825-5.646-0.368c-1.66,1.458-1.825,3.985-0.368,5.646l8.601,9.8   c0.791,0.9,1.896,1.361,3.009,1.361c0.937,0,1.877-0.327,2.637-0.993c1.66-1.458,1.825-3.985,0.368-5.646L320.147,301.872z"/><path d="M344.88,276.141c-2.146-0.49-4.298,0.855-4.789,3.01l-3.771,16.521c-0.492,2.153,0.855,4.298,3.01,4.789   c0.299,0.068,0.599,0.102,0.894,0.102c1.824,0,3.473-1.257,3.896-3.111l3.771-16.521   C348.382,278.776,347.034,276.632,344.88,276.141z"/><path d="M380.937,326.07l-12.17-7.54c-1.879-1.162-4.344-0.583-5.507,1.294c-1.163,1.878-0.584,4.343,1.294,5.507l12.17,7.54   c0.656,0.406,1.384,0.601,2.103,0.601c1.339,0,2.647-0.673,3.404-1.895C383.394,329.699,382.814,327.234,380.937,326.07z"/><path d="M292.932,283.773c-1.346-1.753-3.857-2.082-5.608-0.735c-1.752,1.346-2.081,3.856-0.735,5.608l6.79,8.84   c0.787,1.025,1.975,1.563,3.175,1.563c0.851,0,1.707-0.27,2.434-0.828c1.752-1.346,2.081-3.856,0.735-5.608L292.932,283.773z"/></g></svg>