<svg xmlns="http://www.w3.org/2000/svg" xmlns:xlink="http://www.w3.org/1999/xlink" version="1.1" x="0px" y="0px" viewBox="0 0 100 125" enable-background="new 0 0 100 100" xml:space="preserve"><path d="M46.979,26.408c-0.135-0.016-0.276-0.031-0.422-0.044c-0.045-0.004-0.09-0.01-0.135-0.014  c-0.056-0.004-0.109-0.009-0.167-0.014c-0.069-0.007-0.138-0.013-0.208-0.018c-0.044-0.004-0.088-0.008-0.131-0.011  c-0.114-0.008-0.229-0.015-0.343-0.021c-0.029-0.002-0.06-0.004-0.089-0.004c-0.094-0.005-0.188-0.008-0.282-0.012  c-0.034-0.001-0.07-0.003-0.104-0.003c-0.121-0.004-0.242-0.006-0.36-0.006c-0.102,0-0.195,0.001-0.287,0.005  c-0.062,0.015-0.123,0.028-0.185,0.044c-0.602,0.15-0.996,0.229-1.252,0.147c-0.324,0.107-0.432,0.23-0.436,0.294  c-0.004,0.078-0.006,0.158-0.006,0.239c0,0.028,0.001,0.058,0.001,0.088c0.001,0.05,0.003,0.102,0.005,0.152  c0.003,0.038,0.006,0.076,0.008,0.113c0.003,0.042,0.006,0.083,0.012,0.126c0.004,0.045,0.008,0.089,0.016,0.135  c0.003,0.03,0.008,0.058,0.012,0.089c0.04,0.279,0.102,0.557,0.179,0.822c0.261,0.252,0.572,0.466,0.929,0.625  c0.053,0.024,0.106,0.035,0.162,0.035c0.149,0,0.295-0.087,0.36-0.235c0.09-0.199,0-0.433-0.198-0.522  c-0.567-0.255-0.984-0.682-1.177-1.179c0.498,0.107,1.076-0.035,1.58-0.162c0.012-0.002,0.022-0.005,0.035-0.008  c-0.042,0.133-0.066,0.272-0.066,0.417c0,0.773,0.632,1.406,1.406,1.406s1.407-0.632,1.407-1.406c0-0.005-0.001-0.009-0.001-0.015  c0.444,0.33,0.788,0.761,0.993,1.192c0.008,0.015,0.019,0.025,0.025,0.04c0.027-0.069,0.055-0.141,0.082-0.214  c0-0.003,0.002-0.004,0.002-0.007c0.027-0.072,0.055-0.146,0.081-0.225c0.001-0.002,0.002-0.004,0.003-0.008  c0.027-0.077,0.055-0.157,0.082-0.24c0-0.003,0.002-0.006,0.002-0.009c0.029-0.086,0.057-0.173,0.084-0.265l0,0  C48.207,27.198,47.65,26.709,46.979,26.408z M45.834,28.102c-0.339,0-0.613-0.277-0.613-0.615c0-0.228,0.123-0.435,0.322-0.541  c0.025-0.016,0.049-0.03,0.07-0.048c0.197,0.004,0.391,0.03,0.574,0.075c0.014,0.017,0.027,0.033,0.045,0.047  c0.138,0.117,0.217,0.288,0.217,0.468C46.449,27.825,46.174,28.102,45.834,28.102z M51.301,14.156c0,0,0,0-0.002,0l0,0l0,0  c-0.754,0.004-1.492,0.079-2.209,0.213c-0.02,0.001-0.035,0.003-0.041,0.004c-0.027,0.003-0.055,0.01-0.08,0.018  c-2.521,0.495-4.779,1.767-6.509,3.701c-1.37,1.535-2.366,3.419-2.967,5.574c0.104-0.054,0.216-0.093,0.337-0.109l0.018-0.002  c0.172-0.02,0.349-0.038,0.523-0.055c0.088-0.287,0.182-0.571,0.285-0.848c3.769-0.451,6.731-3.207,7.104-6.618  c0.33,0.037,0.73,0.109,1.195,0.248c1.303,0.388,3.376,1.374,5.854,3.873c0.979,0.989,2.06,1.794,3.245,2.434  c-0.189-0.021-0.386-0.036-0.587-0.036h-0.041c-1.396,0.011-2.645,0.499-3.658,1.422c0.084-0.021,0.168-0.039,0.254-0.06  c0.012-0.002,0.021-0.005,0.031-0.008c0.079-0.019,0.158-0.036,0.238-0.055c0.013-0.003,0.027-0.007,0.041-0.01  c0.082-0.019,0.165-0.037,0.25-0.056c0.01-0.002,0.02-0.004,0.029-0.007c0.094-0.021,0.188-0.039,0.287-0.061  c0.002,0,0.002-0.001,0.005-0.001c0.413-0.084,0.866-0.163,1.377-0.229c0.368-0.092,0.752-0.143,1.151-0.146h0.034  c0.114,0,0.226,0.006,0.334,0.014c0.004-0.001,0.011-0.001,0.017-0.001c0.135-0.007,0.272-0.013,0.414-0.017  c0.062-0.002,0.121-0.003,0.182-0.005c0.053-0.001,0.104-0.003,0.156-0.004c0.125-0.001,0.253-0.003,0.383-0.003h0.053  c1.227,0,2.615,0.081,3.912,0.227l0.018,0.002c0.054,0.007,0.104,0.021,0.154,0.036c-0.604-2.125-1.593-3.983-2.947-5.501  C57.893,15.576,54.755,14.178,51.301,14.156z M43.051,18.619c0.926-1.036,2.016-1.868,3.221-2.477  c-0.793,1.502-2.188,2.684-3.895,3.311C42.591,19.165,42.812,18.885,43.051,18.619z M41.003,21.802  c0.206-0.456,0.435-0.892,0.685-1.312c2.205-0.537,4.066-1.885,5.129-3.696C46.163,19.314,43.881,21.299,41.003,21.802z   M62.148,23.237c-2.701-0.575-4.924-1.769-6.777-3.641c-2.945-2.971-5.395-3.964-6.961-4.269c0.257-0.067,0.518-0.123,0.781-0.174  c0.424-0.024,3.562-0.07,7.453,3.48c1.715,1.565,3.168,2.776,4.834,2.92C61.734,22.092,61.959,22.652,62.148,23.237z M57.18,18.051  c-1.76-1.605-3.373-2.518-4.691-3.036c2.753,0.294,5.228,1.549,7.062,3.604c0.56,0.626,1.052,1.312,1.478,2.058  C59.791,20.359,58.584,19.334,57.18,18.051z M60.177,26.724c0-0.001,0-0.001-0.001-0.002c-0.029-0.068-0.156-0.179-0.456-0.272  c-0.001,0-0.001,0-0.001,0c-0.256,0.094-0.654,0.017-1.275-0.139c-0.062-0.016-0.125-0.03-0.188-0.045  c-0.074-0.002-0.148-0.003-0.229-0.003c-0.12,0-0.241,0.002-0.362,0.006c-0.037,0-0.074,0.002-0.108,0.003  c-0.091,0.004-0.183,0.007-0.273,0.012c-0.033,0-0.067,0.002-0.104,0.005c-0.116,0.006-0.235,0.014-0.353,0.022  c-0.025,0.002-0.053,0.004-0.075,0.006c-0.094,0.007-0.187,0.014-0.276,0.023c-0.046,0.003-0.091,0.009-0.136,0.012  c-0.071,0.006-0.143,0.014-0.212,0.021c-0.044,0.005-0.089,0.01-0.134,0.014c-0.097,0.01-0.19,0.021-0.282,0.031  c-0.643,0.292-1.176,0.754-1.561,1.267c0.027,0.091,0.057,0.177,0.084,0.263c0.003,0.01,0.006,0.02,0.009,0.029  c0.024,0.075,0.05,0.15,0.073,0.22c0.002,0.008,0.006,0.014,0.008,0.021c0.025,0.074,0.052,0.146,0.076,0.217  c0,0,0,0.001,0.002,0.002c0.026,0.075,0.054,0.146,0.08,0.215c0.207-0.427,0.549-0.852,0.985-1.177c0,0.004,0,0.009,0,0.015  c0,0.773,0.632,1.406,1.407,1.406s1.406-0.632,1.406-1.406c0-0.145-0.025-0.284-0.065-0.417c0.013,0.002,0.022,0.006,0.034,0.008  c0.504,0.127,1.083,0.271,1.58,0.162c-0.191,0.497-0.607,0.924-1.176,1.179c-0.199,0.089-0.289,0.324-0.199,0.522  c0.064,0.148,0.211,0.235,0.361,0.235c0.055,0,0.108-0.012,0.162-0.035c0.391-0.176,0.729-0.415,1.002-0.699  c0.02-0.066,0.037-0.133,0.053-0.2c0.002-0.007,0.003-0.015,0.005-0.021c0.045-0.188,0.081-0.379,0.106-0.569  c0.002-0.023,0.006-0.044,0.01-0.067c0.005-0.042,0.009-0.083,0.013-0.126c0.005-0.042,0.009-0.085,0.011-0.128  c0.004-0.035,0.006-0.071,0.008-0.107c0.002-0.051,0.004-0.103,0.004-0.151c0.002-0.028,0.002-0.059,0.002-0.085  c0-0.08-0.002-0.158-0.008-0.235C60.184,26.743,60.182,26.733,60.177,26.724z M56.875,28.102c-0.34,0-0.615-0.277-0.615-0.615  c0-0.181,0.079-0.352,0.217-0.468c0.018-0.014,0.031-0.031,0.045-0.047c0.185-0.044,0.377-0.069,0.574-0.075  c0.021,0.018,0.043,0.034,0.07,0.048c0.199,0.106,0.322,0.313,0.322,0.541C57.488,27.825,57.213,28.102,56.875,28.102z   M62.827,24.341c-1.179-0.132-2.558-0.224-3.875-0.221c-4.095,0.007-5.329,0.99-7.57,1.031c-2.241-0.042-3.477-1.024-7.571-1.031  c-1.315-0.003-2.695,0.089-3.875,0.221c-0.203,0.027-0.173,0.231-0.173,0.231l0.077,0.875c0,0,0.02,0.198,0.092,0.421  c0.807,2.007,1.308,4.149,2.273,5.223c0.283,0.314,0.744,0.619,1.689,0.807c1.123,0.247,2.11,0.279,2.814,0.217  c1.059-0.062,1.622-0.49,2.047-0.994c0.393-0.463,0.678-0.993,0.864-1.362c0.545-1.068,0.817-2.472,1.761-2.472  c0.941,0,1.216,1.403,1.76,2.472c0.188,0.369,0.475,0.899,0.864,1.362c0.426,0.504,0.989,0.932,2.048,0.994  c0.702,0.062,1.691,0.03,2.815-0.217c0.944-0.188,1.405-0.493,1.688-0.807c0.967-1.073,1.467-3.216,2.273-5.223  c0.072-0.223,0.092-0.421,0.092-0.421l0.077-0.875C63.001,24.572,63.031,24.369,62.827,24.341z M49.477,27.56  c-0.17,0.582-0.99,3.598-2.438,3.735c-0.847,0.165-2.713,0.05-3.537-0.362c-1.167-0.588-1.802-2.788-1.712-4.231  c0.104-1.675,4.115-1.244,6.052-0.984C49.873,25.989,49.664,26.911,49.477,27.56z M59.264,30.933  c-0.824,0.413-2.691,0.527-3.537,0.362c-1.447-0.138-2.27-3.154-2.438-3.735c-0.188-0.649-0.397-1.571,1.634-1.843  c1.938-0.26,5.949-0.691,6.053,0.984C61.064,28.145,60.432,30.345,59.264,30.933z M55.605,37.185  c-0.004,0.003-0.485,0.449-1.121,0.216c-1.605-0.711-2.627-0.285-3.094,0.035c-0.47-0.32-1.49-0.747-3.097-0.035  c-0.024,0.01-0.051,0.017-0.076,0.024c-0.028,0.003-0.057,0.011-0.084,0.021c-0.539,0.108-0.938-0.242-0.963-0.263  c-0.157-0.149-0.407-0.142-0.558,0.017c-0.15,0.159-0.145,0.41,0.016,0.56c0.026,0.026,0.538,0.495,1.284,0.5  c0.428,1.249,1.717,2.453,3.478,2.453c0.002,0,0.002,0,0.002,0c0.002,0,0.002,0,0.004,0c1.76,0,3.049-1.204,3.477-2.453  c0.744-0.008,1.251-0.475,1.277-0.5c0.16-0.15,0.166-0.401,0.016-0.56C56.018,37.042,55.766,37.034,55.605,37.185z M53.452,37.885  c-0.478,0.145-1.067,0.237-1.697,0.265C51.934,38.001,52.479,37.659,53.452,37.885z M51.027,38.15  c-0.635-0.027-1.228-0.12-1.703-0.265C50.307,37.657,50.852,38.005,51.027,38.15z M51.396,39.921c-0.002,0-0.002,0-0.004,0  c0,0,0,0-0.002,0c-1.101,0-1.964-0.595-2.439-1.327c0.671,0.227,1.527,0.356,2.439,0.356c0.922,0,1.774-0.129,2.444-0.356  C53.359,39.326,52.496,39.921,51.396,39.921z M43.223,23.334c-0.008,0-0.018,0-0.025,0c-0.178,0.003-0.356,0.008-0.538,0.014  c0.678-0.513,1.565-0.796,2.584-0.796h0.042c1.387,0.011,2.628,0.493,3.638,1.404c-0.016-0.004-0.032-0.007-0.047-0.011  c-0.053-0.015-0.104-0.025-0.159-0.038c-0.031-0.007-0.062-0.015-0.095-0.021c-0.067-0.016-0.138-0.031-0.207-0.048  c-0.019-0.004-0.036-0.008-0.054-0.013c-0.567-0.126-1.208-0.253-1.979-0.347c-0.001,0-0.001,0-0.002,0  c-0.354-0.085-0.722-0.131-1.102-0.135h-0.037c-0.105,0-0.209,0.005-0.311,0.012c-0.142-0.007-0.285-0.013-0.434-0.017  c-0.049-0.002-0.098-0.003-0.146-0.004c-0.056-0.001-0.109-0.003-0.164-0.004c-0.123-0.001-0.248-0.003-0.375-0.003h-0.054  C43.584,23.328,43.404,23.33,43.223,23.334z M49.059,34.891c-0.149-0.159-0.143-0.41,0.019-0.56  c0.244-0.227,0.864-0.521,1.476-0.008c0.381,0.321,0.813,0.303,0.817,0.303c0.008,0,0.015,0,0.021,0c0.008,0,0.017,0,0.024,0  c0.002,0,0.442,0.015,0.817-0.303c0.61-0.513,1.231-0.219,1.475,0.008c0.161,0.149,0.17,0.401,0.02,0.56  c-0.146,0.16-0.395,0.168-0.555,0.025c-0.093-0.081-0.242-0.141-0.428,0.014c-0.537,0.452-1.143,0.489-1.325,0.489  c-0.011,0-0.019,0-0.026-0.001c-0.008,0.001-0.016,0.001-0.025,0.001c-0.184,0-0.789-0.037-1.325-0.489  c-0.217-0.183-0.379-0.061-0.424-0.02C49.457,35.06,49.207,35.051,49.059,34.891z M45.795,55.959  c0.025,0.064,0.033,0.133,0.031,0.205c-0.004,0.07-0.021,0.139-0.051,0.201c-0.029,0.062-0.07,0.117-0.123,0.164  c-0.053,0.049-0.112,0.084-0.178,0.106c-0.064,0.021-0.135,0.033-0.205,0.029c-0.07-0.006-0.139-0.021-0.201-0.049  c-0.062-0.031-0.117-0.074-0.165-0.125c-0.048-0.056-0.085-0.113-0.106-0.181c-0.023-0.065-0.033-0.133-0.029-0.203  c0.004-0.071,0.021-0.141,0.051-0.2c0.029-0.062,0.07-0.119,0.123-0.166c0.054-0.05,0.111-0.084,0.179-0.105  c0.065-0.022,0.134-0.032,0.205-0.028c0.069,0.004,0.138,0.02,0.198,0.049c0.064,0.031,0.119,0.072,0.166,0.125  C45.738,55.834,45.773,55.893,45.795,55.959z M46.986,57.279c0.021,0.065,0.033,0.135,0.029,0.207  c-0.005,0.069-0.021,0.137-0.051,0.199c-0.029,0.062-0.07,0.118-0.124,0.166c-0.053,0.047-0.112,0.084-0.177,0.104  c-0.064,0.022-0.134,0.033-0.206,0.028c-0.07-0.002-0.137-0.02-0.201-0.051c-0.062-0.028-0.116-0.069-0.165-0.121  c-0.048-0.055-0.083-0.114-0.105-0.18c-0.022-0.066-0.033-0.135-0.029-0.207c0.004-0.07,0.021-0.137,0.051-0.199  c0.03-0.062,0.072-0.117,0.124-0.166c0.054-0.047,0.112-0.082,0.177-0.104c0.065-0.022,0.135-0.033,0.205-0.029  c0.071,0.004,0.139,0.021,0.201,0.052c0.062,0.029,0.117,0.069,0.166,0.123C46.928,57.156,46.963,57.215,46.986,57.279z   M44.604,54.633c0.022,0.064,0.032,0.135,0.029,0.206c-0.004,0.072-0.021,0.14-0.051,0.202c-0.029,0.062-0.07,0.117-0.123,0.165  c-0.054,0.048-0.111,0.083-0.178,0.104c-0.064,0.023-0.133,0.032-0.205,0.029c-0.07-0.004-0.139-0.021-0.201-0.05  c-0.062-0.03-0.117-0.072-0.164-0.125c-0.049-0.053-0.085-0.112-0.107-0.179c-0.022-0.065-0.032-0.135-0.028-0.204  c0.004-0.07,0.021-0.14,0.051-0.2c0.029-0.062,0.07-0.119,0.124-0.166c0.052-0.047,0.111-0.082,0.177-0.105s0.134-0.031,0.205-0.028  s0.138,0.021,0.201,0.051c0.062,0.03,0.117,0.071,0.165,0.124S44.58,54.569,44.604,54.633z M43.415,53.314  c0.022,0.064,0.033,0.135,0.03,0.207c-0.004,0.07-0.021,0.138-0.051,0.2c-0.03,0.062-0.071,0.117-0.123,0.163  c-0.056,0.051-0.112,0.085-0.179,0.106c-0.065,0.021-0.135,0.032-0.205,0.03c-0.071-0.004-0.139-0.021-0.2-0.051  c-0.062-0.029-0.119-0.072-0.166-0.124c-0.049-0.054-0.084-0.112-0.105-0.178c-0.023-0.065-0.033-0.135-0.029-0.207  c0.004-0.069,0.021-0.138,0.051-0.201c0.029-0.061,0.07-0.116,0.123-0.163c0.054-0.048,0.111-0.083,0.178-0.105  c0.065-0.023,0.134-0.033,0.205-0.03c0.07,0.005,0.139,0.021,0.201,0.052c0.062,0.029,0.117,0.07,0.164,0.123  S43.393,53.25,43.415,53.314z M48.176,58.602c0.023,0.064,0.033,0.133,0.03,0.205c-0.004,0.07-0.021,0.14-0.052,0.201  c-0.029,0.062-0.07,0.117-0.123,0.164s-0.111,0.084-0.178,0.107c-0.064,0.021-0.134,0.033-0.205,0.029  c-0.07-0.005-0.138-0.021-0.2-0.052c-0.062-0.028-0.118-0.071-0.165-0.125c-0.049-0.053-0.084-0.112-0.107-0.178  c-0.021-0.064-0.031-0.133-0.029-0.205c0.006-0.072,0.021-0.137,0.053-0.201c0.027-0.062,0.07-0.117,0.124-0.164  c0.052-0.049,0.11-0.082,0.176-0.106c0.065-0.021,0.135-0.033,0.205-0.027c0.071,0.004,0.138,0.021,0.201,0.049  c0.062,0.031,0.118,0.072,0.165,0.125S48.152,58.535,48.176,58.602z M42.225,51.992c0.021,0.064,0.032,0.134,0.029,0.206  c-0.004,0.071-0.021,0.139-0.051,0.2c-0.029,0.062-0.07,0.117-0.123,0.166c-0.053,0.048-0.112,0.082-0.178,0.105  c-0.065,0.021-0.135,0.033-0.205,0.029c-0.071-0.004-0.139-0.021-0.2-0.051c-0.063-0.029-0.118-0.07-0.166-0.125  c-0.048-0.052-0.083-0.111-0.106-0.178c-0.022-0.065-0.033-0.135-0.028-0.205c0.004-0.071,0.021-0.139,0.051-0.201  c0.028-0.062,0.069-0.117,0.123-0.166c0.053-0.047,0.112-0.084,0.178-0.105c0.066-0.023,0.134-0.032,0.205-0.03  c0.07,0.005,0.138,0.021,0.2,0.05c0.062,0.031,0.118,0.072,0.166,0.125C42.166,51.869,42.201,51.927,42.225,51.992z M49.367,59.924  c0.023,0.064,0.033,0.133,0.029,0.205c-0.002,0.072-0.021,0.139-0.049,0.201c-0.031,0.064-0.072,0.119-0.125,0.166  c-0.054,0.047-0.111,0.082-0.177,0.105c-0.065,0.022-0.134,0.032-0.206,0.028c-0.07-0.004-0.138-0.021-0.199-0.049  c-0.062-0.031-0.119-0.072-0.166-0.125c-0.049-0.053-0.084-0.111-0.106-0.178s-0.032-0.136-0.029-0.205  c0.005-0.072,0.021-0.14,0.05-0.201c0.031-0.062,0.072-0.119,0.125-0.166s0.111-0.082,0.178-0.104  c0.065-0.023,0.134-0.031,0.205-0.027c0.07,0.002,0.138,0.018,0.201,0.049c0.062,0.029,0.117,0.072,0.164,0.125  S49.344,59.859,49.367,59.924z M50.889,68.92v-3.207h-1.324V64.92h1.324v-1.191h0.793v1.191h0.01h1.326v0.793h-1.326h-0.01v3.207  H50.889z M60.297,52.398c-0.029-0.062-0.047-0.129-0.051-0.2c-0.002-0.072,0.008-0.142,0.031-0.206  c0.021-0.065,0.058-0.124,0.104-0.178c0.047-0.053,0.103-0.094,0.165-0.125c0.062-0.029,0.13-0.045,0.2-0.05  c0.071-0.002,0.141,0.007,0.206,0.03c0.064,0.021,0.124,0.059,0.177,0.105c0.054,0.048,0.095,0.104,0.124,0.166  c0.03,0.062,0.046,0.129,0.05,0.201c0.005,0.07-0.006,0.14-0.028,0.205s-0.059,0.126-0.105,0.178  c-0.048,0.055-0.104,0.096-0.166,0.125s-0.13,0.047-0.2,0.051c-0.071,0.004-0.141-0.007-0.206-0.029  c-0.063-0.023-0.123-0.059-0.177-0.105C60.369,52.516,60.326,52.461,60.297,52.398z M49.666,61.781  c-0.049-0.055-0.084-0.113-0.107-0.18c-0.021-0.066-0.031-0.136-0.027-0.205c0.004-0.07,0.021-0.14,0.05-0.201  c0.03-0.062,0.071-0.117,0.124-0.166c0.053-0.047,0.111-0.082,0.178-0.105s0.135-0.031,0.205-0.029  c0.07,0.004,0.139,0.021,0.2,0.052s0.118,0.071,0.166,0.125c0.048,0.053,0.083,0.11,0.104,0.178c0.023,0.063,0.033,0.133,0.03,0.203  c-0.004,0.071-0.021,0.141-0.051,0.203c-0.03,0.061-0.071,0.116-0.123,0.164c-0.054,0.047-0.112,0.081-0.178,0.104  c-0.066,0.023-0.134,0.033-0.206,0.029c-0.07-0.004-0.137-0.021-0.199-0.049C49.77,61.873,49.713,61.832,49.666,61.781z   M56.725,56.365c-0.028-0.062-0.047-0.131-0.051-0.201c-0.002-0.072,0.008-0.141,0.03-0.205c0.022-0.066,0.06-0.125,0.106-0.178  s0.103-0.094,0.164-0.125c0.063-0.029,0.131-0.045,0.201-0.049c0.071-0.004,0.141,0.006,0.204,0.028  c0.066,0.021,0.125,0.058,0.179,0.105c0.053,0.047,0.094,0.104,0.123,0.166c0.03,0.061,0.047,0.129,0.051,0.2  c0.004,0.07-0.006,0.138-0.027,0.203c-0.023,0.066-0.061,0.125-0.108,0.181c-0.046,0.051-0.102,0.094-0.165,0.125  c-0.062,0.026-0.13,0.043-0.199,0.049c-0.071,0.004-0.142-0.008-0.207-0.029c-0.063-0.022-0.123-0.059-0.176-0.106  C56.797,56.482,56.755,56.428,56.725,56.365z M50.75,62.922c-0.023-0.064-0.033-0.133-0.029-0.205  c0.004-0.07,0.021-0.137,0.051-0.199c0.029-0.062,0.07-0.117,0.123-0.166c0.054-0.047,0.112-0.082,0.179-0.104  c0.064-0.025,0.134-0.035,0.204-0.031s0.139,0.021,0.201,0.051s0.117,0.07,0.166,0.123c0.047,0.056,0.082,0.113,0.105,0.179  c0.021,0.065,0.032,0.135,0.029,0.206c-0.004,0.07-0.021,0.138-0.051,0.199c-0.03,0.062-0.071,0.119-0.123,0.166  c-0.054,0.047-0.113,0.082-0.179,0.105c-0.064,0.023-0.135,0.033-0.204,0.029c-0.072-0.002-0.138-0.021-0.201-0.052  c-0.062-0.028-0.117-0.069-0.166-0.122C50.809,63.048,50.771,62.988,50.75,62.922z M55.535,57.686  c-0.029-0.062-0.047-0.129-0.051-0.198c-0.002-0.072,0.008-0.142,0.031-0.207c0.021-0.064,0.058-0.123,0.104-0.179  c0.047-0.053,0.103-0.094,0.165-0.123c0.062-0.028,0.13-0.047,0.199-0.051c0.072-0.004,0.141,0.006,0.205,0.029  c0.065,0.023,0.125,0.059,0.178,0.105c0.054,0.049,0.095,0.104,0.125,0.166c0.027,0.062,0.046,0.129,0.05,0.198  c0.004,0.072-0.006,0.142-0.029,0.207c-0.022,0.064-0.059,0.125-0.106,0.181c-0.047,0.051-0.103,0.092-0.165,0.121  c-0.062,0.03-0.129,0.049-0.2,0.051c-0.071,0.004-0.141-0.006-0.205-0.029c-0.064-0.021-0.125-0.059-0.178-0.105  C55.605,57.806,55.564,57.748,55.535,57.686z M59.105,53.722c-0.029-0.062-0.047-0.13-0.049-0.2  c-0.005-0.072,0.006-0.143,0.028-0.207s0.06-0.125,0.104-0.178c0.049-0.053,0.104-0.094,0.166-0.123s0.129-0.047,0.201-0.052  c0.07-0.003,0.14,0.007,0.204,0.03c0.065,0.022,0.124,0.059,0.177,0.105c0.054,0.047,0.095,0.104,0.123,0.163  c0.031,0.063,0.049,0.132,0.054,0.201c0.003,0.072-0.009,0.142-0.029,0.207c-0.024,0.063-0.062,0.124-0.106,0.178  c-0.047,0.052-0.104,0.095-0.166,0.124c-0.062,0.03-0.129,0.047-0.2,0.051c-0.071,0.002-0.14-0.009-0.206-0.03  c-0.064-0.021-0.123-0.058-0.176-0.106C59.178,53.839,59.137,53.784,59.105,53.722z M57.918,55.042  c-0.029-0.062-0.047-0.13-0.05-0.202c-0.003-0.07,0.007-0.142,0.03-0.206c0.021-0.063,0.059-0.123,0.104-0.176  s0.103-0.094,0.165-0.124s0.13-0.048,0.201-0.051c0.07-0.003,0.14,0.005,0.205,0.027c0.064,0.024,0.124,0.061,0.177,0.106  s0.094,0.103,0.124,0.166c0.027,0.062,0.046,0.13,0.051,0.2c0.003,0.07-0.007,0.139-0.029,0.204s-0.06,0.126-0.106,0.179  s-0.103,0.095-0.165,0.125c-0.062,0.029-0.13,0.046-0.201,0.05c-0.07,0.003-0.139-0.006-0.205-0.03  c-0.064-0.021-0.124-0.057-0.177-0.104S57.948,55.104,57.918,55.042z M54.346,59.008c-0.029-0.062-0.047-0.131-0.051-0.201  c-0.003-0.072,0.007-0.141,0.029-0.205c0.023-0.065,0.059-0.125,0.107-0.178c0.047-0.053,0.103-0.094,0.164-0.125  c0.062-0.027,0.129-0.045,0.2-0.049c0.071-0.006,0.142,0.006,0.205,0.027c0.065,0.024,0.125,0.059,0.177,0.106  c0.055,0.047,0.096,0.103,0.124,0.164c0.029,0.064,0.048,0.129,0.052,0.201s-0.007,0.141-0.029,0.205  c-0.022,0.063-0.059,0.125-0.106,0.178c-0.047,0.054-0.103,0.097-0.166,0.125c-0.062,0.029-0.13,0.047-0.2,0.052  c-0.07,0.004-0.141-0.009-0.205-0.029c-0.064-0.023-0.123-0.062-0.178-0.107C54.417,59.125,54.375,59.07,54.346,59.008z   M52.796,61.029c0.054,0.049,0.095,0.104,0.124,0.166c0.03,0.062,0.047,0.131,0.051,0.201c0.004,0.069-0.006,0.139-0.029,0.205  c-0.022,0.065-0.059,0.125-0.106,0.18c-0.047,0.051-0.103,0.092-0.164,0.123c-0.063,0.029-0.131,0.045-0.201,0.049  c-0.071,0.004-0.141-0.006-0.206-0.029c-0.063-0.023-0.123-0.059-0.177-0.104c-0.053-0.046-0.094-0.104-0.124-0.164  c-0.029-0.062-0.046-0.132-0.05-0.203c-0.004-0.07,0.007-0.14,0.028-0.203c0.023-0.065,0.06-0.125,0.106-0.178  c0.047-0.054,0.103-0.095,0.165-0.125c0.062-0.029,0.13-0.048,0.201-0.052c0.07-0.002,0.14,0.006,0.205,0.029  C52.684,60.947,52.743,60.982,52.796,61.029z M53.152,60.33c-0.029-0.062-0.045-0.129-0.051-0.201  c-0.002-0.072,0.008-0.141,0.03-0.205s0.06-0.123,0.106-0.176s0.103-0.096,0.164-0.125c0.062-0.031,0.131-0.047,0.201-0.049  c0.07-0.004,0.141,0.004,0.205,0.027c0.064,0.022,0.125,0.059,0.176,0.104c0.055,0.047,0.096,0.104,0.125,0.166  s0.047,0.129,0.052,0.201c0.004,0.069-0.006,0.139-0.029,0.205c-0.022,0.065-0.059,0.125-0.106,0.178  c-0.047,0.053-0.104,0.094-0.166,0.125c-0.062,0.028-0.129,0.045-0.2,0.049s-0.14-0.006-0.205-0.028  c-0.065-0.023-0.124-0.06-0.177-0.105S53.184,60.395,53.152,60.33z M78.645,61.828l-0.002-0.021c-0.18-3.016-0.899-5.059-2.27-6.433  c-1.266-1.271-3.121-2.025-6.02-2.447c-0.025-0.004-1.547-0.218-3.529-0.772c0.089-0.875,0.179-1.752,0.269-2.63  c1.663-16.233,3.384-33.017-3.735-40.903c-1.364-1.512-3.036-2.669-4.971-3.439c-2.027-0.807-4.408-1.216-7.08-1.216h-0.024  c-2.671,0-5.054,0.409-7.08,1.216c-1.935,0.771-3.604,1.929-4.972,3.439c-7.117,7.886-5.397,24.67-3.734,40.903  c0.09,0.882,0.18,1.762,0.27,2.642c-1.965,0.546-3.469,0.758-3.496,0.762c-4.955,0.723-7.898,2.406-8.281,8.865l-0.004,0.037  c-0.154,1.354-0.609,5.992,0.01,8.836c0.131,0.596,0.279,1.244,0.438,1.934c0.676,2.961,1.519,6.646,1.887,10.398  c0.188,1.91-0.156,3.34-0.594,5.148c-0.531,2.202-1.188,4.938-1.012,9.539h1.801l-0.035-1.203c-0.026-3.631,0.512-5.865,0.992-7.861  c0.438-1.816,0.852-3.533,0.633-5.744c-0.379-3.867-1.235-7.615-1.922-10.625c-0.158-0.682-0.304-1.324-0.434-1.914  c-0.309-1.42-0.229-5.254-0.064-8.008c0.463,0.273,0.937,0.543,1.416,0.807c-0.016,1.639,0.094,4.012,0.704,7.197  c0.735,3.838,1.351,8.668,1.684,13.631c0.188,2.836-0.173,5.039-0.556,7.369c-0.248,1.51-0.512,3.123-0.684,5.148l-0.109,1.203  h7.353c-1.912-9.054-1.22-15.427-0.826-17.771c0.394,1.051,0.851,2.129,1.321,3.236c1.99,4.678,4.048,9.514,2.113,14.535h1.986  l0.253-1.152c1.136-5.021-0.891-9.777-2.702-14.033c-0.678-1.592-1.324-3.117-1.766-4.555c0.881,1.334,2.113,2.414,3.564,3.104  c0.729,5.273,2.476,12.938,2.547,15.48c0.011,0.424,0.018,0.805,0.021,1.153h18.64c0.004-0.35,0.01-0.729,0.021-1.153  c0.07-2.543,1.816-10.207,2.545-15.48c1.453-0.69,2.686-1.771,3.564-3.104c-0.439,1.438-1.088,2.963-1.766,4.555  c-1.811,4.256-3.837,9.014-2.701,14.033l0.252,1.152h1.971c-1.935-5.023,0.125-9.857,2.115-14.535  c0.471-1.107,0.93-2.187,1.319-3.236c0.394,2.344,1.088,8.719-0.823,17.771h7.366l-0.108-1.203c-0.172-2.025-0.438-3.64-0.687-5.148  c-0.383-2.33-0.743-4.533-0.555-7.369c0.333-4.963,0.946-9.793,1.684-13.631c0.61-3.186,0.72-5.559,0.705-7.197  c0.479-0.264,0.951-0.533,1.416-0.807c0.163,2.754,0.243,6.588-0.065,8.008c-0.129,0.59-0.275,1.232-0.433,1.914  c-0.688,3.01-1.544,6.758-1.924,10.625c-0.217,2.211,0.196,3.928,0.635,5.744c0.48,1.996,1.019,4.23,0.992,7.861l-0.037,1.203h1.787  c0.177-4.601-0.481-7.337-1.015-9.539c-0.437-1.81-0.779-3.238-0.592-5.148c0.368-3.754,1.211-7.438,1.888-10.4  c0.157-0.688,0.306-1.336,0.436-1.932C79.254,67.816,78.799,63.182,78.645,61.828z M63.595,26.081  c-0.003,0.012-0.007,0.023-0.01,0.035l-0.009,0.024l-0.01,0.023c-0.219,0.548-0.418,1.111-0.609,1.66  c0.016,0.333,0.027,0.667,0.027,1.01c0,5.065-1.822,9.868-4.873,12.851L57.9,41.866c-0.574,0.528-1.154,0.844-1.717,1.149  c-0.486,0.266-0.945,0.515-1.339,0.873c-1.771,1.621-2.222,1.64-3.426,1.691h-0.237c-1.205-0.052-1.656-0.071-3.429-1.691  c-0.394-0.358-0.853-0.607-1.338-0.873c-0.562-0.306-1.144-0.623-1.728-1.159l-0.199-0.172c-3.053-2.982-4.874-7.786-4.874-12.851  c0-0.478,0.02-0.945,0.052-1.405c-0.15-0.422-0.303-0.848-0.472-1.265l-0.009-0.023l-0.009-0.024  c-0.062-0.191-0.096-0.364-0.112-0.476c-0.16,1.019-0.242,2.084-0.242,3.193c0,1.593,0.177,3.162,0.507,4.664  c-0.683-2.247-1.035-4.672-1.035-7.179c0-4.834,1.324-8.935,3.831-11.856c2.335-2.721,5.6-4.234,9.189-4.258  c3.592,0.024,6.854,1.537,9.188,4.258c2.507,2.922,3.831,7.022,3.831,11.856c0,2.582-0.393,5.104-1.12,7.415  c0.366-1.572,0.562-3.223,0.562-4.899C63.775,27.883,63.713,26.965,63.595,26.081z M66.33,32.432  c-0.146,5.808-0.795,12.133-1.436,18.377l-0.057,0.551c-0.39-0.155-0.765-0.317-1.121-0.486  C64.025,48.822,65.553,38.654,66.33,32.432z M41.08,10.61c1.124-1.244,2.505-2.199,4.104-2.836c1.752-0.697,3.842-1.052,6.217-1.052  h0.026c2.375,0,4.468,0.354,6.218,1.052c1.6,0.637,2.979,1.592,4.104,2.836c1.824,2.021,2.997,4.781,3.703,8.058  c-0.73-1.996-1.755-3.775-3.059-5.294c-2.779-3.241-6.666-5.042-10.94-5.071h-0.027c-4.278,0.029-8.167,1.831-10.946,5.071  c-1.366,1.594-2.428,3.474-3.164,5.588C38.014,15.556,39.201,12.691,41.08,10.61z M39.09,50.902c-0.35,0.164-0.717,0.32-1.099,0.472  l-0.058-0.563c-0.653-6.379-1.315-12.844-1.443-18.751C37.234,38.24,38.781,48.807,39.09,50.902z M51.298,70.055  C41.137,68.557,32,65.391,24.857,60.898c0.568-5.174,3.125-6.547,7.521-7.187c0.184-0.024,4.284-0.603,7.923-2.389  c0.001,0,0.001,0,0.001,0c0.062,0.03,0.129,0.047,0.2,0.05c0.071,0.004,0.14-0.006,0.205-0.029s0.124-0.059,0.177-0.105  c0.055-0.049,0.096-0.103,0.125-0.166c0.021-0.043,0.032-0.092,0.041-0.139c0.391-0.207,2.637-1.375,4.055-2.11  c0.211-0.097,0.606-0.244,0.651-0.573c0.052-0.48,0.078-1.018,0.078-1.639c0-1.139-0.069-2.065-0.216-2.828  c0.139,0.087,0.275,0.169,0.402,0.248c0.463,0.28,0.86,0.521,1.183,0.848c1.89,1.924,2.489,2.047,3.94,2.117h0.312  c1.451-0.07,2.05-0.193,3.938-2.117c0.323-0.327,0.722-0.568,1.184-0.848c0.137-0.084,0.283-0.173,0.432-0.269  c-0.146,0.769-0.219,1.7-0.219,2.849c0,0.646,0.027,1.201,0.084,1.697c0.018,0.154,0.121,0.277,0.258,0.327  c0.496,0.257,1.33,0.688,2.15,1.111c0.876,0.452,1.773,0.917,2.158,1.116c0,0.002-0.002,0.005-0.002,0.007  c0.004,0.072,0.021,0.138,0.051,0.201c0.031,0.062,0.072,0.117,0.125,0.166c0.053,0.047,0.111,0.082,0.177,0.105  c0.065,0.022,0.134,0.033,0.206,0.029c0.07-0.003,0.138-0.02,0.201-0.05c0.02-0.011,0.037-0.022,0.057-0.035  c3.655,1.812,7.807,2.397,7.988,2.424c4.395,0.639,6.949,2.011,7.523,7.167C70.62,65.383,61.477,68.553,51.298,70.055z"/></svg>