<svg xmlns="http://www.w3.org/2000/svg" xmlns:xlink="http://www.w3.org/1999/xlink" xml:space="preserve" version="1.1" style="shape-rendering:geometricPrecision;text-rendering:geometricPrecision;image-rendering:optimizeQuality;" viewBox="0 0 50000 62500" x="0px" y="0px" fill-rule="evenodd" clip-rule="evenodd"><defs><style type="text/css">
   
    .fil0 {fill:black;fill-rule:nonzero}
   
  </style></defs><g><path class="fil0" d="M25415.66 24832.17c-138.07,0 -250,-111.93 -250,-250 0,-138.07 111.93,-250 250,-250 979.61,0 1866.52,397.09 2508.51,1039.08 641.99,641.99 1039.08,1528.9 1039.08,2508.51 0,138.07 -111.93,250 -250,250 -138.07,0 -250,-111.93 -250,-250 0,-841.58 -341.11,-1603.5 -892.6,-2154.99 -551.49,-551.49 -1313.4,-892.6 -2154.99,-892.6zm5567.46 9131.31c2960.31,2238.01 6144.53,3294.53 7159.77,3589.12 586.71,170.25 879.17,-316.65 190.57,-475.03 -913.52,-210.11 -4492.04,-1397.81 -7350.34,-3114.09zm-12291.07 0c-2960.31,2238.01 -6144.53,3294.53 -7159.77,3589.12 -586.71,170.25 -879.17,-316.65 -190.57,-475.03 913.52,-210.11 4492.04,-1397.81 7350.34,-3114.09zm1967.09 881.31c-1879.54,2415.81 -3913.79,3717.33 -4942.02,4139.77 -436.95,179.52 -802.21,-360.26 -254.32,-566.66 1496.77,-563.86 3604.5,-2010.99 5196.34,-3573.11zm2517.39 499.4c85.26,1265.31 -1711.77,3829.43 -2165.25,4450.51 -334.83,458.56 -846.18,119.97 -502.04,-277.04 813.95,-938.96 1855.94,-1830.6 2667.29,-4173.47zm3384.34 0c-85.26,1265.31 1711.78,3829.43 2165.26,4450.51 334.83,458.56 846.17,119.97 502.04,-277.04 -813.95,-938.96 -1855.94,-1830.6 -2667.3,-4173.47zm2286.24 -499.4c1879.54,2415.81 3913.79,3717.33 4942.01,4139.77 436.96,179.52 802.22,-360.26 254.33,-566.66 -1496.77,-563.86 -3604.5,-2010.99 -5196.34,-3573.11zm2879.53 -9270.07c3731.88,-3897.34 5644.28,-8579.73 6397.97,-10617.56 327.38,-885.22 1205.97,-568.92 852.19,317.11 -607.92,1522.47 -3108.64,7228.31 -7250.16,10300.45zm-14121.41 -16.6c-3731.89,-3897.33 -5644.29,-8579.73 -6397.97,-10617.56 -327.39,-885.22 -1205.97,-568.92 -852.19,317.11 607.91,1522.47 3108.64,7228.31 7250.16,10300.45zm2522.85 -2887.71c-3775.38,-6239.62 -4547.75,-10037.83 -5263.97,-12457.79 -229.92,-776.83 -1085.88,-422.12 -874.36,299.35 683.43,2331.36 2184.82,7542.25 6138.33,12158.44zm2874.07 -2067.79c-1081.51,-4979.75 -1855.47,-10237.3 -1995.88,-13241.73 -48.43,-1036.72 -991.02,-828.72 -887.46,-15.24 315.22,2476.21 924.53,8038.48 2883.34,13256.97zm3327.57 16.6c1081.51,-4979.76 1855.46,-10237.31 1995.87,-13241.73 48.44,-1036.72 991.03,-828.72 887.47,-15.25 -315.22,2476.22 -924.53,8038.49 -2883.34,13256.98zm2874.07 2067.78c3775.37,-6239.62 4547.74,-10037.82 5263.96,-12457.79 229.93,-776.82 1085.89,-422.11 874.37,299.36 -683.43,2331.36 -2184.82,7542.25 -6138.33,12158.43zm-4118.13 -246.44c1593.07,0 3035.37,645.75 4079.41,1689.79 1044.04,1044.04 1689.79,2486.34 1689.79,4079.41 0,951.76 -230.54,1849.69 -638.77,2641.04 374.12,51.87 743.94,108.58 1109.09,169.81 3094.93,-1795.17 6124.56,-4554.38 8327.92,-7590.93 2037.27,-2807.65 3361.66,-5841.87 3361.66,-8547.88 0,-645.03 -251.42,-1230.21 -661.26,-1662.57 -413.39,-436.11 -986.85,-718.38 -1625.55,-752.02l-454.11 -23.92 82.23 -446.4c18.62,-101.12 32.65,-202.09 41.8,-302.56 8.19,-90.02 12.4,-192.02 12.4,-306.26 0,-920.75 -373.18,-1754.31 -976.52,-2357.66 -603.33,-603.33 -1436.91,-976.52 -2357.65,-976.52 -74.19,0 -136.47,1.48 -187.37,4.33 -58.6,3.3 -120.14,8.57 -184.37,15.68l-367.44 40.72 -68.5 -364.16c-190.73,-1013.94 -734.8,-1904.01 -1499.73,-2537.66 -751.12,-622.21 -1715.77,-996.2 -2768.3,-996.2 -418.23,0 -822.02,58.84 -1203.6,168.64 -395.74,113.86 -767.04,281.55 -1105.35,494.35l-332.76 209.32 -214.12 -329.63c-473.15,-728.37 -1123.12,-1331.17 -1888.98,-1747.33 -735.91,-399.89 -1581.5,-627.08 -2482.59,-627.08 -881.97,0 -1712.36,218.94 -2439.76,605.38 -755.64,401.45 -1400.49,983.1 -1877.01,1687.41l-208.96 308.85 -322.29 -186.98c-324.19,-188.08 -675.81,-335.59 -1047.79,-435.39 -358.57,-96.21 -736.84,-147.54 -1128.52,-147.54 -1030.9,0 -1977.03,358.18 -2720.65,956.62 -758.58,610.47 -1307.62,1471.05 -1522.23,2456.66l-81.94 376.32 -377.44 -66.95c-94.89,-16.83 -192.31,-29.72 -292.04,-38.46 -96.94,-8.5 -195.56,-12.85 -295.61,-12.85 -920.76,0 -1754.32,373.19 -2357.65,976.52 -603.33,603.33 -976.52,1436.89 -976.52,2357.65 0,133.99 7.39,263.17 21.72,387.24 14.84,128.48 37.16,255.29 66.46,379.93l108.43 461.19 -475.61 27.88c-702.69,41.19 -1227.74,244.5 -1593.41,578.02 -573.92,523.47 -784.59,1400.94 -694.5,2501.27 96.2,1174.81 533.89,2583.02 1242.57,4085.43 1918.93,4068.12 5791.7,8766.14 10257.03,11409.93 600.84,-106.99 1220.44,-201.27 1858.02,-280.98 -383.33,-771.94 -598.83,-1641.95 -598.83,-2562.26 0,-1593.07 645.75,-3035.37 1689.79,-4079.41 1044.04,-1044.04 2486.34,-1689.79 4079.41,-1689.79zm4671.47 9155.15c-173.09,238.37 -363.98,462.95 -570.71,671.85 203.53,94.24 378.98,196.23 522.08,304.61 308.57,233.71 479.17,503.83 479.17,801.38 0,549.08 -609.89,1018.51 -1595.92,1333.57 -902.59,288.4 -2142.61,466.79 -3506.09,466.79 -1363.47,0 -2603.49,-178.39 -3506.08,-466.79 -986.03,-315.06 -1595.92,-784.49 -1595.92,-1333.57 0,-300.04 174,-572.31 488.33,-807.54 141.51,-105.9 313.97,-205.65 513.38,-297.97 -228.08,-230.43 -436.85,-479.99 -623.76,-746.03 -3611.82,416.06 -6643.41,1308.83 -8950.39,2343.17 -2628.27,1178.38 -4285.28,2502.5 -4750.01,3478.98l2.56 1.56 -14.37 23.64c-48.08,105.06 -82.35,206.05 -102.15,302.23 -6.48,31.51 -10.06,60.38 -10.63,86.43 -2.28,104.36 47.39,201.42 154.57,287.93 162.58,131.24 430.06,239.2 813.19,318.09 354.44,72.97 794.66,117.56 1327.13,129.23l442.17 9.69 -53.1 435.63c-3.98,32.67 -5.96,65.89 -5.96,99.57 0,252.28 144.53,468.63 418.44,643.28 343.61,219.1 869.66,374.05 1558.46,457.96 376.45,45.86 799.87,69.34 1267.23,69.34 134.63,0 240.17,-1.3 317.39,-3.83 93.66,-3.06 198.62,-8.49 314.01,-16.13l245.3 -16.25 125.01 214.69c181.6,311.85 698.79,599.98 1431.61,820.5 777.11,233.84 1770.25,373.81 2856.59,373.81 420.62,0 820.11,-19.94 1192.57,-57.3 384.91,-38.62 753.96,-96.83 1099.36,-171.75l145.82 -31.64 130.75 72.27c477.85,264.08 1132.32,483.74 1905.14,637.26 758.61,150.7 1626.64,236.08 2550.69,236.08 946.25,0 1829.89,-88.33 2595.08,-243.81 782.03,-158.89 1440.03,-385.78 1912.43,-657.7l137.81 -79.33 151.26 35.58c357.96,84.19 747.7,150.2 1160.04,194.56 398.05,42.82 824.18,65.78 1270.78,65.78 1110.84,0 2122.98,-145.75 2905.8,-388.22 731.82,-226.68 1239.91,-520.39 1398.17,-834.97l145.23 -288.69 312.58 82.44c223.18,58.86 442.35,103.35 656.64,134.82 1008.63,148.13 1852.53,-8.28 2470.97,-313.91 577.02,-285.15 945.58,-689.81 1048.09,-1078.49 7.6,-28.83 13.85,-59.8 18.69,-92.77l52.03 -354.41 357.34 13.78c195.6,7.54 448.69,-25.55 719.37,-89.15 399.94,-93.99 818.39,-250.41 1134.22,-438.52 242.66,-144.52 411.31,-284.17 415.09,-382.29 0.05,-1.34 -0.34,0.99 -0.85,-1.21 -19.28,-82.07 -51.23,-166.5 -95.11,-252.96 -48.04,-94.64 -110.59,-192.22 -186.78,-292.36 -846.33,-1112.31 -2739.39,-2319.8 -5331.5,-3343.28 -2299.37,-907.91 -5133.31,-1660.76 -8263.24,-2065.63zm-973.01 1041.81c-1001.41,837.37 -2291.06,1341.44 -3698.46,1341.44 -1407.66,0 -2697.54,-504.25 -3699.01,-1341.9 -251.34,100.29 -459.37,210.3 -615.84,327.39 -184.83,138.32 -287.15,277.3 -287.15,409.1 0,307.15 476.29,612.93 1246.32,858.97 853.47,272.71 2039.48,441.39 3355.68,441.39 1316.2,0 2502.22,-168.68 3355.69,-441.39 770.03,-246.04 1246.32,-551.82 1246.32,-858.97 0,-129.55 -99.68,-266.4 -279.95,-402.94 -157.38,-119.2 -368.14,-231.14 -623.6,-333.09zm-326.09 -7800.13c-863.03,-863.03 -2055.35,-1396.83 -3372.37,-1396.83 -1317.02,0 -2509.34,533.8 -3372.37,1396.83 -863.03,863.03 -1396.83,2055.35 -1396.83,3372.37 0,1317.02 533.8,2509.34 1396.83,3372.37 863.03,863.03 2055.35,1396.83 3372.37,1396.83 1317.02,0 2509.34,-533.8 3372.37,-1396.83 863.03,-863.03 1396.83,-2055.35 1396.83,-3372.37 0,-1317.02 -533.8,-2509.34 -1396.83,-3372.37zm9028.2 16264.24c123.41,569.78 183.12,1190.21 163.4,1800.31 -8.57,265.08 -32.2,528.67 -72.15,785.97 928.03,-9.3 1888.15,-253.72 2640.18,-726.96 568.84,-357.96 1015.17,-849.01 1225.74,-1468.73 49.11,-151.05 86.86,-309.54 109.95,-473.17 1.63,-12.44 3.2,-24.9 4.66,-37.42l8.95 -76.83c16.08,-165.6 16.76,-335.8 -1.36,-508.32 -22.73,-216.45 -75.23,-437.29 -164.16,-658.1 -259.67,365.74 -653.16,700.48 -1158.54,950.24 -710.88,351.31 -1652.92,542.1 -2756.67,413.01zm-973.83 3461.24c213.85,-494.08 320.83,-1082.12 340.35,-1685.93 18.94,-585.78 -44.8,-1183.35 -173.54,-1724.16 -347.58,323.92 -879.31,598.8 -1538.64,803.03 -858.44,265.89 -1953.17,425.72 -3140.18,425.72 -464.46,0 -919.36,-25.13 -1355.16,-72.02 -71.24,-7.66 -141.76,-15.9 -211.57,-24.7 197.39,522.04 292.48,1162.79 266.42,1809.79 -28,695.34 -194.53,1408.64 -522.49,2001.71 223.3,64.95 447.92,118.14 672.41,160.05 1298.1,242.35 2624.17,125.35 3700.65,-257.06 898.11,-319.05 1610.82,-817.82 1961.75,-1436.43zm5519.55 -5363.81c185.88,372.27 288.82,748.54 327.41,1116.16 2.62,25 4.94,49.95 6.97,74.85 538.89,-292.02 915.73,-617.3 1157.93,-957.81 211.06,-296.72 318.62,-606.72 342.07,-915.98 1.55,-20.39 2.72,-40.8 3.55,-61.23 -75.82,56.9 -157.56,111.23 -244.1,162.77 -390.88,232.8 -891.32,422.3 -1359.22,532.26 -78.81,18.52 -157.23,34.9 -234.61,48.98zm122.7 2677.51c-2.8,7.6 -5.62,15.16 -8.47,22.72l-0.28 -0.1c-288.53,732.49 -828.52,1312.16 -1503.24,1736.76 -924.05,581.49 -2106.27,867.84 -3224.35,850.1 -8.31,24.84 -16.97,49.43 -25.99,73.78 -364.14,982.86 -1329.91,1749.91 -2576.05,2192.59 -1198.76,425.85 -2671.79,556.84 -4110.03,288.32 -348.9,-65.13 -694.02,-152.82 -1030.83,-264.44 -1196.46,1131.33 -3022.11,1665.22 -4848.18,1636.2 -1683.97,-26.74 -3380.48,-532.43 -4592.86,-1489.41l-0.26 0.31 -10.16 -8.59c-92.5,-73.38 -182.26,-149.3 -268.86,-227.95 -303.83,129.6 -641.62,231 -1000.96,303.63 -1084.67,219.23 -2376.73,172.65 -3514.61,-155.87 -1174.89,-339.21 -2198,-981.76 -2698.71,-1948.81 -50.95,-98.41 -96.45,-200.39 -136.09,-305.97l-27.38 7.68c-8.91,-31.54 -17.61,-63.31 -26.11,-95.27 -102.72,6.96 -206.23,10.95 -310.34,12.04 -1072.9,11.25 -2116.04,-306.89 -2926.3,-864.4 -813.24,-559.57 -1396.15,-1360.21 -1554.24,-2316.47 -6.97,-39.95 -13.21,-79.68 -18.72,-119.19 -564.11,-60.49 -1030.26,-211.75 -1397.19,-436.23 -350.38,-214.36 -611,-493.66 -781.46,-824.22 -168.68,-327.13 -245.69,-699.1 -230.8,-1102.69 21.59,-585.1 238.17,-1237.29 650.33,-1910.99l5.68 3.46c624.03,-1149.31 2395.22,-2584.7 5098.03,-3796.5 1614.31,-723.78 3571.09,-1379.84 5822.42,-1859.62 -4289.6,-2788.52 -7961.68,-7332.32 -9830.28,-11293.75 -749.44,-1588.83 -1213.48,-3092.3 -1317.57,-4363.55 -110.18,-1345.72 180.29,-2448.81 953.88,-3154.39 413.42,-377.07 956.72,-631.15 1641.25,-737.38l-3.38 -28.4c-18.45,-159.72 -27.96,-319.25 -27.96,-477.86 0,-1141.58 462.76,-2175.13 1210.9,-2923.27 748.14,-748.14 1781.69,-1210.9 2923.27,-1210.9 119.98,0 239.22,5.19 357.42,15.37 300,-1017.3 906.1,-1903.55 1711.84,-2551.97 882.08,-709.87 2002.24,-1134.74 3220.65,-1134.74 460.35,0 907.87,61.11 1334.78,175.66 320.2,85.91 628.44,202.25 921.45,345.72 523.42,-681.88 1189.46,-1248.16 1953.34,-1653.99 840.03,-446.27 1798.11,-699.12 2814.76,-699.12 1034.86,0 2010.58,263.41 2863.85,727.08 770.91,418.91 1439.77,1001.69 1959.86,1701.47 310.41,-164.72 638.89,-298.42 981.33,-396.94 452.26,-130.13 929.5,-199.88 1422.36,-199.88 1245.32,0 2387.54,443.21 3277.68,1180.58 816.33,676.23 1420.19,1600.79 1696.57,2658.4 36.24,-1.12 70.09,-1.69 101.46,-1.69 1141.57,0 2175.12,462.75 2923.27,1210.9 748.14,748.15 1210.9,1781.7 1210.9,2923.28 0,103.55 -4.99,214.85 -14.76,333.36 678.05,127.51 1280.72,467.38 1736.11,947.8 547.36,577.44 883.14,1356.36 883.14,2212.57 0,2884.16 -1384.72,6081.11 -3514.78,9016.64 -2081.28,2868.31 -4880.53,5497.06 -7791.66,7339.31 2154.77,430.12 4120.03,1014.2 5805.81,1679.83 1935.48,764.22 3512.57,1642.42 4597.97,2525.87l1.64 -2.31c676.15,480.96 1229.86,1124.81 1523.79,1829.32 175.04,419.53 259.33,861.18 225.68,1305.2 -34.04,449.03 -187.83,895.77 -488.95,1319.1 -373.43,525 -974.54,1010.2 -1857.84,1410.29 -37.4,199.78 -91.95,390.27 -161.77,571.52zm-13156.83 4434.33c38.81,-32.6 73.87,-64.39 105.29,-95.31 517.54,-509.45 767.32,-1338.65 800.09,-2152.25 30.4,-754.69 -123.28,-1476.74 -421.06,-1902.05 -521.96,266.45 -1190.62,486.73 -1957.81,642.61 -824,167.43 -1761.66,262.55 -2751.34,262.55 -974.57,0 -1895.01,-91.03 -2703.81,-251.7 -715.51,-142.13 -1346.99,-339.94 -1855.82,-578.86 -265.57,432.11 -400.82,1115.25 -372.13,1827.45 32.77,813.6 282.55,1642.8 800.09,2152.25 31.42,30.92 66.48,62.71 105.29,95.31l-0.11 0.13c1069.55,837.69 2581.83,1280.58 4093.23,1304.59 1566.93,24.9 3119.56,-400.53 4159.53,-1303l-1.44 -1.72zm-9480.42 -307.29c-295.31,-573.9 -446.49,-1249.53 -473.05,-1909.01 -26.06,-646.84 68.99,-1287.43 266.28,-1809.39 -95.58,11.96 -192.71,22.89 -291.28,32.78 -413.02,41.43 -839.3,63.54 -1270.69,63.54 -1162.97,0 -2236.12,-152.84 -3084.71,-408.19 -574.99,-173.03 -1056.25,-398.9 -1407.07,-663.55 -86.42,348.06 -133.36,721.87 -145.64,1101.92 -12.97,401.13 12.82,807.78 71.71,1197.96l1.23 -0.17 74.83 370.28c38.6,191.01 103.57,371.19 191.18,540.41 389.72,752.69 1231.29,1265.89 2211.21,1548.81 1016.94,293.6 2169.93,335.59 3136.47,140.23 255.89,-51.72 497.86,-120.37 719.53,-205.62zm-7127.24 -2300.71c-62.8,-428.77 -90.06,-875.17 -75.8,-1316.19 15.3,-473.26 78.58,-941.81 197.08,-1378.22 -18.52,0.17 -36.09,0.25 -52.69,0.25 -495.85,0 -950.66,-25.59 -1360.99,-75.58 -806.2,-98.22 -1445.19,-294.42 -1892.82,-579.84 -225.11,-143.54 -403.91,-308.26 -534.12,-493.32 -32.99,85.71 -61.66,174.12 -85.38,265.11 -36.94,141.73 -61.93,290.15 -72.62,444.73l2.71 258.51c1.07,101.92 9.45,206.51 24.68,313.26 107.31,752.02 571.44,1390.61 1227.5,1842.02 678.61,466.92 1557.86,733.32 2466.92,723.78 51.42,-0.54 103.28,-2.04 155.53,-4.51zm-4663.08 -3303.31c17.29,-163.42 46.67,-321.73 86.48,-474.48 62.59,-240.14 150.82,-465.83 258.03,-675.6 -269.09,-24.81 -510.96,-59.81 -726.59,-104.21 -514.01,-105.84 -894.9,-268.48 -1153.81,-477.47 -13.55,-10.94 -26.76,-22 -39.68,-33.15 -12.15,80.13 -19.64,158.36 -22.45,234.53 -9.8,265.55 38.02,504.76 143.3,708.95 103.52,200.75 266.09,373 487.7,508.58 249.44,152.6 571.61,260.18 967.02,312.85z"/></g></svg>