<svg xmlns="http://www.w3.org/2000/svg" xmlns:xlink="http://www.w3.org/1999/xlink" version="1.1" x="0px" y="0px" viewBox="0 0 100 125" style="enable-background:new 0 0 100 100;" xml:space="preserve"><g><g><path d="M90.65,40.5l-0.24-21.1c0-0.34-0.01-0.8-0.25-1.2c-0.42-0.71-1.35-1.43-2.18-1.43c0,0-0.01,0-0.01,0    c-0.3,0-0.6,0-0.88-0.01c-1.53-0.03-2.98-0.05-4.85,1.22c-0.31-0.67-0.89-1.7-1.57-2c-1.2-0.52-5.94-0.08-7.04,0.19    c-0.67,0.17-1.35,0.6-2,1.02c-0.15,0.1-0.29,0.18-0.43,0.27c-0.08-0.54-0.34-1.05-0.81-1.32c-0.15-0.08-0.33-0.21-0.54-0.35    c-0.65-0.44-1.38-0.93-1.98-0.97l-0.27-0.02c-2.22-0.15-4.5-0.29-6.49,1.22c-0.25-0.58-0.65-1.21-0.99-1.37    c-0.42-0.19-0.87-0.21-1.23-0.22c-1.08-0.04-2.31-0.08-3.45,0.35c-0.09,0.03-0.45,0.06-0.73,0.09c-1.29,0.11-3.57,0.33-5.06,1.69    c-0.44-0.55-1.16-0.94-2.1-1.11c-2.36-0.43-4.64,0.36-6.84,1.13c-0.88,0.31-1.8,0.62-2.7,0.85c-2.16-2.02-5.14-1.71-8.01-1.21    c-0.43,0.08-1.08,0.19-1.5,0.68c-0.29,0.33-0.39,0.73-0.47,1.09l-0.05,0.2c-0.19,0.71-0.58,1.36-0.99,2.05    c-0.47,0.79-0.96,1.61-1.15,2.56c-0.22,1.08-0.02,2.14,0.17,3.16c0.16,0.88,0.32,1.7,0.22,2.51c-0.08,0.7-0.36,1.4-0.62,2.07    l-2.87,7.26c-1.08,2.73-2.2,5.55-3.86,7.99c-0.62,0.91-1.33,1.79-2.02,2.65c-0.89,1.1-1.81,2.24-2.56,3.49    c-1.08,1.78-1.84,3.81-2.19,5.86l-0.04,0.23c-0.08,0.49-0.16,0.95-0.36,1.34c-0.21,0.42-0.58,0.78-0.98,1.17    c-0.61,0.6-1.31,1.29-1.38,2.28c0,0.07,0.01,0.14,0.03,0.2c-0.07,0.14-0.09,0.3-0.02,0.45c0.99,2.06,1.86,4.21,2.59,6.38    c0.38,1.15,0.76,2.39,0.88,3.64c0.06,0.63,0.06,1.25,0.06,1.91c0,0.33,0,0.67,0,1c0.06,2.98,0.79,5.95,2.11,8.62    c0,0.05,0,0.09,0.01,0.14c0.04,0.14,0.14,0.24,0.26,0.3c0.09,0.08,0.2,0.14,0.32,0.14c0.08,0,0.15-0.02,0.23-0.05    c0.06-0.03,0.11-0.07,0.15-0.12c5.88-1.53,11.43-4,16.52-7.33l0.57-0.38c0.96-0.64,1.95-1.3,2.99-1.76    c0.62-0.28,1.29-0.5,1.93-0.72c0.79-0.26,1.61-0.54,2.38-0.92c0.56-0.28,1.1-0.61,1.62-0.93c1.2-0.74,2.32-1.44,3.59-1.45    c0.17,0,0.34,0,0.51,0.01c0.82,0.03,1.84,0.06,2.42-0.75c0.16-0.23,0.25-0.47,0.32-0.69c0.04-0.12,0.08-0.23,0.13-0.34    c0.32-0.62,1.16-0.77,2.06-0.93c0.36-0.06,0.72-0.13,1.05-0.22c1.43-0.4,2.49-1.4,3.52-2.37c0.6-0.57,1.22-1.15,1.88-1.58    c1.18-0.77,2.56-1.11,4.01-1.48c0.64-0.16,1.27-0.32,1.9-0.52c0.45-0.14,0.96-0.33,1.34-0.76c0.24-0.27,0.37-0.59,0.49-0.88    c0.05-0.12,0.1-0.24,0.16-0.36c0.45-0.88,1.49-1.36,2.52-1.79c4.23-1.74,8.61-3.24,13.01-4.46c0.47,0.03,1.37-0.01,3.19-0.19    c0.26-0.03,0.46-0.25,0.45-0.51c-0.03-0.89,0.19-1.23,1.03-1.57c0,0,0,0,0,0c1.93-0.67,3.4-2.46,3.66-4.49    c0.04-0.32,0.05-0.65,0.06-0.98c0.02-0.51,0.03-1,0.17-1.44c0.09-0.28,0.23-0.55,0.38-0.83c0.11-0.22,0.22-0.43,0.32-0.65    C90.68,42.96,90.67,41.66,90.65,40.5z M25.19,42.9c-0.12-0.21-0.36-0.3-0.59-0.23c-0.4,0.13-0.8-0.07-1.05-0.3    c-0.19-0.18-0.37-0.46-0.4-0.76c0.97-0.24,2.07-0.04,2.88,0.54c0.2,0.14,0.47,0.12,0.64-0.05c0.17-0.17,0.2-0.44,0.06-0.64    c-0.55-0.78-0.93-1.68-1.11-2.62c0.11,0.21,0.2,0.43,0.25,0.66c0.06,0.25,0.3,0.41,0.55,0.38c0.25-0.03,0.44-0.26,0.43-0.51    l-0.12-3.35c0.24,0.18,0.45,0.43,0.61,0.73c0.29,0.55,0.42,1.22,0.53,1.86c0.04,0.21,0.2,0.37,0.41,0.4    c0.21,0.03,0.41-0.06,0.52-0.25c0.03-0.06,0.11-0.08,0.16-0.08c0.14-0.01,0.33,0.04,0.42,0.15c0.26,0.28,0.27,0.78,0.23,1.14    c-0.02,0.16-0.04,0.31-0.07,0.47c-0.06,0.39-0.13,0.8-0.09,1.24c0.06,0.64,0.34,1.24,0.8,1.7c0.09,0.09,0.21,0.14,0.33,0.15    c0.34,0.52,0.5,1.15,0.46,1.77l-0.16,0.07c-0.12,0.05-0.22,0.15-0.27,0.27c-0.05,0.12-0.05,0.26,0.01,0.38    c0.17,0.39,0.41,1.13,0.14,1.78c-0.16,0.38-0.58,0.72-0.99,0.69c-0.13-0.37-0.15-0.79-0.05-1.17c0.07-0.27-0.09-0.54-0.36-0.61    c-0.27-0.07-0.54,0.09-0.61,0.35c-0.07,0.25-0.25,0.47-0.48,0.6c-0.03-0.36-0.11-0.71-0.24-1.04c-0.07-0.19-0.25-0.31-0.45-0.32    c-0.17,0-0.38,0.11-0.47,0.29c-0.18,0.39-0.42,0.75-0.72,1.07c-0.04-0.33-0.02-0.67,0.04-1c0.01-0.05,0.03-0.11,0.04-0.17    c0.05-0.27-0.12-0.52-0.38-0.58c-0.26-0.06-0.53,0.1-0.59,0.36c-0.01,0.05-0.02,0.09-0.03,0.14c-0.13,0.44-0.48,0.8-0.88,0.89    c-0.42,0.09-0.92-0.16-1.06-0.53c-0.06-0.18-0.04-0.41,0.07-0.6c0.06-0.1,0.13-0.18,0.21-0.24c0.09-0.03,0.18-0.07,0.27-0.11    c0.24-0.1,0.36-0.36,0.28-0.61c-0.08-0.25-0.33-0.39-0.58-0.34c-0.14,0.03-0.28,0.08-0.4,0.15c-0.67,0.24-1.39,0.34-2.11,0.35    c0.02-0.24,0.2-0.51,0.41-0.66c0.38-0.26,0.88-0.35,1.49-0.45c0.64-0.11,1.36-0.26,1.9-0.75C25.27,43.36,25.31,43.1,25.19,42.9z     M22.94,43.3c-0.58,0.1-1.22,0.21-1.77,0.58c0.36-0.7,0.7-1.4,1.02-2.12c0.06,0.49,0.29,0.97,0.69,1.34    c0.07,0.06,0.14,0.12,0.21,0.18C23.04,43.28,22.99,43.29,22.94,43.3z M13.11,57.96c0.33-1.93,1.04-3.83,2.06-5.51    c0.72-1.19,1.62-2.3,2.49-3.38c0.7-0.87,1.42-1.77,2.06-2.71c0.21-0.3,0.38-0.63,0.57-0.94c0,0.23,0.04,0.46,0.16,0.68    c0.08,0.15,0.23,0.25,0.4,0.26c0.56,0.04,1.13,0.02,1.68-0.08c-0.05,0.28-0.02,0.57,0.07,0.83c0.31,0.84,1.3,1.37,2.21,1.17    c0.23-0.05,0.44-0.14,0.64-0.26c0.04,0.25,0.11,0.49,0.2,0.72c0.05,0.15,0.17,0.26,0.32,0.3c0.15,0.05,0.31,0.02,0.44-0.07    c0.33-0.23,0.62-0.5,0.88-0.8c0,0.02,0,0.04-0.01,0.06c-0.02,0.14,0.03,0.28,0.12,0.39c0.09,0.11,0.23,0.17,0.37,0.17    c0.34,0,0.69-0.09,1-0.26c0.05,0.21,0.12,0.41,0.22,0.6c0.06,0.12,0.16,0.21,0.29,0.25c0.18,0.06,0.36,0.09,0.54,0.09    c0.82,0,1.59-0.59,1.89-1.3c0.26-0.61,0.27-1.34,0.04-2.1c0.15-0.07,0.26-0.21,0.29-0.37c0.18-1.07-0.12-2.22-0.8-3.06    c-0.1-0.12-0.23-0.2-0.4-0.19c-0.06-0.09-0.11-0.19-0.15-0.28c0.14-0.09,0.23-0.24,0.23-0.42c0-0.29,0.03-1.26,0.59-1.51    c0.09-0.04,0.21-0.06,0.34-0.09l2.53-0.53c0.02,0,0.03-0.01,0.04-0.02c0.47,0,0.95,0.02,1.41,0.08c0.24,0.03,0.51,0.08,0.68,0.2    c0.1,0.07,0.19,0.18,0.29,0.3l0.27,0.31c-0.36,0.04-0.81-0.09-1.41-0.3c-0.81-0.28-1.73-0.6-2.59-0.19    c-0.07,0.03-0.13,0.08-0.17,0.14c-0.16,0.19-0.22,0.44-0.19,0.69c-0.06,0.03-0.12,0.07-0.17,0.12c-0.09,0.1-0.14,0.24-0.13,0.37    c0.04,0.56,0.3,1.09,0.71,1.47c-0.32,0.3-0.57,0.72-0.69,1.2c-0.17,0.67-0.09,1.34,0,2.02c0.02,0.17,0.13,0.32,0.29,0.39    c0.16,0.07,0.34,0.05,0.48-0.04c0.38-0.26,0.76-0.53,1.12-0.81c0.03,0.44,0.14,0.88,0.32,1.28c0.07,0.15,0.2,0.26,0.36,0.29    c0.16,0.03,0.33-0.02,0.44-0.13c0.15-0.15,0.3-0.31,0.43-0.47c0.1,0.57,0.28,1.13,0.54,1.64c0.08,0.15,0.22,0.25,0.39,0.27    c0.02,0,0.04,0,0.06,0c0.15,0,0.29-0.07,0.38-0.18c0.33-0.39,0.6-0.83,0.81-1.3c0,0.06,0.01,0.12,0.01,0.17    c0.01,0.27,0.23,0.48,0.5,0.48c0,0,0,0,0,0c0.33,0,0.62-0.13,0.85-0.33c0.66,0.36,1.57,0.17,2.02-0.44    c0.16-0.22,0.26-0.47,0.29-0.73c0.19,0.01,0.38-0.02,0.55-0.09c0.2-0.08,0.32-0.27,0.32-0.48c-0.01-0.25-0.02-0.51-0.05-0.76    c0.52,0.44,1.27,0.7,1.91,0.34c0.36-0.2,0.6-0.56,0.66-1c0.08-0.53-0.11-1.12-0.48-1.51c-0.34-0.36-0.78-0.57-1.21-0.7l0.85-0.91    c0.14-0.15,0.38-0.41,0.4-0.79c0.03-0.63-0.52-0.91-0.85-1.08c-0.06-0.03-0.13-0.07-0.2-0.11c0.12-0.22,0.18-0.47,0.16-0.74    c-0.02-0.52-0.29-1-0.7-1.26c-0.42-0.26-0.95-0.32-1.46-0.18c0-0.55-0.06-1.1-0.17-1.64c-0.03-0.16-0.1-0.48-0.38-0.7    c-0.39-0.3-0.94-0.21-1.41,0.22c-0.26,0.24-0.48,0.51-0.67,0.8c-0.11-0.08-0.23-0.15-0.35-0.19c-0.29-0.09-0.59-0.06-0.83,0.1    c-0.14,0.09-0.23,0.25-0.22,0.43l0.03,1.65c-0.29-0.4-0.56-0.81-0.66-1.26c-0.09-0.39-0.05-0.9,0.26-1.18    c0.37-0.33,1.02-0.3,1.65-0.23c0.17,0.02,0.33-0.05,0.44-0.18c0.11-0.13,0.14-0.3,0.09-0.46c-0.17-0.55-0.57-1.01-1.07-1.26    c0.26-0.33,0.47-0.69,0.63-1.08c0.07-0.16,0.04-0.35-0.06-0.49c-0.11-0.14-0.28-0.22-0.45-0.2c-0.19,0.02-0.37,0.06-0.55,0.13    c0.02-0.31,0.01-0.62-0.03-0.93c-0.02-0.15-0.11-0.29-0.24-0.37c-0.13-0.08-0.3-0.09-0.44-0.03c-0.3,0.12-0.58,0.3-0.82,0.52    l0-0.45c0-0.18-0.1-0.34-0.25-0.43c-0.15-0.09-0.34-0.09-0.5,0c-0.34,0.19-0.63,0.47-0.85,0.79c-0.12-0.02-0.24,0-0.35,0.06    c-0.17,0.1-0.34,0.23-0.48,0.36c-0.05-0.22-0.24-0.39-0.48-0.4c-0.25,0-0.59,0.06-0.93,0.37c-0.06-0.17-0.14-0.33-0.23-0.48    c-0.09-0.16-0.25-0.25-0.43-0.25c0,0,0,0,0,0c-0.18,0-0.34,0.1-0.43,0.25c-0.23,0.4-0.41,0.84-0.52,1.3    c-0.06,0-0.14,0.01-0.2,0.03c-0.19,0.07-0.32,0.26-0.32,0.46c0,0.4,0.05,0.81,0.15,1.2c-0.09-0.01-0.19,0-0.29,0.01    c-0.34,0.04-0.67,0.22-0.89,0.49c-0.18,0.23-0.26,0.51-0.22,0.78c0.06,0.46,0.4,0.73,0.65,0.93c0.02,0.01,0.03,0.02,0.05,0.04    c-0.12,0.17-0.2,0.36-0.24,0.58c-0.09,0.42,0,0.85,0.23,1.17c0.08,0.12,0.22,0.19,0.36,0.21c0.42,0.04,0.85,0.01,1.26-0.08    c0.02,0.34,0.07,0.68,0.16,1.02c0.05,0.18,0.18,0.31,0.36,0.36c0.18,0.05,0.36-0.01,0.49-0.14l0.63-0.67    c0.04,0.28,0.09,0.55,0.15,0.82l-1.62,0.34c-0.16,0.03-0.35,0.07-0.53,0.15c-0.16,0.07-0.3,0.18-0.44,0.3    c0-0.62-0.16-1.13-0.49-1.49c-0.31-0.34-0.8-0.52-1.27-0.47c-0.05,0.01-0.09,0.01-0.14,0.02c-0.11-0.48-0.25-0.97-0.49-1.43    c-0.44-0.83-1.17-1.39-1.95-1.52c-0.15-0.03-0.3,0.02-0.41,0.12s-0.17,0.24-0.17,0.39l0.08,2.16c-0.16-0.15-0.33-0.29-0.51-0.41    c-0.15-0.1-0.35-0.11-0.51-0.03c-0.16,0.08-0.27,0.25-0.27,0.43c-0.03,1.11,0.19,2.21,0.63,3.22c-0.82-0.21-1.7-0.19-2.52,0.08    c0.36-0.85,0.7-1.71,1.04-2.55l2.87-7.26c0.29-0.73,0.59-1.49,0.69-2.32c0.11-0.96-0.06-1.9-0.23-2.81    c-0.18-0.98-0.35-1.9-0.18-2.78c0.16-0.79,0.58-1.5,1.03-2.25c0.43-0.72,0.87-1.46,1.09-2.3L29,18.23    c0.06-0.27,0.13-0.52,0.25-0.66c0.18-0.2,0.54-0.28,0.92-0.35c0.97-0.17,1.92-0.31,2.83-0.35c-0.05,0.03-0.1,0.07-0.14,0.12    c-0.55,0.73-0.77,1.66-0.63,2.56c0.04,0.24,0.25,0.42,0.49,0.42c0.03,0,0.05,0,0.08-0.01c0.27-0.04,0.46-0.3,0.41-0.57    c-0.1-0.62,0.06-1.29,0.44-1.8c0.17-0.22,0.12-0.53-0.1-0.7c-0.02-0.01-0.04-0.02-0.06-0.03c1.43,0,2.73,0.33,3.78,1.29    c-0.01,0.02-0.02,0.03-0.02,0.05c-0.26,1.44-0.22,2.95,0.12,4.38c0.04,0.19,0.09,0.37,0.14,0.56c0.15,0.58,0.3,1.12,0.28,1.66    c-0.01,0.38-0.11,0.78-0.2,1.15c-0.25,0.97-0.53,1.73-1.07,2.28c-0.19,0.2-0.19,0.51,0.01,0.71c0.1,0.1,0.22,0.14,0.35,0.14    c0.13,0,0.26-0.05,0.36-0.15c0.73-0.75,1.07-1.75,1.32-2.72c0.11-0.41,0.22-0.88,0.24-1.37c0.02-0.69-0.15-1.33-0.32-1.95    c-0.05-0.18-0.1-0.36-0.14-0.54c-0.3-1.28-0.34-2.64-0.11-3.94c0.94-0.24,1.88-0.56,2.78-0.88c2.18-0.76,4.23-1.48,6.33-1.09    c0.32,0.06,1.32,0.3,1.63,0.99c-0.05,0.05-0.09,0.11-0.11,0.18c-0.69,2.01-0.54,4.16-0.42,6.05c0.11,1.71,0.14,3.34-0.76,4.47    c-0.17,0.22-0.14,0.53,0.08,0.7c0.09,0.07,0.2,0.11,0.31,0.11c0.15,0,0.29-0.06,0.39-0.19c1.12-1.4,1.1-3.24,0.98-5.16    c-0.12-1.8-0.25-3.84,0.37-5.66c0.02-0.05,0.02-0.1,0.02-0.14c0.02-0.01,0.03-0.03,0.05-0.05c0.01-0.01,0.02-0.02,0.03-0.03    c1.17-1.51,3.57-1.72,4.86-1.83c0.47-0.04,0.78-0.07,0.99-0.15c0.95-0.35,2.03-0.32,3.07-0.28c0.3,0.01,0.61,0.02,0.81,0.11    c0.18,0.14,0.58,0.9,0.67,1.22c-1.01,1.37-1.66,2.98-1.85,4.67c-0.11,0.95-0.07,1.91-0.04,2.85c0.06,1.69,0.11,3.29-0.6,4.67    c-0.13,0.25-0.03,0.55,0.22,0.67c0.07,0.04,0.15,0.06,0.23,0.06c0.18,0,0.36-0.1,0.44-0.27c0.83-1.61,0.77-3.42,0.72-5.16    c-0.03-0.9-0.06-1.83,0.04-2.71c0.18-1.58,0.78-3.07,1.75-4.33c1.8-1.72,3.99-1.58,6.31-1.42l0.27,0.02    c0.32,0.02,1.05,0.51,1.48,0.8c0.23,0.15,0.44,0.29,0.6,0.39c0.29,0.17,0.38,0.67,0.3,1.07c-0.7,0.67-0.7,1.62-0.69,2.48l0,0.11    c0.03,2.66-0.13,5.33-0.5,7.96c-0.06,0.42-0.12,0.84-0.23,1.24c-0.25,0.89-0.76,1.72-1.44,2.35c-0.2,0.19-0.22,0.5-0.03,0.71    c0.1,0.11,0.23,0.16,0.37,0.16c0.12,0,0.24-0.04,0.34-0.13c0.83-0.76,1.42-1.74,1.72-2.82c0.13-0.46,0.2-0.93,0.26-1.37    c0.37-2.68,0.54-5.4,0.51-8.11l0-0.11c-0.01-0.89,0.01-1.46,0.44-1.8c0.4-0.19,0.82-0.45,1.23-0.71c0.58-0.38,1.19-0.77,1.7-0.89    c1.32-0.33,5.6-0.59,6.4-0.24c0.33,0.14,0.88,1.03,1.19,1.78c-0.01,0.01-0.02,0.01-0.02,0.02c-1.51,2.33-2.31,5.14-2.27,7.92    l0,0.15c0.01,0.32,0.01,0.63-0.05,0.9c-0.08,0.33-0.28,0.63-0.54,0.99c-0.73,0.99-1.59,1.88-2.56,2.64    c-0.22,0.17-0.25,0.49-0.08,0.7c0.1,0.12,0.24,0.19,0.39,0.19c0.11,0,0.22-0.04,0.31-0.11c1.03-0.82,1.95-1.77,2.74-2.83    c0.29-0.39,0.58-0.83,0.71-1.34c0.1-0.4,0.09-0.79,0.08-1.16l0-0.14c-0.04-2.58,0.71-5.19,2.11-7.36c0.02-0.03,0.03-0.06,0.04-0.1    c0.01,0,0.01,0,0.02-0.01c1.84-1.44,3.12-1.41,4.73-1.38c0.26,0.01,0.53,0.01,0.81,0.01c0.04,0,0.08,0,0.1,0    c0.44,0,1.06,0.5,1.32,0.94c0.1,0.17,0.11,0.46,0.11,0.7l0,0.18c-0.09,0-0.17,0.01-0.25,0.06l-4.56,2.58    c-0.61,0.35-1.31,0.74-1.84,1.33c-1.08,1.21-1.21,2.82-1.34,4.38c-0.03,0.31-0.05,0.61-0.08,0.91c-0.23,2.1-0.94,3.92-2.05,5.25    c-1.25,1.5-3.11,2.38-4.83,2.31c-0.13-0.01-0.26-0.02-0.38-0.03c-0.54-0.04-1.15-0.09-1.73,0.16c-0.45,0.2-0.77,0.54-1.06,0.84    c-0.08,0.09-0.17,0.17-0.25,0.26c-0.92,0.88-2.17,1.28-3.49,1.71c-1.39,0.45-2.82,0.92-3.91,1.98c-0.32,0.31-0.59,0.67-0.86,1.01    c-0.42,0.55-0.82,1.06-1.36,1.35c-0.85,0.46-1.9,0.31-3,0.14c-0.37-0.05-0.73-0.11-1.09-0.14c-2.35-0.21-4.8,0.61-6.56,2.18    c-0.12,0.11-0.23,0.21-0.35,0.32c-0.37,0.35-0.71,0.68-1.12,0.86c-0.58,0.27-1.27,0.23-1.99,0.2c-0.53-0.02-1.08-0.05-1.63,0.04    c-1.17,0.19-2.14,0.84-3.07,1.47L42.26,49c-3.69,2.45-7.97,3.87-12.4,4.12c-0.16,0.01-0.3,0.09-0.39,0.22    c-0.09,0.13-0.11,0.29-0.06,0.44c0.07,0.2,0.04,0.41-0.1,0.63c-0.23,0.37-0.73,0.68-1.2,0.73c-0.52,0.06-1.06-0.03-1.64-0.12    c-0.42-0.07-0.86-0.14-1.3-0.16c-1.51-0.05-2.92,0.58-4.16,1.14l-8.37,3.75c0.25-0.51,0.34-1.04,0.42-1.56L13.11,57.96z     M32.25,36.36c-0.14-0.1-0.33-0.12-0.49-0.05c-0.38,0.16-0.78,0.25-1.19,0.25c-0.01-0.06-0.01-0.13,0.01-0.2    c0.03-0.15,0.11-0.27,0.21-0.33c0.23-0.14,0.31-0.43,0.18-0.66c-0.14-0.27-0.38-0.46-0.56-0.6c-0.11-0.09-0.27-0.21-0.28-0.27    c0.01-0.04,0.11-0.13,0.23-0.15c0.24-0.03,0.53,0.1,0.78,0.22c0.19,0.09,0.42,0.04,0.56-0.11c0.15-0.15,0.18-0.38,0.09-0.57    c-0.07-0.15-0.14-0.3-0.19-0.45c0.1-0.09,0.16-0.23,0.16-0.38c0-0.03,0-0.05,0-0.08c-0.01-0.17,0-0.33,0.02-0.5    c0.04,0.19,0.2,0.35,0.4,0.38c0.26,0.04,0.5-0.12,0.57-0.36c0.06-0.22,0.14-0.45,0.24-0.64l0.04,0.79    c0.01,0.26,0.22,0.46,0.48,0.47c0.27,0.01,0.48-0.17,0.52-0.43c0.04-0.24,0.12-0.48,0.25-0.69c0,0.15,0.02,0.3,0.05,0.45    c0.05,0.26,0.29,0.44,0.56,0.4c0.26-0.04,0.45-0.28,0.43-0.54c-0.01-0.13-0.02-0.25-0.04-0.38c0-0.17,0.03-0.34,0.09-0.5    l0.01,1.05c-0.02,0.2-0.02,0.39,0.01,0.59c0.03,0.26,0.26,0.45,0.53,0.44c0.26-0.02,0.47-0.24,0.47-0.5l0-0.48    c0.05-0.41,0.24-0.81,0.52-1.12c-0.03,0.35-0.1,0.69-0.21,1.02c-0.07,0.14-0.13,0.29-0.17,0.45c-0.06,0.25,0.07,0.51,0.32,0.6    c0.05,0.02,0.09,0.02,0.14,0.03c0.17,0.27,0.57,0.2,0.88,0.35c-0.47,0.04-0.92,0.18-1.29,0.51c-0.43,0.39-0.65,0.98-0.63,1.61    c-0.06-0.01-0.12-0.01-0.17-0.01l-1.25,0.01c-0.23,0-0.42,0.16-0.47,0.38c-0.04,0.06-0.07,0.13-0.08,0.21c0,0,0,0.01,0,0.01    c-0.05-0.09-0.13-0.16-0.23-0.2c-0.19-0.08-0.41-0.03-0.56,0.12l-0.72,0.76c0-0.15,0-0.3,0.01-0.45    C32.47,36.63,32.39,36.46,32.25,36.36z M38.63,37.73c0.06,0.04,0.12,0.06,0.19,0.07c0.26,0.04,0.51-0.12,0.57-0.38    c0.04-0.16,0.08-0.34,0.1-0.53c0.15-0.54,0.45-1.03,0.86-1.41c0.04-0.04,0.09-0.07,0.12-0.09c0,0.01,0.01,0.02,0.01,0.04    c0.15,0.73,0.19,1.49,0.12,2.23c-0.02,0.21,0.09,0.4,0.27,0.5c0.18,0.09,0.41,0.06,0.56-0.07c0.29-0.26,0.79-0.4,1.13-0.19    c0.13,0.08,0.23,0.27,0.24,0.46c0,0.06,0,0.22-0.11,0.31c-0.16,0.12-0.24,0.33-0.18,0.53c0.13,0.48,0.56,0.7,0.88,0.86    c0.11,0.05,0.28,0.15,0.31,0.12c-0.01,0.04-0.1,0.14-0.14,0.17l-1.44,1.54c-0.12,0.13-0.17,0.32-0.11,0.49    c0.06,0.17,0.2,0.3,0.38,0.34c0.64,0.13,1.2,0.26,1.54,0.62c0.16,0.16,0.24,0.44,0.21,0.67c-0.02,0.13-0.07,0.22-0.16,0.27    c-0.23,0.13-0.62-0.06-0.86-0.31c-0.15-0.15-0.28-0.33-0.41-0.5c-0.2-0.26-0.4-0.53-0.67-0.77c-0.17-0.14-0.41-0.16-0.6-0.04    c-0.19,0.12-0.27,0.35-0.21,0.56c0.18,0.61,0.3,1.24,0.35,1.88c-0.03-0.01-0.06-0.03-0.09-0.05c-0.08-0.12-0.17-0.23-0.28-0.32    c-0.18-0.16-0.45-0.16-0.63-0.02c-0.19,0.15-0.25,0.41-0.14,0.62c0.07,0.13,0.16,0.25,0.26,0.36c0.07,0.19,0.06,0.42-0.06,0.58    c-0.11,0.15-0.33,0.22-0.52,0.22c0.02-0.57-0.07-1.15-0.28-1.69c-0.09-0.25-0.36-0.38-0.61-0.3c-0.25,0.08-0.4,0.33-0.34,0.59    c0.08,0.38,0.17,0.77,0.09,1.1c0,0.02-0.01,0.04-0.01,0.05c-0.1-0.5-0.26-0.98-0.48-1.43c-0.1-0.2-0.32-0.31-0.54-0.27    c-0.22,0.04-0.39,0.23-0.4,0.46c-0.05,0.67-0.24,1.32-0.56,1.9c-0.2-0.69-0.24-1.43-0.12-2.14c0.04-0.26-0.12-0.5-0.37-0.57    c-0.25-0.06-0.51,0.07-0.6,0.32c-0.14,0.39-0.33,0.76-0.57,1.1c-0.04-0.35-0.01-0.71,0.08-1.04c0.06-0.21-0.03-0.44-0.22-0.55    c-0.19-0.12-0.42-0.1-0.59,0.04c-0.41,0.35-0.84,0.69-1.27,1.01c-0.01-0.28,0-0.55,0.07-0.81c0.1-0.4,0.39-0.84,0.8-0.95    c0.22-0.05,0.37-0.24,0.38-0.47c0.01-0.22-0.13-0.42-0.34-0.49c-0.28-0.09-0.52-0.3-0.67-0.55h0c0.14,0.02,0.29,0.02,0.43-0.03    c0.24-0.07,0.38-0.31,0.34-0.56c-0.03-0.18-0.16-0.33-0.32-0.39c0.39,0.01,0.84,0.17,1.31,0.33c0.87,0.3,1.86,0.65,2.73,0.03    c0.15-0.11,0.22-0.29,0.2-0.46c0.05-0.16,0.02-0.33-0.09-0.46c0.01,0,0.01,0,0.02,0.01c0.28-0.01,0.5-0.23,0.49-0.51L38.63,37.73z     M37.67,39.69l-0.12-0.14c-0.13-0.15-0.28-0.32-0.48-0.46c-0.34-0.24-0.74-0.32-1.12-0.37c-0.39-0.05-0.78-0.08-1.17-0.09    c0.12-0.21,0.21-0.44,0.22-0.69c0.02-0.23-0.01-0.47-0.03-0.7c-0.01-0.09-0.02-0.18-0.03-0.27l0.78,0l0.31,0.53    c0.09,0.16,0.26,0.25,0.43,0.25c0.03,0,0.05-0.02,0.08-0.02c0.12,0.19,0.25,0.38,0.38,0.56c0.16,0.22,0.48,0.27,0.7,0.11    c0.01-0.01,0.01-0.01,0.02-0.02L37.67,39.69z M89.26,43.76c-0.08,0.2-0.18,0.39-0.28,0.58c-0.16,0.31-0.33,0.63-0.44,0.99    c-0.18,0.57-0.2,1.15-0.22,1.7c-0.01,0.3-0.02,0.59-0.06,0.88c-0.21,1.67-1.42,3.15-3.02,3.68c-0.01,0-0.01,0.01-0.01,0.01    c0,0-0.01,0-0.01,0c-1.07,0.44-1.56,1.03-1.64,2.05c-1.34,0.11-2.79,0.15-2.8,0.15v0c-0.05,0.01-0.09,0.02-0.14,0.03    c-4.44,1.23-8.84,2.74-13.1,4.49c-1.2,0.49-2.42,1.07-3.03,2.25c-0.07,0.14-0.13,0.28-0.19,0.43c-0.1,0.23-0.19,0.45-0.32,0.6    c-0.2,0.23-0.57,0.36-0.89,0.46c-0.6,0.19-1.22,0.35-1.84,0.5c-1.47,0.37-2.99,0.76-4.31,1.61c-0.74,0.48-1.4,1.1-2.03,1.7    c-0.98,0.93-1.91,1.8-3.1,2.13c-0.3,0.08-0.63,0.14-0.96,0.2c-1.04,0.18-2.23,0.39-2.77,1.46c-0.08,0.15-0.13,0.32-0.19,0.48    c-0.06,0.17-0.11,0.32-0.19,0.43c-0.25,0.35-0.79,0.35-1.57,0.33c-0.19-0.01-0.38-0.01-0.56-0.01c-1.55,0.02-2.85,0.82-4.11,1.6    c-0.5,0.31-1.02,0.63-1.54,0.89c-0.71,0.35-1.46,0.6-2.25,0.87c-0.67,0.22-1.36,0.45-2.03,0.75c-1.12,0.5-2.15,1.19-3.14,1.85    l-0.56,0.37c-4.96,3.26-10.38,5.66-16.11,7.17c-1.2-2.5-1.87-5.27-1.93-8.05c-0.01-0.32-0.01-0.65,0-0.97c0-0.66,0-1.34-0.06-2.01    c-0.13-1.36-0.52-2.66-0.92-3.86c-0.73-2.19-1.61-4.36-2.61-6.45c0.03-0.06,0.06-0.13,0.06-0.2c0.03-0.52,0.39-0.94,0.84-1.39    c0.01,0,0.03,0,0.04-0.01l10.17-4.56c1.14-0.51,2.45-1.09,3.72-1.05c0.38,0.01,0.76,0.08,1.17,0.14c0.62,0.1,1.25,0.21,1.92,0.13    c0.77-0.09,1.53-0.56,1.93-1.19c0.17-0.27,0.27-0.56,0.28-0.85c4.41-0.34,8.67-1.8,12.36-4.25l0.36-0.24    c0.88-0.6,1.72-1.16,2.67-1.31c0.45-0.07,0.92-0.05,1.42-0.03c0.81,0.04,1.66,0.08,2.46-0.29c0.56-0.25,0.98-0.66,1.39-1.05    c0.11-0.1,0.22-0.21,0.33-0.31c1.55-1.39,3.72-2.12,5.8-1.93c0.34,0.03,0.69,0.08,1.04,0.13c1.22,0.18,2.48,0.37,3.62-0.25    c0.72-0.39,1.21-1.02,1.68-1.62c0.26-0.33,0.5-0.64,0.77-0.91c0.91-0.9,2.18-1.31,3.52-1.74c1.37-0.45,2.79-0.91,3.87-1.94    c0.1-0.09,0.19-0.19,0.28-0.29c0.25-0.26,0.48-0.5,0.75-0.61c0.34-0.15,0.78-0.12,1.24-0.08c0.14,0.01,0.28,0.02,0.42,0.03    c2.07,0.1,4.18-0.9,5.65-2.66c1.24-1.49,2.02-3.48,2.27-5.78c0.03-0.31,0.06-0.62,0.09-0.94c0.12-1.46,0.23-2.83,1.09-3.79    c0.42-0.47,1.01-0.8,1.58-1.13l4.34-2.45l0.05,4.62c-0.2-0.38-0.51-0.71-0.9-0.91c-0.25-0.13-0.55-0.03-0.67,0.22    c-0.13,0.25-0.03,0.55,0.22,0.67c0.29,0.15,0.51,0.44,0.58,0.75c0.05,0.23,0.26,0.39,0.49,0.39c0.04,0,0.07,0,0.11-0.01    c0.07-0.02,0.14-0.05,0.19-0.09l0.16,14.22C89.66,41.57,89.68,42.77,89.26,43.76z"/><path d="M31.59,63.32c0.11-0.27,0.1-0.58-0.04-0.87c-0.15-0.32-0.45-0.57-0.78-0.67c-0.45-0.13-0.96-0.04-1.47,0.27    c-0.08,0.05-0.16,0.1-0.24,0.16c-0.16-0.3-0.42-0.54-0.73-0.64c-0.56-0.2-1.23-0.03-1.74,0.43c-0.4,0.37-0.65,0.84-0.86,1.25    c-0.16,0.31-0.56,0.73-0.94,1.14c-0.45,0.48-0.87,0.93-1.1,1.36c-0.09,0.17-0.07,0.38,0.05,0.53c0.1,0.13,0.24,0.2,0.4,0.2    c0.04,0,0.07,0,0.11-0.01l2.04-0.44c0.69-0.15,1.59-0.35,2.28-0.89l0.69,0.84c0.37,0.46,0.73,0.47,0.96,0.39    c0.21-0.06,0.35-0.26,0.35-0.48l0.01-1.46c0-0.06,0-0.15,0.01-0.18c0.02-0.06,0.18-0.16,0.3-0.23    C31.13,63.88,31.44,63.69,31.59,63.32z M30.36,63.18c-0.24,0.15-0.58,0.35-0.71,0.75c-0.07,0.19-0.07,0.38-0.07,0.51l0,0.37    l-0.59-0.71c-0.09-0.12-0.24-0.18-0.39-0.18c0,0,0,0,0,0c-0.15,0-0.29,0.07-0.39,0.18c-0.46,0.56-1.25,0.77-2.15,0.96L25.4,65.2    c0.04-0.04,0.08-0.08,0.11-0.12c0.45-0.48,0.87-0.93,1.1-1.36c0.18-0.35,0.37-0.72,0.64-0.97c0.15-0.14,0.38-0.26,0.58-0.26    c0.05,0,0.11,0.01,0.16,0.03c0.08,0.03,0.16,0.12,0.2,0.21c0.01,0.02,0.03,0.09,0,0.13c-0.12,0.19-0.09,0.45,0.07,0.61    c0.16,0.16,0.41,0.2,0.61,0.09c0.19-0.11,0.37-0.24,0.54-0.37c0.13-0.1,0.26-0.19,0.4-0.27c0.15-0.09,0.44-0.23,0.68-0.17    c0.06,0.02,0.13,0.08,0.18,0.2C30.64,63.01,30.49,63.1,30.36,63.18z"/><path d="M47.29,57.66c0.08-0.31,0.01-0.63-0.19-0.91c-0.25-0.33-0.69-0.55-1.11-0.56c-0.44,0.01-0.81,0.14-1.14,0.26    c-0.11,0.04-0.22,0.08-0.33,0.12c-0.19,0.06-0.39,0.1-0.59,0.12c0-0.37-0.05-0.75-0.17-1.1c-0.04-0.13-0.13-0.23-0.25-0.29    c-0.12-0.06-0.26-0.07-0.38-0.03c-0.5,0.17-1.03,0.34-1.54,0.58c-0.67,0.31-1.15,0.71-1.4,1.18c-0.37-0.17-0.72-0.4-1.03-0.67    c-0.19-0.17-0.47-0.17-0.66-0.01c-0.26,0.22-0.96,0.81-0.77,1.6c0.12,0.5,0.54,0.78,0.84,0.98c0.55,0.36,1.08,0.77,1.57,1.21    c-0.06,0.13-0.07,0.28-0.01,0.42c0.11,0.27,0.27,0.64,0.59,0.9c0.2,0.17,0.48,0.27,0.76,0.27c0.24,0,0.48-0.08,0.67-0.25    c0.19-0.18,0.27-0.39,0.32-0.55l0.67-1.84c0.02-0.07,0.09-0.25,0.14-0.28c0.04-0.02,0.19-0.03,0.26-0.03    c0.75-0.04,1.5-0.09,2.25-0.16C46.64,58.52,47.14,58.2,47.29,57.66z M45.7,57.61c-0.73,0.07-1.47,0.12-2.21,0.16    c-0.2,0.01-0.49,0.02-0.75,0.19c-0.33,0.21-0.45,0.56-0.53,0.78l-0.55,1.5c-0.02-0.04-0.05-0.07-0.08-0.11    c-0.74-0.78-1.56-1.47-2.46-2.05c-0.17-0.11-0.39-0.26-0.42-0.38c-0.01-0.05,0-0.14,0.15-0.32c0.45,0.34,0.96,0.6,1.49,0.76    c0.14,0.04,0.29,0.02,0.42-0.06c0.12-0.08,0.21-0.21,0.23-0.35c0.07-0.48,0.67-0.82,1.02-0.99c0.29-0.13,0.6-0.25,0.91-0.36    c0.03,0.23,0.02,0.47-0.03,0.7c-0.03,0.14,0.01,0.28,0.09,0.4s0.22,0.18,0.36,0.19c0.5,0.04,1.01-0.02,1.48-0.17    c0.13-0.04,0.25-0.09,0.38-0.14c0.27-0.1,0.52-0.2,0.76-0.2c0.12,0,0.26,0.07,0.35,0.22C46.31,57.44,46.18,57.56,45.7,57.61z"/><path d="M59.5,52.63c0.09-0.11,0.13-0.25,0.12-0.39l-0.11-0.85c0-0.03-0.01-0.1-0.02-0.08c0.01-0.02,0.06-0.06,0.13-0.13    c0.47-0.47,0.76-1.12,0.79-1.79c0.01-0.19-0.09-0.36-0.25-0.46c-0.58-0.33-1.07,0.2-1.28,0.43c-0.18,0.19-0.43,0.34-0.7,0.5    c-0.11,0.06-0.21,0.13-0.32,0.2c-1.11,0.71-1.95,1.85-2.31,3.11c-0.06,0.21,0.04,0.42,0.22,0.54c0.08,0.05,0.17,0.08,0.27,0.08    c0.12,0,0.24-0.04,0.34-0.12c0.44-0.36,0.53-0.43,0.95-0.4C58.03,53.32,58.93,53.29,59.5,52.63z M57.02,52.27    c0.35-0.55,0.82-1.03,1.36-1.38c0.09-0.06,0.19-0.12,0.29-0.18c-0.05,0.07-0.1,0.15-0.13,0.24c-0.07,0.22-0.05,0.42-0.03,0.55    l0.07,0.59c-0.31,0.19-0.8,0.19-1.22,0.17c-0.07,0-0.13-0.01-0.2-0.01C57.12,52.27,57.07,52.27,57.02,52.27z"/><path d="M71.65,48.68c-0.06-0.2-0.23-0.33-0.44-0.35c-1.06-0.09-2.13-0.2-3.2-0.34c0.02-0.26,0.01-0.53-0.02-0.79    c-0.08-0.68-0.38-1.15-0.86-1.32c-0.49-0.17-1.05,0.02-1.5,0.52c-0.08,0.09-0.15,0.18-0.22,0.27c-0.03,0.04-0.06,0.08-0.09,0.11    c-0.3-0.16-0.66-0.15-0.94,0.02c-0.38,0.25-0.55,0.75-0.45,1.27c0.04,0.18,0.1,0.36,0.17,0.53c0.04,0.1,0.08,0.2,0.1,0.3    c0.11,0.4-0.02,0.87-0.31,1.16c-0.14,0.14-0.31,0.26-0.48,0.37c-0.42,0.29-0.88,0.61-1.04,1.21c-0.04,0.14-0.01,0.29,0.08,0.41    c0.09,0.12,0.22,0.2,0.37,0.21c0.09,0.01,0.18,0.01,0.27,0.01c0.92,0,1.94-0.35,2.94-0.69c0.64-0.22,1.25-0.42,1.75-0.51    c1.11-0.19,2.63-0.45,3.6-1.52C71.72,49.2,71.72,48.88,71.65,48.68z M67.63,50.09c-0.58,0.1-1.23,0.32-1.91,0.55    c-0.51,0.17-1.02,0.35-1.51,0.47c0.14-0.1,0.29-0.22,0.42-0.35c0.54-0.55,0.76-1.38,0.56-2.12c-0.04-0.14-0.09-0.27-0.14-0.4    c-0.04-0.11-0.09-0.23-0.12-0.35c0.02,0.01,0.03,0.03,0.05,0.04c0.16,0.11,0.37,0.12,0.53,0.02c0.31-0.18,0.51-0.44,0.69-0.67    c0.06-0.08,0.12-0.15,0.18-0.22c0.16-0.18,0.35-0.27,0.42-0.24c0.07,0.03,0.17,0.2,0.2,0.49c0.04,0.34,0.03,0.69-0.03,1.02    c-0.02,0.13,0.01,0.27,0.09,0.38c0.08,0.11,0.2,0.18,0.34,0.2c0.94,0.12,1.9,0.23,2.84,0.32C69.57,49.72,68.65,49.92,67.63,50.09z    "/><path d="M86.06,34.78c0.22-0.09,0.46-0.19,0.67-0.39c0.56-0.54,0.46-1.39,0.41-1.79c-0.03-0.25-0.24-0.44-0.49-0.44l-1.63-0.02    c-0.17,0-0.37-0.01-0.59,0.06c-0.96,0.27-1.15,1.39-1.25,1.99c-0.27,1.58-1.16,4.02-2.19,5.37c-0.09,0.12-0.13,0.28-0.09,0.43    c0.04,0.15,0.14,0.27,0.28,0.33c0.26,0.12,0.8,0.35,1.35,0.35c0.31,0,0.63-0.08,0.92-0.29c-0.01,0.15-0.07,0.29-0.17,0.4    c-0.2,0.19-0.2,0.51,0,0.71c0.1,0.1,0.23,0.15,0.36,0.15c0.13,0,0.25-0.05,0.35-0.14c0.29-0.29,0.46-0.68,0.47-1.09    c0.01-0.28-0.21-0.51-0.49-0.51c-0.03,0-0.06,0.01-0.09,0.02c0.06-0.11,0.12-0.22,0.17-0.32l0.4-0.85    c0.16-0.33,0.27-0.39,0.3-0.37c0.15,0.04,0.53,0.14,0.81-0.18c0.14-0.16,0.15-0.35,0.16-0.42c0.04-0.45-0.05-0.86-0.13-1.26    c-0.03-0.16-0.07-0.33-0.09-0.49c-0.05-0.38-0.02-0.85,0.24-1.04C85.81,34.88,85.93,34.83,86.06,34.78z M85.13,34.13    c-0.53,0.4-0.76,1.12-0.63,1.99c0.03,0.19,0.07,0.37,0.11,0.56c0.05,0.22,0.09,0.44,0.11,0.65c-0.33,0.01-0.8,0.14-1.18,0.95    l-0.4,0.85c-0.08,0.16-0.15,0.32-0.25,0.41c-0.14,0.13-0.38,0.15-0.73,0.06c0.98-1.54,1.75-3.76,2-5.25    c0.1-0.57,0.23-1.11,0.53-1.19c0.08-0.02,0.2-0.02,0.31-0.02l1.18,0.02c0,0.22-0.03,0.42-0.14,0.52    c-0.07,0.07-0.21,0.13-0.36,0.19C85.51,33.92,85.31,34,85.13,34.13z"/><path d="M83.5,43.37c-0.31-0.71-1.52-1.1-2.24-0.88c-0.74,0.23-1,1.07-0.92,1.75c0.02,0.17,0.05,0.33,0.08,0.49    c0.06,0.29,0.11,0.57,0.06,0.8c-0.06,0.26-0.25,0.52-0.62,0.82l-0.27,0.21c-0.29,0.23-0.59,0.46-0.84,0.78    c-0.45,0.56-0.57,1.26-0.32,1.8c0.08,0.18,0.26,0.29,0.46,0.29c0.05,0,0.1-0.01,0.14-0.02c0.96-0.29,1.85-0.73,2.67-1.31    c0.94-0.68,1.53-1.4,1.78-2.21c0.26-0.82,0.15-1.65,0.06-2.39C83.53,43.46,83.52,43.42,83.5,43.37z M82.52,45.6    c-0.19,0.6-0.65,1.15-1.41,1.7c-0.54,0.39-1.13,0.71-1.75,0.95c0.04-0.1,0.1-0.2,0.17-0.28c0.17-0.22,0.41-0.41,0.67-0.6    c0.1-0.08,0.2-0.15,0.29-0.23c0.34-0.28,0.82-0.74,0.96-1.38c0.09-0.43,0.02-0.84-0.05-1.2c-0.03-0.14-0.05-0.28-0.07-0.42    c-0.03-0.32,0.07-0.65,0.22-0.69c0.04-0.01,0.1-0.02,0.16-0.02c0.3,0,0.73,0.16,0.85,0.3C82.64,44.37,82.7,45.02,82.52,45.6z"/><path d="M49.8,32.65c0.08,0.02,0.16,0.02,0.24-0.01c0.53,0.26,1.11,0.48,1.62,0.48c0.16,0,0.31-0.02,0.45-0.07    c0.16-0.05,0.28-0.18,0.33-0.35c0.01-0.03,0.01-0.07,0.02-0.1c0.02-0.03,0.04-0.05,0.06-0.08c0.07-0.09,0.14-0.19,0.19-0.29    c0.11-0.02,0.3-0.02,0.42-0.03c0.21,0,0.41-0.01,0.58-0.05c0.2-0.05,0.36-0.17,0.44-0.33c0.14-0.28,0.03-0.56-0.05-0.74    c0-0.01-0.01-0.01-0.01-0.02c0.23-0.22,0.39-0.54,0.41-0.85c0.02-0.32-0.09-0.61-0.31-0.81c-0.19-0.17-0.47-0.17-0.66-0.01    c-0.04,0.04-0.22,0.05-0.34,0.06c-0.1,0.01-0.21,0.01-0.31,0.03c-0.53,0.08-0.96,0.39-1.31,0.64l-1.46,1.05    c-0.22,0.16-0.58,0.42-0.68,0.87C49.36,32.32,49.53,32.59,49.8,32.65z M52.15,30.93c0.27-0.2,0.58-0.42,0.88-0.47    c0.07-0.01,0.15-0.02,0.22-0.02c0,0,0.01,0,0.01,0c-0.25,0.23-0.24,0.54-0.18,0.76c-0.45,0.01-1.17,0.03-1.28,0.6    c-0.02,0.03-0.05,0.07-0.08,0.12c-0.04,0.05-0.09,0.12-0.14,0.2c-0.16-0.02-0.4-0.08-0.76-0.23L52.15,30.93z"/><path d="M56.45,33.34c0.12,0.04,0.23,0.05,0.33,0.05c0.1,0,0.19-0.01,0.27-0.02c1.41-0.17,2.85-0.37,4.26-0.58    c0.26-0.04,0.45-0.28,0.42-0.55c-0.09-0.79-2.08-0.97-2.1-0.97c-0.06,0-0.17,0-0.21-0.01c-0.02-0.01-0.08-0.07-0.18-0.18    c-0.86-0.9-2.79-0.33-3.63,0.18c-0.16,0.1-0.25,0.27-0.24,0.46c0.03,0.48,0.23,0.94,0.55,1.29    C56.09,33.17,56.26,33.28,56.45,33.34z M58.57,31.82c0.09,0.1,0.19,0.21,0.35,0.3c-0.66,0.09-1.33,0.18-1.99,0.25    c-0.05,0.01-0.16,0.02-0.19,0.01c0,0-0.03-0.01-0.09-0.08c-0.1-0.1-0.17-0.23-0.22-0.36C57.18,31.61,58.23,31.46,58.57,31.82z"/><path d="M62.55,34.67C62.55,34.67,62.55,34.67,62.55,34.67l3.03-0.01c0.17,0,0.33-0.09,0.42-0.24s0.1-0.33,0.02-0.49    c-0.24-0.48-0.16-1.09-0.07-1.73c0.06-0.47,0.13-0.95,0.08-1.44c-0.02-0.17-0.11-0.31-0.26-0.39c-0.15-0.08-0.32-0.08-0.47,0    l-1.89,0.99c-0.16,0.08-0.4,0.28-0.31,0.75c-0.59,0.61-1.15,1.33-1.05,2.12C62.08,34.48,62.29,34.67,62.55,34.67z M63.94,32.69    c0.18-0.18,0.21-0.4,0.19-0.57l0.89-0.47c-0.02,0.14-0.03,0.28-0.05,0.42c-0.07,0.52-0.14,1.06-0.06,1.59l-1.75,0    C63.35,33.28,63.75,32.87,63.94,32.69z"/><path d="M63.53,36.3c-0.09,0.17-0.14,0.34-0.18,0.49c-0.04,0.13-0.07,0.26-0.12,0.31c-0.19,0.2-0.19,0.52,0.01,0.71    c0.12,0.11,0.28,0.16,0.43,0.13c0.15,0.04,0.32,0.01,0.45-0.1c0.13-0.1,0.23-0.09,0.71,0.21c0.29,0.18,0.61,0.38,0.96,0.38    c0.08,0,0.16-0.01,0.25-0.03c0.29-0.08,0.52-0.29,0.7-0.62c0.2-0.37,0.79-0.7,1.32-1c0.79-0.44,1.6-0.9,1.43-1.71    c-0.03-0.14-0.12-0.26-0.24-0.33c-0.12-0.07-0.27-0.09-0.41-0.04c-0.35,0.12-0.76,0.1-1.2,0.09c-0.3-0.01-0.61-0.02-0.91,0.01    c-0.73,0.07-1.41,0.35-2,0.6C64.36,35.55,63.81,35.78,63.53,36.3z M66.82,35.8c0.26-0.02,0.52-0.01,0.78,0    c0.05,0,0.11,0,0.16,0.01c-0.07,0.04-0.14,0.08-0.2,0.11c-0.65,0.36-1.38,0.78-1.71,1.4c-0.04,0.08-0.07,0.11-0.07,0.12    c-0.09-0.01-0.3-0.15-0.43-0.22c-0.24-0.15-0.58-0.36-0.95-0.41c0-0.01,0.01-0.01,0.01-0.02c0.11-0.19,0.39-0.33,0.7-0.46    C65.66,36.09,66.24,35.85,66.82,35.8z"/><path d="M54.32,38.6c-0.24-0.13-0.49-0.15-0.72-0.17c-0.34-0.02-0.67-0.03-1.01-0.02c-0.37,0.01-0.76,0.05-1.08,0.31    c-0.36,0.29-0.48,0.7-0.57,1.04l-0.06,0.2c-0.27,0.85-1.03,1.47-1.92,2.14c-0.07,0.05-0.12,0.12-0.16,0.19    c-0.2,0.07-0.35,0.26-0.34,0.48c0.01,0.27,0.23,0.49,0.5,0.49c0,0,0.01,0,0.01,0l4.3-0.09c0.18,0,0.43-0.01,0.67-0.13    c0.36-0.18,0.56-0.58,0.47-0.94c-0.08-0.32-0.32-0.48-0.52-0.59l1.52-1.18c0.16-0.12,0.23-0.32,0.18-0.51    c-0.05-0.19-0.2-0.34-0.39-0.37c-0.07-0.01-0.18-0.16-0.28-0.28C54.78,38.97,54.6,38.74,54.32,38.6z M53.12,40.84    c-0.12,0.09-0.39,0.3-0.41,0.66c-0.02,0.33,0.15,0.53,0.33,0.67l-2.64,0.05c0.6-0.51,1.18-1.15,1.43-1.98l0.07-0.24    c0.06-0.22,0.12-0.43,0.22-0.51c0.09-0.07,0.29-0.09,0.49-0.09c0.07,0,0.15,0,0.22,0c0.23,0,0.46,0.01,0.7,0.02    c0.13,0.01,0.26,0.02,0.33,0.06c0.09,0.04,0.19,0.17,0.28,0.29c0.04,0.05,0.09,0.11,0.13,0.16L53.12,40.84z"/><path d="M45.5,30.98c0.17,0,0.33-0.08,0.42-0.23c0.14-0.22,0.09-0.51-0.11-0.67c-0.08-0.06-0.17-0.12-0.28-0.18    c-0.31-0.23-0.54-0.56-0.65-0.93l-0.03-0.12c-0.05-0.2-0.11-0.45-0.28-0.67c-0.38-0.5-1.03-0.52-1.37-0.54    c-1.21-0.05-2.72-0.11-3.96,0.67c-0.13,0.08-0.22,0.22-0.23,0.37C39,28.85,39.05,29,39.16,29.11c1,0.95,2.44,1.01,3.7,1.07    l0.17,0.01c0.42,0.02,1.44,0.32,1.95,0.57c0.09,0.06,0.18,0.12,0.28,0.17C45.34,30.97,45.42,30.98,45.5,30.98z M43.08,29.18    l-0.17-0.01c-0.83-0.04-1.67-0.07-2.35-0.35c0.76-0.22,1.64-0.21,2.61-0.17c0.16,0.01,0.52,0.02,0.62,0.15    c0.04,0.05,0.07,0.18,0.1,0.3l0.04,0.15c0.01,0.03,0.02,0.06,0.02,0.08C43.6,29.25,43.29,29.19,43.08,29.18z"/><path d="M74.64,19.71c0.03,0.01,0.07,0.01,0.1,0.01c0.23,0,0.44-0.16,0.49-0.4c0.09-0.47,0.36-0.92,0.73-1.23    c0.21-0.18,0.24-0.49,0.06-0.7c-0.18-0.21-0.49-0.24-0.7-0.06c-0.55,0.46-0.94,1.1-1.08,1.81C74.2,19.39,74.37,19.66,74.64,19.71z    "/><path d="M74.44,21.65c0.28,0,0.5-0.22,0.5-0.5v-0.56c0-0.28-0.22-0.5-0.5-0.5s-0.5,0.22-0.5,0.5v0.56    C73.94,21.43,74.16,21.65,74.44,21.65z"/><path d="M63.39,19.8c0,0,0.01,0,0.01,0c0.27,0,0.49-0.22,0.5-0.49c0.02-0.79,0.43-1.58,1.07-2.04c0.22-0.16,0.27-0.48,0.11-0.7    c-0.16-0.22-0.48-0.27-0.7-0.11c-0.89,0.65-1.45,1.73-1.48,2.83C62.89,19.56,63.11,19.79,63.39,19.8z"/><path d="M63.03,22.7c0.28,0,0.5-0.22,0.5-0.5v-0.8c0-0.28-0.22-0.5-0.5-0.5s-0.5,0.22-0.5,0.5v0.8    C62.53,22.47,62.75,22.7,63.03,22.7z"/><path d="M53.52,19.4C53.52,19.4,53.53,19.4,53.52,19.4c0.28,0,0.5-0.22,0.51-0.49c0.01-0.57,0.24-1.13,0.64-1.54    c0.19-0.2,0.19-0.51-0.01-0.71c-0.2-0.19-0.51-0.19-0.71,0.01c-0.58,0.59-0.92,1.4-0.93,2.23C53.02,19.17,53.24,19.4,53.52,19.4z"/><path d="M52.82,21.25c0.28,0,0.5-0.22,0.5-0.5v-0.4c0-0.28-0.22-0.5-0.5-0.5s-0.5,0.22-0.5,0.5v0.4    C52.32,21.03,52.55,21.25,52.82,21.25z"/><path d="M42.81,19.56c0.01,0,0.03,0,0.04,0c0.26,0,0.48-0.2,0.5-0.46c0.04-0.46,0.22-0.9,0.52-1.25c0.18-0.21,0.16-0.52-0.05-0.71    c-0.21-0.18-0.52-0.16-0.71,0.05c-0.44,0.51-0.71,1.15-0.76,1.82C42.33,19.3,42.53,19.54,42.81,19.56z"/><path d="M42.86,19.69c-0.28,0-0.5,0.22-0.5,0.5v0.64c0,0.28,0.22,0.5,0.5,0.5s0.5-0.22,0.5-0.5v-0.64    C43.36,19.91,43.14,19.69,42.86,19.69z"/><path d="M32.41,21.65c0.28,0,0.5-0.22,0.5-0.5v-0.48c0-0.28-0.22-0.5-0.5-0.5s-0.5,0.22-0.5,0.5v0.48    C31.91,21.43,32.14,21.65,32.41,21.65z"/><path d="M77.28,37.52l-1.4,0.12c-0.13,0.01-0.33,0.03-0.49,0.14c-0.06,0.02-0.24-0.01-0.35-0.02c-0.2-0.03-0.42-0.06-0.64-0.02    c-0.38-0.06-0.9,0.25-1.64,0.69c-0.19,0.11-0.37,0.22-0.51,0.3c-0.35,0.19-0.66,0.46-0.98,0.87c-0.74,0.94-1.19,2.11-1.27,3.31    c-0.01,0.19,0.08,0.36,0.24,0.46c0.08,0.05,0.17,0.07,0.26,0.07c0.09,0,0.18-0.02,0.26-0.07c0.14-0.08,0.82-0.51,1.03-0.79    l0.85-1.13c0.11-0.14,0.24-0.32,0.33-0.53c0.13-0.05,0.37-0.18,0.45-0.47c0.07-0.04,0.16-0.09,0.24-0.17    c0.84-0.15,1.51-0.56,2.17-0.96c0.54-0.33,1.05-0.64,1.63-0.8c0.25-0.07,0.4-0.32,0.36-0.57C77.77,37.67,77.54,37.48,77.28,37.52z     M72.94,39.55c-0.1,0.05-0.35,0.16-0.46,0.47c-0.13,0.06-0.33,0.18-0.42,0.44c-0.04,0.11-0.13,0.23-0.23,0.36l-0.54,0.72    c0.18-0.48,0.43-0.94,0.75-1.34c0.23-0.3,0.45-0.49,0.67-0.61c0.1-0.05,0.21-0.12,0.33-0.19C73.01,39.45,72.97,39.5,72.94,39.55z     M73.33,39.3c-0.05,0.01-0.09,0.02-0.14,0.04c0.03-0.02,0.05-0.03,0.08-0.05c0.27-0.16,0.75-0.45,0.97-0.53    c0.1,0.03,0.21,0.02,0.32-0.03c0.04-0.01,0.16,0,0.26,0.01C74.35,39.01,73.87,39.23,73.33,39.3z"/><path d="M76.98,40.65c-0.26,0.01-0.46,0.22-0.47,0.48c-0.02,0.65-0.18,0.78-0.24,0.81c-0.04,0.02-0.16,0.01-0.26,0    c-0.11-0.01-0.22-0.02-0.34-0.01c-0.54,0.03-1.26,0.4-2.31,1.22c-0.04,0.02-0.08,0.06-0.11,0.09c-0.11,0.12-0.16,0.29-0.12,0.45    c0.05,0.43,0.17,0.85,0.37,1.24c0.06,0.12,0.14,0.25,0.29,0.35c0.17,0.12,0.34,0.14,0.44,0.15l1.32,0.18c0.02,0,0.04,0,0.07,0    c0.2,0,0.38-0.12,0.46-0.3c0.08-0.18,0.25-0.33,0.46-0.5c0.16-0.13,0.31-0.27,0.44-0.42c0.8-0.92,0.69-2.19,0.52-3.32    C77.47,40.82,77.23,40.62,76.98,40.65z M76.23,43.73c-0.1,0.12-0.22,0.22-0.34,0.32c-0.18,0.15-0.37,0.32-0.53,0.53l-0.97-0.11    c-0.11-0.21-0.19-0.44-0.23-0.67c1-0.76,1.43-0.86,1.57-0.87c0.07,0,0.14,0,0.2,0.01c0.19,0.02,0.41,0.03,0.65-0.05    C76.54,43.21,76.43,43.5,76.23,43.73z"/><path d="M42.67,66.33c-0.15-0.07-0.31-0.09-0.37-0.07l-1.59,0.01c0.05-0.4,0.02-0.81-0.1-1.2c-0.06-0.2-0.17-0.48-0.44-0.66    c-0.28-0.18-0.58-0.17-0.82-0.14c-0.59,0.07-1.17,0.28-1.67,0.6c-0.13,0.08-0.22,0.23-0.23,0.38c-0.09,1.15-0.2,2.45-0.84,3.44    c-0.12,0.18-0.39,0.37-0.65,0.55c-0.47,0.33-1,0.71-1.12,1.32c-0.05,0.24,0.09,0.48,0.31,0.56c0.31,0.12,0.63,0.17,0.96,0.17    c0.57,0,1.13-0.17,1.6-0.51c0.12-0.09,0.23-0.18,0.34-0.28c0.14-0.13,0.28-0.25,0.42-0.32c0.24-0.12,0.56-0.14,0.9-0.16    c0.25-0.01,0.5-0.03,0.75-0.08c0.58-0.12,1.08-0.41,1.53-0.67c0.38-0.22,0.81-0.47,1.13-0.88c0.41-0.52,0.51-1.19,0.25-1.71    C42.94,66.53,42.82,66.4,42.67,66.33z M41.99,67.79c-0.2,0.26-0.53,0.45-0.85,0.63c-0.4,0.23-0.8,0.47-1.22,0.55    c-0.2,0.04-0.4,0.05-0.6,0.06c-0.41,0.02-0.87,0.05-1.31,0.27c-0.25,0.13-0.44,0.3-0.62,0.45c-0.09,0.08-0.18,0.16-0.27,0.22    c-0.26,0.19-0.58,0.3-0.9,0.32c0.1-0.08,0.21-0.16,0.32-0.24c0.34-0.24,0.69-0.49,0.91-0.83c0.72-1.12,0.88-2.49,0.98-3.64    c0.32-0.17,0.68-0.29,1.04-0.33c0.08-0.01,0.13-0.01,0.13-0.02c0.01,0.02,0.02,0.05,0.04,0.11c0.12,0.4,0.1,0.85-0.05,1.23    c-0.06,0.15-0.04,0.33,0.05,0.47c0.09,0.14,0.25,0.22,0.41,0.22c0,0,0,0,0,0l2.1-0.04C42.19,67.4,42.13,67.62,41.99,67.79z"/><path d="M26.06,74.92c0.45-0.67,0.45-1.49,0.46-2.1c0-0.29,0-0.69-0.18-1.06c-0.4-0.79-1.32-0.92-1.91-0.94    c-0.21-0.42-0.49-0.81-0.82-1.14c-0.09-0.09-0.35-0.35-0.71-0.35c0,0,0,0,0,0c-0.51,0-0.78,0.46-0.87,0.61l-0.54,0.91    c-0.14,0.23-0.5,0.85-0.16,1.42c0.05,0.08,0.11,0.15,0.22,0.27c0.01,0.03,0.01,0.11,0.01,0.16l-0.01,3.99    c0,0.16,0.08,0.31,0.21,0.41c0.09,0.06,0.19,0.1,0.29,0.1c0.05,0,0.1-0.01,0.16-0.02c0.31-0.1,0.5-0.34,0.64-0.51    c0.06-0.07,0.14-0.18,0.19-0.19c0.03-0.01,0.14-0.01,0.21-0.01h1.47c0.11,0,0.23-0.04,0.31-0.11c0.18-0.15,0.37-0.34,0.38-0.61    c0-0.04,0-0.08-0.01-0.12C25.62,75.42,25.87,75.21,26.06,74.92z M24.67,74.91c-0.17,0.14-0.34,0.31-0.38,0.55h-1.06    c-0.16,0-0.38,0-0.6,0.09c-0.03,0.01-0.06,0.03-0.09,0.05l0.01-2.88c0-0.15,0-0.39-0.12-0.62c-0.06-0.12-0.14-0.2-0.25-0.32    c0-0.01-0.01-0.1,0.16-0.4l0.54-0.91c0.01-0.02,0.02-0.04,0.03-0.05c0.31,0.31,0.56,0.7,0.72,1.1c0.08,0.19,0.23,0.31,0.47,0.31    c0.74-0.01,1.2,0.12,1.33,0.39c0.08,0.15,0.08,0.39,0.07,0.6c0,0.62-0.02,1.16-0.28,1.54C25.1,74.56,24.88,74.74,24.67,74.91z"/><path d="M56.01,55.86c-0.21-0.03-0.41,0.07-0.51,0.25c-0.27,0.48-0.5,0.98-0.69,1.5c-0.41-0.53-0.67-1.18-0.73-1.85    c-0.02-0.21-0.17-0.39-0.38-0.44c-0.21-0.05-0.42,0.03-0.54,0.21c-0.34,0.52-0.44,1.08-0.54,1.64c-0.07,0.39-0.14,0.75-0.28,1.07    c-0.19,0.42-0.53,0.78-0.89,1.16c-0.17,0.18-0.34,0.36-0.5,0.56c-0.19,0.23-0.4,0.52-0.47,0.89c-0.09,0.49,0.12,0.98,0.52,1.2    c0.32,0.17,0.64,0.13,0.88,0.1l0.11-0.01c0.09-0.01,0.16,0,0.11,0.02l-0.03,1.19c0,0.17,0.08,0.34,0.23,0.43    c0.08,0.05,0.18,0.08,0.27,0.08c0.08,0,0.15-0.02,0.22-0.05c0.32-0.16,0.52-0.38,0.67-0.56c0.11-0.13,0.2-0.23,0.33-0.31    c0.02-0.01,0.03-0.02,0.04-0.03c0.64-0.51,1.23-1.08,1.76-1.71c0.29-0.34,0.61-0.76,0.83-1.25c0.53-1.24,0.22-2.65,0-3.68    C56.38,56.04,56.21,55.89,56.01,55.86z M55.5,59.54c-0.16,0.38-0.43,0.72-0.67,1c-0.48,0.57-1.02,1.09-1.61,1.56    c-0.05,0.03-0.09,0.06-0.13,0.1l0-0.02c0-0.12,0.01-0.31-0.08-0.51c-0.16-0.34-0.51-0.54-0.96-0.54c-0.05,0-0.11,0-0.17,0.01    l-0.13,0.01c-0.09,0.01-0.24,0.03-0.28,0.02c-0.01-0.02-0.03-0.08-0.02-0.14c0.03-0.15,0.15-0.3,0.26-0.44    c0.15-0.17,0.3-0.34,0.46-0.51c0.4-0.42,0.81-0.86,1.07-1.44c0.17-0.37,0.25-0.75,0.32-1.13c0.28,0.54,0.66,1.02,1.13,1.41    c0.13,0.11,0.31,0.14,0.47,0.09c0.16-0.05,0.29-0.18,0.33-0.34c0.06-0.21,0.13-0.43,0.21-0.63C55.74,58.59,55.7,59.08,55.5,59.54z    "/><path d="M76.04,48.08c-0.24-0.02-0.48,0.15-0.53,0.39c-0.04,0.19-0.08,0.39-0.11,0.59c-0.15,0.33-0.43,0.66-0.71,0.98l-0.07,0.08    c-0.6,0.69-0.89,1.34-0.87,1.93l-1.21,0.38c-0.34,0.11-0.81,0.25-1.15,0.62c-0.61,0.66-0.46,1.64-0.37,2.16    c0.02,0.15,0.11,0.28,0.24,0.35c0.08,0.05,0.16,0.07,0.25,0.07c0.06,0,0.12-0.01,0.17-0.03c0.59-0.22,1.25-0.56,1.89-0.9    c0.61-0.32,1.24-0.65,1.77-0.85c0.22-0.08,0.55-0.2,0.77-0.49c0.31-0.4,0.25-0.89,0.21-1.25c-0.11-0.93-0.09-1.87,0.05-2.79    c0.09-0.24,0.14-0.49,0.13-0.76C76.48,48.31,76.29,48.1,76.04,48.08z M75.31,52.76c-0.05,0.06-0.21,0.12-0.32,0.16    c-0.59,0.22-1.25,0.56-1.89,0.9c-0.39,0.21-0.79,0.42-1.17,0.59c0-0.28,0.04-0.53,0.19-0.68c0.15-0.17,0.45-0.26,0.71-0.34    l1.63-0.5c0.13-0.04,0.24-0.13,0.3-0.25c0.06-0.12,0.07-0.26,0.02-0.39c-0.12-0.33,0.04-0.77,0.46-1.3c0,0.43,0.03,0.87,0.08,1.3    C75.34,52.41,75.37,52.67,75.31,52.76z"/><path d="M84.81,30.05c0.03,0.01,0.06,0.01,0.09,0.01c0.19,0,0.37-0.11,0.45-0.28c0.3-0.62,0.63-1.24,0.96-1.84    c0.07-0.12,0.16-0.29,0.25-0.34c0.04-0.02,0.11-0.05,0.18-0.07c0.21-0.07,0.53-0.17,0.71-0.5c0.13-0.22,0.13-0.46,0.13-0.6l0-2.39    c0-0.28-0.22-0.5-0.5-0.5c0,0,0,0,0,0c-0.28,0-0.5,0.22-0.5,0.5v0.2c-0.03,0-0.07,0.01-0.1,0.02c-0.26,0.09-0.4,0.35-0.31,0.62    c0,0-0.03,0.09-0.25,0.28l-1.17,0.99c-0.11,0.09-0.28,0.23-0.37,0.45c-0.07,0.17-0.08,0.34-0.08,0.45    c-0.02,0.85,0.01,1.71,0.1,2.55C84.42,29.83,84.59,30.01,84.81,30.05z M85.3,27.01c0.01-0.02,0.07-0.07,0.1-0.09l1.17-0.99    c0.01-0.01,0.01-0.01,0.02-0.02l0,0.52c0,0.03,0,0.08,0.02,0.08c-0.04,0.02-0.11,0.04-0.16,0.06c-0.11,0.04-0.24,0.08-0.37,0.15    c-0.33,0.19-0.51,0.51-0.63,0.72c-0.05,0.08-0.1,0.17-0.14,0.26C85.29,27.47,85.29,27.24,85.3,27.01z"/><path d="M45.62,35c0.03,0.27,0.26,0.48,0.54,0.45c0.51-0.05,1.04-0.08,1.55-0.08c0.29,0,0.45,0.06,0.47,0.07    c0.05,0.23,0.26,0.39,0.49,0.39c0.04,0,0.08,0,0.11-0.01c0.27-0.06,0.44-0.33,0.37-0.6c-0.13-0.54-0.64-0.84-1.45-0.85    c-0.54,0-1.09,0.03-1.64,0.08C45.8,34.48,45.6,34.72,45.62,35z"/><path d="M51.71,35.86c0.06,0,0.12-0.01,0.17-0.03c0.53-0.2,1.09-0.31,1.65-0.33c0.28-0.01,0.49-0.24,0.48-0.52    c-0.01-0.28-0.23-0.51-0.52-0.48c-0.67,0.02-1.33,0.15-1.96,0.39c-0.26,0.1-0.39,0.38-0.29,0.64    C51.32,35.73,51.51,35.86,51.71,35.86z"/><path d="M57.63,36.42c0.09-0.17,0.28-0.3,0.52-0.34c0.23-0.04,0.46,0.01,0.6,0.14c0.21,0.19,0.52,0.17,0.71-0.03    s0.17-0.52-0.03-0.71c-0.37-0.34-0.91-0.48-1.45-0.39c-0.54,0.09-1,0.42-1.23,0.86c-0.13,0.24-0.03,0.55,0.21,0.68    c0.07,0.04,0.15,0.06,0.23,0.06C57.37,36.69,57.54,36.59,57.63,36.42z"/><path d="M47.82,39.44c-0.56-0.1-1.15,0.06-1.58,0.43c-0.21,0.18-0.24,0.49-0.06,0.7c0.1,0.12,0.24,0.18,0.38,0.18    c0.11,0,0.23-0.04,0.32-0.12c0.21-0.17,0.5-0.25,0.77-0.21c0.27,0.05,0.53-0.14,0.58-0.41S48.09,39.49,47.82,39.44z"/><path d="M43.13,32.43c-0.67,0.13-1.32,0.39-1.88,0.77c-0.23,0.15-0.29,0.46-0.14,0.69c0.1,0.15,0.26,0.22,0.42,0.22    c0.09,0,0.19-0.03,0.28-0.08c0.46-0.3,0.98-0.52,1.52-0.62c0.27-0.05,0.45-0.31,0.4-0.58C43.67,32.56,43.41,32.38,43.13,32.43z"/><path d="M59.59,39.3c0.02-0.28-0.19-0.51-0.47-0.53c-0.72-0.05-1.46,0.29-1.91,0.87c-0.17,0.22-0.13,0.53,0.09,0.7    c0.09,0.07,0.2,0.1,0.31,0.1c0.15,0,0.3-0.07,0.4-0.19c0.24-0.32,0.65-0.5,1.05-0.48C59.35,39.79,59.57,39.58,59.59,39.3z"/><path d="M73.04,33.5c-0.17,0.22-0.13,0.53,0.09,0.7c0.09,0.07,0.2,0.11,0.31,0.11c0.15,0,0.3-0.07,0.4-0.19    c0.28-0.36,0.92-0.45,1.29-0.16c0.22,0.17,0.53,0.13,0.7-0.09c0.17-0.22,0.13-0.53-0.09-0.7C74.92,32.54,73.66,32.7,73.04,33.5z"/><path d="M71.78,32.66c0.14,0,0.28-0.06,0.38-0.18c0.31-0.37,0.77-0.62,1.25-0.68c0.27-0.03,0.47-0.28,0.44-0.56    c-0.03-0.27-0.28-0.47-0.56-0.44c-0.73,0.09-1.42,0.46-1.9,1.03c-0.18,0.21-0.15,0.53,0.06,0.7    C71.55,32.62,71.66,32.66,71.78,32.66z"/><path d="M61.2,41.06c-0.85-0.13-1.75-0.01-2.53,0.34c-0.25,0.11-0.36,0.41-0.25,0.66c0.08,0.19,0.27,0.29,0.46,0.29    c0.07,0,0.14-0.01,0.21-0.04c0.61-0.27,1.31-0.37,1.97-0.26c0.27,0.04,0.53-0.14,0.57-0.42C61.66,41.36,61.47,41.1,61.2,41.06z"/><path d="M16.28,55.7c0.12,0,0.23-0.04,0.33-0.12c0.58-0.51,1.29-0.84,2.05-0.97c0.27-0.05,0.45-0.31,0.41-0.58    c-0.05-0.27-0.3-0.45-0.58-0.41c-0.94,0.16-1.82,0.58-2.54,1.21c-0.21,0.18-0.23,0.5-0.05,0.71C16,55.64,16.14,55.7,16.28,55.7z"/><path d="M19.24,51.4c0.68-0.35,1.51-0.38,2.31-0.39c0.5-0.01,0.98,0,1.4,0.16c0.39,0.15,0.67,0.44,0.73,0.74    c0.04,0.24,0.25,0.41,0.49,0.41c0.03,0,0.06,0,0.09-0.01c0.27-0.05,0.45-0.31,0.4-0.58c-0.12-0.65-0.64-1.23-1.35-1.5    c-0.57-0.22-1.16-0.23-1.76-0.23c-0.87,0.01-1.88,0.05-2.75,0.5c-0.25,0.13-0.34,0.43-0.22,0.67    C18.69,51.43,18.99,51.52,19.24,51.4z"/><path d="M26.52,52.43c0.02,0,0.03,0,0.05,0c0.27-0.03,0.48-0.27,0.45-0.54c-0.02-0.24,0.1-0.49,0.3-0.63    c0.23-0.15,0.29-0.46,0.14-0.69c-0.15-0.23-0.46-0.29-0.69-0.14c-0.51,0.34-0.8,0.95-0.75,1.56    C26.05,52.23,26.26,52.43,26.52,52.43z"/><path d="M32.67,51.73c0.12,0,0.24-0.04,0.33-0.13c0.52-0.47,1.2-0.76,1.91-0.81c0.27-0.02,0.48-0.26,0.46-0.54    s-0.26-0.49-0.54-0.46c-0.92,0.07-1.81,0.45-2.5,1.06c-0.21,0.18-0.22,0.5-0.04,0.71C32.4,51.67,32.54,51.73,32.67,51.73z"/><path d="M33.9,49.41c0.08,0,0.17-0.02,0.24-0.06c0.08-0.04,0.18-0.06,0.27-0.03c0.27,0.07,0.54-0.08,0.62-0.35    s-0.08-0.54-0.35-0.62c-0.34-0.1-0.72-0.05-1.03,0.12c-0.24,0.13-0.33,0.44-0.19,0.68C33.56,49.32,33.73,49.41,33.9,49.41z"/><path d="M29.79,29.03c-0.48-0.05-0.94,0.14-1.19,0.51c-0.15,0.23-0.09,0.54,0.14,0.69c0.23,0.15,0.54,0.09,0.69-0.14    c0.03-0.05,0.13-0.08,0.23-0.07c0.1,0.01,0.19,0.06,0.21,0.12c0.07,0.2,0.27,0.33,0.47,0.33c0.06,0,0.11-0.01,0.17-0.03    c0.26-0.09,0.39-0.38,0.3-0.64C30.67,29.38,30.28,29.09,29.79,29.03z"/><path d="M32.81,27.75c-0.77,0.05-1.46,0.56-1.73,1.28c-0.1,0.26,0.03,0.55,0.29,0.64c0.06,0.02,0.12,0.03,0.18,0.03    c0.2,0,0.39-0.12,0.47-0.32c0.13-0.35,0.49-0.61,0.86-0.64c0.28-0.02,0.48-0.25,0.47-0.53C33.32,27.94,33.08,27.73,32.81,27.75z"/><path d="M46.97,32.82c0.03,0,0.07,0,0.1-0.01c0.27-0.06,0.44-0.32,0.39-0.59c-0.07-0.33,0.04-0.69,0.28-0.92    c0.23-0.23,0.61-0.33,0.93-0.25c0.27,0.07,0.54-0.1,0.6-0.37c0.07-0.27-0.1-0.54-0.37-0.6c-0.66-0.16-1.37,0.03-1.86,0.51    c-0.49,0.47-0.7,1.18-0.56,1.84C46.53,32.66,46.74,32.82,46.97,32.82z"/><path d="M41.54,32.25c0.17,0,0.34-0.09,0.43-0.25c0.14-0.24,0.06-0.54-0.18-0.68c-0.5-0.29-1.14-0.37-1.7-0.2    c-0.26,0.08-0.41,0.36-0.33,0.62c0.08,0.26,0.36,0.41,0.62,0.33c0.3-0.09,0.63-0.05,0.9,0.1C41.37,32.23,41.45,32.25,41.54,32.25z    "/><path d="M44.76,46.99c0.14,0,0.28-0.06,0.38-0.18c0.66-0.78,1.89-1.04,2.8-0.57c0.25,0.13,0.55,0.03,0.67-0.22    c0.12-0.25,0.03-0.55-0.22-0.67c-1.33-0.67-3.06-0.32-4.02,0.82c-0.18,0.21-0.15,0.53,0.06,0.7    C44.54,46.95,44.65,46.99,44.76,46.99z"/><path d="M47.58,41.08c-0.92-0.09-1.83,0.34-2.34,1.11c-0.15,0.23-0.09,0.54,0.14,0.69c0.09,0.06,0.18,0.08,0.28,0.08    c0.16,0,0.32-0.08,0.42-0.22c0.3-0.45,0.87-0.72,1.41-0.67c0.27,0.02,0.52-0.17,0.55-0.45S47.85,41.11,47.58,41.08z"/><path d="M54.25,36.47c-0.05,0.03-0.26-0.06-0.4-0.11c-0.24-0.1-0.54-0.22-0.87-0.2c-0.23,0.02-0.43,0.1-0.61,0.18    c-0.7,0.33-1.32,0.78-1.86,1.33c-0.19,0.2-0.19,0.52,0.01,0.71c0.1,0.09,0.22,0.14,0.35,0.14c0.13,0,0.26-0.05,0.36-0.15    c0.45-0.47,0.98-0.84,1.57-1.12c0.09-0.04,0.19-0.08,0.25-0.09c0.1-0.01,0.27,0.06,0.43,0.13c0.32,0.13,0.77,0.31,1.23,0.08    c0.25-0.13,0.34-0.43,0.22-0.67C54.8,36.44,54.5,36.34,54.25,36.47z"/><path d="M62.29,39.25c-0.22,0.16-0.27,0.48-0.11,0.7c0.16,0.22,0.48,0.27,0.7,0.11c0.38-0.27,0.96-0.24,1.3,0.07    c0.1,0.09,0.22,0.13,0.33,0.13c0.14,0,0.27-0.06,0.37-0.17c0.19-0.21,0.17-0.52-0.04-0.71C64.15,38.75,63.05,38.7,62.29,39.25z"/><path d="M87.01,30.54c-0.26,0.08-0.41,0.36-0.33,0.63c0.07,0.21,0.26,0.35,0.48,0.35c0.05,0,0.1-0.01,0.15-0.02    c0.8-0.25,1.36-1.03,1.35-1.86c-0.01-0.28-0.21-0.48-0.51-0.49c-0.28,0.01-0.5,0.23-0.49,0.51    C87.66,30.04,87.38,30.42,87.01,30.54z"/><path d="M87.58,34.82c-0.26-0.1-0.55,0.02-0.65,0.28c-0.1,0.26,0.02,0.55,0.28,0.65c0.52,0.21,0.91,0.75,0.93,1.31    c0.01,0.27,0.23,0.48,0.5,0.48c0.01,0,0.02,0,0.02,0c0.28-0.01,0.49-0.25,0.48-0.52C89.09,36.06,88.47,35.18,87.58,34.82z"/><path d="M88.38,40.39c-0.28-0.02-0.52,0.18-0.54,0.46c-0.03,0.38-0.15,0.74-0.35,1.06c-0.15,0.23-0.08,0.54,0.16,0.69    c0.08,0.05,0.17,0.08,0.26,0.08c0.17,0,0.33-0.08,0.42-0.23c0.28-0.45,0.46-0.98,0.5-1.51C88.86,40.66,88.66,40.42,88.38,40.39z"/><path d="M79.97,37.97c0.06,0,0.11-0.01,0.17-0.03c0.26-0.09,0.39-0.38,0.3-0.64c-0.08-0.23-0.1-0.47-0.06-0.71    c0.05-0.27-0.13-0.53-0.41-0.58c-0.28-0.04-0.53,0.14-0.58,0.41c-0.07,0.41-0.03,0.83,0.11,1.22    C79.57,37.84,79.76,37.97,79.97,37.97z"/><path d="M84.72,46.83c-0.27,0.04-0.46,0.3-0.42,0.57c0.04,0.28,0.02,0.57-0.07,0.84c-0.09,0.26,0.05,0.55,0.31,0.63    c0.05,0.02,0.11,0.03,0.16,0.03c0.21,0,0.4-0.13,0.47-0.34c0.14-0.42,0.18-0.87,0.11-1.31C85.25,46.97,85,46.79,84.72,46.83z"/><path d="M81.05,50.14c-0.57,0.25-1.05,0.69-1.36,1.22c-0.14,0.24-0.06,0.54,0.18,0.68c0.08,0.05,0.17,0.07,0.25,0.07    c0.17,0,0.34-0.09,0.43-0.25c0.21-0.36,0.53-0.65,0.91-0.81c0.25-0.11,0.37-0.41,0.25-0.66C81.59,50.15,81.3,50.03,81.05,50.14z"/><path d="M85.92,43.69c-0.22,0.17-0.26,0.48-0.09,0.7c0.21,0.27,0.28,0.65,0.19,0.98c-0.07,0.27,0.08,0.54,0.35,0.61    c0.04,0.01,0.09,0.02,0.13,0.02c0.22,0,0.42-0.15,0.48-0.37c0.17-0.63,0.04-1.32-0.36-1.85C86.46,43.56,86.14,43.52,85.92,43.69z"/><path d="M63.6,44.41c0.09,0,0.18-0.02,0.26-0.07c0.77-0.47,1.65-0.75,2.55-0.82c0.28-0.02,0.48-0.26,0.46-0.54    s-0.26-0.48-0.54-0.46c-1.06,0.08-2.09,0.41-3,0.96c-0.24,0.14-0.31,0.45-0.17,0.69C63.27,44.32,63.43,44.41,63.6,44.41z"/><path d="M56.73,48.24c0.03,0.01,0.06,0.01,0.09,0.01c0.24,0,0.45-0.17,0.49-0.41c0.08-0.47,0.37-0.9,0.77-1.16    c0.23-0.15,0.3-0.46,0.15-0.69c-0.15-0.23-0.46-0.3-0.69-0.15c-0.63,0.4-1.08,1.08-1.21,1.82C56.28,47.93,56.46,48.19,56.73,48.24    z"/><path d="M52.27,49.64c0.02,0,0.04,0,0.06,0c0.25,0,0.47-0.19,0.5-0.44c0.26,0.08,0.54-0.06,0.63-0.33    c0.08-0.26-0.06-0.54-0.33-0.63c-0.28-0.09-0.58-0.04-0.84,0.12c-0.26,0.17-0.42,0.43-0.46,0.71C51.8,49.36,52,49.61,52.27,49.64z    "/><path d="M41.64,52.98l4.38-0.13c0.07,0.11,0.18,0.19,0.32,0.22c0.03,0.01,0.07,0.01,0.1,0.01c0.23,0,0.44-0.16,0.49-0.4    c0.04-0.2-0.01-0.4-0.14-0.55c-0.24-0.29-0.64-0.3-0.76-0.29l-4.43,0.14c-0.28,0.01-0.49,0.24-0.48,0.52    C41.14,52.78,41.36,53.01,41.64,52.98z"/><path d="M47.42,56.29c0.08,0.05,0.18,0.08,0.27,0.08c0.17,0,0.33-0.08,0.42-0.23c0.23-0.35,0.23-0.82,0.01-1.22    c-0.22-0.4-0.61-0.65-1.03-0.66c0,0,0,0,0,0c-0.27,0-0.5,0.22-0.5,0.5c0,0.28,0.22,0.5,0.5,0.5c0.05,0,0.12,0.05,0.16,0.13    s0.05,0.16,0.02,0.21C47.12,55.83,47.19,56.14,47.42,56.29z"/><path d="M47.26,49.99c-0.26,0.09-0.4,0.38-0.31,0.64c0.09,0.26,0.38,0.4,0.64,0.31c0.27-0.1,0.61-0.03,0.83,0.15    c0.09,0.08,0.21,0.12,0.32,0.12c0.14,0,0.28-0.06,0.38-0.18c0.18-0.21,0.15-0.53-0.06-0.7C48.57,49.91,47.86,49.77,47.26,49.99z"/><path d="M52.01,53.58c0.09,0.16,0.26,0.25,0.43,0.25c0.09,0,0.17-0.02,0.25-0.07c0.24-0.14,0.32-0.45,0.18-0.69    c-0.22-0.37-0.53-0.69-0.88-0.93c-0.23-0.15-0.54-0.09-0.69,0.14c-0.15,0.23-0.09,0.54,0.14,0.69    C51.67,53.13,51.87,53.34,52.01,53.58z"/><path d="M33.73,57.52l0.48-0.17c-0.06-0.36-0.11-0.71,0-0.95c0.05-0.12,0.23-0.2,0.27-0.19c0.19,0.2,0.51,0.21,0.71,0.02    c0.2-0.19,0.21-0.51,0.02-0.71c-0.23-0.24-0.57-0.35-0.92-0.29c-0.42,0.07-0.81,0.37-0.98,0.76c-0.23,0.52-0.15,1.05-0.07,1.51    L33.73,57.52z"/><path d="M22.02,61.92c0.07,0.03,0.14,0.05,0.21,0.05c0.19,0,0.37-0.11,0.45-0.29c0.15-0.32,0.46-0.57,0.86-0.68    c0.39-0.11,0.8-0.06,1.09,0.14c0.23,0.15,0.54,0.09,0.69-0.14c0.15-0.23,0.09-0.54-0.14-0.69c-0.54-0.36-1.23-0.46-1.91-0.27    c-0.68,0.19-1.22,0.63-1.5,1.22C21.66,61.5,21.77,61.8,22.02,61.92z"/><path d="M17.27,62.56c0.09,0,0.19-0.02,0.27-0.08c0.23-0.15,0.34-0.45,0.19-0.69c0.11-0.08,0.31-0.1,0.5-0.12    c0.27-0.03,0.47-0.28,0.44-0.55c-0.03-0.27-0.28-0.48-0.55-0.44c-0.27,0.03-0.64,0.07-0.96,0.3c-0.45,0.32-0.6,0.92-0.33,1.34    C16.92,62.47,17.1,62.56,17.27,62.56z"/><path d="M19.83,66.43c-1.26,0.11-2.48,0.64-3.43,1.49c-0.21,0.18-0.22,0.5-0.04,0.71c0.1,0.11,0.24,0.17,0.37,0.17    c0.12,0,0.24-0.04,0.33-0.13c0.79-0.7,1.8-1.14,2.85-1.24c0.27-0.02,0.48-0.27,0.45-0.54C20.35,66.6,20.11,66.4,19.83,66.43z"/><path d="M15.08,64.76c-0.51-0.15-1.1-0.03-1.56,0.33c-0.46,0.36-0.73,0.89-0.71,1.42c0.01,0.27,0.23,0.49,0.5,0.49    c0.01,0,0.01,0,0.02,0c0.28-0.01,0.49-0.24,0.49-0.51c-0.01-0.22,0.11-0.44,0.32-0.6c0.21-0.16,0.46-0.22,0.67-0.16    c0.27,0.08,0.54-0.07,0.62-0.34C15.5,65.11,15.35,64.84,15.08,64.76z"/><path d="M16.33,74.71c0.25,0,0.46-0.18,0.5-0.44c0.1-0.76,0.02-1.54-0.21-2.26c-0.08-0.26-0.36-0.41-0.63-0.32    c-0.26,0.09-0.41,0.37-0.32,0.63c0.19,0.58,0.25,1.21,0.17,1.82c-0.04,0.27,0.16,0.52,0.43,0.56    C16.29,74.71,16.31,74.71,16.33,74.71z"/><path d="M17.79,77.97c-0.24-0.14-0.54-0.06-0.68,0.18l-0.98,1.7c-0.14,0.24-0.06,0.54,0.18,0.68c0.08,0.05,0.16,0.07,0.25,0.07    c0.17,0,0.34-0.09,0.43-0.25l0.98-1.7C18.12,78.42,18.03,78.11,17.79,77.97z"/><path d="M30.98,71.21c-0.24,0.14-0.31,0.45-0.17,0.69c0.25,0.42,0.23,1.01-0.06,1.41c-0.16,0.22-0.11,0.54,0.12,0.7    c0.09,0.06,0.19,0.09,0.29,0.09c0.16,0,0.31-0.07,0.41-0.21c0.51-0.72,0.56-1.75,0.1-2.51C31.53,71.14,31.22,71.07,30.98,71.21z"/><path d="M28.36,69.33c-0.27,0.04-0.47,0.29-0.43,0.56l0.33,2.46c0.03,0.25,0.25,0.43,0.5,0.43c0.02,0,0.04,0,0.07,0    c0.27-0.04,0.47-0.29,0.43-0.56l-0.33-2.46C28.89,69.48,28.63,69.29,28.36,69.33z"/><path d="M27.7,78.05c-0.3,0.38-0.93,0.49-1.33,0.23c-0.23-0.15-0.54-0.08-0.69,0.15c-0.15,0.23-0.08,0.54,0.15,0.69    c0.32,0.2,0.69,0.3,1.06,0.3c0.61,0,1.21-0.26,1.6-0.75c0.17-0.22,0.13-0.53-0.08-0.7C28.18,77.8,27.87,77.84,27.7,78.05z"/><path d="M35.31,63.9c0.01,0,0.01,0,0.02,0c0.37-0.01,0.7-0.24,0.88-0.6c0.18-0.35,0.15-0.76-0.06-1.06    c-0.16-0.23-0.47-0.29-0.7-0.13c-0.23,0.16-0.28,0.46-0.12,0.69c0,0.03-0.03,0.09-0.03,0.1c-0.28,0.01-0.49,0.24-0.48,0.52    C34.82,63.69,35.04,63.9,35.31,63.9z"/><path d="M30.06,59.29c0.13,0,0.25-0.05,0.35-0.15c0.45-0.45,0.84-0.96,1.14-1.52c0.13-0.24,0.04-0.55-0.2-0.68    c-0.24-0.13-0.55-0.04-0.68,0.2c-0.26,0.48-0.59,0.91-0.97,1.29c-0.2,0.19-0.2,0.51,0,0.71C29.81,59.25,29.94,59.29,30.06,59.29z"/><path d="M45.06,60.96c-0.28,0-0.5,0.22-0.5,0.5v1.5c0,0.28,0.22,0.5,0.5,0.5s0.5-0.22,0.5-0.5v-1.5    C45.56,61.19,45.33,60.96,45.06,60.96z"/><path d="M48.16,63.87c-0.28-0.06-0.53,0.12-0.59,0.39c-0.11,0.54-0.57,1.01-1.11,1.11c-0.27,0.05-0.45,0.31-0.4,0.59    c0.05,0.24,0.26,0.4,0.49,0.4c0.03,0,0.06,0,0.1-0.01c0.94-0.18,1.72-0.96,1.91-1.9C48.61,64.18,48.43,63.92,48.16,63.87z"/><path d="M59.44,58.81c-0.22,0.16-0.27,0.48-0.11,0.7c0.03,0.05,0.05,0.12,0.03,0.2c-0.01,0.08-0.05,0.14-0.1,0.17    c-0.23,0.15-0.3,0.46-0.15,0.69c0.1,0.15,0.26,0.23,0.42,0.23c0.09,0,0.18-0.02,0.27-0.08c0.28-0.18,0.48-0.48,0.55-0.83    c0.07-0.35-0.01-0.71-0.21-0.98C59.98,58.69,59.66,58.64,59.44,58.81z"/><path d="M61.31,53.26c-0.27-0.04-0.53,0.15-0.57,0.42c-0.04,0.31-0.16,0.6-0.34,0.85c-0.16,0.22-0.11,0.54,0.11,0.7    c0.09,0.06,0.19,0.09,0.29,0.09c0.16,0,0.31-0.07,0.41-0.21c0.27-0.38,0.45-0.83,0.52-1.29C61.77,53.55,61.58,53.3,61.31,53.26z"/><path d="M66.62,53.28c-0.25,0.11-0.36,0.41-0.25,0.66c0.06,0.13,0.08,0.29,0.04,0.44c-0.06,0.27,0.1,0.54,0.37,0.6    C66.83,54.99,66.87,55,66.9,55c0.23,0,0.43-0.15,0.49-0.38c0.09-0.36,0.05-0.75-0.11-1.08C67.17,53.28,66.87,53.17,66.62,53.28z"/><path d="M71.03,46.83c0.05,0.02,0.11,0.03,0.16,0.03c0.21,0,0.4-0.13,0.47-0.34c0.15-0.44-0.01-0.93-0.38-1.2    c-0.22-0.16-0.52-0.08-0.69,0.15c-0.16,0.22-0.1,0.57,0.12,0.74C70.62,46.45,70.76,46.74,71.03,46.83z"/><path d="M79.05,44.16c-0.03,0.27,0.17,0.52,0.45,0.55c0.02,0,0.03,0,0.05,0c0.25,0,0.47-0.19,0.5-0.45    c0.06-0.62,0.04-1.24-0.07-1.85c-0.05-0.27-0.31-0.45-0.58-0.41c-0.27,0.05-0.46,0.3-0.41,0.58C79.08,43.1,79.1,43.63,79.05,44.16    z"/><path d="M81.48,35.39c0.28,0,0.5-0.22,0.5-0.5v-0.54c0-0.28-0.22-0.5-0.5-0.5s-0.5,0.22-0.5,0.5v0.54    C80.98,35.17,81.21,35.39,81.48,35.39z"/><path d="M37.27,54.99c0.63-0.05,1.28,0.15,1.78,0.55c0.09,0.07,0.2,0.11,0.31,0.11c0.15,0,0.29-0.06,0.39-0.19    c0.17-0.21,0.14-0.53-0.07-0.7c-0.69-0.56-1.61-0.84-2.49-0.77c-0.28,0.02-0.48,0.26-0.46,0.54    C36.76,54.81,36.99,55.01,37.27,54.99z"/><path d="M33.93,59.94l-1.04,0.69c-0.23,0.15-0.29,0.46-0.14,0.69c0.1,0.15,0.26,0.23,0.42,0.23c0.09,0,0.19-0.03,0.27-0.08    l1.04-0.69c0.23-0.15,0.29-0.46,0.14-0.69C34.48,59.85,34.17,59.79,33.93,59.94z"/><path d="M40.95,64.71c0.09,0.08,0.21,0.11,0.32,0.11c0.15,0,0.29-0.06,0.39-0.18c0.34-0.42,0.29-1.08-0.12-1.44    c-0.41-0.36-1.07-0.33-1.44,0.07c-0.19,0.2-0.15,0.54,0.05,0.73c0.2,0.19,0.54,0.2,0.73,0C40.7,64.22,40.73,64.53,40.95,64.71z"/><path d="M57.35,56.9c-0.25,0.12-0.35,0.42-0.23,0.67c0.21,0.44,0.28,0.95,0.18,1.44c-0.05,0.27,0.12,0.53,0.39,0.59    c0.03,0.01,0.07,0.01,0.1,0.01c0.23,0,0.44-0.16,0.49-0.4c0.14-0.69,0.05-1.43-0.26-2.07C57.9,56.89,57.6,56.78,57.35,56.9z"/><path d="M72.81,50.81c0.03,0.01,0.06,0.01,0.09,0.01c0.24,0,0.45-0.17,0.49-0.41c0.15-0.85,0-1.74-0.42-2.5    c-0.14-0.24-0.44-0.33-0.68-0.19c-0.24,0.13-0.33,0.44-0.19,0.68c0.31,0.55,0.42,1.22,0.31,1.83    C72.35,50.5,72.54,50.76,72.81,50.81z"/><path d="M60.5,47.37c-0.27,0.05-0.45,0.31-0.4,0.58c0.05,0.27,0.31,0.45,0.58,0.4c0.12-0.02,0.27,0.05,0.32,0.16    c0.09,0.17,0.26,0.27,0.45,0.27c0.08,0,0.15-0.02,0.22-0.05c0.25-0.12,0.35-0.43,0.22-0.67C61.64,47.55,61.05,47.26,60.5,47.37z"/><path d="M25.8,45.01c0.12,0,0.25-0.05,0.35-0.14c0.29-0.28,0.55-0.6,0.77-0.94c0.15-0.23,0.08-0.54-0.16-0.69    c-0.23-0.15-0.54-0.08-0.69,0.16c-0.17,0.27-0.38,0.52-0.61,0.75c-0.2,0.19-0.21,0.51-0.02,0.71    C25.54,44.96,25.67,45.01,25.8,45.01z"/><path d="M27.3,45.71c0.07,0.03,0.15,0.05,0.22,0.05c0.18,0,0.36-0.1,0.45-0.28c0.32-0.66,0.45-1.42,0.34-2.14    c-0.04-0.27-0.29-0.46-0.56-0.43c-0.27,0.04-0.46,0.29-0.43,0.56c0.07,0.53-0.02,1.08-0.25,1.56    C26.95,45.29,27.06,45.59,27.3,45.71z"/><path d="M27.33,42.25c-0.02,0.28,0.19,0.52,0.46,0.54c0.01,0,0.03,0,0.04,0c0.26,0,0.48-0.2,0.5-0.46c0.04-0.6,0.03-1.2-0.05-1.79    c-0.04-0.27-0.29-0.47-0.56-0.43c-0.27,0.04-0.47,0.29-0.43,0.56C27.35,41.18,27.37,41.72,27.33,42.25z"/><path d="M40.38,41.04c0.07,0,0.13-0.01,0.2-0.04c0.76-0.32,1.35-1.02,1.54-1.82c0.06-0.27-0.1-0.54-0.37-0.6s-0.54,0.1-0.6,0.37    c-0.12,0.5-0.48,0.93-0.95,1.13c-0.25,0.11-0.37,0.4-0.27,0.66C40,40.93,40.18,41.04,40.38,41.04z"/><path d="M39.63,43.39c-0.01,0.28,0.2,0.51,0.48,0.52c0.01,0,0.01,0,0.02,0c0.27,0,0.49-0.21,0.5-0.48    c0.01-0.34-0.08-0.69-0.25-0.99c-0.14-0.24-0.45-0.31-0.69-0.17c-0.24,0.14-0.31,0.45-0.17,0.69    C39.6,43.08,39.64,43.24,39.63,43.39z"/><path d="M37.68,42.67c-0.28,0.02-0.48,0.26-0.46,0.54c0.01,0.16-0.04,0.33-0.14,0.46c-0.17,0.22-0.13,0.53,0.09,0.7    c0.09,0.07,0.2,0.11,0.31,0.11c0.15,0,0.3-0.07,0.4-0.19c0.25-0.32,0.38-0.74,0.35-1.15C38.19,42.86,37.96,42.65,37.68,42.67z"/><path d="M36.26,42.49c-0.36,0.12-0.74,0.18-1.13,0.19c-0.28,0-0.5,0.23-0.49,0.51c0,0.27,0.23,0.49,0.5,0.49c0,0,0.01,0,0.01,0    c0.48-0.01,0.96-0.09,1.42-0.24c0.26-0.09,0.41-0.37,0.32-0.63S36.53,42.41,36.26,42.49z"/><path d="M33.09,34.08c0.19,0.02,0.38,0.15,0.46,0.32c0.09,0.18,0.26,0.28,0.45,0.28c0.07,0,0.15-0.02,0.22-0.05    c0.25-0.12,0.35-0.42,0.23-0.67c-0.24-0.48-0.72-0.82-1.26-0.87c-0.28-0.02-0.52,0.17-0.55,0.45    C32.61,33.81,32.81,34.06,33.09,34.08z"/><path d="M33.09,34.8c-0.15-0.23-0.46-0.29-0.69-0.14c-0.11,0.07-0.26,0.1-0.39,0.06c-0.27-0.09-0.54,0.06-0.63,0.33    c-0.08,0.26,0.06,0.54,0.33,0.63c0.14,0.04,0.29,0.07,0.43,0.07c0.29,0,0.57-0.08,0.82-0.25C33.18,35.34,33.24,35.03,33.09,34.8z"/><path d="M34.48,34.89c0,0.28,0.22,0.46,0.5,0.46s0.5-0.26,0.5-0.54s-0.22-0.5-0.5-0.5s-0.5,0.22-0.5,0.5V34.89z"/></g></g></svg>