<svg xmlns="http://www.w3.org/2000/svg" viewBox="0 0 100 125.6875" x="0px" y="0px"><path d="m60.5,35.91c.83.04,1.67-.06,2.47-.27.62-.17,1.51-.4,1.66-1.14.05-.24-.02-.46-.15-.65,0-.01.01-.02.02-.04.31-1.23-.06-2.57-.95-3.47-.04-.04-.09-.07-.15-.1-.45-.98-1.22-1.73-2.22-2.15-.06-.03-.13-.03-.19-.02-1.24-.48-2.62.27-3.23,1.4-.36.66-.52,1.41-.61,2.15-.09.74-.18,1.56.05,2.28.45,1.41,1.95,1.93,3.31,1.99Zm3.17-3.34s0,0,0,0c0,.03,0,.06,0,.09,0,.07,0,.14.01.21,0,.12,0,.25-.01.37,0,.02,0,.02,0,.03,0,0,0,0,0,0,0,.03,0,.05-.01.08-.01,0-.03,0-.04-.01-.19-.04-.45-.03-.6-.17-.24-.23-.29-.75-.32-1.06-.02-.29.04-.82.42-.87.01.02.03.03.02.02.04.05.13.19.18.28.03.06.07.12.1.18.01.03.03.06.04.08,0,0,0,.02.01.03.05.12.09.24.12.36.03.12.06.24.08.36,0,0,0,0,0,.01Zm-27.16,2.54s0,0,0,0c.06.3.2.59.4.84.32.39.79.8,1.25,1.02,1.1.54,2.02-.32,2.72-1.08.36-.4.69-.84.84-1.37.18-.63.08-1.28,0-1.92-.08-.58-.09-1.25-.36-1.77-.26-.49-.59-.8-1.06-1.08-.03-.02-.05-.02-.08-.03-.01,0-.02-.01-.03-.02-.02,0-.05-.01-.07-.02,0,0,0,0,0,0-.8-.27-1.59-.23-2.35.15-.56.27-1.25.69-1.51,1.28-.06.15-.11.33-.14.51-.4,1.13-.2,2.46.39,3.48Zm.61-2.2c.31.04.65.13.69.5.05.47-.41.62-.79.62,0,0,0-.01,0-.02-.04-.13-.08-.26-.11-.39-.01-.07-.03-.13-.04-.2,0-.03,0-.06-.01-.08,0,0,0-.06,0-.07-.02-.14,0-.28,0-.42.09.03.18.05.28.06Zm10.91,19.04c.52.13,1.04.13,1.55.05,0,.06,0,.12.04.18.22.39.26.85.19,1.29-.07.45-.32.74-.79.79-.37.04-.75.06-1.12.02-.39-.04-.87-.18-1.28-.3-.43-.12-.61.54-.18.66.51.14,1.02.28,1.54.33.16.01.32,0,.48,0,.01.09.06.17.16.24.96.6,2.17.6,3.24.37.95-.2,1.91-.69,2.36-1.6.31-.13.61-.26.9-.4.4-.19.05-.78-.35-.59-.91.42-1.85.85-2.87.8-.29-.02-.59-.08-.83-.25-.31-.21-.46-.56-.55-.91-.01-.04-.03-.07-.05-.1-.05-.23-.12-.46-.24-.68.43-.14.85-.33,1.24-.56.49-.29,1.02-.62,1.3-1.13.3-.55.24-1.21.14-1.81-.21-1.28-.99-2.59-2.37-2.81-.43-.07-.62.59-.18.66.98.15,1.57.98,1.8,1.89.12.46.23,1.05.1,1.52-.13.46-.57.74-.95.98-.8.5-1.73.88-2.7.78-.96-.1-1.66-.68-2.03-1.56-.36-.84-.48-1.96.16-2.7.29-.33-.19-.82-.48-.49-.73.84-.78,2.02-.45,3.05.35,1.1,1.09,1.98,2.24,2.28Zm3.7,2.51c.41.04.82,0,1.22-.07-.38.26-.82.43-1.28.53-.71.15-1.49.18-2.19-.06.48-.18.78-.54.92-1,.05.05.1.11.15.15.34.27.74.4,1.17.45Zm-4.13-3.94s0-.06-.01-.09c0-.05,0-.09.03-.13.01-.04.04-.08.07-.11.03-.03.07-.06.11-.07.04-.02.08-.03.13-.03h.07c.06,0,.12.02.17.05.02.02.05.04.07.05.04.04.07.09.09.15,0,.03,0,.06.01.09,0,.05,0,.09-.03.13-.01.04-.04.08-.07.11-.03.03-.07.06-.11.07-.04.02-.08.03-.13.03h-.07c-.06,0-.12-.02-.17-.05-.02-.02-.05-.04-.07-.05-.04-.04-.07-.09-.09-.15Zm2.85-.18s-.07-.09-.09-.15c0-.03,0-.06-.01-.09,0-.05,0-.09.03-.13.01-.04.04-.08.07-.11.03-.03.07-.06.11-.07.04-.02.08-.03.13-.03h.07c.06,0,.12.02.17.05.02.02.05.04.07.05.04.04.07.09.09.15,0,.03,0,.06.01.09,0,.05,0,.09-.03.13-.01.04-.04.08-.07.11-.03.03-.07.06-.11.07-.04.02-.08.03-.13.03h-.07c-.06,0-.12-.02-.17-.05-.02-.02-.05-.04-.07-.05Zm30.41,18.1c-4.66,5.51-12.46,7.49-19.18,4.86-.33-.13-.37-.51-.22-.74-.15.17-.3.34-.46.5-1.78,1.83-4.16,2.82-6.54,3.61-.95.32-2.35,1.05-3.26.29-.7-.59-.73-1.66-.59-2.49.43-2.54,1.72-5.09,3.25-7.12.37-.5.76-.88,1.34-1.12.57-.23,1.18-.37,1.75-.62,1.25-.54,2.36-1.33,3.3-2.3.41-.42,1.06.22.65.65-.91.94-1.96,1.72-3.14,2.29-.55.27-1.12.47-1.7.66-.8.25-1.21.63-1.7,1.31-.46.64-.89,1.34-1.29,2.07.4-.42.85-.79,1.36-1.1.38-.23.72.36.35.59-.83.51-1.52,1.2-2.02,2.04-.52.87-.84,1.82-1.16,2.78-.02.07-.06.11-.1.15-.05.33-.06.74.04,1.08.36-1.04,1.02-1.95,1.78-2.74.95-.99,2.03-1.86,3.06-2.76.33-.29.82.19.48.49-.98.86-1.99,1.69-2.91,2.61-.83.84-1.55,1.81-1.87,2.96.28.04.61-.08.9-.17.59-.18,1.17-.37,1.75-.57.16-.32.37-.62.6-.89.3-.37.64-.72.99-1.05.66-.63,1.35-1.22,2.08-1.77.15-.11.38-.02.47.12.1.17.02.36-.12.47-.64.49-1.33,1.08-1.94,1.67-.34.33-.69.68-.99,1.06.15-.06.3-.11.45-.17,1.07-.44,2.12-.99,3.05-1.69.99-.76,1.75-1.74,2.57-2.67,1.58-1.79,3.49-3.27,5.62-4.36.52-.27.98.52.46.79-1.35.7-2.63,1.54-3.77,2.55-.98.86-1.79,1.87-2.66,2.83.1-.1.23-.14.41-.08,6.45,2.53,13.82.67,18.29-4.62.38-.45,1.02.2.65.65Zm12.81-38.99c-3.12-.08-6.19.21-9.21.78-1.32-1.87-2.88-3.56-4.46-5.21-.7-.73-1.39-1.47-2.23-2.04-.82-.56-1.76-.94-2.7-1.25.14-.23.27-.46.4-.68.88-1.51,1.81-3.04,2.18-4.76.38-1.76.29-3.57.15-5.36-.12-1.58-.28-3.2-1.31-4.49-.86-1.08-2.16-1.8-3.51-2.06-3.15-.61-6.19,1.13-8.34,3.29-1.87,1.88-3.23,4.18-4.42,6.54-3.52-1.87-7.68-1.58-11.52-1.27-1.63.13-3.17.51-4.72,1.02-1.79.58-3.61,1.24-5.25,2.15-.53.29-1.05.62-1.56.97-2.41-.88-4.94-1.38-7.5-1.56-1.34-.09-2.69-.1-4.04-.04-1.16.05-2.43.04-3.52.46-2.36.92-2.41,3.62-1.76,5.69.65,2.08,1.51,4.27,3,5.9.85.93,1.9,1.56,3.09,1.96,1.49.51,3,.93,4.5,1.39.01,0,.02,0,.03,0,.16,1.81.33,3.63.54,5.43-.14,0-.29.05-.39.21-.44.75-.81,1.52-1.13,2.32-4.13-1.08-8.33-1.91-12.57-2.46-2.31-.3-4.63-.52-6.95-.65-.44-.03-.44.66,0,.69,6.5.39,12.96,1.42,19.26,3.07-.6,1.64-.97,3.35-1.15,5.09-4.98.65-9.9,1.76-14.68,3.32-2.62.86-5.2,1.86-7.72,2.97-.4.18-.05.77.35.59,6.99-3.1,14.43-5.18,22-6.19-.12,1.49-.13,2.99-.03,4.47.04.59.09,1.19.15,1.78-.8.33-1.59.68-2.38,1.05-2.23,1.07-4.34,2.36-6.31,3.87-2.03,1.56-3.9,3.3-5.79,5.03-2.31,2.11-4.62,4.22-6.93,6.34-.33.3.16.78.48.49,2-1.83,4.01-3.66,6.01-5.5,1.91-1.75,3.8-3.52,5.81-5.16,2.8-2.27,5.9-4.01,9.18-5.4.2,1.68.47,3.35.76,5.01.41,2.35.79,4.72,1.53,6.99,1.47,4.47,4.66,7.85,7.71,11.3.85.96,1.7,1.92,2.55,2.88.13.14.25.29.38.43-2.53-.13-5.06-.08-7.58.17-1.07.11-2.27.15-3.23.69-.78.45-1.3,1.22-1.66,2.02-.28.64-.95,1.86-.44,2.5.26.32.72.46,1.1.6.57.21,1.15.34,1.75.42,2.32.31,4.55-.52,6.74-1.17,2.65-.79,5.3-1.58,7.95-2.37.2.05.4.1.6.14,1.23.29,2.47.57,3.7.84,5.58,1.22,11.21,2.24,16.86,3.06-.71.68-1.5,1.28-2.42,1.73-1.22.59-2.56,1.03-3.55,2-.71.69-1.56,2.03-1.18,3.09.17.46,1.1.66,1.52.77.63.17,1.28.24,1.93.24,1.28,0,2.56-.3,3.74-.8,2.52-1.06,4.52-3.03,6.34-5.02.47-.51,1.04-1.02,1.39-1.63.34-.59.3-1.18.18-1.81,1.11-.57,2.15-1.24,3.14-1.99,1.65.22,3.17.86,4.53,1.81.73.51,1.27,1.1,1.23,2.04-.04.9-.53,1.67-1.12,2.32-1.24,1.34-2.73,2.48-4.1,3.68-.67.59-1.44,1.15-2.02,1.83-.45.53-.79,1.21-.5,1.9.09.22.3.4.56.32,4.29-1.32,8.26-3.63,11.52-6.73,1.57-1.5,3.05-3.3,3.32-5.54.27-2.22-.85-4.03-2.68-5.2-1.73-1.11-3.81-1.54-5.83-1.31.76-.96,1.48-1.96,2.14-2.98,1.45-2.22,2.72-4.56,3.95-6.91,1.23-2.35,2.5-4.7,3.33-7.23.8-2.43,1.12-5.04.41-7.53-.69-2.43-2.1-4.59-2.95-6.97-.09-.26-.17-.53-.26-.79.33.06.66.11.98.17.43.08.62-.58.18-.66-.47-.09-.94-.17-1.41-.25-1.34-4.33-2.09-8.87-4.49-12.79-.14-.24-.31-.46-.47-.69.03,0,.06-.01.09-.02,2.88-.52,5.79-.76,8.71-.68.44.01.44-.67,0-.69Zm-16.53-5.79c.7.45,1.29,1.04,1.86,1.64,1.57,1.63,3.14,3.29,4.48,5.12-4.71.98-9.29,2.61-13.72,4.56.24-1.64.41-3.3.24-4.95-.06-.6-.16-1.18-.3-1.76,2.04-1.53,3.55-3.58,4.88-5.74.89.29,1.77.62,2.57,1.13Zm-40.89-5.93c-.78.62-1.5,1.32-2.09,2.11-.04.06-.07.11-.08.17-.14-.28-.29-.55-.47-.8-.58-.79-1.43-1.26-2.32-1.63-.92-.38-1.84-.71-2.73-1.15-.04-.02-.09-.04-.13-.06.31,0,.63.01.94.03,2.35.14,4.66.59,6.89,1.33Zm-8.59,11.17c-1.07-.33-2.13-.67-3-1.4-1.5-1.25-2.35-3.13-3.01-4.93-.66-1.81-1.64-4.94.87-5.82,1.04-.36,2.24-.34,3.32-.38.14,0,.27,0,.41,0,.73.15,1.44.39,2.11.74.81.41,1.65.7,2.49,1.04.87.34,1.75.79,2.28,1.59.68,1.04,1.13,2.28,1.65,3.4.19.4.78.05.59-.35-.3-.64-.6-1.28-.9-1.93-.07-.15-.14-.31-.22-.46.2.13.5.14.68-.1.68-.89,1.51-1.64,2.42-2.29.08-.03.15-.07.19-.14,1.9-1.31,4.15-2.2,6.26-2.91,1.35-.45,2.73-.89,4.15-1.05,1.88-.21,3.81-.31,5.7-.28,2.12.04,4.24.37,6.13,1.38,0,0,0,0,.01,0-.3.62-.59,1.23-.88,1.85-.25.53.54.99.79.46,1.21-2.58,2.45-5.21,4.21-7.47-.03.17-.05.34-.07.51-.16,1.39-.26,2.76-.02,4.14.12.72.28,1.42.31,2.15.03.7-.02,1.39-.07,2.09-.09,1.46-.18,2.92-.27,4.38-.03.44.66.44.68,0,.08-1.32.16-2.63.24-3.95.08-1.28.17-2.53-.05-3.8-.23-1.35-.38-2.59-.25-3.97.08-.92.12-1.98.57-2.81,1.68-1.79,3.85-3.29,6.33-3.43,1.36-.08,2.78.32,3.83,1.21,1.19,1.01,1.53,2.43,1.66,3.93.14,1.59.28,3.22.09,4.82-.2,1.7-.93,3.16-1.77,4.62-1.57,2.74-3.21,5.59-5.73,7.57-.42-1.29-1.06-2.5-1.95-3.56-.38-.45-1.02.2-.65.65,1.3,1.55,2.03,3.52,2.25,5.53.21,1.83-.02,3.67-.29,5.48-1.6.72-3.17,1.48-4.73,2.26-2.64,1.33-5.24,2.72-7.85,4.11-.39.21-.04.8.35.59,3.97-2.13,7.99-4.27,12.1-6.16-.26,1.61-.58,3.21-1.03,4.78-.16.57-.36,1.12-.57,1.67-.2,0-.4,0-.6.02-2.36.1-4.72.27-7.07.52-.43.05-.44.73,0,.69,2.45-.26,4.92-.43,7.38-.52-.39.91-.84,1.8-1.34,2.67-.31-.07-.61-.16-.92-.22-1.67-.38-3.34-.76-5.06-.52-.43.06-.25.72.18.66,1.73-.25,3.46.24,5.13.62.1.02.2.05.29.07-1.14,1.83-2.49,3.51-4.12,4.94-1.91,1.82-4.44,3.26-6.9,4.15-2.7.98-5.75.55-8.42-.36-3.29-1.13-5.92-3.39-8.07-6.07-.02-.03-.04-.05-.06-.08.93-.27,1.85-.54,2.78-.8.42-.12.24-.78-.18-.66-1.02.29-2.04.58-3.05.88-.96-1.26-1.79-2.58-2.47-3.97,2.72-.16,5.45-.17,8.18-.05.44.02.44-.67,0-.69-2.83-.12-5.66-.08-8.48.09-.51-1.15-.91-2.36-1.19-3.62.38.11.76.22,1.14.34,2.19.68,4.35,1.44,6.49,2.27.41.16.59-.5.18-.66-2.62-1.01-5.28-1.91-7.97-2.7-.36-1.94-.52-3.92-.72-5.88-.21-2.16-.43-4.32-.64-6.48-.06-.58-.97-.59-.91,0,.09.87.16,1.74.24,2.61-1.08-.33-2.15-.66-3.23-.99Zm4.01,8.52c.07.56.14,1.13.23,1.69.01.08.03.16.05.25-.36-.1-.71-.19-1.07-.29.23-.56.5-1.11.79-1.64Zm-1.05,2.28c.49.13.97.27,1.46.41.27,1.36.65,2.7,1.18,3.98-1.25.09-2.5.21-3.74.36.19-1.62.53-3.22,1.1-4.75Zm-1.17,5.45c1.36-.17,2.73-.3,4.1-.4.69,1.48,1.57,2.87,2.55,4.17-2.22.66-4.42,1.38-6.57,2.23-.19-1.99-.26-4.01-.08-6Zm10.7,37.43c-2.01.6-4.04,1.37-6.12,1.72-.13.02-.26.03-.39.05.31-.42.7-.79,1.08-1.14.49-.45,1.09-.73,1.69-1,.17-.08.21-.32.12-.47-.1-.17-.3-.2-.47-.12-.66.3-1.29.61-1.83,1.1-.51.47-1.04.99-1.41,1.59-.02.03-.02.06-.03.09-.6,0-1.21-.05-1.8-.19.21-.6.5-1.18.9-1.68.23-.28.48-.55.75-.78.26-.22.56-.43.91-.44.44,0,.44-.69,0-.69-.87,0-1.6.75-2.11,1.38-.5.61-.88,1.31-1.13,2.05-.32-.08-.64-.19-.75-.33-.18-.23.16-.9.26-1.18.29-.77.69-1.57,1.41-2.01.87-.54,2.08-.54,3.06-.63,2.45-.23,4.92-.28,7.38-.15.28.01.42-.19.44-.41.48.52.98,1.01,1.58,1.39.31.2.65.35.99.49-1.52.45-3.04.9-4.56,1.36Zm42.47-4.07c3.49-.83,9.11,1.06,8.4,5.51-.33,2.05-1.79,3.66-3.25,5.03-1.43,1.34-3,2.52-4.68,3.53-1.79,1.08-3.69,1.93-5.67,2.59.19-.73,1.27-1.43,1.72-1.82.77-.68,1.55-1.36,2.32-2.04,1.32-1.16,2.97-2.32,3.55-4.06.25-.75.27-1.59-.04-2.32-.32-.74-.96-1.23-1.61-1.67-1.2-.81-2.51-1.36-3.9-1.66,1.11-.94,2.13-1.97,3.08-3.07.02,0,.05,0,.07,0Zm7.52-30.66c.48,1.1,1.04,2.16,1.53,3.26,1.07,2.39,1.35,4.83.76,7.39-.58,2.51-1.74,4.84-2.92,7.11-1.17,2.26-2.35,4.52-3.67,6.71-2.67,4.43-6.04,8.58-10.65,11.06-.32-1.54-.65-3.08-.98-4.62-.12-.58-1-.33-.88.24.22,1.05.45,2.11.67,3.16.12.55.23,1.09.35,1.64.02.08.04.16.06.25,0,.07.02.15.05.21.09.35.17.72.1,1.05-.08.43-.45.77-.73,1.08-.31.34-.61.67-.92,1.01-.62.67-1.25,1.32-1.92,1.94-1.12,1.03-2.47,1.98-3.93,2.6.03-.04.06-.08.09-.12.22-.27.45-.54.69-.8.48-.51,1-.99,1.55-1.43.15-.12.12-.36,0-.49-.14-.14-.34-.12-.48,0-.62.49-1.19,1.02-1.72,1.61-.27.3-.52.6-.77.92-.12.16-.23.32-.35.48-.05.07-.09.14-.11.22-.8.24-1.62.36-2.45.33.08-.25.18-.51.29-.73.16-.35.35-.68.56-1,.2-.3.43-.59.67-.85.13-.14.26-.27.39-.39.1-.09.24-.23.38-.25.18-.02.34-.14.34-.34,0-.17-.16-.36-.34-.34-.49.06-.83.39-1.15.73-.31.32-.6.68-.85,1.05-.25.37-.47.76-.65,1.16-.1.22-.18.43-.26.66-.03.08-.06.16-.08.24-.55-.08-1.1-.23-1.64-.47-.06-2.63,3.64-3.34,5.38-4.48,2.06-1.35,3.46-3.45,4.78-5.48.32-.49-.47-.95-.79-.46-.77,1.18-1.56,2.36-2.5,3.4-.04-.12-.13-.22-.3-.25-4.86-.7-9.7-1.55-14.51-2.55-2.12-.44-4.25-.89-6.35-1.42-.09-.15-.26-.25-.49-.19-.04.01-.09.03-.13.04-.05-.01-.11-.02-.16-.04-1.11-.29-2.06-.73-2.88-1.54-.83-.81-1.57-1.73-2.34-2.6-1.56-1.76-3.16-3.51-4.67-5.31-.3-.36-.59-.72-.88-1.09.07.08.17.14.31.15.98.07,1.97.13,2.95.22.6.05.72.3,1.05.79.27.39.53.78.8,1.17.75,1.1,1.56,1.95,2.65,2.72.74.52,1.53,1.05,2.35,1.43.68.32,1.37.06,1.77-.53,1.2-.15,2.07-1.36,2.65-2.35.73-1.26.33-2.86-.27-4.1-.59-1.21-1.54-2.24-2.67-2.95-.55-.35-1.17-.62-1.8-.8-.78-.22-1.58-.17-2.37-.31-1.71-.3-2.44-2.1-2.98-3.55-.2-.55-1.09-.31-.88.24.51,1.38,1.12,2.89,2.41,3.72.78.5,1.65.52,2.54.6.82.07,1.61.32,2.33.72,1.4.79,2.5,2.11,2.95,3.65.13.43.22.88.22,1.33,0,.54-.23.94-.53,1.38-.13.18-.27.39-.43.6-.08-2.22-1.33-4.35-3.25-5.49-.38-.23-.73.37-.35.59,1.93,1.14,3.04,3.36,2.88,5.58-.16.1-.32.18-.5.22-.17-.9-.52-1.71-1.06-2.48-.63-.91-1.23-1.93-2.22-2.49-.38-.22-.73.37-.35.59.88.5,1.42,1.44,1.98,2.25.51.74.87,1.5,1.01,2.39-.26.52-.59.43-.95.23,0-.03.01-.05,0-.07-.12-.86-.36-1.72-.88-2.43-.51-.7-1.19-1.23-1.88-1.74-.15-.11-.38-.02-.47.12-.1.18-.03.36.12.47.6.46,1.23.93,1.67,1.55.35.5.55,1.07.67,1.66-.79-.47-1.56-.97-2.25-1.57-1.08-.95-1.72-2.26-2.57-3.41-.44-.59-.97-.63-1.67-.68-.91-.07-1.82-.13-2.72-.2-.43-.03-.54.45-.34.73-1.05-1.34-2-2.77-2.7-4.32-.96-2.12-1.45-4.43-1.86-6.71-.44-2.4-.87-4.81-1.14-7.24.95-.38,1.9-.74,2.87-1.08,1.35-.46,2.71-.89,4.07-1.29,2.14,2.73,4.65,5.05,7.9,6.41,1.47.61,3.02.99,4.6,1.18,1.45.18,2.97.21,4.38-.19,1.51-.42,2.96-1.14,4.32-1.92,1.36-.78,2.7-1.66,3.84-2.75,1.72-1.51,3.22-3.34,4.44-5.35,1.28.3,2.55.61,3.82.94,1.61.42,3.21.86,4.8,1.35,1.47.46,2.91,1.01,4.15,1.95.35.27.69-.33.35-.59-1.26-.95-2.73-1.53-4.22-1.99-1.69-.53-3.4-.99-5.11-1.44-1.13-.3-2.28-.56-3.42-.84.54-.95,1.01-1.94,1.41-2.94,5.42-.15,10.85.1,16.23.76,1.68.21,3.35.47,5.01.76.32,1.01.67,2.01,1.09,2.98Zm-1.33-3.72c-6.86-1.16-13.82-1.66-20.77-1.48.1-.28.2-.56.29-.84.59-1.93.99-3.93,1.29-5.93,0-.04.01-.07.02-.11,4.59-2.05,9.32-3.75,14.26-4.75,2.69,3.95,3.55,8.6,4.91,13.11Z"/></svg>