<svg xmlns="http://www.w3.org/2000/svg" viewBox="0 0 64 80" x="0px" y="0px"><title>snail</title><g data-name="Layer 47"><path d="M59.69452,20.96l.53027-6.48926a2.97423,2.97423,0,0,0,1.35334-.76641v-.001a2.99892,2.99892,0,0,0,0-4.24219,3.07252,3.07252,0,0,0-4.24219,0,2.98546,2.98546,0,0,0,.89428,4.85254l-.48767,5.96838a5.57776,5.57776,0,0,0-2.55059.17975A40.68629,40.68629,0,0,0,52.69189,13.801c.03833-.03449.08173-.05982.11866-.09668v-.001a3.00364,3.00364,0,1,0-2.1211.877c.0506,0,.10047-.01184.151-.0144a38.95467,38.95467,0,0,1,2.53833,6.87817,5.57081,5.57081,0,0,0-1.72546,2.34717l-.70215,1.8291a13.24932,13.24932,0,0,1-6.293,7.03278,14.39615,14.39615,0,0,0-15.45892-6.16852,20.1474,20.1474,0,0,0-15.209,16.97363,7.13713,7.13713,0,0,0,.07416,2.25165L3.81055,48.95239a3.30906,3.30906,0,0,0,.998,6.46387H45.5a17.019,17.019,0,0,0,17-17V25.803A5.577,5.577,0,0,0,59.69452,20.96ZM49.68945,11.58228a1,1,0,1,1,1.707.706v.001a1.0014,1.0014,0,0,1-1.41406-.001A.98727.98727,0,0,1,49.68945,11.58228Zm9.06153-.707a.9992.9992,0,1,1,1.41308,1.41309v.001a1.02067,1.02067,0,0,1-1.41406-.001.99728.99728,0,0,1,.001-1.41309Zm-42.77637,32.834A18.13622,18.13622,0,0,1,29.666,28.42993a12.51713,12.51713,0,0,1,2.92578-.34863,12.44592,12.44592,0,0,1,12.06543,9.53418,10.646,10.646,0,0,1-1.04785,7.17773,8.36124,8.36124,0,0,1-5.21485,4.46387,5.714,5.714,0,0,1-.93262.14453l-.12182.00006a5.65978,5.65978,0,0,1-5.801-4.34576,3.71354,3.71354,0,0,1,2.7461-4.48047,2.32538,2.32538,0,0,1,2.80566,1.71875,1.35012,1.35012,0,0,1-.38672,1.29687,1.00032,1.00032,0,0,0,1.37305,1.45508,3.35878,3.35878,0,0,0,.959-3.21875,4.32771,4.32771,0,0,0-5.21777-3.19726,5.71587,5.71587,0,0,0-4.22461,6.89258,7.65306,7.65306,0,0,0,2.3197,3.8825l-10.96716.00714h-.002a4.92378,4.92378,0,0,1-3.74121-1.68847A5.10032,5.10032,0,0,1,15.97461,43.70923ZM60.5,38.41626a15.01641,15.01641,0,0,1-15,15H4.80859a1.30936,1.30936,0,0,1-.39453-2.55762L14.72546,47.598a6.94065,6.94065,0,0,0,6.21888,3.81439h.0039L36.88293,51.402c.05677.00122.11084.01422.16785.01422.16895,0,.33985-.00586.51074-.0166a7.72685,7.72685,0,0,0,1.29981-.19727A10.34554,10.34554,0,0,0,45.38184,45.72a12.63875,12.63875,0,0,0,1.31579-8.06177c.068-.03308.13812-.06256.20569-.09643a.37472.37472,0,0,0-.33594-.66992l-.03515.01641a14.564,14.564,0,0,0-.89313-2.51379,15.23052,15.23052,0,0,0,7.17926-8.05731l.70215-1.8291A3.60986,3.60986,0,0,1,60.5,25.803Zm-6.335-7.334a19.118,19.118,0,0,1-1.16113,1.58886.3755.3755,0,0,1-.582-.47461,17.75359,17.75359,0,0,0,1.11425-1.52441.37542.37542,0,1,1,.62891.41016Zm-3.16992,3.19335a.37438.37438,0,0,1-.03125.5293,19.15423,19.15423,0,0,1-1.53516,1.23047.37508.37508,0,1,1-.4375-.60937,18.37774,18.37774,0,0,0,1.47461-1.18165A.37522.37522,0,0,1,50.99512,34.27563Zm4.97363-6.72851q-.1831.47754-.3916.94141a.37461.37461,0,0,1-.6836-.30665q.19923-.4453.376-.90429a.37468.37468,0,1,1,.69922.26953ZM36.28027,31.83521a.37588.37588,0,0,1,.5-.17579,10.10205,10.10205,0,0,1,.91309.49707.375.375,0,0,1-.19629.69434.37.37,0,0,1-.19629-.05566,9.33428,9.33428,0,0,0-.84473-.46A.3747.3747,0,0,1,36.28027,31.83521ZM19.38477,40.7356a15.45707,15.45707,0,0,1,.88476-1.99024.37483.37483,0,0,1,.66211.35156,14.82253,14.82253,0,0,0-.8418,1.89454.37552.37552,0,0,1-.35254.24707.36805.36805,0,0,1-.12792-.02247A.37561.37561,0,0,1,19.38477,40.7356Zm11.68066-9.53711a.37486.37486,0,0,1,.32617-.418,9.70269,9.70269,0,0,1,2.207-.02051.37514.37514,0,1,1-.0791.74609,8.98877,8.98877,0,0,0-2.03613.01856.37394.37394,0,0,1-.418-.32617Zm-4.94629,1.88086a.37548.37548,0,0,1,.14063-.51172,15.42109,15.42109,0,0,1,1.96484-.93848.37484.37484,0,0,1,.27539.69727,14.64946,14.64946,0,0,0-1.86914.89355.376.376,0,0,1-.51172-.14062ZM22.14063,36.5686a.37574.37574,0,0,1-.0459-.52832,15.40968,15.40968,0,0,1,1.5166-1.56445.37484.37484,0,1,1,.5.55859A14.73335,14.73335,0,0,0,22.669,36.52271a.375.375,0,0,1-.52832.04589Zm-3.64454,8.3711c.02246-.34278.05762-.68457.10352-1.02442a.37552.37552,0,1,1,.74414.10157q-.06593.48339-.09961.97363a.374.374,0,0,1-.374.34961l-.02539-.001A.375.375,0,0,1,18.49609,44.9397Z"/></g></svg>