<svg xmlns="http://www.w3.org/2000/svg" xmlns:xlink="http://www.w3.org/1999/xlink" xml:space="preserve" style="shape-rendering:geometricPrecision;text-rendering:geometricPrecision;image-rendering:optimizeQuality;" viewBox="0 0 173.397 216.74624999999997" x="0px" y="0px" fill-rule="evenodd" clip-rule="evenodd"><defs><style type="text/css">
   
    .fil1 {fill:none}
    .fil0 {fill:black;fill-rule:nonzero}
   
  </style></defs><g><path class="fil0" d="M82.3838 58.5764c1.4234,0.0261 2.8623,0.0396 4.3149,0.0396 1.4525,0 2.8914,-0.0135 4.3148,-0.0396l0 100.008c0,1.1849 -0.4859,2.2635 -1.2686,3.0462 -0.7827,0.7826 -1.8613,1.2686 -3.0463,1.2686 -1.185,0 -2.2636,-0.4859 -3.0462,-1.2686 -0.7827,-0.7826 -1.2686,-1.8612 -1.2686,-3.0462l0 -100.008z"/><path class="fil0" d="M57.0799 56.5574c2.7163,0.4169 5.6102,0.778 8.6497,1.0764l-27.3494 102.069c-0.2663,0.9944 -0.871,1.6865 -1.6661,2.1455 -1.0664,0.6157 -2.4962,0.8568 -3.9785,0.8568l-0.0002 0c-0.202,0 -0.3888,-0.0245 -0.5599,-0.0703 -0.6582,-0.1763 -1.2055,-0.6791 -1.5991,-1.3424 -0.4441,-0.7483 -0.687,-1.681 -0.687,-2.61 0,-0.4211 0.0495,-0.8329 0.1521,-1.2159l27.0384 -100.909z"/><path class="fil0" d="M116.317 56.5574l27.0384 100.909c0.1026,0.383 0.1521,0.7947 0.1521,1.2159 0,0.9292 -0.2428,1.8618 -0.6869,2.6102 -0.3936,0.663 -0.9409,1.1658 -1.5993,1.3422 -0.1711,0.0458 -0.3579,0.0703 -0.5599,0.0703l-0.0001 0c-1.4394,0 -2.828,-0.2263 -3.8829,-0.8 -0.0308,-0.0213 -0.0626,-0.0415 -0.0955,-0.0605l-0.0016 0.0029c-0.7943,-0.459 -1.3985,-1.1508 -1.6646,-2.1447l-27.3493 -102.069c3.0395,-0.2984 5.9337,-0.6595 8.6496,-1.0764z"/><path class="fil0" d="M123.548 13.9486c-9.4045,-2.1314 -22.431,-3.4499 -36.8494,-3.4499 -14.4184,0 -27.4449,1.3185 -36.8494,3.4499 -8.8392,2.0034 -14.3067,4.5195 -14.3067,7.0731 0,2.5535 5.4674,5.0697 14.3066,7.073 9.4046,2.1314 22.4311,3.4499 36.8495,3.4499 14.4184,0 27.4449,-1.3185 36.8495,-3.4499 8.8392,-2.0033 14.3066,-4.5195 14.3066,-7.073 0,-2.5536 -5.4675,-5.0697 -14.3067,-7.0731z"/><path class="fil0" d="M105.817 55.0289c-0.0202,0.0014 -0.0402,0.0031 -0.0605,0.0053 -4.2199,0.3746 -8.7114,0.628 -13.3912,0.742l-0.004 0.0001c-1.8595,0.0453 -3.7487,0.0688 -5.6627,0.0688 -1.914,0 -3.8032,-0.0235 -5.6629,-0.0688l-0.0037 -0.0001c-4.6787,-0.114 -9.1692,-0.3675 -13.3882,-0.7418 -0.0234,-0.0026 -0.0466,-0.0047 -0.0699,-0.0061l-0.0035 -0.0002 -0.0005 -0.0001c-4.0068,-0.3571 -7.7675,-0.8233 -11.2117,-1.3821 -0.0482,-0.0104 -0.0963,-0.0183 -0.1443,-0.0235 -2.2666,-0.3705 -4.3953,-0.781 -6.3647,-1.2273 -8.8392,-2.0034 -14.3067,-4.5194 -14.3067,-7.0731l0 -19.861c2.7771,2.1116 7.5234,3.9288 13.7005,5.3288 9.6115,2.1784 22.8563,3.5258 37.4556,3.5258 14.5993,0 27.8441,-1.3474 37.4556,-3.5258 6.1771,-1.4 10.9234,-3.2172 13.7005,-5.3288l0 19.861c0,2.5537 -5.4675,5.0697 -14.3067,7.0731 -1.97,0.4464 -4.0993,0.857 -6.3666,1.2276 -0.0467,0.0052 -0.0939,0.0128 -0.1408,0.023 -3.4476,0.5594 -7.2124,1.026 -11.2236,1.3832z"/></g><rect class="fil1" width="173.397" height="173.397"/></svg>