<svg xmlns="http://www.w3.org/2000/svg" viewBox="0 0 64 80" x="0px" y="0px"><title>Slice-toast-toaster,bread</title><path d="M55.485,23.719A11.928,11.928,0,0,0,57.857,16.6V15.563A11.577,11.577,0,0,0,46.294,4H23.4A17.073,17.073,0,0,0,10.7,9.157a13.466,13.466,0,0,1,6.862-1.884H40.456A13.579,13.579,0,0,1,54.02,20.836v1.04a13.939,13.939,0,0,1-2.773,8.315l-.032.044,1.731,28.559L56.889,55.3,55.034,24.716a1,1,0,0,1,.2-.66Z"/><path d="M49.4,29.329l.252-.337a11.93,11.93,0,0,0,2.373-7.116v-1.04A11.577,11.577,0,0,0,40.456,9.273H17.563a11.578,11.578,0,0,0-11.5,10.342c0,.127-.02.26-.02.385h0c-.02.277-.042.554-.042.836a11.778,11.778,0,0,0,3.474,8.386,1,1,0,0,1,.291.767L7.945,60H51.016L49.2,29.989A1,1,0,0,1,49.4,29.329ZM44.339,12.293l1.414,1.414-33,33-1.414-1.414Zm-8.586.414-23,23-1.414-1.414,23-23Zm-9.414-2.414,1.414,1.414-15,15-1.414-1.414ZM8.753,20.707,7.339,19.293l8-8,1.414,1.414Zm1.586,34.586,38-38,1.414,1.414-38,38Zm9.014,1.987,27-26,1.386,1.44-27,26Zm10,0L46.727,40.53l1.388,1.44L30.74,58.72Zm12.4,1.427-1.414-1.414,7-7,1.414,1.414Z"/></svg>