<svg xmlns:dc="http://purl.org/dc/elements/1.1/" xmlns:cc="http://creativecommons.org/ns#" xmlns:rdf="http://www.w3.org/1999/02/22-rdf-syntax-ns#" xmlns:svg="http://www.w3.org/2000/svg" xmlns="http://www.w3.org/2000/svg" xmlns:sodipodi="http://sodipodi.sourceforge.net/DTD/sodipodi-0.dtd" xmlns:inkscape="http://www.inkscape.org/namespaces/inkscape" version="1.1" x="0px" y="0px" viewBox="0 0 100 125"><g transform="translate(0,-952.36218)"><path d="m 50.093748,957.36227 c 11.16514,0 18.71642,1.8545 23.875,5.0312 l -1.78125,8.0626 -6.3125,0.9062 c -0.36319,0.047 -0.68964,0.3111 -0.8125,0.6562 l -1,3 c -0.17193,0.4991 0.1258,1.1096 0.62491,1.2815 0.49912,0.1718 1.10959,-0.1261 1.28134,-0.6252 l 0.8125,-2.4375 6.375,-0.9062 c 0.38556,-0.062 0.71981,-0.3706 0.8125,-0.75 l 1.78125,-8 c 1.35356,1.0287 2.51182,2.1682 3.5,3.4062 4.74541,5.9453 5.75,14.4417 5.75,24.375 l 0,32.96883 -3.25,-0.8126 -1.8125,-4.5312 c -0.10616,-0.2775 -0.34244,-0.502 -0.625,-0.5938 l -5.59375,-1.875 -2.8125,-5.625 c -0.17628,-0.3672 -0.59468,-0.6025 -1,-0.5624 -0.65158,0.065 -1.09133,0.8919 -0.78125,1.4687 l 3,6 c 0.11381,0.2306 0.3201,0.414 0.5625,0.5 l 5.5625,1.8437 1.8125,4.5626 c 0.11041,0.3026 0.3758,0.5438 0.6875,0.625 l 4,1 c 0.0816,0.021 0.1658,0.031 0.25,0.031 l 0,5.8125 c -7.3268,-2.2123 -18.39007,-2.8125 -34.90625,-2.8125 -16.62085,0 -27.743356,0.5935 -35.093746,2.8125 l 0,-21.625 c 1.10357,2.281 2.32056,4.5084 3.375,6.8125 3.33333,0 6.66667,0 10,0 l 2.71875,6.375 c 0.20452,0.4827 0.829776,0.7358 1.312466,0.5313 0.4827,-0.2045 0.7358,-0.8298 0.53128,-1.3125 -1.11351,-2.5224 -2.123906,-5.0912 -3.281246,-7.5938 -3.34375,0 -6.6875,0 -10.03125,0 l -4.625,-9.2812 0,-14.53133 c 0,-10.0355 1.04514,-18.5927 5.8125,-24.5625 4.76736,-5.9698 13.391606,-9.625 29.281246,-9.625 z m -4.28125,15 c -0.60193,0.1239 -0.96889,0.8912 -0.6875,1.4375 l 1.875,3.75 0,8.8125 -8.71875,0 -3.8125,-1.9062 c -0.90358,-0.2994 -1.15376,0.3351 -1.46875,0.906 l 0,8 c 0.006,0.6834 0.86502,1.1953 1.46875,0.875 l 3.71875,-1.875 8.8125,0 0,20.78123 -1.875,3.75 c -0.29182,0.5995 0.20856,1.4214 0.875,1.4376 l 8,0.031 c 0.69381,0.016 1.23168,-0.8557 0.90625,-1.4688 l -1.90625,-3.7812 0,-20.75003 8.8125,0 3.75,1.875 c 0.59935,0.2917 1.42135,-0.2086 1.4375,-0.875 l 0,-8 c 0.005,-0.6768 -0.82884,-1.2022 -1.4375,-0.9062 l -3.8125,1.9062 -8.75,0 0,-8.75 1.90625,-3.8125 c 0.29604,-0.6087 -0.22941,-1.4422 -0.90625,-1.4375 -2.72022,0 -5.48404,0 -8.1875,0 z m 1.8125,2 4.78125,0 -1.28125,2.5312 c -0.0791,0.143 -0.12246,0.3055 -0.125,0.4688 l 0,9 -2,0 0,-9.0312 c 0.002,-0.1504 -0.0301,-0.3013 -0.0937,-0.4376 z m -12.625,12.5938 2.5625,1.2812 c 0.1337,0.074 0.28467,0.1175 0.4375,0.125 l 24,0 c 0.16332,0 0.32585,-0.046 0.46875,-0.125 l 2.53125,-1.2812 0,4.7812 -2.5625,-1.2812 c -0.1363,-0.064 -0.2871,-0.096 -0.4375,-0.094 l -24,0 c -0.16075,-0.01 -0.32309,0.025 -0.46875,0.094 l -2.53125,1.2812 z m 14,5.4062 2,0 0,21.00003 c 0.007,0.1528 0.0506,0.3038 0.125,0.4375 l 1.28125,2.5625 -4.78125,-0.031 1.28125,-2.5313 c 0.0683,-0.1456 0.10086,-0.3081 0.0937,-0.4687 z m 1.09375,39.00003 c 17.9267,0 29.35254,0.7922 36.0625,3.3125 3.35498,1.2602 5.50993,2.8849 6.875,5.0625 1.2251,1.9543 1.76205,4.5128 1.875,7.625 l -89.812496,0 c 0.11296,-3.1122 0.64773,-5.6709 1.875,-7.625 1.3675,-2.1774 3.53974,-3.8021 6.90625,-5.0625 6.73301,-2.5208 18.201006,-3.3125 36.218746,-3.3125 z" style="text-indent:0;text-transform:none;direction:ltr;block-progression:tb;baseline-shift:baseline;color:#000000;enable-background:accumulate;" fill="#000000" fill-opacity="1" stroke="none" marker="none" visibility="visible" display="inline" overflow="visible"/></g><text x="0" y="115" fill="#000000" font-size="5px" font-weight="bold" font-family="'Helvetica Neue', Helvetica, Arial-Unicode, Arial, Sans-serif">Created by zidney</text><text x="0" y="120" fill="#000000" font-size="5px" font-weight="bold" font-family="'Helvetica Neue', Helvetica, Arial-Unicode, Arial, Sans-serif">from the Noun Project</text></svg>