<svg xmlns="http://www.w3.org/2000/svg" xmlns:xlink="http://www.w3.org/1999/xlink" version="1.1" x="0px" y="0px" viewBox="0 0 100 125" style="enable-background:new 0 0 100 100;" xml:space="preserve"><path d="M26,13.6v12.7H13.2V13.6H26 M27.1,11.6h-15c-0.5,0-0.9,0.4-0.9,0.9v14.9c0,0.5,0.4,0.9,0.9,0.9l0,0H27  c0.5,0,0.9-0.4,0.9-0.9l0,0V12.5C27.9,12,27.5,11.6,27.1,11.6L27.1,11.6z"/><path d="M46.2,13.6v12.7H33.5V13.6H46.2 M47.3,11.6H32.4c-0.5,0-0.9,0.4-0.9,0.9v14.9c0,0.5,0.4,0.9,0.9,0.9h14.9  c0.5,0,0.9-0.4,0.9-0.9V12.5C48.2,12,47.8,11.6,47.3,11.6z"/><path d="M66.5,13.6v12.7H53.8V13.6H66.5 M67.6,11.6H52.7c-0.5,0-0.9,0.4-0.9,0.9v14.9c0,0.5,0.4,0.9,0.9,0.9h14.9  c0.5,0,0.9-0.4,0.9-0.9V12.5C68.5,12,68.1,11.6,67.6,11.6z"/><path d="M86.8,13.6v12.7H74.1V13.6H86.8 M87.9,11.6H73c-0.5,0-0.9,0.4-0.9,0.9c0,0,0,0,0,0v14.9c0,0.5,0.4,0.9,0.9,0.9h14.9  c0.5,0,0.9-0.4,0.9-0.9V12.5C88.8,12,88.4,11.6,87.9,11.6z"/><path d="M26,33.6v12.8H13.2V33.6H26 M27.1,31.6h-15c-0.5,0-0.9,0.4-0.9,0.9v14.9c0,0.5,0.4,0.9,0.9,0.9H27c0.5,0,0.9-0.4,0.9-0.9  V32.5C27.9,32,27.5,31.6,27.1,31.6L27.1,31.6z"/><path d="M46.2,33.6v12.8H33.5V33.6H46.2 M47.3,31.6H32.4c-0.5,0-0.9,0.4-0.9,0.9v14.9c0,0.5,0.4,0.9,0.9,0.9h14.9  c0.5,0,0.9-0.4,0.9-0.9V32.5C48.2,32,47.8,31.6,47.3,31.6z"/><path d="M66.5,33.6v12.8H53.8V33.6H66.5 M67.6,31.6H52.7c-0.5,0-0.9,0.4-0.9,0.9v14.9c0,0.5,0.4,0.9,0.9,0.9h14.9  c0.5,0,0.9-0.4,0.9-0.9V32.5C68.5,32,68.1,31.6,67.6,31.6z"/><path d="M86.8,33.6v12.8H74.1V33.6H86.8 M87.9,31.6H73c-0.5,0-0.9,0.4-0.9,0.9v0v14.9c0,0.5,0.4,0.9,0.9,0.9h14.9  c0.5,0,0.9-0.4,0.9-0.9V32.5C88.8,32,88.4,31.6,87.9,31.6z"/><path d="M26,53.6v12.7H13.2V53.6H26 M27.1,51.6h-15c-0.5,0-0.9,0.4-0.9,0.9v14.9c0,0.5,0.4,0.9,0.9,0.9H27c0.5,0,0.9-0.4,0.9-0.9  V52.5C27.9,52,27.5,51.6,27.1,51.6L27.1,51.6z"/><path d="M46.2,53.6v12.7H33.5V53.6H46.2 M47.3,51.6H32.4c-0.5,0-0.9,0.4-0.9,0.9v14.9c0,0.5,0.4,0.9,0.9,0.9h14.9  c0.5,0,0.9-0.4,0.9-0.9V52.5C48.2,52,47.8,51.6,47.3,51.6z"/><path d="M66.5,53.6v12.7H53.8V53.6H66.5 M67.6,51.6H52.7c-0.5,0-0.9,0.4-0.9,0.9v14.9c0,0.5,0.4,0.9,0.9,0.9h14.9  c0.5,0,0.9-0.4,0.9-0.9V52.5C68.5,52,68.1,51.6,67.6,51.6z"/><path d="M86.8,53.6v12.7H74.1V53.6H86.8 M87.9,51.6H73c-0.5,0-0.9,0.4-0.9,0.9v0v14.9c0,0.5,0.4,0.9,0.9,0.9h14.9  c0.5,0,0.9-0.4,0.9-0.9V52.5C88.8,52,88.4,51.6,87.9,51.6z"/><path d="M26,73.6v12.8H13.2V73.6H26 M27.1,71.6h-15c-0.5,0-0.9,0.4-0.9,0.9v14.9c0,0.5,0.4,0.9,0.9,0.9H27c0.5,0,0.9-0.4,0.9-0.9  V72.5C27.9,72,27.5,71.6,27.1,71.6L27.1,71.6z"/><path d="M46.2,73.6v12.8H33.5V73.6H46.2 M47.3,71.6H32.4c-0.5,0-0.9,0.4-0.9,0.9v14.9c0,0.5,0.4,0.9,0.9,0.9h14.9  c0.5,0,0.9-0.4,0.9-0.9V72.5C48.2,72,47.8,71.6,47.3,71.6L47.3,71.6z"/><path d="M66.5,73.6v12.8H53.8V73.6H66.5 M67.6,71.6H52.7c-0.5,0-0.9,0.4-0.9,0.9l0,0v14.9c0,0.5,0.4,0.9,0.9,0.9h14.9  c0.5,0,0.9-0.4,0.9-0.9V72.5C68.5,72,68.1,71.6,67.6,71.6z"/><path d="M86.8,73.6v12.8H74.1V73.6H86.8 M87.9,71.6H73c-0.5,0-0.9,0.4-0.9,0.9v0v14.9c0,0.5,0.4,0.9,0.9,0.9h14.9  c0.5,0,0.9-0.4,0.9-0.9V72.5C88.8,72,88.4,71.6,87.9,71.6z"/><path d="M90,96.5H10c-3.6,0-6.5-3-6.5-6.6c0,0,0,0,0,0V10.1c0-3.6,2.9-6.6,6.5-6.6c0,0,0,0,0,0h80c3.6,0,6.5,3,6.5,6.6v79.8  C96.5,93.5,93.6,96.5,90,96.5z M10,6.5c-1.9,0-3.5,1.6-3.5,3.6c0,0,0,0,0,0v79.8c0,2,1.5,3.6,3.5,3.6c0,0,0,0,0,0h80  c1.9,0,3.5-1.7,3.5-3.6V10.1c0-1.9-1.5-3.6-3.5-3.6c0,0,0,0,0,0H10z"/></svg>