<svg xmlns="http://www.w3.org/2000/svg" viewBox="0 0 256 320" x="0px" y="0px"><title>Artboard 9</title><g data-name="Layer 2"><path d="M198.74,90.79c.82-1.11,3.12-5-2.28-7.44C189.55,81.42,188.07,95.66,198.74,90.79Zm-2.5-3.66,0,0-.12-.11Zm-.84,1.59-.07,0Z"/><path d="M228.15,170.72c-8.38-2.17-33.28-.07-49.55-.24-6.24-12.51-22.4-7.33-33.31-.89-4.71-30.73-8-84.81,8.71-89.59,14-4,12.61,25.43,21.15,36,14.57,19.35,34.59.28,36.77-17.92,11-109.23-160-90-107.1,71.25-5.4-4.42-14.55-3-20.89,2.8-102,4.25-82.43,11.26-3.17,4.62-6.9,31,103.59,25.76,98.51-2.8C178.84,172.16,231.35,178.68,228.15,170.72Zm-54.78,6.68-1.27-1.49c-1-1.15-2-2.31-2.95-3.45s-1.93-2.22-2.89-3.34c-.22-.25-.45-.49-.67-.75C171.45,168.46,175.84,170.91,173.37,177.4Zm-18-7.27,5.92,6.24c1.2,1.27,2.41,2.52,3.62,3.79.63.64,1.25,1.29,1.87,1.94a8,8,0,0,0,1.23,1.13,68.78,68.78,0,0,1-9.63,4.73c-.16-.17-.34-.34-.5-.5-.57-.55-1.14-1.1-1.7-1.66l-3.4-3.32-1.91-1.85c3.06-2,3.39-4.59-1.09-7.69A21,21,0,0,1,155.37,170.13Zm-5.44,11.05c1.12,1.13,2.27,2.24,3.39,3.36.89.89,1.78,1.78,2.66,2.68l1.21,1.21a81,81,0,0,1-15.79,4.17s0,0,0-.07a9.74,9.74,0,0,0-1.81-2.84c-.75-.94-1.51-1.86-2.26-2.79-.57-.7-1.14-1.41-1.72-2.1C141.45,184.11,146.72,182.89,149.93,181.18Zm-7.46-9.75c-1.08.61-3,4.39.14,4.8,5.31.63,6.75,1.38,5.76,2.13a.66.66,0,0,0-.41,0,1,1,0,0,0-.39.38C142,181,116.63,183,110.4,181a2.75,2.75,0,0,0,2.41-3.43q-2.11-6.88-3.86-13.88a278.24,278.24,0,0,0,31.26-5C140.64,162.14,141.34,166.05,142.47,171.43Zm64.88-77c-11.86,45.64-32.89,20.76-39.07-10,9.82-7.46,21.41-17.13,32.52-26A54.39,54.39,0,0,1,207.35,94.45ZM165.18,35.87c12.15,1.51,25.92,8.62,33.39,19.2C188.22,63.71,178,71.88,166.5,81.79c-2.44-2.39-3.08-4.29-9.05-5.58-3.29-11.79-7.39-25.6-14-38.58A51.13,51.13,0,0,1,165.18,35.87ZM128,45.12a55.41,55.41,0,0,1,12.86-6.63c4.43,11.27,9.6,23.88,12.66,38A14.66,14.66,0,0,0,145,82.74c-10-6-22.89-11.93-34.86-18.06A60.78,60.78,0,0,1,128,45.12ZM105,76.37a60,60,0,0,1,3.77-9.09c11.12,5.9,22,12.23,34.8,18.23-2.41,5.93-3.12,13-4.12,21.21-11.29-1-24.86-2.93-38.32-4.5A89.19,89.19,0,0,1,105,76.37Zm-2.53,50.57c-.74-7.16-1.33-14.5-1.36-21.82,11.94,2.38,23.84,3.87,38,5.65q-.83,9.27-.83,18.57c-9.83,1.66-22.77,4-34.7,6.3C103.1,132.74,102.73,129.85,102.43,126.94Zm1.5,11.69C115,137,125.19,135.05,138.22,133a216.18,216.18,0,0,0,1.51,22,272.83,272.83,0,0,1-31.52,5.67Q105.6,149.74,103.93,138.63Zm1.42,37.75a3,3,0,0,0-.1,2.2c-1.79,3.79,4.4,5.92,12.87,6.61,1,1.6,1.95,3.18,2.94,4.76l1.77,2.84.57.9a97.31,97.31,0,0,1-13.17-1.34c-.62-1.29-1.29-2.57-1.9-3.85l-3.2-6.69c-1.06-2.24-2.15-4.46-3.24-6.68-.69-1.42-1.3-3-2.09-4.38A7.54,7.54,0,0,1,105.35,176.38Zm-6.79-5.85a48.35,48.35,0,0,0,2.38,5.16c1,2.17,2,4.34,3,6.5s2.05,4.32,3.08,6.47c.53,1.11,1,2.26,1.54,3.4q-2.88-.54-5.72-1.25c-.58-.92-1.15-1.84-1.71-2.77-1.2-2-2.36-4-3.45-6.13s-2.07-4-3-6.12c-.67-1.45-1.23-3-1.9-4.46A13.15,13.15,0,0,1,98.56,170.53Zm-6.8,1.22c.52,1.44,1.21,2.85,1.81,4.22.93,2.15,2,4.27,3,6.35s2.13,4,3.28,6c.4.69.83,1.36,1.24,2-2.81-.76-5.59-1.65-8.3-2.65-.18-.33-.35-.66-.53-1-.78-1.42-1.61-2.82-2.49-4.17a70.66,70.66,0,0,0-4.26-5.86A14.63,14.63,0,0,1,91.76,171.75Zm-6.68,5.68c1.33,1.85,2.61,3.73,3.79,5.65.8,1.31,1.59,2.62,2.33,3.95a.3.3,0,0,0,0,.08c-1.77-.69-3.5-1.43-5.21-2.22A6,6,0,0,1,85.08,177.43Zm39.73,16.3,0,0c-.31-.5-.63-1-1-1.5L122,189.39c-.88-1.37-1.77-2.75-2.67-4.11a93.8,93.8,0,0,0,14.93-.34c.67.9,1.37,1.77,2.05,2.64l2.16,2.75a11.29,11.29,0,0,0,2.25,2.38A92.85,92.85,0,0,1,124.81,193.73ZM169,182.65a5.94,5.94,0,0,0-1.14-1.41L166,179.31l-3.76-3.87-5.61-5.71a31.94,31.94,0,0,1,7.56-1.34c.34.42.67.85,1,1.26l2.91,3.5c.94,1.13,1.9,2.25,2.85,3.38l1.51,1.78.34.41a23.41,23.41,0,0,1-1.26,2.28C170.7,181.57,169.85,182.12,169,182.65Z"/></g></svg>